<?xml version="1.0" encoding="utf-8"?>
<!-- Generator: Adobe Illustrator 18.1.1, SVG Export Plug-In . SVG Version: 6.00 Build 0)  -->
<svg version="1.1" id="Layer_1" xmlns="http://www.w3.org/2000/svg" xmlns:xlink="http://www.w3.org/1999/xlink" x="0px" y="0px"
	 viewBox="0 250 1000 500" enable-background="new 0 250 1000 500" xml:space="preserve">
<rect x="0.6" y="249" fill="#FFFFFF" width="999.4" height="500"/>
<g>
	<g>
		<path d="M394,571.1c3.4,1,5.2,2.8,5.2,5.4v11.8c0,4.7-2.4,7-7.1,7h-12.6v-47h10.7c5.6,0,8.4,2.8,8.4,8.5v9c0,2.7-1.5,4.4-4.5,5
			V571.1z M385.7,568.1h2.9c2.4,0,3.6-1.1,3.6-3.4v-7.3c0-2.3-0.9-3.4-2.8-3.4h-3.7V568.1z M385.7,589.6h4.7c1.7,0,2.5-0.7,2.5-2
			v-10.4c0-2.2-1.2-3.3-3.7-3.3h-3.5V589.6z"/>
		<path d="M413.5,595.3h-6.3v-39c0-5.4,2.5-8.1,7.5-8.1h4.7c5,0,7.5,2.7,7.5,8.1v39h-6.3V578h-7.2V595.3z M420.7,572.3v-15.7
			c0-1.8-0.9-2.8-2.8-2.8h-1.7c-1.8,0-2.8,0.9-2.8,2.8v15.7H420.7z"/>
		<path d="M435.7,548.2h12.3c4.8,0,7.2,2.7,7.2,8.1v11.6c0,4.1-1.2,6.7-3.7,7.8l4.4,19.6h-6l-4.1-19H442v19h-6.3V548.2z M442,570.9
			h4.1c1.9,0,2.8-1.1,2.8-3.4v-10.2c0-2.3-0.9-3.4-2.8-3.4H442V570.9z"/>
		<path d="M476.7,571v-22.7h6.3v47h-6.3v-9.4l-6.7-21.4v30.8h-6.3v-47h6.3L476.7,571z"/>
		<path d="M506,595.3v-21.4h-7.7v21.4H492v-47h6.3v20h7.7v-20h6.3v47H506z"/>
		<path d="M528.6,595.3c-5.1,0-7.6-2.7-7.6-8v-31c0-5.4,2.5-8.1,7.5-8.1h6c5,0,7.5,2.7,7.5,8.1v31c0,5.3-2.5,8-7.6,8H528.6z
			 M530.1,589.6h3.2c1.7,0,2.5-0.9,2.5-2.8v-30.1c0-1.8-0.9-2.8-2.8-2.8h-2.9c-1.8,0-2.8,0.9-2.8,2.8v30.1
			C527.3,588.7,528.3,589.6,530.1,589.6z"/>
		<path d="M571.3,548.2v38.1c0,5.9-2.5,8.9-7.6,8.9h-5.3c-5,0-7.5-3-7.5-9v-38.1h6.3v38.3c0,2.1,0.9,3.1,2.8,3.1h2.6
			c1.7,0,2.6-1,2.6-3.1v-38.3H571.3z"/>
		<path d="M592.4,560.9v-4.1c0-1.9-0.9-2.8-2.8-2.8h-1c-1.8,0-2.7,0.9-2.7,2.8v7.8c0,0.9,0.2,1.5,0.5,1.8c0.3,0.3,0.9,0.7,1.7,1.2
			l6,3.2c1.3,0.7,2.2,1.3,2.8,1.7c0.5,0.4,1,0.9,1.3,1.5c0.3,0.6,0.5,1.7,0.5,3.4v10c0,5.3-2.5,7.9-7.6,7.9h-3.9
			c-5,0-7.5-2.9-7.5-8.6v-2.4h6.3v2.6c0,1.8,0.9,2.8,2.8,2.8h1.1c1.7,0,2.5-0.9,2.5-2.8v-8c0-0.9-0.2-1.5-0.5-1.8
			c-0.4-0.3-0.9-0.7-1.7-1.2l-6-3.3c-1.3-0.7-2.3-1.3-2.9-1.8c-0.6-0.5-1-1.1-1.3-1.9c-0.3-0.8-0.4-1.8-0.4-3v-9.6
			c0-5.4,2.5-8.1,7.5-8.1h3.9c5,0,7.5,2.7,7.5,8.1v4.6H592.4z"/>
		<path d="M607,595.3v-47h15.6v5.7h-9.3v14.3h8.3v5.7h-8.3v15.7h9.3v5.7H607z"/>
	</g>
	<g>
		<path d="M499.8,527c-34.3,0-62.2-27.9-62.2-62.2c0-34.3,27.9-62.2,62.2-62.2s62.2,27.9,62.2,62.2C562,499.1,534.1,527,499.8,527z
			 M499.8,407.8c-31.4,0-57,25.6-57,57c0,31.4,25.6,57,57,57c31.4,0,57-25.6,57-57C556.8,433.4,531.3,407.8,499.8,407.8z"/>
		<path d="M552.8,493.2H447.3c0,0,16.1,31,52.6,30.8C536.3,523.7,552.8,493.2,552.8,493.2z"/>
		<path d="M523.4,470.7c0-2.7,0-5,0-7.2c0-4.6-0.1-6.8,0-11.4c0.1-1.7,0.1-2.9,0.1-4.2c-1.4-0.2-2.8-0.7-3.8-1.4
			c1.4-3,2.8-8.3,5-8.5c3.7,0.3,3.6,4,6,8.1c-0.9,1-2,1.4-3.3,1.6c0,8.7,0,16,0.1,24.7c0.7,0.5,6.4,4,7.9,4.9
			c-0.2,5.2-0.1,12.7-0.1,16.1c-1.3,0-2.5,0-3.9,0c0-3.7-0.1-8.7,0.1-13.8c-1.2-0.8-18.8-10.3-19.2-10.6c0.1-3.1,0.1-8.4-0.1-12.2
			c-0.8-0.7-0.6-0.7-1.3-1.3c-3.3-2.7-6.9-5-10.2-7.8c-1.3-1.1-0.9-1.3-2.6,0c-3.5,2.6-11,8.4-11.6,8.9c-0.1,3.1-0.1,9.5,0,12.6
			c-1.5,0.8-17.9,9.6-19.1,10.5c0.1,5.1,0,9.6,0,13.7c-1.3,0-2.5,0-3.9,0c0-5.2,0-10.8,0.1-16c0.9-0.6,18.3-10.1,19-10.5
			c-0.1-3-0.1-8.1,0-12.3c0.6-0.5,10.6-8.2,15.3-11.7c2.1-1.6,1.6-1.2,3-0.1c4.6,3.6,14.7,11.4,15.3,12c0.1,3.8,0.1,9.5,0.1,11.9
			c0.3,0.3,0.7,0.5,1.3,0.9C519.3,468.7,521.2,469.5,523.4,470.7z"/>
		<path d="M506.7,493.5c-1.3,0-2.5,0-3.9,0c0-3.3,0-6.6,0-10c-2.1,0-4.1,0-6.3,0c0,3.3,0,6.6,0,10c-1.5,0-2.7,0-4,0
			c0-4.7,0-9.3,0-14.1c4.6,0,9.3,0,14.1,0C506.7,484,506.7,488.7,506.7,493.5z"/>
		<path d="M519.8,424.6c3.6-1.9,6.9-2.1,10.6,0.1c-1.3,2.7-2.5,5.5-4.1,8.1c-0.4,0.6-2.1,1.1-2.8-0.4
			C522.3,429.8,521.1,427.2,519.8,424.6z"/>
		<path d="M514.2,441c-2-3.5-2.1-6.9,0-10.6c2.6,1.2,5.2,2.4,7.8,3.7c1.3,0.6,1.1,2.6-0.2,3.3C519.2,438.6,516.7,439.8,514.2,441z"
			/>
		<path d="M536.5,430.4c2,3.7,2,7.1,0,10.6c-2.4-1.1-4.9-2.3-7.3-3.4c-1.1-0.6-1.5-2.9-0.4-3.4C531.3,432.8,533.9,431.6,536.5,430.4
			z"/>
		<path d="M504.1,468.3h-9.5v-12l5.1-4.6l4.5,4.6V468.3z M497.4,465.5h4v-8l-1.8-1.9l-2.1,1.9V465.5z"/>
		<g>
			<rect x="458.2" y="450.5" transform="matrix(0.7071 -0.7071 0.7071 0.7071 -185.2403 458.136)" width="4.4" height="4.4"/>
			<rect x="468.6" y="439.7" transform="matrix(0.7071 -0.7071 0.7071 0.7071 -174.5941 462.3578)" width="4.4" height="4.4"/>
			<rect x="479.6" y="429.4" transform="matrix(0.7071 -0.7071 0.7071 0.7071 -164.0752 467.1006)" width="4.4" height="4.4"/>
		</g>
	</g>
</g>
</svg>
