<?xml version="1.0" encoding="utf-8"?>
<!-- Generator: Adobe Illustrator 18.1.1, SVG Export Plug-In . SVG Version: 6.00 Build 0)  -->
<svg version="1.1" id="Layer_1" xmlns="http://www.w3.org/2000/svg" xmlns:xlink="http://www.w3.org/1999/xlink" x="0px" y="0px"
	 viewBox="0 250 1000 500" enable-background="new 0 250 1000 500" xml:space="preserve">
<rect y="250" fill="#3C25AD" width="1000" height="500"/>
<g>
	<g>
		<g>
			<g>
				<path d="M446,510c0.8-28.4-34.9-40-41.6-40.4c4.5-4,6.3-7.4,9.3-13.1c8-15.1,5.5-40-19.4-50.3c-15.4-6.4-38-6.7-67.1,4.4
					c-9.7,3.7-5.4,9.1-2.2,18.4c2.3,6.7,1.4,6.5,15.5,1.7c5.6-1.9,4.2-1,4.5,15.5c0,5.6,0.1,88.1,1,115c0,0-9.9-3.2-16.5-1.8
					c-11.2,2.5-11.5,5.8-10.5,14.9c1.4,14.3,3.5,13.7,7.9,13.1c5.3-0.8,10.2-1.5,18.9-3.4c20-4.1,36.4-6.7,61.7-20.9
					C437.1,546.5,443.9,534.5,446,510z M363.9,472.1c0-16.1-0.2-36.2,0-45.8c0-2.4,24-10.7,30.8,0.6s0.4,24.5-5,31.6
					C384.2,465.6,369.6,470.8,363.9,472.1z M399.7,541c-20.9,12.9-30,13.4-34.5,15.2c0-18.2-0.9-54.3-1-61.9
					c3.5-2,45.9-12.1,53.6,2.4C425.6,511,417.5,530,399.7,541z"/>
			</g>
			<path d="M459,428.8c5.5,0.2,20.8,6,15.4,16.2c-5.2,10-18.7,9.5-22.6,3C446.5,439,453.1,432.5,459,428.8z"/>
			<path d="M679.8,506c-3.3-3.1-12.4,0.4-15.3,2.6c-3,2.2-13.3,6.8-23.2,9.9c-9.5,2.9-34.5,8.1-57.1,10.6c0.3-1.7,2.2-17.3,2.2-17.3
				c3.6-44.1,12.9-66.1,4.5-66.3c-8.9-0.2-8.2,3.7-9.8,12.4c-3.2-4.9-4-6.8-13.7-11.2c-20.9,3.5-22.6,13.1-26.9,29.9
				c-1.5,5.8-4.2,20.6-6.2,20.2c0.2-4.5,0.8-20.6-0.9-26.4c-2-6.6-0.8-4.6-14.9-3.9c-14.5,0.8-21.6,0.6-23.5,5.9
				c0.6-13.4-4.4-10.9-6-19.4c-7.8,1.5-7.4,2.5-8,9.2c-0.9,9-0.8,24.3-4.8,32.4c-3.4,6.8-11.3,18.6-11.3,16.1c0-1,0.5-23,0.9-29
				c1-20.8,1.2-20.8-5.8-24.8c-8.9,2.9-8.4,3.6-9.8,33.1c-1,20.6-1.9,36.9-2.4,44.3c-0.2,4,0.5,3.3,8.2,2.2c8.4-1.1,8.2-0.6,15-8
				c7.9-8.6,6.4-8,11.1-15.8c-0.9,18.2-1.9,18.2,6.3,17.1c7.5-1.1,12-0.2,13.1-8c1.6-14.1-3.5-45.3,14-48.1c8.2-1.3,5,19.9,5,32.9
				c0,14.2-2.5,17.5,2.2,17.2c6.7-0.4,10.2-0.7,11.8-0.8c2.9-0.2,4.4,0,8.7-8.8c1.4,3,4.6,6.1,10.8,6.3c12.3,0.5,15-2.7,18.4-7.1
				c-0.4,4.8-2,12.8-2.9,17c-5.7,0.8-10.5,1.5-14.2,2.2c-17.2,3.4-89.7,4.5-111.2,18.8c-9,6-9,12.5-8.3,16.3
				c5.5,33,94.2,19,111.3,14.4c23.5-6.4,33.2-23.4,38-40.2c9.2-0.8,33.7-4.5,39.8-5.8c24.4-4.6,28.5-6.4,37.7-10.2
				c3.8-1.5,7.4-4.4,11.2-6.5C678,517,686.2,512,679.8,506z M574.5,481.3c-2.8,11.8-6.5,23.8-20.3,22.9c-5.3-0.4-5.5-9.2-2.4-19.9
				c3.8-13.1,7.2-23.6,16.9-21.4C575.5,464.5,577.4,469,574.5,481.3z M559,559.6c-13.8,14.5-67.6,16.2-84.5,14.7
				c-9.5-0.9-21.1-1.5-21.2-6.5c-0.1-4.6,15.1-7.5,32.8-11.1c12.1-2.4,66.7-11,83-12.9C567.2,548.5,562.2,556.3,559,559.6z"/>
		</g>
		<g>
			<path d="M647.5,493.4c-3.5-4.6-3.7-4.4-7.8-0.6c-2.5,2.4-4.5,4.3-10.9,7.1c-17.7,7.7-20.9-7.4-19.5-15.9
				c8.7-0.6,20.7-2.1,28.5-5.2c7-2.8,15.5-8.1,15.2-22c-0.2-10.3-23.8-12.3-32-10.3c-11.3,6.6-24.7,15.7-21.8,47.8
				c1.4,15.5,16.9,18.9,24.2,18.1c10.2-1.1,29.2-8.7,31.2-21C651.7,491.2,649.6,496,647.5,493.4z M639.1,459
				c3.2,6.4-17.4,14.1-26.8,14C613.4,467.1,635,450.7,639.1,459z"/>
		</g>
	</g>
	<g>
		<g>
			<g>
				<path fill="#FFFFFF" d="M445.9,500.8c1.5-28.3-30.1-36.1-36.9-36.5c4.5-4,6.3-7.4,9.3-13.1c8-15.2,5.5-40.1-19.4-50.3
					c-15.4-6.4-34.8-1.4-64.4,8.2c-12.5,4.1-10.8,3.7-5.9,16.5c1.9,5,0.8,3.8,15-0.8c6.6-2.1,5.7-2.4,6,14c0,5.6,0.1,90,1,117
					c0,0-0.4,0.2-7.1,1.6c-22.1,4.8-20.9,3.2-20.1,10.5c1.5,14.3,1.5,13.8,3.6,13.7c5.4-0.1,16.2-2.5,23.7-4.3
					c19.9-4.8,36.4-6.9,59.3-21.4C438.9,537.6,444.5,526.8,445.9,500.8z M368.5,466.8c0-16-0.2-37.7,0-47.2c0-2.4,23.5-8.8,30.3,2.6
					c6.8,11.3,0.9,24-4.6,31.1C388.9,460.3,374.3,465.5,368.5,466.8z M402.4,535.7c-20.9,12.9-28.1,13.4-32.5,15.1
					c0-18.2-0.9-55.2-1-62.8c3.5-2.1,43.9-10.9,53.1,4.3C430.5,506.2,420.3,524.6,402.4,535.7z"/>
				<path d="M326.4,582.7c-2.6,0-2.8-1.4-4.1-14.7c0-0.5-0.1-0.8-0.1-1.2c-0.7-5.9,0.4-6.1,12.9-8.7c2.4-0.5,5-1,8.2-1.8
					c3.6-0.8,5.4-1.2,6.2-1.3c-0.6-21.9-0.9-76.8-0.9-103.4c0-7,0-11.6,0-12.8c0-2.1,0-3.8,0-5.4c0-5.5,0-8.6-0.9-8.6
					c-0.6,0-1.6,0.3-3,0.8l-0.6,0.2c-3.1,1-5.5,1.8-7.4,2.4c-3,1.1-4.5,1.6-5.6,1.6c-2,0-2.5-1.4-3.2-3.4l-0.2-0.5
					c-0.6-1.6-1.1-2.9-1.6-4.1c-1.8-4.3-2.7-6.8-1.8-8.7c1-2.1,4-3.1,10-5.1c21.5-7,36.5-11.1,49.1-11.1c6,0,11.3,0.9,16,2.9
					c13.5,5.6,19.4,15,21.9,21.8c3.5,9.7,2.8,20.9-2,30c-2.5,4.9-4.4,8.3-7.9,11.9c4.8,0.8,12.8,3.1,19.8,7.6
					c11,7.1,16.5,17.4,15.9,29.7c-0.6,12.2-2.2,22.2-7.8,31c-5.1,8.1-13.4,15.3-28.6,25c-19.7,12.5-35,15.9-51.1,19.5
					c-2.8,0.6-5.6,1.2-8.5,2c-11.7,2.8-19.8,4.2-24,4.4h-0.2C326.6,582.7,326.5,582.7,326.4,582.7z M326.2,580.5c0,0,0.2,0,0.5,0
					h0.2c4-0.1,12-1.5,23.5-4.3c2.9-0.7,5.8-1.4,8.5-2c16-3.6,31-7,50.4-19.2c29-18.3,34.1-29.1,35.5-54.2
					c0.6-11.6-4.4-21-14.9-27.8c-8.9-5.7-18.4-7.5-21-7.6l-2.6-0.1l2-1.7c4.4-3.9,6.1-7.3,9-12.8c4.5-8.6,5.1-19.1,1.9-28.3
					c-3.4-9.2-10.5-16.4-20.6-20.6c-4.5-1.8-9.5-2.8-15.2-2.8c-12.3,0-27.1,4-48.5,11c-5.3,1.7-8,2.7-8.6,4c-0.5,1.1,0.4,3.3,1.9,7
					c0.5,1.2,1,2.5,1.6,4.1l0.2,0.6c0.7,1.9,0.8,2,1.2,2c0.8,0,2.4-0.6,4.9-1.5c1.9-0.6,4.2-1.5,7.4-2.5l0.6-0.2
					c1.5-0.5,2.7-0.8,3.6-0.8c3,0,3,2.7,3,10.8c0,1.5,0,3.3,0,5.3c0,1.2,0,5.8,0,12.8c0.1,24.8,0.2,82.9,1,104.1v0.8l-0.8,0.2
					c-0.3,0.1-3,0.7-7.2,1.6c-3.2,0.7-5.9,1.2-8.2,1.8c-6,1.2-9.2,1.9-10.6,2.8c-0.9,0.6-0.9,1.1-0.6,3.6c0,0.4,0.1,0.8,0.1,1.2
					C325.1,574.2,325.6,579.8,326.2,580.5z M368.9,552.3v-1.6c0-13.7-0.5-37.9-0.8-52.4c-0.1-4.8-0.2-8.5-0.2-10.4v-0.6l0.5-0.3
					c2.4-1.3,16.1-4.6,29.2-4.6s21.6,3.1,25.4,9.2c4.1,6.9,4.2,15.3,0.1,23.8c-3.9,7.9-11,15.4-20.1,21
					c-16.8,10.4-24.9,12.8-29.6,14.2c-1.2,0.4-2.1,0.6-3,1L368.9,552.3z M370,488.6c0,2.1,0.1,5.4,0.2,9.7c0.3,14,0.8,37.1,0.8,50.9
					c0.5-0.2,1.1-0.3,1.7-0.5c4.7-1.4,12.6-3.8,29.1-14c8.8-5.5,15.6-12.6,19.3-20.2c2.6-5.5,4.9-13.7,0-21.8
					c-4.1-6.8-15-8.2-23.5-8.2C385.4,484.6,373.1,487.4,370,488.6z M367.5,468.1v-1.4c0-5.6,0-12.1,0-18.3c0-11.7-0.1-22.8,0-29
					c0.1-2.9,9.9-5,16.2-5c5.4,0,12.5,1.2,16,7c3.2,5.3,4,11.4,2.4,18c-1.5,6.5-5.1,11.8-7,14.4c-5.9,7.7-21.4,12.8-26.4,13.9
					L367.5,468.1z M369.6,419.8c-0.1,6.2-0.1,17.1,0,28.7c0,5.7,0,11.6,0,16.9c6.5-1.8,19-6.6,23.9-12.9c1.9-2.4,5.2-7.4,6.6-13.5
					c1.5-6.1,0.7-11.6-2.1-16.4c-3-4.9-9.4-6-14.2-6C376.8,416.7,370.6,418.9,369.6,419.8z"/>
			</g>
		</g>
		<g>
			<path fill="#FFFFFF" d="M466.3,428c5.5,0.2,11.8,5.5,7.5,16.2c-2.4,6-13.9,9.1-18.8-0.2C450.1,434.9,458.7,427.7,466.3,428z"/>
			<path d="M464.4,451c-4.3,0-8-2.4-10.2-6.4c-2-3.9-2.1-7.8-0.1-11.2c2.4-3.9,7.4-6.6,12.3-6.4c3.4,0.1,6.5,1.8,8.2,4.6
				c1.5,2.4,2.8,6.5,0.2,13.1C473.4,448.3,469,451,464.4,451z M465.9,429.1c-4,0-8,2.1-10,5.4c-1.1,1.9-2,5,0.1,9.1
				c2.5,4.6,6.2,5.2,8.3,5.2c3.8,0,7.4-2.1,8.5-5c1.8-4.5,1.8-8.3,0-11.1c-1.4-2.1-3.9-3.5-6.5-3.6
				C466.1,429.1,466,429.1,465.9,429.1z"/>
		</g>
		<g>
			<path fill="#FFFFFF" d="M675.8,504.1c-3.8-2.6-3.8-3.1-6.7-0.9c-3,2.2-13.3,6.8-23.2,9.8c-9.5,2.9-34.5,8.1-57.1,10.6
				c0.3-1.7,2.2-17.3,2.2-17.3c8-61.6,15-60.4,6.5-60.1c-12.8,0.4-10.5-0.6-11.9,6.7c-3.2-4.9-17.3-9.6-30.2-0.5
				c-5.7,4-7.5,9.4-9.2,15.3c-1.6,5.8-5.6,24-7.5,23.6c0.2-4.5,0.8-20.6-0.9-26.4c-2-6.6-5.7-12.9-19.8-12.2
				c-14.5,0.8-16.8,8.9-18.7,14.1c0.6-13.4,2.3-14.2-7.6-13.5c-1.9,0.1-6.7,0.2-7,3.2c-0.8,9-1.2,24.9-5.2,32.9
				c-3.4,6.8-10.3,18.1-10.4,15.6c0-1,0.5-23,0.9-29c1-20.8,3.7-20.4-6.9-19c-10,1.3-7.6,3.2-9.1,28.3c-1.2,20.6-1.9,36.8-2.4,44.3
				c-0.2,4,0.4,3,8.2,2.2c5.4-0.6,8-1.3,14-8.2c7.6-8.8,7-7.8,11.8-15.5c-0.9,18.2-1.9,18.8,6.3,17.6c10.1-1.6,8.2-0.2,9.5-16.3
				c1.2-14.1-0.9-37.5,16.7-40.4c8.2-1.3,6.5,18.9,6.5,31.9c0,14.2-2.5,18.9,2.2,18.6c6.7-0.4,9-0.6,10.7-0.7c2.9-0.2,4.4-5.1,7-9.5
				c2.5,4.6,7.4,7.5,14.2,7c12.3-1,14.8-5.1,18.2-9.5c-0.4,4.9-1.9,13.8-2.8,18c-5.7,0.8-10.5,1.5-14.2,2.2
				c-19.5,3.8-123.6,10.2-121.4,35.5c3,33.4,96.1,19.9,112.6,13.4c13-5.1,25.4-14.1,34.3-38.3c9.2-0.8,37.8-4.7,44-6.2
				c24.9-5.8,28.2-7.2,36.7-11.7c4.1-2.2,8.2-5,11.6-7.7C681.2,509.5,683,509.1,675.8,504.1z M578.7,478.9
				c-2.8,11.8-6,20.9-19.8,19.9c-5.3-0.3-5.5-9.1-2.4-19.9c3.8-13.2,6.7-20.7,16.4-18.5C579.7,462,581.5,466.5,578.7,478.9z
				 M561.8,554.2c-13.8,14.5-65.7,16.2-82.6,14.7c-9.5-0.9-21.1-1.5-21.2-6.5c-0.1-4.6,15.1-7.5,32.8-11
				c12.1-2.5,63.4-9.5,79.6-11.5C568.4,544.6,564.8,551,561.8,554.2z"/>
			<path d="M489.9,585.5L489.9,585.5c-41.5,0-51.4-12.3-52.2-22.6c-1.9-21.4,63.5-29.3,102.6-34c8.8-1,15.8-1.9,19.5-2.6
				c3.3-0.6,7.8-1.4,13.5-2.1c0.7-3.5,1.6-9,2.2-13.5c-2.8,3.4-6.7,6.2-16.7,7c-0.5,0.1-1.1,0.1-1.7,0.1c-5.4,0-9.8-2.1-12.6-6
				c-0.3,0.6-0.7,1.3-1,1.9c-1.8,3.5-3.2,6.4-6,6.6c-1.6,0.1-4,0.3-10.8,0.7c-0.2,0-0.3,0-0.5,0c-1.2,0-2-0.3-2.6-0.9
				c-1.2-1.4-1.1-3.8-0.8-8.2c0.2-2.8,0.5-6.2,0.5-10.6c0-1.9,0-3.8,0.1-5.9c0.2-9.4,0.4-21-2.8-24.2c-0.7-0.7-1.5-0.9-2.5-0.8
				c-14,2.2-14.8,19-15.4,32.3c-0.1,2.5-0.2,4.9-0.4,7c-0.2,2.4-0.4,4.5-0.5,6.2c-0.6,9.3-0.9,9.7-8.2,10.8
				c-0.5,0.1-1.1,0.2-1.8,0.2c-1.5,0.2-2.8,0.4-3.9,0.4c-0.9,0-2.1-0.1-3-1c-1.5-1.6-1.4-4.9-1-12.7c0-0.4,0-0.8,0-1.2
				c-2.2,3.6-3.1,4.6-7,9c-0.8,0.9-1.6,1.9-2.6,3.1c-6,7-9,8-14.6,8.6c-1.4,0.2-2.5,0.3-3.4,0.4c-1.5,0.2-2.5,0.3-3.3,0.3
				c-0.6,0-1.5-0.1-2.1-0.7c-0.7-0.8-0.7-2-0.6-3.4c0.2-3.1,0.5-7.7,0.8-13.6c0.4-8.3,1-18.7,1.7-30.8c0.3-5,0.5-9.1,0.6-12.4
				c0.5-13.4,0.5-15.8,9.5-16.9l1-0.1c1.9-0.2,3.2-0.4,4.3-0.4c1,0,2.1,0.1,2.9,1c1.2,1.3,1,3.7,0.6,9.3c-0.2,2.7-0.5,6.1-0.7,10.4
				c-0.2,4.9-0.6,20.9-0.8,26.8c2-2.8,5.8-9,8.2-14c3.2-6.6,4.1-18.8,4.8-27.7c0.1-1.8,0.2-3.4,0.4-4.8c0.3-3.7,5.1-4,7.4-4.2
				c0.2,0,0.4,0,0.5,0c1.6-0.1,3-0.2,4-0.2c1.5,0,3.1,0.2,4.1,1.2c1.2,1.3,1.2,3.4,1,7.4c2.4-4.3,6.9-8.6,17.2-9.1
				c0.8,0,1.5,0,2.2,0c13,0,16.7,6.5,18.7,13c1.5,4.8,1.3,15.7,1.1,22.5c1.3-4,3-10.8,4-14.6c0.5-2,1-3.8,1.2-4.9
				c1.7-6,3.6-11.7,9.5-15.9c4.9-3.5,10.5-5.3,16.3-5.3c6,0,11,2,13.8,4.4c0-0.1,0-0.4,0-0.5c0.7-4.7,1.6-4.7,8.6-4.9
				c1.1,0,2.4,0,4-0.1h0.6c0.5,0,0.8-0.1,1.2-0.1c1,0,2,0.1,2.7,0.9c1,1.2,0.5,3-0.8,9c-1.8,8-5.3,22.9-9,51.5l-0.1,1
				c0,0.5-0.2,1.3-0.2,2.1c-0.5,4-1.2,10.1-1.7,12.9c22.2-2.5,46.3-7.6,55.5-10.5c10-3,20.1-7.5,23-9.6c1.2-0.9,2.2-1.6,3.3-1.6
				s2,0.6,3.5,1.8c0.3,0.2,0.7,0.5,1.1,0.8c4,2.8,5.4,4.2,5.5,5.8c0,1.4-1.1,2.3-2.5,3.5c-0.2,0.2-0.5,0.4-0.8,0.6
				c-3.5,2.9-7.7,5.7-11.8,7.8c-8.5,4.5-11.8,6-37,11.8c-6.1,1.4-33.8,5.2-43.5,6.1c-9.5,25.5-22.9,33.7-34.7,38.4
				C542.9,580.6,515.1,585.5,489.9,585.5z M578.3,503.5l-0.3,3.6c-0.4,4.9-1.9,13.7-2.8,18.1L575,526l-0.8,0.1
				c-6,0.8-10.7,1.6-14.1,2.2c-3.8,0.8-10.8,1.6-19.8,2.6c-18.6,2.2-44,5.3-65,10.4c-24.4,5.9-36.5,13.1-35.7,21.3
				c0.6,7.2,6,12.6,15.8,16.1c8.5,3,20,4.5,34.4,4.5c24.9,0,52.4-4.8,61-8.1c11.5-4.5,24.4-12.5,33.7-37.7l0.2-0.6h0.7
				c8.9-0.8,37.6-4.7,43.8-6.1c24.8-5.8,28-7.2,36.4-11.7c4-2.1,8-4.8,11.5-7.5c0.3-0.2,0.5-0.5,0.8-0.6c0.8-0.6,1.8-1.4,1.7-1.7
				c0-0.5-0.8-1.5-4.5-4.1c-0.4-0.3-0.8-0.5-1.1-0.8c-1.2-0.8-1.9-1.3-2.3-1.3c-0.4,0-1,0.4-2,1.1c-3,2.3-13.3,6.9-23.6,10
				c-9.5,2.9-34.7,8.2-57.3,10.7l-1.4,0.1l0.2-1.4c0.2-1.2,1.2-9.6,1.8-14.1l0.3-2.2c0-0.3,0.1-0.6,0.2-0.9l0,0
				c3.7-28.6,7.2-43.6,9-51.7c0.8-3.8,1.5-6.7,1.2-7.2c0,0-0.2-0.1-1-0.1c-0.3,0-0.7,0-1.1,0.1h-0.6c-1.5,0.1-2.8,0.1-4,0.1
				c-3.1,0-5,0.1-5.7,0.5c-0.4,0.2-0.5,0.7-0.8,2.5c-0.1,0.8-0.2,1.6-0.5,2.7l-0.5,2.6l-1.5-2.2c-1.7-2.5-7-5.1-13.6-5.1
				c-3.7,0-9.3,0.9-15,5c-5.4,3.8-7.2,9.1-8.8,14.7c-0.3,1.2-0.8,2.9-1.2,4.9c-4.2,16.8-5.4,19.5-7.2,19.5l0,0c-0.1,0-0.2,0-0.3,0
				l-0.9-0.2v-2.1c0.2-5.4,0.7-19.6-0.9-24.9c-3.2-10.5-10.2-11.5-16.6-11.5c-0.7,0-1.3,0-2,0.1c-13.1,0.6-15.5,7.3-17.5,12.6
				l-2.6,7.1l0.3-6.8c0.1-1.9,0.2-3.6,0.3-5.1c0.2-3.7,0.4-6.1-0.3-6.9c-0.4-0.4-1.1-0.6-2.6-0.6c-1,0-2.2,0.1-3.9,0.2
				c-0.1,0-0.4,0-0.6,0c-2.7,0.2-5.2,0.6-5.4,2.2c-0.1,1.5-0.2,3.1-0.4,4.8c-0.6,9.1-1.5,21.5-5,28.5c-1.5,3-3.8,7.1-5.9,10.4
				c-3.9,6.2-4.6,6.2-5.2,6.2l0,0c-0.6,0-1.2-0.5-1.2-1.4c0-1,0.5-22.9,0.9-29c0.2-4.4,0.5-7.7,0.7-10.5c0.4-4.2,0.6-7,0-7.7
				c0,0-0.3-0.3-1.4-0.3c-1,0-2.3,0.2-4,0.4l-1,0.1c-7.1,1-7.1,1.5-7.6,14.9c-0.1,3.3-0.2,7.4-0.6,12.5c-0.8,12-1.2,22.4-1.7,30.7
				c-0.3,5.9-0.5,10.5-0.8,13.6c0,0.9,0,1.5,0,1.8c0,0,0.2,0,0.5,0c0.6,0,1.6-0.1,3-0.3c1-0.1,2.1-0.3,3.5-0.5
				c5-0.5,7.4-1.1,13.2-7.9c1-1.2,1.9-2.2,2.6-3c4.9-5.7,4.9-5.7,9-12.3l2.2-3.5l-0.2,4.1c-0.1,2-0.2,3.8-0.3,5.4
				c-0.4,6.3-0.5,10.2,0.4,11.1c0.1,0.2,0.5,0.4,1.5,0.4c0.9,0,2.1-0.2,3.5-0.4c0.6-0.1,1.2-0.2,1.8-0.2c3.3-0.5,4.6-0.7,5.3-1.5
				c0.7-1,0.9-3.2,1.1-7.2c0.1-1.7,0.2-3.8,0.5-6.3c0.2-2.1,0.3-4.4,0.4-6.9c0.6-14.2,1.4-31.8,17.2-34.4c1.7-0.2,3.2,0.2,4.3,1.4
				c3.8,3.9,3.7,15,3.5,25.8c0,2,0,4-0.1,5.9c0,4.5-0.2,8-0.5,10.8c-0.2,3.3-0.4,5.9,0.2,6.6c0,0,0.2,0.2,1,0.2c0.1,0,0.2,0,0.3,0
				c6.8-0.4,9.1-0.6,10.7-0.7c1.5-0.1,2.8-2.7,4.2-5.4c0.6-1.2,1.2-2.4,1.9-3.6l1-1.6l0.9,1.6c2.5,4.6,7.2,6.9,13.2,6.4
				c11.2-0.8,13.8-4.4,16.9-8.4c0.2-0.2,0.4-0.5,0.5-0.8L578.3,503.5z M491.8,570.5c-5,0-9.5-0.1-12.8-0.5c-0.8,0-1.5-0.1-2.2-0.2
				c-9.8-0.8-19.8-1.8-20-7.3c-0.1-5.1,11.1-7.6,31.1-11.7l2.5-0.5c12-2.5,62.9-9.5,79.7-11.5l1.8-0.2l-0.7,1.7
				c-2,4.6-5.5,11.1-8.8,14.6C551.7,566.4,517.7,570.5,491.8,570.5z M568.7,541.2c-18.4,2.2-66.1,8.9-77.7,11.2l-2.5,0.5
				c-13.9,2.8-29.5,6-29.5,9.5c0.1,3.6,10.5,4.6,18,5.2c0.8,0,1.5,0.1,2.2,0.2c3.2,0.3,7.7,0.5,12.5,0.5c20.5,0,58-3.1,69.2-14.8
				C563.6,550.7,566.7,545.5,568.7,541.2z M560.8,500c-0.6,0-1.2,0-2-0.1c-1.6-0.1-3-0.9-3.8-2.1c-3.2-4.6-0.8-14.9,0.5-19.1
				c3-10.6,5.7-19.6,14.2-19.6c1,0,2.2,0.1,3.4,0.4c3.2,0.7,5.2,2,6.5,4.1c2,3.1,2,7.9,0.2,15.6C577.1,490.5,573.8,500,560.8,500z
				 M569.7,461.1c-6.5,0-9,6.9-12.2,18.1c-2.3,8.1-2.7,14.6-0.8,17.2c0.5,0.8,1.3,1.2,2.2,1.2c0.6,0,1.2,0,1.8,0
				c11.5,0,14.4-8.3,16.9-19.2c1.7-7.1,1.7-11.5,0.1-14.1c-1-1.5-2.6-2.5-5.1-3.1C571.6,461.2,570.6,461.1,569.7,461.1z"/>
		</g>
		<g>
			<g>
				<path fill="#FFFFFF" d="M652.2,488c-3.5-4.5-3.7-4.4-7.8-0.6c-2.5,2.3-4.5,4.3-10.9,7.1c-17.7,7.7-20.9-6-19.5-14.5
					c8.7-0.6,23.8-3.3,30.3-8.6c6.4-5.2,10.8-14.2,5.2-22.9c-5.5-8.7-21.4-5.8-30.5,0.1c-7.6,4.9-18.2,11.4-16.1,43.5
					c1,14.9,15.5,17.6,22.7,16.1c10.2-2,21-7.1,25.1-12.2C654.5,491.5,654.2,490.6,652.2,488z M640,455.6c3.9,6.1-14.6,12-24,12
					C617,461.8,635.8,449,640,455.6z"/>
				<path d="M621.9,509.8L621.9,509.8c-2.7,0-8-0.5-12.7-3.7c-4.5-3-7-7.9-7.5-13.8c-2.2-32.4,8.5-39.2,16.3-44.3l0.2-0.1
					c5.5-3.5,12.7-5.8,18.9-5.8c6,0,10.6,2,13.1,6c5.8,9,1.5,18.7-5.5,24.2c-6.9,5.5-22.2,8.1-30.1,8.8c-0.5,3.7,0,8.7,2.7,11.8
					c3,3.6,8.4,3.8,15.5,0.7c6-2.6,8-4.5,10.4-6.7l0.2-0.2c2.2-2.1,3.4-3.1,4.8-3.1c1.7,0,2.8,1.5,4.7,3.9c2.5,3.3,2.3,4.7-1.5,9.4
					c-4.1,5.2-15,10.5-25.8,12.6C624.6,509.7,623.3,509.8,621.9,509.8z M637.3,444.2c-5.8,0-12.5,2-17.8,5.4l-0.2,0.2
					c-7.3,4.8-17.5,11.2-15.3,42.3c0.8,11.5,10.2,15.5,17.9,15.5l0,0c1.2,0,2.5-0.1,3.5-0.3c10.2-2,20.7-7.1,24.5-11.9
					c3.5-4.2,3.2-4.6,1.5-6.8c-1.1-1.4-2.3-3-3-3c-0.5,0-1.8,1.2-3.3,2.6l-0.2,0.2c-2.5,2.3-4.6,4.3-11,7.1c-8.1,3.5-14.3,3-18-1.3
					c-3.3-3.9-3.7-10-3-14.4l0.2-0.9l0.8-0.1c8.5-0.6,23.5-3.3,29.8-8.4c9.1-7.4,8.3-16.2,5-21.4C646,445.1,641,444.2,637.3,444.2z
					 M616,468.7h-1.3l0.2-1.2c1-5.2,13.5-14.8,21-14.8c2.8,0,4.2,1.3,4.8,2.3c0.9,1.4,1,2.9,0.1,4.4
					C638.1,464.7,623.9,468.7,616,468.7z M636,454.9c-6.1,0-16,7.4-18.5,11.6c9.2-0.5,19.8-4.8,21.5-8.1c0.5-0.8,0.4-1.4,0-2.2
					C638.5,455.3,637.5,454.9,636,454.9z"/>
			</g>
		</g>
	</g>
</g>
<g>
	<path fill="#FFFFFF" d="M436.1,645.2c0-0.6,0-1.2,0-1.8c0-0.2,0-0.5-0.1-0.8c0-0.6,0-1.2,0-1.7c0-0.8,0.1-2.5,0-3.2
		c0-0.6-0.2-1.2-0.3-1.8c0-0.3-0.2-0.6-0.5-0.9c-0.1-0.1-0.3-0.2-0.5-0.2c-0.6,0.1-0.8,0.3-1,0.8s-0.2,1-0.2,1.6c0,0.9,0,2.8,0,3.8
		c0,0.8,0,1.5,0,2.2c0,0.4,0,0.9,0,1.5c0,0.2,0,0.8,0,1c0,0.6,0,1,0.1,1.6s0.9,0.8,1.5,0.8C436.5,648,436.1,645.5,436.1,645.2z"/>
	<path fill="#FFFFFF" d="M374.7,634.8c-0.4,0-1.3-0.1-1.4,0.2c-0.1,0.5-0.4,1.2-0.6,2.3c0,0.2-0.2,0.9-0.3,1.1
		c0,0.1-0.3,0.8-0.4,1.1c-0.2-0.4-0.2-0.4-0.3-0.5c-0.5-0.8-1.2-2.1-1.7-3c-0.4-0.8-0.8-1-1.4-1c-0.2,0-0.9,0-1.2,0
		c-0.8,0.2,0,1.5,0.4,2c0.2,0.5,2.4,3.9,3.1,5.2c-0.2,0.5-0.4,1.1-0.5,1.4c-0.4,1-1,2.2-1.2,3.2c0,0.8,1.6,1.2,2.1,0.4
		s0.9-1.8,1.2-2.7c0.9-2.1,1.6-3.7,2.2-5.8c0.2-0.7,0.9-2.6,1-3C375.7,634.8,375.1,634.8,374.7,634.8z"/>
	<path fill="#FFFFFF" d="M483.9,634.7c-0.6-0.1-1.1-0.1-1.8-0.1c-1,0.1-1.8,0.1-2.8,0.1c-0.5,0-1.8-0.1-2.2,0
		c-0.8,0.1-0.7,0.3-0.8,1c-0.1,0.9-0.1,1.6-0.2,2.5c0,1.5,0,3,0,3.6c0,0.4,0,1.4,0,1.5c0,1,0,1.6,0,2.6c0,0.5,0,1.2,0.1,1.7
		c0.1,0.4,0.3,0.5,0.7,0.5c0.5,0,1,0,1.5,0c0.4,0,0.4-0.2,0.4-0.3c0-0.2,0-0.5,0-0.6c0-0.4,0-0.7,0-1.4c0-0.2,0-0.4,0-0.6
		c0-0.3,0-1,0-1.1c0-0.7,0-1.2,0-2c0.4,0,1.2,0.1,1.5,0.1c0.5,0,1.2,0,1.8,0c0.5,0,0.5-0.5,0.6-0.9c0-0.5-0.1-1.2-0.6-1.2
		c-0.8,0-1.5-0.1-2.2,0c-0.1,0-0.4,0-0.5,0c-0.3-0.1-0.7-0.1-0.6-0.4c0-0.3,0-0.3,0-1c0-0.1,0-0.5,0-0.8s0-0.7,0.4-0.7
		c0.6,0,2.1,0,2.7,0c0.5,0,1,0,1.5,0s1.1-0.2,1.1-0.8C484.6,635.7,484.5,634.7,483.9,634.7z"/>
	<path fill="#FFFFFF" d="M492.2,636.1c-0.4-0.6-1.5-1.3-2.1-1.4c-1.4-0.2-2.9,0.2-3.6,1.4c-0.5,1-0.9,1.9-1,2.7
		c-0.2,1-0.1,1.5-0.2,2c0,0.3,0,0.8,0,0.8c0,0.2,0,0.5,0,0.6c0,1.5,0.4,2.5,1.1,3.8c0.4,0.6,0.9,1.1,1.4,1.5c0.9,0.7,2.8,0.9,3.9,0
		c1.1-1,1.8-1.9,1.9-3.7c0-0.2,0.1-1.5,0.1-1.9c0-1.2,0-1.8-0.2-2.9C493.1,638,492.8,637,492.2,636.1z M491,641.2
		c0,0.8,0,1.8-0.2,2.6c-0.1,0.5-0.5,1.2-1,1.3s-1.1-0.1-1.5-0.5c-0.8-0.9-0.8-2.2-0.7-3.4c0-0.4,0-1,0.1-1.4
		c0.1-0.7,0.3-1.2,0.8-1.8c0.3-0.3,1-0.6,1.5-0.3c0.9,0.4,0.9,1.4,0.9,1.9C491,639.7,491,640.6,491,641.2z"/>
	<path fill="#FFFFFF" d="M502.5,643c-0.4-0.5-1-1.3-1.3-1.8c0.1-0.2,0.2-0.3,0.3-0.4c0.6-0.6,1.3-1.6,1.3-2.5c0-1.1-0.5-1.9-1.4-2.5
		s-1.7-0.8-2.5-0.9c-1.2-0.2-2.6,0-3.4,0.3c-0.1,0,0,1,0,1.1c0,0.4,0,0.8,0,1.2c0,1.2,0,2.1,0,3.2c0,0.8,0,1.5,0,2.1
		c0,1.2,0,1.8,0,3c0,0.7,0,1.8,0.4,2.2c0.1,0.1,1,0.2,1.1,0.2c0.5,0,0.7,0,0.9-0.5c0.1-0.5,0-1,0-1.7c0-0.8,0-1.7,0-2.5
		c0-0.3,0-0.6,0-0.9c0-0.1,0.1-0.4,0.2-0.4s0.7,0.1,0.9,0.2c0.1,0.1,0.1,0.2,0.1,0.2c0.1,0.3,0.3,0.7,0.5,1c0.4,0.7,0.8,1.3,1.1,2
		c0.2,0.5,0.5,0.9,0.6,1.3c0.2,0.4,0.3,0.8,0.7,1.1c0.2,0.2,0.6,0.2,1,0.2c0.5,0,1,0,1.1-0.5c0.2-1-0.5-2.6-1.2-3.7
		C502.9,643.6,502.7,643.2,502.5,643z M498,639.7c-0.4,0-0.4-1.4-0.4-1.7v-1.1c0.5,0,0.5,0,1.3,0.2c0.3,0.1,0.6,0.2,0.9,0.5
		c0.4,0.3,0.4,1.4,0,1.8C499,639.8,498.6,639.8,498,639.7z"/>
	<path fill="#FFFFFF" d="M382.9,635.9c-0.4-0.7-1.5-1.4-2.1-1.5c-1.4-0.2-2.9,0.2-3.6,1.5c-0.5,0.9-0.9,1.9-1,2.6
		c-0.2,1-0.1,1.5-0.2,2c0,0.3,0,0.8,0,0.8c0,0.2,0,0.5,0,0.7c0,1.4,0.4,2.5,1.1,3.8c0.4,0.6,0.9,1.1,1.4,1.6
		c0.9,0.6,2.8,0.8,3.9-0.1c1.1-1,1.8-1.9,1.9-3.6c0-0.2,0.1-1.5,0.1-1.9c0-1.2,0-1.8-0.2-2.9C383.7,637.8,383.4,636.7,382.9,635.9z
		 M381.6,641c0,0.9,0,1.8-0.2,2.6c-0.1,0.5-0.5,1.2-1,1.3s-1.1-0.1-1.5-0.5c-0.8-0.9-0.8-2.2-0.7-3.4c0-0.4,0-0.9,0.1-1.4
		c0.1-0.6,0.3-1.2,0.8-1.8c0.3-0.3,1-0.6,1.5-0.3c0.9,0.4,0.9,1.3,0.9,1.9C381.5,639.5,381.6,640.3,381.6,641z"/>
	<path fill="#FFFFFF" d="M391.9,634.8c0,0-0.4,0-0.4,0.3c0,0.1,0,0.4,0,0.5c0,0.9,0,6.6-0.2,7.4c-0.1,0.5-0.5,1.2-1,1.3
		s-1.1-0.1-1.5-0.5c-0.8-0.9-0.8-7.4-0.7-8.7c0-0.1,0-0.4-0.2-0.4c-0.8,0-0.9,0-1.7,0c-0.4,0-0.5,0.2-0.5,0.3c0,0.3,0,0.4,0,0.5
		c0,0.2,0,5.7,0,5.9c0,1.4,0.4,2.5,1.1,3.8c0.4,0.6,0.9,1.1,1.4,1.6c0.9,0.6,2.8,0.8,3.9-0.1c1.1-1,1.8-1.9,1.9-3.6
		c0-0.2,0.1-1.5,0.1-1.9c0-0.5,0-5.8,0-6.2C394.1,634.7,392.7,634.8,391.9,634.8z"/>
	<path fill="#FFFFFF" d="M403,642.7c-0.4-0.5-1-1.3-1.3-1.8c0.1-0.2,0.2-0.3,0.3-0.4c0.6-0.6,1.3-1.6,1.3-2.5c0-1.1-0.5-1.9-1.4-2.5
		s-1.7-0.8-2.5-0.9c-1.2-0.2-2.6,0-3.4,0.3c-0.1,0,0,1,0,1.1c0,0.4,0,0.8,0,1.2c0,1.2,0,2.1,0,3.2c0,0.8,0,1.5,0,2.1
		c0,1.2,0,1.8,0,3c0,0.7,0,1.8,0.4,2.2c0.1,0.1,1,0.2,1.1,0.2c0.5,0,0.7,0,0.9-0.5c0.1-0.5,0-1,0-1.7c0-0.8,0-1.7,0-2.5
		c0-0.3,0-0.6,0-0.9c0-0.1,0.1-0.4,0.2-0.4s0.7,0.1,0.9,0.2c0.1,0.1,0.1,0.2,0.1,0.2c0.1,0.3,0.3,0.7,0.5,1c0.4,0.7,0.8,1.3,1.1,2
		c0.2,0.5,0.5,0.9,0.6,1.3c0.2,0.4,0.3,0.8,0.7,1.1c0.2,0.2,0.6,0.2,1,0.2c0.5,0,1,0,1.1-0.5c0.2-1-0.5-2.6-1.2-3.7
		C403.5,643.3,403.2,643,403,642.7z M398.5,639.5c-0.4,0-0.4-1.4-0.4-1.7v-1.1c0.5,0,0.5,0,1.3,0.2c0.3,0.1,0.6,0.2,0.9,0.5
		c0.4,0.3,0.4,1.4,0,1.8C399.6,639.6,399.1,639.5,398.5,639.5z"/>
	<path fill="#FFFFFF" d="M530.2,635.2c-0.3,0-1.3,0-1.4,0.3c-0.1,0.5-0.2,1.3-0.5,2.3c0,0.2-0.3,1.4-0.4,2c0,0.1-0.3,1.8-0.4,2
		c0,0.4-0.3,1.5-0.5,2c0,0.2-0.1,0.7-0.2,0.9c-0.2,0.2-0.5-0.4-0.6-0.9c0-0.4-0.5-2.4-0.7-3c0-0.4-0.5-2.6-0.5-2.8
		c0-0.3-0.2-1.2-0.3-2c-0.2-0.8-0.1-1-0.9-1.1c-0.2,0-1,0.1-1.2,0.2c-0.5,0.2-0.8,0.8-0.6,1.3s0.3,1.8,0.5,2.2
		c0.4,1.4,0.6,2.6,1,4.4c0,0.2,0.2,1,0.3,1.2c0.1,0.3,0.2,0.8,0.2,1.2c0.1,0.5,0.2,1.2,0.8,1.9s2.3,0.9,3,0.2c0.7-0.5,0.8-1,1.2-1.8
		c0.8-2,1.2-4.3,1.7-6.5c0.2-0.7,0.5-3,0.5-3.4C531.2,635.1,530.5,635.2,530.2,635.2z"/>
	<path fill="#FFFFFF" d="M549.7,643.2c-0.3-0.5-1-1.3-1.3-1.8c0.2-0.1,0.2-0.3,0.3-0.4c0.6-0.6,1.3-1.6,1.3-2.5c0-1.1-0.5-2-1.4-2.5
		c-0.8-0.6-1.7-0.8-2.5-0.9c-1.2-0.2-2.6,0-3.3,0.3c-0.1,0,0,0.9,0,1.1c0,0.4,0,0.8,0,1.2c0,1.1,0,2,0,3.1c0,0.8,0,1.5,0,2.1
		c0,1.2,0,1.8,0,3c0,0.7,0,1.8,0.4,2.1c0.1,0.1,1,0.2,1.1,0.2c0.5,0,0.7,0,0.9-0.6c0.2-0.4,0-0.9,0-1.6c0-0.9,0-1.7,0-2.5
		c0-0.3,0-0.5,0-0.8c0-0.2,0.2-0.4,0.2-0.4c0.2,0,0.7,0.1,0.8,0.2c0.1,0,0.1,0.1,0.2,0.2c0.2,0.3,0.3,0.6,0.5,1
		c0.3,0.7,0.8,1.3,1.1,2c0.2,0.5,0.5,0.9,0.7,1.3c0.2,0.5,0.3,0.8,0.7,1.1c0.2,0.2,0.7,0.2,1,0.2c0.5,0,1,0,1.1-0.4
		c0.2-1-0.5-2.7-1.2-3.7C550.2,643.8,550,643.5,549.7,643.2z M545.2,639.9c-0.4-0.1-0.3-1.4-0.3-1.7v-1.1c0.5,0,0.5,0,1.3,0.2
		c0.3,0.1,0.7,0.2,0.8,0.5c0.4,0.3,0.3,1.5,0,1.8C546.3,640,545.8,640,545.2,639.9z"/>
	<path fill="#FFFFFF" d="M519.2,645.6c-0.6,0-1.2,0.1-1.8,0.1c-0.8,0-1.7,0.1-2.8,0.1c-0.2,0,0-1.1,0-1.2c0-0.7,0-1.2,0-2
		c0.4,0,1.2,0.1,1.5,0.1c0.5,0,1.2,0,1.8,0c0.5,0,0.5-0.5,0.6-1c0-0.5-0.1-1.2-0.6-1.2c-0.8,0-1.5-0.1-2.2,0c-0.2,0-0.3,0-0.5,0
		c-0.3,0-0.7-0.2-0.7-0.4c0-0.3,0-0.3,0-0.9c0-0.1,0-0.5,0-0.8s0-0.6,0.4-0.7c0.6-0.1,2.1-0.1,2.7,0c0.5,0,1,0,1.5,0
		s1.1-0.2,1.2-0.8c0-0.7,0-1.7-0.8-1.8c-0.6,0-1.2,0-1.8,0c-1,0-1.8,0-2.8,0c-0.5,0-1.8,0-2.2,0c-0.8,0.1-0.7,0.4-0.8,1.1
		c-0.1,0.8-0.1,1.6-0.2,2.5c0,1.4,0,3,0,3.5c0,0.4,0,1.5,0,1.5c0,1,0,1.6,0,2.7c0,0.5,0,1.2,0.1,1.7c0.1,0.4,0.3,0.5,0.7,0.5
		c0.7,0.1,1.5,0,2.2,0c1.2,0,2.8,0.2,4.2,0c0.8-0.1,1-0.4,1-1.2c0-0.2,0-0.8,0-0.9C520.2,645.9,519.8,645.6,519.2,645.6z"/>
	<path fill="#FFFFFF" d="M540.1,645.6c-0.6,0-1.2,0.1-1.8,0.1c-0.8,0-1.7,0.1-2.8,0.1c-0.2,0,0-1.1,0-1.2c0-0.7,0-1.2,0-2
		c0.4,0,1.2,0.1,1.5,0.1c0.5,0,1.2,0,1.8,0c0.5,0,0.5-0.5,0.6-1c0-0.5-0.1-1.2-0.6-1.2c-0.8,0-1.5-0.1-2.2,0c-0.2,0-0.3,0-0.5,0
		c-0.3,0-0.7-0.2-0.7-0.4c0-0.3,0-0.3,0-0.9c0-0.1,0-0.5,0-0.8s0-0.6,0.4-0.7c0.6-0.1,2.1-0.1,2.7,0c0.5,0,1,0,1.5,0
		s1.1-0.2,1.2-0.8c0-0.7,0-1.7-0.8-1.8c-0.6,0-1.2,0-1.8,0c-1,0-1.8,0-2.8,0c-0.5,0-1.8,0-2.2,0c-0.8,0.1-0.7,0.4-0.8,1.1
		c-0.1,0.8-0.2,1.6-0.2,2.5c0,1.4,0,3,0,3.5c0,0.4,0,1.5,0,1.5c0,1,0,1.6,0,2.7c0,0.5,0,1.2,0.2,1.7c0.2,0.4,0.3,0.5,0.7,0.5
		c0.7,0.1,1.5,0,2.2,0c1.2,0,2.8,0.2,4.2,0c0.8-0.1,1-0.4,1-1.2c0-0.2,0-0.8,0-0.9C541,645.9,540.6,645.6,540.1,645.6z"/>
	<path fill="#FFFFFF" d="M420.5,635c-0.6,0-1.1,0-1.8,0c-1,0-1.8,0-2.8,0c-0.5,0-1.8,0-2.2,0c-0.8,0.1-0.7,0.4-0.8,1
		c-0.1,0.8-0.1,1.6-0.2,2.5c0,1.5,0,3,0,3.5c0,0.4,0,1.4,0,1.5c0,1,0,1.6,0,2.6c0,0.4,0,1.2,0.1,1.7c0.1,0.4,0.3,0.5,0.7,0.6
		c0.5,0,1,0,1.5,0c0.4-0.1,0.4-0.2,0.4-0.4c0-0.1,0-0.5,0-0.6c0-0.3,0-0.7,0-1.3c0-0.2,0-0.4,0-0.6c0-0.3,0-1,0-1.1c0-0.7,0-1.2,0-2
		c0.4,0,1.2,0.1,1.5,0.1c0.5,0,1.2,0,1.8-0.1c0.5,0,0.5-0.5,0.6-0.9c0-0.5-0.1-1.2-0.6-1.2c-0.8,0-1.5-0.1-2.2,0c-0.1,0-0.4,0-0.5,0
		c-0.3,0-0.7-0.1-0.6-0.4c0-0.4,0-0.3,0-1c0-0.1,0-0.5,0-0.8s0-0.7,0.4-0.7c0.6,0,2.1,0,2.7,0c0.5,0.1,1,0,1.5,0.1
		c0.5,0,1.1-0.2,1.1-0.8C421.2,636.1,421.1,635.1,420.5,635z"/>
	<path fill="#FFFFFF" d="M430.2,643c-0.4-0.5-1-1.3-1.3-1.8c0.1-0.2,0.2-0.3,0.3-0.4c0.6-0.6,1.3-1.6,1.3-2.5c0-1.1-0.5-1.9-1.4-2.5
		s-1.7-0.8-2.5-0.9c-1.2-0.2-2.6,0-3.4,0.3c-0.1,0,0,1,0,1.1c0,0.4,0,0.8,0,1.2c0,1.2,0,2.1,0,3.2c0,0.8,0,1.5,0,2.1
		c0,1.2,0,1.8,0,3c0,0.7,0,1.8,0.4,2.2c0.1,0.1,1,0.2,1.1,0.2c0.5,0,0.7,0,0.9-0.5c0.1-0.5,0-1,0-1.7c0-0.8,0-1.7,0-2.5
		c0-0.3,0-0.6,0-0.9c0-0.1,0.1-0.4,0.2-0.4s0.7,0.1,0.9,0.2c0.1,0.1,0.1,0.2,0.1,0.2c0.1,0.3,0.3,0.7,0.5,1c0.4,0.7,0.8,1.3,1.1,2
		c0.2,0.5,0.5,0.9,0.6,1.3c0.2,0.4,0.3,0.8,0.7,1.1c0.2,0.2,0.6,0.2,1,0.2c0.5,0,1,0,1.1-0.5c0.2-1-0.5-2.6-1.2-3.7
		C430.6,643.6,430.5,643.2,430.2,643z M425.8,639.7c-0.4,0-0.4-1.4-0.4-1.7v-1.1c0.5,0,0.5,0,1.3,0.2c0.3,0.1,0.6,0.2,0.9,0.5
		c0.4,0.3,0.4,1.4,0,1.8C426.8,639.8,426.4,639.8,425.8,639.7z"/>
	<path fill="#FFFFFF" d="M458.1,638c0-0.8,0-2.3-0.4-3c-0.2-0.5-0.5-0.5-1-0.5c-0.8,0-1,0-1.3,0.7c-0.1,0.3-0.1,0.8-0.1,1
		c0,0.7,0,1.3,0,2c0.1,1,0.1,2,0.2,2.9l0,0c-0.2-0.3-0.3-0.6-0.5-1c-0.3-0.5-0.6-1-0.9-1.6c-0.5-0.8-0.8-1.2-1.4-2.3
		c-0.4-0.7-0.6-1-0.8-1.2c-0.2-0.2-0.8-0.5-1-0.5c-0.5,0-1.3,0-1.5,0.1c-0.3,0.2-0.4,0.4-0.4,0.9c0,1.1,0,1.9,0.1,3c0,1.5,0,2.8,0,4
		s0,2.8,0,3.5c0,0.4,0,1,0.1,1.4c0,0.5,0.6,0.6,0.9,0.6c0.5,0,1.6,0.2,1.7-0.3c0.1-0.9,0.1-2.1,0-3.3c-0.1-1,0-1.9-0.1-3.5
		c0-0.5,0-0.7,0-1.2c0.1,0.1,0.5,0.6,0.5,0.8c0.5,0.9,0.8,1.4,1.2,2.3c0.5,1,0.6,1.5,1.1,2.2c0.2,0.5,0.5,1,0.8,1.4s0.6,1,1,1.3
		c0.3,0.2,0.5,0.2,0.8,0.3c0.5,0.1,0.6-0.2,0.8-0.3c0.8-0.9,0.4-2.1,0.4-3.3c0-0.3,0-0.8,0-1.6c0-0.9,0-1.7,0-2.4
		C458.2,639.4,458.1,638.8,458.1,638z"/>
	<path fill="#FFFFFF" d="M446,645c-0.6,0-1.1,0-1.8,0.1c-0.9,0-1.7,0.1-2.9,0.1c-0.1,0,0-1.1,0-1.2c0-0.7,0-1.2,0-2
		c0.4,0,1.2,0.1,1.5,0.1c0.5,0,1.2,0,1.8,0c0.5,0,0.5-0.5,0.6-1c0-0.5-0.1-1.2-0.6-1.2c-0.8,0-1.5-0.1-2.2-0.1c-0.1,0-0.4,0.1-0.5,0
		c-0.3,0-0.7-0.1-0.6-0.4c0-0.4,0-0.3,0-1c0-0.1,0-0.5,0-0.8s0-0.6,0.4-0.7c0.6,0,2.1,0,2.7,0c0.5,0,1,0,1.5,0s1.1-0.2,1.1-0.8
		c0-0.7,0-1.7-0.8-1.8c-0.6,0-1.1,0-1.8,0c-1,0-1.8,0-2.8,0c-0.5,0-1.8,0-2.2,0c-0.8,0.1-0.7,0.4-0.8,1c-0.1,0.8-0.1,1.6-0.2,2.5
		c0,1.5,0,3,0,3.5c0,0.4,0,1.5,0,1.5c0,1,0,1.6,0,2.6c0,0.5,0,1.2,0.1,1.7c0.1,0.4,0.3,0.5,0.7,0.5c0.6,0.1,1.5,0,2.1,0
		c1.2,0,2.9,0.2,4.2,0c0.9-0.1,1-0.4,1-1.2c0-0.1,0-0.8,0-0.9C446.9,645.2,446.5,645,446,645z"/>
	<path fill="#FFFFFF" d="M466.7,636.3c-0.6-0.7-1.4-1.3-2.2-1.5s-1.3-0.4-2.2-0.3c-0.4,0-0.8,0-1.2,0c-0.6,0-0.6,0-0.6,1
		c0,0.5,0,1.1,0,1.3c0.1,1.1,0,2.6,0,3.8c0,1.6-0.1,2.4,0,3.8c0,1,0,1.9,0.1,3c0,0.8,1.5,0.5,2,0.5c0.6,0,1.9-0.2,2.5-0.2
		c0.4-0.1,1.4-0.6,1.8-1.3c0.5-0.8,0.6-1.2,0.8-2.1c0.1-0.8,0.2-1.5,0.2-2.3s0-2.2-0.1-3.1C467.6,637.9,467.3,637,466.7,636.3z
		 M464,645.1c-0.4,0.2-1.1,0.5-1.2,0.1c0-0.4,0-0.6,0-1c0-0.2,0-0.9,0-1.2c0-0.5,0-1.6-0.1-2.9c0-0.1,0-0.8,0-1.4c0-0.4,0-1.1,0-1.6
		c0-0.4,1.2,0.2,1.6,0.4c0.7,0.4,1.1,0.8,1.3,1.5c0.1,0.5,0.2,1.2,0.2,1.5c0,0.4,0,1,0,1.1c0,0.6,0,0.8-0.1,1.4c0,0.4-0.4,1-0.5,1.4
		C465,644.5,464.4,644.9,464,645.1z"/>
	<path fill="#FFFFFF" d="M588,636.8c-0.4-0.6-1.4-1.3-2.1-1.4c-1.3-0.2-2.8,0.2-3.5,1.4c-0.5,0.9-0.8,1.8-1,2.5
		c-0.2,1-0.1,1.5-0.2,2c0,0.2,0,0.7,0,0.8c0,0.2,0,0.4,0,0.6c0,1.4,0.3,2.4,1,3.6c0.3,0.6,0.8,1.1,1.3,1.5c0.8,0.6,2.8,0.8,3.8,0
		c1.1-1,1.7-1.8,1.8-3.5c0-0.2,0.2-1.4,0.2-1.8c0-1.2,0-1.7-0.2-2.8C588.8,638.7,588.5,637.6,588,636.8z M586.8,641.7
		c0,0.8,0,1.7-0.2,2.5c-0.2,0.5-0.5,1.2-1,1.3s-1.1-0.1-1.5-0.5c-0.8-0.9-0.8-2.1-0.7-3.3c0-0.3,0-0.9,0.1-1.3
		c0-0.7,0.2-1.2,0.8-1.7c0.3-0.3,0.9-0.6,1.5-0.3c0.8,0.4,0.8,1.3,0.8,1.8C586.8,640.3,586.8,641.1,586.8,641.7z"/>
	<path fill="#FFFFFF" d="M622,638.8c0-0.8,0-2.2-0.3-3c-0.2-0.5-0.4-0.5-0.9-0.5c-0.7,0-1,0-1.2,0.6c-0.1,0.3-0.2,0.7-0.1,1.1
		c0,0.6,0,1.2,0,1.9c0.1,1,0.1,1.9,0.2,2.8l0,0c-0.2-0.3-0.3-0.6-0.5-1c-0.2-0.5-0.6-1-0.8-1.5c-0.5-0.9-0.7-1.1-1.3-2.2
		c-0.4-0.6-0.5-1-0.8-1.2c-0.2-0.2-0.7-0.5-1-0.5c-0.5,0-1.3,0-1.5,0.1c-0.3,0.2-0.4,0.4-0.4,0.8c0,1.1,0,1.8,0.1,3
		c0,1.5,0,2.8,0,3.9c0,1.2,0,2.7,0,3.4c0,0.4,0,1,0.1,1.3c0,0.5,0.7,0.6,0.8,0.6c0.5,0,1.5,0.2,1.7-0.3c0.2-0.9,0.2-2,0-3.2
		c0-1.1,0-1.9-0.1-3.4c0-0.5,0-0.7,0-1.2c0.2,0.2,0.5,0.7,0.5,0.8c0.5,0.8,0.7,1.3,1.2,2.2c0.5,1,0.7,1.5,1,2.2
		c0.2,0.5,0.5,1,0.8,1.3c0.3,0.5,0.6,1,1,1.2c0.2,0.2,0.5,0.2,0.8,0.3c0.4,0.1,0.7-0.2,0.8-0.3c0.8-0.9,0.3-2,0.4-3.2
		c0-0.3,0-0.8,0-1.5c0-0.9,0-1.6,0-2.4C622,640.2,622,639.5,622,638.8z"/>
	<path fill="#FFFFFF" d="M610.7,645.5c-0.5,0-1.2,0-1.7,0.1c-0.8,0-1.7,0.1-2.8,0.1c-0.2,0,0-1.1,0-1.2c0-0.7,0-1.2,0-2
		c0.3,0,1.2,0.1,1.5,0.1c0.5,0,1.2,0,1.7,0s0.5-0.5,0.6-0.9c0-0.5-0.1-1.2-0.6-1.2c-0.8,0-1.4-0.1-2.1,0c-0.2,0-0.3,0-0.5,0
		c-0.3-0.1-0.7-0.1-0.7-0.4c0-0.3,0-0.3,0-1c0-0.1,0-0.5,0-0.8s0-0.6,0.4-0.6c0.6-0.1,2-0.1,2.6,0c0.5,0,1,0,1.5,0s1-0.2,1.1-0.7
		c0-0.7,0-1.7-0.7-1.7c-0.6,0-1.1,0-1.7,0c-1,0-1.8,0-2.7,0c-0.5,0-1.7,0-2.2,0c-0.7,0.1-0.7,0.4-0.8,1c-0.1,0.9-0.2,1.6-0.2,2.5
		c0,1.4,0,2.9,0,3.4c0,0.4,0,1.4,0,1.5c0,1,0,1.5,0,2.5c0,0.5,0,1.2,0.2,1.7c0.1,0.4,0.3,0.5,0.7,0.5c0.7,0.1,1.5,0,2.1,0
		c1.2,0,2.8,0.2,4.2,0c0.8-0.1,1-0.3,1-1.2c0-0.1,0-0.8,0-0.9C611.5,645.8,611.2,645.5,610.7,645.5z"/>
	<path fill="#FFFFFF" d="M633.3,635.5c-1.2-0.2-2.5-0.1-3.6-0.1c-0.7,0-1.3-0.1-2.4,0c-0.7,0-1.1,0-1.8,0c-1,0.1-2-0.2-2.2,0.6
		c-0.1,0.4-0.2,1.1,0,1.4s1,0.5,1.5,0.4c0.7,0,1,0,1.6,0.1c0.2,0,0.8,0,0.8,0.1c0,0.2,0,0.8,0,1.3c0,0.6,0,1.5,0,2.1
		c0,1.8,0,2.3,0,3.8c0,0.8,0,2.4,0.4,2.8c0.3,0.3,1.3,0.3,1.8,0.1c0.3-0.2,0.4-0.9,0.4-1.3c0-0.7,0-1.3,0-2.2c0-0.6,0-0.4,0-1
		c0-0.4,0-1.1,0-1.7c0-1.1,0-1.9,0-3.1c0-0.2,0-0.7,0-0.9c0.1,0,0.1,0,0.2,0c0,0,0.1,0,0.2,0c1-0.1,1.3-0.1,2.2-0.1
		c0.7,0,1.2,0,1.5-0.2c0.2-0.1,0.2-0.7,0.3-0.8C634.2,636,634.2,635.7,633.3,635.5z"/>
	<path fill="#FFFFFF" d="M579.8,636.3c0-0.5-0.1-0.7-0.4-0.8c-0.2-0.1-0.9-0.1-1.5-0.1c-0.3,0-0.8,0.3-1,0.5s-0.3,0.6-0.8,1.2
		c-0.7,1.1-0.9,1.4-1.3,2.2c-0.3,0.5-0.3,0.5-0.5,0.9c-0.2-0.4-0.3-0.4-0.5-0.9c-0.5-0.9-0.7-1.2-1.3-2.2c-0.4-0.7-0.5-1-0.8-1.2
		c-0.2-0.2-0.7-0.5-1-0.5c-0.5,0-1.3,0-1.5,0.1c-0.3,0.2-0.4,0.4-0.4,0.8c0,1.1,0,1.9,0.1,3c0,1.4,0,2.8,0,3.9s0,2.7,0,3.4
		c0,0.4,0,1,0.1,1.4c0,0.5,0.7,0.5,0.8,0.5c0.5,0,1.5,0.2,1.7-0.3c0.2-1,0.2-2,0-3.2c0-1,0-1.8-0.1-3.3c0-0.5,0-0.7,0-1.2
		c0.2,0.2,0.5,0.7,0.5,0.8c0.5,0.8,1.7,2.2,2.3,3.1c0,0.1,0.2,0.3,0.2,0.3s0.2-0.2,0.2-0.3c0.6-0.9,1.8-2.2,2.3-3
		c0-0.1,0.3-0.6,0.5-0.8c0,0.5,0,0.7,0,1.2c-0.1,1.5,0,2.3-0.1,3.4c-0.1,1.1-0.1,2.3,0,3.2c0.1,0.5,1.2,0.3,1.7,0.3
		c0.2,0,0.8-0.1,0.8-0.5s0-1,0.1-1.3c0-0.7,0-2.2,0-3.4s0-2.5,0-3.9C579.8,638.2,579.8,637.4,579.8,636.3z"/>
	<path fill="#FFFFFF" d="M601.8,636.2c0-0.5-0.1-0.7-0.4-0.8c-0.2-0.1-0.9-0.1-1.5-0.1c-0.3,0-0.8,0.3-1,0.5s-0.3,0.5-0.8,1.2
		c-0.7,1.1-0.9,1.4-1.3,2.2c-0.3,0.5-0.3,0.5-0.5,1c-0.2-0.5-0.3-0.5-0.5-1c-0.5-0.9-0.7-1.1-1.3-2.2c-0.4-0.6-0.5-1-0.8-1.2
		c-0.2-0.2-0.7-0.5-1-0.5c-0.5,0-1.3,0-1.5,0.1c-0.3,0.2-0.4,0.4-0.4,0.8c0,1.1,0,1.8,0.1,3c0,1.5,0,2.8,0,3.9c0,1.2,0,2.7,0,3.4
		c0,0.4,0,1,0.1,1.3c0,0.5,0.7,0.6,0.8,0.6c0.5,0,1.5,0.2,1.7-0.3c0.2-0.9,0.2-2,0-3.2c0-1.1,0-1.9-0.1-3.4c0-0.5,0-0.7,0-1.2
		c0.2,0.2,0.5,0.7,0.5,0.8c0.5,0.8,1.7,2.2,2.3,3c0,0.1,0.2,0.3,0.2,0.3s0.2-0.2,0.2-0.3c0.6-0.9,1.8-2.2,2.3-3
		c0-0.1,0.3-0.6,0.5-0.8c0,0.5,0,0.7,0,1.2c-0.1,1.5,0,2.3-0.1,3.3c-0.1,1.2-0.1,2.3,0,3.2c0.1,0.5,1.2,0.3,1.7,0.3
		c0.2,0,0.8-0.1,0.8-0.5s0-1,0.1-1.4c0-0.7,0-2.2,0-3.4s0-2.5,0-3.9C601.7,638.1,601.7,637.3,601.8,636.2z"/>
	<path fill="#FFFFFF" d="M559,635.3c-0.3,0-1.3-0.1-1.4,0.2c-0.2,0.4-0.3,1.2-0.7,2.3c0,0.2-0.2,0.9-0.3,1.1c0,0.1-0.3,0.9-0.4,1.1
		c-0.2-0.4-0.2-0.4-0.3-0.5c-0.5-0.9-1.2-2.1-1.7-3c-0.4-0.9-0.8-1-1.3-1c-0.2,0-0.8,0-1.2,0.1c-0.8,0.1,0,1.4,0.3,2
		c0.2,0.4,2.3,3.9,3.1,5.2c-0.2,0.5-0.3,1.2-0.5,1.4c-0.4,1-1,2.2-1.2,3.2c0,0.8,1.6,1.2,2.1,0.4c0.5-0.9,0.8-1.8,1.2-2.7
		c0.8-2.2,1.6-3.7,2.2-5.8c0.2-0.7,0.9-2.6,1-3C560,635.3,559.3,635.4,559,635.3z"/>
</g>
</svg>
