<?xml version="1.0" encoding="utf-8"?>
<!-- Generator: Adobe Illustrator 18.1.1, SVG Export Plug-In . SVG Version: 6.00 Build 0)  -->
<svg version="1.1" id="Layer_1" xmlns="http://www.w3.org/2000/svg" xmlns:xlink="http://www.w3.org/1999/xlink" x="0px" y="0px"
	 viewBox="0 0 2000 1000" enable-background="new 0 0 2000 1000" xml:space="preserve">
<rect x="1.2" fill="#FFFFFF" width="2000" height="1000"/>
<g>
	<g>
		<path fill="#1A171B" stroke="#1A171B" d="M830.8,617.3h8.9c4.9,0,9.7,2,9.7,8c0,3.5-1.9,6.2-5.3,7v0.1c4.2,0.4,6.8,3.3,6.8,8
			c0,2.1-1.3,8.8-10.9,8.8h-9.1V617.3z M833.9,631.2h6.1c2.9,0,6.1-1.5,6.1-5.6c0-1.3-0.6-5.4-6.4-5.4h-5.8V631.2z M833.9,646.2h5.8
			c4.4,0,7.9-1.9,7.9-6c0-4.2-2.6-6.2-7.5-6.2h-6.2V646.2z"/>
		<path fill="#1A171B" stroke="#1A171B" d="M856.4,636c0-1.7-0.1-4-0.2-6.8h2.7v4.4l0.1-0.3c0.8-2.1,2.8-4.1,6.2-4.1
			c0.8,0,1.4,0.1,2,0.2l-0.5,2.7c-0.3-0.1-0.8-0.2-1.6-0.2c-4.1,0-6,3.9-6,6.5v10.9h-2.7V636z"/>
		<path fill="#1A171B" stroke="#1A171B" d="M886,636.6v-0.5c0-3.3-1.6-4.5-4.9-4.5c-2.3,0-4.2,0.8-5.9,2.3l-1.6-1.9
			c1.8-1.8,4.5-2.8,8.2-2.8c3.8,0,7,1.6,7,6.3v8.6c0,1.5,0.3,3.8,0.5,4.8h-2.6c-0.2-1-0.4-2.6-0.4-3.6H886c-1.6,2.6-3.6,3.9-6.7,3.9
			c-3.4,0-6.7-2.2-6.7-6c0-6.3,7.4-6.7,12-6.7H886z M884.5,638.8c-2.8,0-9,0.2-9,4.1c0,2.6,2.3,3.5,4.5,3.5c4,0,5.9-2.8,5.9-6.2
			v-1.4H884.5z"/>
		<path fill="#1A171B" stroke="#1A171B" d="M904.8,648.9h-3l-7.8-19.8h3.3l6.1,16.7h0.1l6.1-16.7h3.1L904.8,648.9z"/>
		<path fill="#1A171B" stroke="#1A171B" d="M920.6,623.7c-1,0-2-0.8-2-2c0-1.2,1-2,2-2c1,0,2,0.8,2,2
			C922.6,622.9,921.6,623.7,920.6,623.7z M921.9,648.9h-2.7v-19.8h2.7V648.9z"/>
		<path fill="#1A171B" stroke="#1A171B" d="M931.4,637.9l9.1-8.7h4.1L935,638l10.9,11h-4.2l-10.3-10.6v10.6h-2.7v-31.6h2.7V637.9z"
			/>
		<path fill="#1A171B" stroke="#1A171B" d="M952.7,639.5c0.3,3.9,3.3,6.9,7.1,6.9c2.9,0,5.1-1.6,6.2-3.3l2.1,1.7
			c-2.3,2.9-5.1,4.1-8.3,4.1c-5.7,0-10-4.3-10-10.1c0-5.8,4.3-9.9,9.7-9.9c5.8,0,9.2,4.2,9.2,9.4v1.2H952.7z M965.3,637.3
			c0-3.7-2.3-6-6.2-6c-3.5,0-6.8,2.8-6.8,6H965.3z"/>
		<path fill="#1A171B" stroke="#1A171B" d="M977.7,629.2c0.1,1,0.1,2.1,0.1,3.1h0.1c1.2-2.1,3.9-3.4,6.5-3.4c4.9,0,7.2,2.6,7.2,7.3
			v12.7h-2.7v-11.2c0-4.3-1.2-6.4-5.2-6.4c-0.6,0-5.9,0.2-5.9,7.2v10.4h-2.7v-15.5c0-1-0.1-2.8-0.2-4.2H977.7z"/>
		<path fill="#1A171B" stroke="#1A171B" d="M1009.6,633.9c-0.8-1.6-2.2-2.6-4.2-2.6c-1.9,0-4,0.8-4,2.9c0,1.8,1.3,2.5,3.8,3l2.8,0.7
			c2.7,0.6,4.7,2.6,4.7,5.3c0,4.2-3.7,5.9-7.5,5.9c-2.9,0-5.6-1-7.4-3.7l2.3-1.6c1.1,1.7,2.8,2.9,5.1,2.9c2.2,0,4.5-1,4.5-3.2
			c0-1.9-1.6-2.6-3.7-3.1l-2.6-0.6c-1.3-0.3-4.9-1.4-4.9-5.1c0-4,3.5-5.8,7.1-5.8c2.7,0,5.2,0.9,6.4,3.5L1009.6,633.9z"/>
		<path fill="#1A171B" d="M1043.5,622.1c-1.3-1.9-3.2-2.8-5.6-2.8c-3,0-5.8,1.6-6.2,5.3c-0.8,7.7,14.7,4.2,15.3,14.5
			c0.3,5.3-1.8,10.8-9.9,10.8c-3.5,0-7.3-2.3-9.5-5.4l2.7-1.9c1.2,2.1,3.9,4.4,6.9,4.4c5.4-0.1,7-3,6.9-6.7
			c-0.1-8.2-15.8-5.1-15.6-15.4c0.1-5.6,4.7-8.3,9.4-8.3c3.3,0,5.9,0.9,8.2,3.5L1043.5,622.1z"/>
		<path fill="#1A171B" d="M1064.1,636.6l0.1-0.8c0-3.3-1.6-5-4.9-5c-2.3,0-4.2,0.8-5.9,2.3l-1.6-1.9c1.8-1.8,4.5-2.8,8.2-2.8
			c3.8,0,7,2.1,7,6.8l-0.1,9.8c0,1.5,0.2,3.8,0.3,4.8h-2.6c-0.2-0.9-0.2-2.6-0.2-3.6h-0.1c-1.6,2.6-3.7,3.6-6.8,3.6
			c-3.4,0-6.6-1.9-6.6-5.6c0-6.3,7.4-7.6,12-7.6H1064.1z M1062.7,638.8c-2.8,0-9,0.2-9,4.1c0,2.6,2.3,4.4,4.5,4.4
			c4,0,5.9-3.7,5.9-7.1v-1.4H1062.7z M1059.5,626c-2.1,0-4-1.7-4-3.9c0-2.2,1.8-3.9,4-3.9c2.1,0,4,1.7,4,3.9
			C1063.4,624.3,1061.6,626,1059.5,626z M1059.5,619.6c-1.4,0-2.5,1.1-2.5,2.4c0,1.4,1.1,2.4,2.5,2.4c1.4,0,2.5-1.1,2.5-2.4
			C1061.9,620.7,1060.8,619.6,1059.5,619.6z"/>
		<path fill="#1A171B" d="M1073.3,653.9c1.7,2.2,4.4,3.7,7.6,3.7c5.7,0,7.8-3.5,7.8-7.9v-3.6h-0.1c-1.8,2.7-4.6,3.8-7.5,3.8
			c-5.8,0-10.4-4.3-10.4-10.2c0-5.8,4.2-11.3,10.1-11.3c2.4,0,5.4,0.7,7.7,3.8l0.2,0.7v-4.5h2.8v21.3c0,4.4-1.8,10.4-10.7,10.4
			c-4,0-7-1.3-9.6-4L1073.3,653.9z M1081.2,647.3c4.1,0,7.7-3.1,7.6-7.7c0-4.2-3-8.7-7.7-8.7c-4.2,0-7.4,3.6-7.3,8.7
			C1073.9,643.8,1077,647.3,1081.2,647.3z"/>
		<path fill="#1A171B" d="M1106.2,649.8h-3l-8.1-21.4h3.3l6.4,18.4h0.1l6.5-18.4h3.1L1106.2,649.8z"/>
		<path fill="#1A171B" d="M1119.2,639.2c0,4,3.3,8.1,7.1,8.1c2.9,0,5.1-1.6,6.2-3.3l2.1,1.7c-2.3,2.9-5.1,4.1-8.3,4.1
			c-5.7,0-10-5.5-10-11.3c0-5.8,4.2-10.1,9.7-10.1c5.8,0,9.2,4.4,9.2,9.6v1.2H1119.2z M1132.3,637c0-3.7-2.3-6.2-6.3-6.2
			c-3.5,0-6.8,3-6.8,6.2H1132.3z"/>
		<path fill="#1A171B" d="M1139.7,635.2c0-1.7-0.1-4-0.2-6.8h2.7v3.6h0.1c0.8-2.1,2.8-3.6,6.2-3.6c0.8,0,1.4,0.1,2,0.2l-0.5,2.7
			c-0.3-0.1-0.8-0.2-1.6-0.2c-4.1,0-6,3.9-6,6.5v12.2h-2.7V635.2z"/>
		<path fill="#1A171B" d="M1157.1,637.9l9.9-9.5h4.1l-10.4,9.6l10.4,11.8h-4.2l-9.8-11.5v11.5h-2.7v-33.3h2.7V637.9z"/>
	</g>
	<g>
		<path fill="#1A171B" d="M918.3,698.1L918.3,698.1l0-12.6h1.5v14.9H918l-8.9-12.8h0v12.8h-1.5v-14.9h1.9L918.3,698.1z"/>
		<path fill="#1A171B" d="M936.5,700.8c-4.4,0-7.8-3.3-7.8-7.8c0-4.5,3.3-7.8,7.8-7.8c4.4,0,7.8,3.3,7.8,7.8
			C944.3,697.5,941,700.8,936.5,700.8z M936.5,686.5c-3.8,0-6.1,3-6.1,6.4c0,3.4,2.3,6.4,6.1,6.4c3.8,0,6.1-3,6.1-6.4
			C942.7,689.5,940.4,686.5,936.5,686.5z"/>
		<path fill="#1A171B" d="M954.7,700.4h-1.5v-14.9h4.6c3,0,4.9,1.3,4.9,4c0,2.1-1.4,3.6-3.8,3.9l4.3,7.1h-1.9l-4.1-6.9h-2.5V700.4z
			 M954.7,692.1h2.7c2.7,0,3.6-1.2,3.6-2.6c0-1.4-0.9-2.6-3.6-2.6h-2.7V692.1z"/>
		<path fill="#1A171B" d="M973,700.4h-1.5v-14.9h4.6c3,0,4.9,1.3,4.9,4c0,2.1-1.4,3.6-3.8,3.9l4.3,7.1h-1.9l-4.1-6.9H973V700.4z
			 M973,692.1h2.7c2.7,0,3.6-1.2,3.6-2.6c0-1.4-0.9-2.6-3.6-2.6H973V692.1z"/>
		<path fill="#1A171B" d="M991.4,691.9h0.2l7-6.5h2.2l-7.5,6.8l7.9,8.2H999l-7.3-7.7h-0.3v7.7h-1.5v-14.9h1.5V691.9z"/>
		<path fill="#1A171B" d="M1015.8,700.8c-4.4,0-7.8-3.3-7.8-7.8c0-4.5,3.3-7.8,7.8-7.8c4.4,0,7.8,3.3,7.8,7.8
			C1023.5,697.5,1020.2,700.8,1015.8,700.8z M1015.8,686.5c-3.8,0-6.1,3-6.1,6.4c0,3.4,2.3,6.4,6.1,6.4c3.8,0,6.1-3,6.1-6.4
			C1021.9,689.5,1019.6,686.5,1015.8,686.5z M1013.7,682c0.6,0,1.1,0.5,1.1,1.1c0,0.5-0.4,1.1-1.1,1.1c-0.6,0-1.1-0.5-1.1-1.1
			C1012.7,682.5,1013.1,682,1013.7,682z M1017.8,682c0.6,0,1.1,0.5,1.1,1.1c0,0.5-0.4,1.1-1.1,1.1c-0.6,0-1.1-0.5-1.1-1.1
			C1016.7,682.5,1017.2,682,1017.8,682z"/>
		<path fill="#1A171B" d="M1032.4,685.5h4.3c3,0,4.9,1.3,4.9,4c0,2.7-1.9,4-4.9,4h-2.8v6.9h-1.5V685.5z M1033.9,692.1h2.4
			c2.7,0,3.6-1.2,3.6-2.6c0-1.4-0.9-2.6-3.6-2.6h-2.4V692.1z"/>
		<path fill="#1A171B" d="M1051.9,700.4h-1.5v-14.9h1.5V700.4z"/>
		<path fill="#1A171B" d="M1072.6,698.1L1072.6,698.1l0-12.6h1.5v14.9h-1.9l-8.9-12.8h0v12.8h-1.5v-14.9h1.9L1072.6,698.1z"/>
		<path fill="#1A171B" d="M1095,688.2c-1-1.1-2.4-1.7-4.3-1.7c-3.8,0-6.1,3-6.1,6.4c0,3.4,2.3,6.4,6.1,6.4c1.5,0,3-0.4,4.1-1.1v-5
			h-3.6v-1.4h5.1v7.3c-1.7,1-3.8,1.5-5.6,1.5c-4.4,0-7.8-3.3-7.8-7.8c0-4.5,3.3-7.8,7.8-7.8c2.4,0,4.1,0.7,5.4,2L1095,688.2z"/>
	</g>
	<g>
		<polygon fill="#7FA212" points="961.1,372.9 994.3,439.1 961.1,505.3 927.8,439.1 		"/>
		<polygon fill="#96BD0D" points="923.8,447 957,513.2 890.5,513.2 		"/>
		<polygon fill="#96BD0D" points="1072.1,447 1105.3,513.2 1038.8,513.2 		"/>
		<polygon fill="#96BD0D" points="998.1,299.2 1031.4,365.4 998.1,431.6 964.9,365.4 		"/>
		<polygon fill="#905E36" points="998.1,447 1031.4,513.2 998.1,579.4 964.9,513.2 		"/>
		<polygon fill="#7FA212" points="1035.1,372.8 1068.3,439 1035.1,505.2 1001.9,439 		"/>
	</g>
</g>
</svg>
