<?xml version="1.0" encoding="utf-8"?>
<!-- Generator: Adobe Illustrator 18.1.1, SVG Export Plug-In . SVG Version: 6.00 Build 0)  -->
<svg version="1.1" id="Layer_1" xmlns="http://www.w3.org/2000/svg" xmlns:xlink="http://www.w3.org/1999/xlink" x="0px" y="0px"
	 viewBox="0 0 2000 1000" enable-background="new 0 0 2000 1000" xml:space="preserve">
<rect x="1" fill="#E1533C" width="2001.8" height="1000"/>
<path fill="#939393" d="M1344.2,601.8c-20,12.8-37.8,20.7-64.6,20.7c-6.9,0-13-0.4-18.2-0.7c-4.7-0.3-8.3-0.6-11.8-0.6
	c-3.1,0-16.1-1.4-28.6-2.8c-3.7-0.4-8.4-0.8-12-1.2c4.8-5.2,8.3-8.9,12.7-13.6c11-11.6,21.5-22.5,29.8-33.4c1-1.3,2.3-2.9,3.6-4.5
	c1.7-2.1,3.4-4.2,4.4-5.5c9-11.2,24-35.1,34.1-52.3c0.7-1.2,1.9-3.7,1.4-5c-0.5-1.4-0.1-2.9-3.6-5.9l-2.8-2.7
	c-0.8-0.3,1.2,5.1,0.3,5.1c-2,0-3.9,1-4.8,2.7c-13.9,24-31.1,49-36.1,53.7c-4.7,4.3-23.5,14.9-37.5,14.9c-0.9,0-1.7,0-2.5-0.1
	c-0.6-0.1-1.2-0.2-1.7-0.3c-1-0.2-1.3-0.4-1.3-0.5c-2.1-3.5,2.9-16.3,5.3-21.1c1.1-2.3,8.7-17.2,12.7-23.6
	c0.6-1,10.3-18.4,12.1-21.1c1.2-1.8,2.4-3.7,3.6-5.6c1-1.7,3.3-6,3.2-7.6c-0.1-2.3-0.9-2.9-1.8-5.1l-3.3-4.7l-0.3-0.2
	c-0.9-0.4,0.8,4.6-0.2,4.6c-2.2,0-4.3,1.1-5.4,2.9c-2.9,4.7-5.3,9.2-8,14.1c-2.7,5-6.3,9.9-10.2,15c-2.1,2.8-4.3,5.7-6.4,8.8
	c-9.1,12.8-44.4,33.4-54.5,33.4c-0.1,0-0.2,0-0.3,0l-0.7-0.1c0-1.3-1.6-3,0.5-7.6c3-6.6,6.7-14.9,11.1-19.7
	c3.9-4.3,7.7-8.1,9.9-11.2c0.6-0.9,1.2-1.7,1.8-2.4c4.1-5.5,10.5-11.7,0.4-22.6c-0.7-0.8-0.7,3.1-0.9,4.4c-0.2,1.3-2.8,0.2-4.3,0.6
	c-1.5,0.4-3,0.9-4.5,1.3c-5.1,1.5-10.1,2.7-14.4,3.3c0.1-0.1,0.1-0.2,0.2-0.3c0.4-0.5,0.8-0.9,1-1.2l0.4-0.5c0.8-0.9-1.2-2-0.2-3.1
	c6.1-6.7,15.4-16.9,11.5-25.8c-2.7-6-3.4-7.3-8.4-11.8c-1.1-1-6.4,3.3-8,3.3c-8,0-18.4,3.9-23.7,12.8c-6.3,10.3-7.7,25.9,0.4,34.3
	c-1.4,1.4-2.8,2.9-4.3,4.4c-6,6.1-13.4,13.7-26.9,23.5c-20.4,14.9-28.6,16.6-33,16.6c-0.8,0-1.5-0.1-2.5-0.2c-1.7-0.2-3.1-4.7-3.4-8
	c0.1-4.6,0.5-14.2,1-18.9c3-2.1,5.4-3.4,9-5.9c5.3-3.6,12.4-8.7,18.7-13.3c15.3-11.2,21.9-17.3,26.2-24.9c4.3-7.8,5.8-13.1,4-16.9
	c-1.9-4.1-7.4-12.2-11.4-14c-2.9-1.3-3.1,3.8-7,3.8c-5.9,0-12.3,1.6-17.8,4.3c-19.3,9.5-36.7,38.2-40.9,67.1
	c-8.7,6.4-15.8,11.8-21.6,16.2c-9.9,7.4-17.2,13-19.6,14c-1.7-1.6-9.3-9.3-10.1-12.3c-1-3.4-2.3-7.7-4-12.5
	c-3-8.5-4.1-17.8-10.6-23.2c12.7-2.5,23.7-7.6,30.3-11c5.1-2.6,12.8-6.9,21.1-12.6c10.5-7.2,13-9.6,13.8-15.8
	c0.7-5.2-2.3-12.2-4.7-13.7c-3.4-2.3-2.6,2.5-9.8,2.4c-15.4-0.3-31.6,6.6-44.9,14.6c-1.1-1.1-3.8-0.9-4.9-2.1l-1-0.1
	c0.1-5,8.8-13.3,10.5-15.6c4.4-5.7,9.7-12.3,15-19.8c26.9-38,39.9-56,41.6-59l6.1-10.5c16.8-29.4,24.6-43.8,25.3-54.5
	c0.5-8-1.3-15.2-11.8-19.6c-3-1.2-1.3,5.5-3.8,5.5c-16.1,0-28.6,15.6-51.3,64.2c-2.9,6.4-5.3,11.5-7.6,16.2
	c-4.2,9.1-7.9,16.9-13.9,30.3c-2.6,5.8-5.4,12.2-8.2,18.7c-6.2,14-12.5,28.4-18,40.6c-18.2,20.8-26.7,22.9-33.9,24.3
	c-0.1-6.3-0.7-8.1-2.1-13c-2-6.9-10.1-13.8-15.4-17c-2.4-1.5-6.5,4.4-9.2,4.5c-11.1,0.6-20.9,6.2-29.9,17.3
	c-7.9,7.2-15.1,11.5-23.3,13.8c0-8.4-1.8-16-12-28.4c-6.3,0.6-2.5-0.1-10.3-0.1c-0.9,0-1.8,0-2.8,0.1c-28.1,1.6-42.4,28-56.2,53.5
	l-2.4,4.5c-4.6,8.5-9,16.6-13.8,24.7c-1,1.7-2.4,3.7-3.8,5.6c-1,1.4-2,2.8-2.9,4.1c-20.1,30.5-42.3,49.1-59.4,49.8
	c-0.4,0-0.8,0-1.3,0c-5.4,0-7.9-1.3-9.6-3.4c-13.6-17-7.2-78.7,20.5-161.8c17.5-51.2,46.4-94.7,57.8-107.2
	c12.8-13.8,29.2-22.4,40.8-22.4c0.4,0,0.8,0,1.2,0c7.5,0.4,9.4,3.2,13.4,6.3c2.1,1.6,8.4,9,2.5,25.8c-6.7,19.2-16.2,20.6-18,21.7
	l-2.8,1.1c4.4,5.2,10.6,1.3,13.3-0.5c0,0,13.1-8.8,16.2-17.9c8.6-25.3,6.8-32.1-8.5-45.1c-7.1-0.3-8.5-2.9-20.2-1.8
	c-10.3,1-26.5,5.6-45.4,21.6c-27.6,23.4-51,62.8-69.6,117.3c-15.5,47.3-24.6,86.1-27.1,115.4c-2.3,26.6,2.7,28.9-0.7,41.6
	c12.2,22.8,21.3,22.5,30.4,22.8c3.9,0.1,7.7-0.1,11.4-0.7c22.1-3.7,41.6-21.8,65.9-57.2c1.4,5.2,0.5,4.4,2.8,8.3
	c5.8,10.1,14.4,13,20.7,13.6c1.1,0.1,2.3,0.1,3.4,0.1c22.6,0,34.8-19.1,48.8-42.3l1.4-2.3c6.2-10.3,8.2-18.8,14.3-31.8
	c3.2-0.6,6.2-1.4,9.2-2.4c-2.2,4.6-4.4,9.7-7,16c-4.9,11.8-8.9,23.9-8,40.5c6.7,12.5,15.4,15.4,22.9,16.3c1.8,0.2,3.7,0.3,5.5,0.1
	c7.4-0.5,16.7-4.4,27-14.5c9.2-9,14.3-18.5,22.5-38.4c3.3-7.9,6.6-15.2,8.1-21.6c0.8-0.2,1.6-0.3,2.4-0.5c6.6-1,12.4-3.3,18.6-7.5
	c-9.3,20.9-17.3,39.1-22.1,50.4c-3.3,7.7-11.3,6.2-12.5,9.2c-0.5,1.2-0.2,2.4,0.1,3.6c1.8,6.2,7.4,9.2,8.7,9.6l0.2,0.1
	c3.2,0.7,6.4,1.3,9.7,2c0.4,0.1,0.8,0.2,1.3,0.2c2,0,3.8-1.2,4.5-2.9c1.2-2.9,3.7-8.8,6.8-15.9c1.1-2.5,2.3-5.3,3.6-8.3
	c3.8-8.8,10.5-24.2,15.8-36.3c6.1,2.3,11.7,12.9,15.7,24c1.6,4.4,2.8,8.4,3.9,11.8c0.4,1.4-1.6,5.7-1.2,7.2
	c2.7,9.8,6.3,17.2,19.6,16c6.2-0.6,30-18.6,41.9-28.6c-0.1,2.6-0.1,7.1-0.2,8.2l0,0.1l-2.2,4.2c5.5,7.9,7.8,10.2,15.1,13
	c2.2,0.9,7.6,1.3,10.3,1.3c14.1,0,27.9-10.9,40.3-21c17.7-14.3,27.7-24.7,35.8-32.3c0.7-0.7,1.4-1.4,2.1-2c1.9,0.4,7.8,0.5,9.8,0.5
	c4.2,0,6.3,0.2,10.6-0.9c-1.4,1.7-3,3.6-4.8,5.5c-6.9,7.7-29.9,24.7-23.8,37.2c5.8,12,13.7,12.8,18.1,13.4c0.6,0.1,1.3,0.1,2,0.1
	c11.1,0,29.1-10.8,44.8-21.6c-2.8,8.1-9.7,11.7-6.2,17.6c5.6,9.6,10.6,13.4,17.2,14.7c1,0.2,2.1,0.4,3.2,0.5
	c5.9,0.6,12.3-0.1,19.1-2.1c-8.9,9.9-19.4,20.7-30.3,31.7c-0.4,0.4-0.8,0.9-1.3,1.3c0,0-0.1,0-0.2,0c-22.2-2.3-44.7-4.5-74.8-6.7
	c-39.6-2.9-83.3-4.5-123.1-4.5c-16.4,0-32,0.3-46.6,0.8c-59.9,2-113.7,7.3-151.5,14.9c-48.2,9.8-74.6,14.8-72.7,31.3
	c1.9,16.3,15.1,20.1,36.1,23.6c13.4,2.2,32.3,3.7,59.7,4.8c25,0.9,53.9,1.5,79.9,2c18.6,0.4,36.2,0.8,50.9,1.2
	c13.5,0.4,27.1,0.6,40.2,0.6l2.3,0c41-0.2,90.5-1.8,133.5-12.9c29.3-7.6,49.4-21.9,69.7-40.9c0,0,0.1-0.1,0.2,0
	c15.5,1.6,31.6,2.6,41.5,3.3c4.4,0.3,18.9,1.1,23.3,1.2c3.1,0,14,0.1,16.8,0.2c3.3,0.1,6.4,0.2,9.5,0.2c11.5,0.1,32.9-4.3,47.3-14.2
	c4.8-3.3,15.9-10.4,20.9-14.4c0.3-0.2,5.2-3.3,8.8-6.1c3.1-2.4,3.6-4.9,0.7-8.3l-0.8-1L1344.2,601.8z M1142.6,495.2
	c-0.4,0.4-0.7,0.8-0.9,1.1l-0.4,0.5c-1,1.2-8.1,3.5-10.7,6.1c-1.7-3.3,1.2-15.5,4.7-21.2c0.8-1.3,6.2-7.5,13.8-7.2l0.2,4
	c0.4,0,1.1,0.1,1.3,0.1c1.8,0.4,2.3,0.8,2.5,0.9C1153.1,480.9,1151.8,484.5,1142.6,495.2z M1055.5,516c5.6-18.2,17-36.7,28.4-42.3
	c3-1.5,7.9-2.4,9.8-2.4c0.1,0,2.2,2,2.2,2l-0.5-3c1.3,0.1,1,3.1,2,3.7c1,0.6,1.6,1.2,1.8,1.4c1.2,4.8,2.3,9.3-27.7,30.6
	c-2,1.4-4.2,3-6.5,4.6C1062.5,512.5,1057.9,514.3,1055.5,516z M991.6,425c1.2-2.4,2.2-4.7,3.2-6.5c4.9-9.6,4.6-11.3,7.5-17.5
	c2.9-6.1,4.1-10.8,6.6-15.3c4.6-8.3,9.3-21.3,12.5-27.4c4.6-8.8,11.3-19.8,15.8-27.1c8.9-14.3,14.7-14.9,17.1-16.1
	c0.2-0.1,1.1-0.2,2.1-0.2c0.3,0,0.5,0,0.6,0c0,0,0,0,0,0c-0.1,1.8-2.2,10.7-11.4,28.3c-11.1,21.2-25.2,41.2-38.9,60.5
	c-4.2,5.9-8.5,11.9-12.6,18C993.4,422.6,992.6,423.7,991.6,425z M960.6,502.8c-4.9-9.8,51.6-37,57.7-28.3c0.8,1.1,2.7,0.1,3.8,0.3
	c-0.2,0.3-0.5,0.6-0.9,0.9c-1.2,1.1-3.8,3.1-9.3,6.9c-6.5,4.5-14.1,8.3-18.6,10.5c-1.1,0.6-2,1-2.8,1.4
	C982.1,498.9,972.7,501.5,960.6,502.8z M904.7,499.4c-8.7,0-13.1-2.8-14.3-5.4c-0.8-1.8-2.1-5.9-1-8.1c0.7-1.4,2.8-3.2,4.4-3.5
	c0.2-0.1,0.5-0.1,0.7-0.2c0.6-0.1,1.2-0.2,1.7-0.2c1.2-0.1,2.9,0,4.5,0.3c3.2,0.6,2.7,3.5,4.4,6.1l0.5,0.8c1.5,2.3,2.2,5.8,2.1,10
	C906.7,499.4,905.7,499.4,904.7,499.4z M905.4,513.7c-1.3,4.5-3,9.6-5.2,15.1c-11.7,28.8-23.8,43.9-36,44.7c-0.9,0.1-1.7,0-2.5-0.1
	c-2.9-0.3-5.6-1.3-7-3.4c-2.6-4-6.6-13.9,2.6-35.5c5-11.6,11.8-25.4,18.2-35.2c2.3,4.4,10.2,14.4,29,14.4
	C904.7,513.7,905,513.7,905.4,513.7z M823.8,517.6c-2.3,7.7-6,16.1-10.7,24.4c-17.7,31.4-25.3,36.7-35.9,36.7c-0.7,0-1.5,0-2.3-0.1
	c-2.2-0.2-4-1.2-5.6-3.1c-4.6-5.5-4.5-12.5-2.9-20.4l0-0.1c0.8-4.7,4.7-15.8,8.7-22.9l0.8-1.5c5-9.1,11.1-18.8,16.2-26.1
	c4.5,6.9,13.1,12.3,22.8,12.8C818.2,517.5,821.1,517.6,823.8,517.6z M826.6,503.2c-3.3,0.2-6.8,0.2-10.6,0
	c-6.8-0.4-9.6-3.9-10.7-6.7c-0.7-1.7-3.6-1.8-3.7-2.8c4.2-3.5,10.9-6.6,15.1-7c0.2,0,0.3,0,0.5,0c0.4,0,0.7,0,1,0
	c2.8,0,3.7,0.7,5.5,3.1C826,492.8,827,497.4,826.6,503.2z M949.7,616.2c14.6-0.5,29.8-0.8,45.2-0.8l2.9,0c38,0,79.5,2.5,120.1,5.5
	c19.8,1.4,35.6,3.2,50.9,4.9c4,0.4,8.2,0.9,12.4,1.3c-17.5,13.5-34.7,21.9-56.3,27.5c-28.5,7.4-65.2,10.8-119,10.8
	c-15.6,0-33.3-0.3-54-0.9c-11.6-0.4-24.9-0.7-39.1-1.2c-28.7-0.8-61.1-1.8-90.1-2.8c-27.3-0.8-47.2-2.4-59.3-4.6
	c-10.8-2-11.9-4-11.9-4c0,0,0-0.2,0-0.3l-4-0.4c-0.2-1.1,2.6-5.2,8.2-8.6c7.7-4.5,23.9-8.2,46.3-12.8
	C837.1,623,886.8,618.3,949.7,616.2z"/>
<path fill="#FFFFFF" d="M1343.4,596.4C1343.4,596.4,1343.4,596.4,1343.4,596.4c-20,12.8-42.8,19-69.5,19c-6.9,0-13.1-0.4-18.3-0.7
	c-4.5-0.3-8.3-0.6-11.8-0.6c-3.1,0-16.1-1.4-28.6-2.8c-3.7-0.4-7.4-0.8-11-1.2c0,0,0,0,0,0c4.8-5.2,9.3-9.9,13.7-14.5
	c11-11.6,20.5-21.5,28.8-32.4c1-1.3,2.3-2.9,3.6-4.5c1.7-2.1,3.4-4.2,4.4-5.5c9-11.2,25-35.1,35.1-52.3c0.7-1.2,0.9-2.7,0.4-4
	c-0.5-1.4-1.5-2.6-3-3.3l-1.6-0.7c-0.8-0.3-1.6-0.5-2.5-0.5c-2,0-3.9,1-4.8,2.7c-13.9,24-31.1,49-36.1,53.7
	c-4.7,4.3-23.5,14.9-37.5,14.9c-0.9,0-1.7,0-2.5-0.1c-0.6-0.1-1.2-0.2-1.7-0.3c-1-0.2-1.3-0.4-1.3-0.5c0,0,0,0,0,0
	c-2.1-3.5,4.9-18.3,7.3-23.1c1.1-2.3,9.7-17.2,13.7-23.6c0.6-1,1.2-1.9,1.8-2.8l1-1.6c1.4-2.3,2.6-4.5,4-7.2c0.5-0.9,1-1.8,1.5-2.8
	c1.4-2.5,3-5,4.8-7.7c1.2-1.8,2.4-3.7,3.6-5.6c1-1.7,1.3-3.5,0.9-5c-0.4-1.3-1.3-2.4-2.6-3.1l-1.6-1l-0.3-0.2
	c-0.9-0.4-1.9-0.7-2.9-0.7c-2.2,0-4.3,1.1-5.4,2.9c-2.9,4.7-5.3,9.2-8,14.1c-2.7,5-6.3,9.9-10.2,15c-2.1,2.8-4.3,5.7-6.4,8.8
	c-9.1,12.8-44.4,33.4-54.5,33.4c-0.1,0-0.2,0-0.3,0l-0.7-0.1c0-1.3,0.4-4,2.5-8.6c3-6.6,7.7-13.9,12.1-18.7
	c3.9-4.3,6.7-8.1,8.9-11.2c0.6-0.9,1.2-1.7,1.8-2.4c4.1-5.5,8-10.6,4.1-15.5c-0.6-0.8-2.6-2.7-6.6-2.7c-1.3,0-2.8,0.2-4.3,0.6
	c-1.5,0.4-3,0.9-4.5,1.3c-5.1,1.5-10.1,2.7-14.4,3.3c0.1-0.1,0.1-0.2,0.2-0.3c0.4-0.5,0.8-0.9,1-1.2l0.4-0.5c0.8-0.9,1.8-2,2.8-3.1
	c6.1-6.7,14.4-15.9,10.5-24.8c-2.7-6-8.2-7.9-13.9-9c-1.4-0.3-2.9-0.4-4.5-0.4c-8,0-18.4,3.9-23.7,12.8c-6.2,10.3-7.7,25.9,0.4,34.3
	c0,0,0,0,0,0c-1.4,1.4-2.8,2.8-4.3,4.3c-6,6.1-13.4,13.7-26.9,23.5c-20.4,14.9-28.6,16.6-33,16.6c-0.8,0-1.5-0.1-2.5-0.2
	c-1.7-0.2-3.1-4.7-3.4-8c0,0,0,0,0,0c0.1-4.6,0.5-11.2,1-15.9c0,0,0,0,0,0c3-2.1,6.4-4.4,10-6.9c5.3-3.6,11.3-7.7,17.7-12.3
	c15.3-11.2,24.9-20.3,29.2-27.9c4.3-7.8,2.8-13.1,1-16.9c-1.9-4.1-4.3-6.5-8.3-8.3c-2.9-1.3-6.3-2-10.1-2c-5.9,0-12.3,1.6-17.8,4.3
	c-19.3,9.5-36.7,38.2-40.9,67.1c0,0,0,0,0,0c-8.7,6.4-15.8,11.8-21.6,16.2c-9.8,7.4-17.2,12.9-19.6,14c0,0,0,0,0,0
	c-1.7-1.6-4.3-10.3-5.1-13.2c-1-3.4-2.3-7.7-4-12.5c-3-8.5-8.1-15.8-14.6-21.1c0,0,0,0,0,0c12.7-2.5,21.7-6.6,28.3-10
	c5.1-2.6,14.8-7.9,23.1-13.6c10.5-7.2,15.9-12,16-18.2c0-1.9-0.7-3.7-2.1-5.2c-2.8-2.9-8.3-4.6-15.5-4.8
	c-15.4-0.3-31.6,6.6-44.9,14.5c-1.1-1.2-0.8-0.9-1.9-2.1l0,0c4.3-6.1,7.3-10.7,10.5-15.6c3.3-5.1,6.7-10.3,12-17.8
	c26.9-38,39.9-58,41.6-61l3.1-5.5c16.8-29.4,27.9-48.8,27.3-59.5c-0.4-6.6-3.3-11.8-7.2-12.9c-3.1-0.8-5.9-1.2-8.4-1.2
	c-16.1,0-28.6,15.6-51.3,64.2c-2.9,6.4-5.3,11.5-7.6,16.2c-4.2,9.1-7.9,16.9-13.9,30.3c-2.6,5.8-5.4,12.2-8.2,18.7
	c-6.2,14-12.5,28.4-18,40.6c0,0,0,0,0,0c-18.2,20.8-25.6,24.8-32.8,26.2c0,0,0,0,0,0c-0.1-6.3-1.5-11.6-4.2-15.9
	c-3.5-5.6-6.5-9.4-15.4-11c-2.8-0.5-5.5-0.7-8.2-0.5c-11.1,0.6-20.9,6.2-29.9,17.3c0,0,0,0,0,0c-7.9,7.2-15.1,11.5-23.3,13.8
	c0,0,0,0,0,0c0-8.4-1.9-15.4-5.6-20.4c-4.2-5.8-8.9-8.1-16.6-8.1c-0.9,0-1.8,0-2.8,0.1c-28.1,1.6-42.4,28-56.2,53.5l-2.5,4.6
	c-4.6,8.5-8.9,16.5-13.7,24.7c-1,1.7-2.4,3.7-3.8,5.6c-1,1.4-2,2.8-2.9,4.1c-20.1,30.5-42.3,49.1-59.4,49.8c-0.4,0-0.8,0-1.3,0
	c-5.4,0-9.9-1.3-11.6-3.3c-13.6-17-5.2-76.7,22.5-159.8c17.5-51.2,48.4-95.7,59.8-108.2c12.8-13.8,26.2-21.4,37.8-21.4
	c0.4,0,0.8,0,1.2,0c7.5,0.4,10.4,2.2,14.4,5.3c2.1,1.6,8.4,8,2.5,24.8c-5.3,15.1-12.7,22.5-15.7,25c-0.7,0.6-1,1.7-0.6,2.6l0.8,1.7
	c0.6,1.3,1.9,1.8,3,1.4c7.4-2.9,12.3-7.8,13.6-9.3l0,0c4.1-4.5,6.9-9.3,9.6-16c6.4-16.4,5.7-27-2.4-36.5c-7.8-9-16.6-12.6-28.2-11.5
	c-10.3,1-20.5,4.6-39.4,20.6c-27.6,23.4-57,67.8-75.6,122.3c-15.5,47.3-24.6,82.1-27.1,111.4c-2.3,26.6,0.9,45.5,9.5,56.1
	c5.1,6.1,10,9.9,19.1,10.3c3.9,0.1,7.7-0.1,11.4-0.7c22.1-3.7,44.6-22.8,68.9-58.1c0,0,0,0,0,0c1.4,5.2,3.6,10.9,6.5,14.4
	c4.1,5,9.7,7.9,16,8.5c1.1,0.1,2.3,0.1,3.4,0.1c22.6,0,34.8-20.1,48.8-43.3l1.4-2.3c6.2-10.3,10.9-21.9,13.3-32.8c0,0,0,0,0,0
	c3.1-0.6,6.2-1.4,9.1-2.4c0,0,0,0,0,0c-2.2,4.6-4.4,9.7-7,15.9c-4.9,11.8-11.6,33.9-1.1,49.6c3.7,5.6,8.5,8.3,16,9.2
	c1.8,0.2,3.7,0.3,5.5,0.1c7.4-0.5,15.7-2.4,26-12.5c9.2-9,17.3-22.5,25.5-42.4c3.3-7.9,5.6-15.2,7.1-21.6c0,0,0,0,0,0
	c0.8-0.1,1.6-0.3,2.3-0.5c6.5-1,11.4-3.3,17.6-7.5c0,0,0,0,0,0c-9.3,20.9-17.3,39-22.1,50.3c-3.2,7.5-5.6,13.3-6.8,16.3
	c-0.5,1.2-0.4,2.5,0.1,3.6c0.6,1.2,1.7,2.1,3,2.5l0.2,0.1c3.2,0.7,6.4,1.3,9.7,2c0.4,0.1,0.8,0.2,1.3,0.2c2,0,3.8-1.2,4.5-2.9
	c1.2-2.9,3.7-8.8,6.8-15.9c1.1-2.5,2.3-5.2,3.6-8.2c3.8-8.9,8.5-19.7,13.9-31.8c0,0,0,0,0,0c6.1,2.3,13.6,8.3,17.7,19.5
	c1.6,4.4,2.8,8.4,3.9,11.8c0.4,1.4,0.8,2.9,1.2,4.3c2.7,9.8,5.8,20.8,17.1,20.8c6.2-0.1,30-18.6,41.9-28.6c0,0,0,0,0,0
	c-0.1,2.6-0.1,5.1-0.2,6.2l0,0.1l0,0.5c0.6,8.5,5.6,15.8,12.8,18.6c2.2,0.9,4.6,1.3,7.3,1.3c14.1,0,31.9-11.9,44.3-22
	c17.7-14.2,28.7-24.7,36.8-32.3c0.7-0.7,1.4-1.4,2.1-2c0,0,0,0,0,0c1.9,0.4,3.8,0.5,5.8,0.5c4.2,0,8.3-0.8,12.6-1.9c0,0,0,0,0,0
	c-1.4,1.7-3,3.6-4.7,5.5c-6.9,7.7-24.1,32.6-17.8,45.1c2.1,4.2,7.7,7,12,7.5c0.6,0.1,1.3,0.1,2,0.1c11.1,0,29.1-9.8,44.8-20.6
	c0,0,0,0,0,0c-2.8,8.1-4,15.8-0.5,21.7c1.6,2.7,4.9,6.3,11.5,7.6c1,0.2,2.1,0.4,3.2,0.5c5.9,0.6,12.3-0.1,19-2.1c0,0,0,0,0,0
	c-8.9,9.8-19.4,20.6-30.2,31.7c-0.4,0.4-0.8,0.9-1.3,1.3c0,0-0.1,0-0.2,0c-22.3-2.3-44.8-4.5-74.8-6.7c-39.6-2.9-83.3-4.5-123.1-4.5
	c-16.4,0-32,0.3-46.6,0.8c-59.9,2-113.7,7.2-151.5,14.9c-48.2,9.8-69.5,22-67,38.4c1.4,9.3,11.4,15,32.4,18.5
	c13.4,2.2,32.3,3.7,59.7,4.8c25,0.9,51.9,1.5,78,2c18.6,0.4,36.1,0.8,50.9,1.2c13.5,0.4,27,0.6,40.1,0.6l2.4,0
	c41-0.2,93.5-1.8,136.5-12.9c29.3-7.6,48.4-23.9,68.7-42.9c0,0,0.1,0,0.2,0c15.5,1.6,30.5,2.8,40.4,3.5c4.4,0.3,7.8,0.6,9.6,0.8
	c4.9,0.5,16.5,1.2,20.9,1.2c3.1,0,6,0.1,8.8,0.2c3.3,0.1,6.4,0.2,9.5,0.2c16.7,0,29-2,54.1-14.7c9.2-4.6,24.8-16.1,28.6-19.8
	c1.5-1.4,0.8-2.9-0.9-3.9l-5.6-2.6c-1.5-0.6-3.1-0.4-4.4,0.5L1343.4,596.4z M1136.9,488.1c-0.4,0.4-0.7,0.8-0.9,1.1l-0.4,0.5
	c-1,1.2-3.1,3.5-5.6,6.1c0,0,0,0,0,0c-1.7-3.3-1.8-10.5,1.7-16.2c0.8-1.3,6.2-8.2,11.8-8.2l0.2,0c0.4,0,1.1,0.1,1.3,0.1
	c1.8,0.4,2.3,0.8,2.5,0.9c0,0,0,0,0,0C1147.4,473.7,1146.1,477.3,1136.9,488.1z M1051.8,508.8
	C1051.8,508.8,1051.8,508.8,1051.8,508.8c5.6-18.2,17-34.7,28.3-40.3c3-1.5,5.9-2.4,7.8-2.4c0.1,0,0.2,0,0.2,0l0.5,0
	c1.3,0.1,2,0.1,3,0.7c1,0.6,1.6,1.2,1.8,1.4c0,0,0,0,0,0c1.2,4.8,2.3,9.3-27.7,30.6c-2,1.4-4.2,3-6.5,4.6
	C1056.8,505.3,1054.2,507.1,1051.8,508.8z M985.9,417.9c1.2-2.4,2.2-4.7,3.2-6.5c4.9-9.6,8.6-17.3,11.5-23.5
	c2.9-6.1,5.1-10.8,7.6-15.3c4.6-8.3,8.3-15.3,11.5-21.4c4.6-8.8,8.3-15.8,12.8-23.1c8.9-14.3,13.7-18.8,16.1-20.1c0,0,0,0,0,0
	c0.2-0.1,1.1-0.2,2.1-0.2c0.3,0,0.5,0,0.6,0c0,0,0,0,0,0c-0.1,1.8-2.2,10.7-11.4,28.3c-11.1,21.2-25.2,41.2-38.9,60.5
	c-4.2,5.9-8.5,11.9-12.6,18C987.7,415.5,986.9,416.6,985.9,417.9z M954.9,495.6C954.9,495.6,954.9,495.6,954.9,495.6
	c12.7-11.6,39.4-28.3,57.6-28.3c1.3,0,2.6,0.1,3.8,0.3c-0.2,0.3-0.5,0.6-0.9,0.9c-1.2,1.1-3.8,3.1-9.3,6.9
	c-6.5,4.5-14.1,8.3-18.6,10.5c-1.1,0.6-2,1-2.8,1.4C976.4,491.7,967,494.4,954.9,495.6z M899,492.3c-8.7,0-13.1-2.8-14.3-5.4
	c-0.8-1.8-1.1-4.9,0-7.1c0.7-1.4,1.8-2.2,3.4-2.5c0.2-0.1,0.5-0.1,0.7-0.2c0.6-0.1,1.2-0.2,1.7-0.2c1.2-0.1,1.9,0,3.5,0.3
	c3.2,0.6,3.7,1.5,5.4,4.1l0.5,0.8c1.5,2.3,2.2,5.8,2.1,10c0,0,0,0,0,0C901,492.3,900,492.3,899,492.3z M899.7,506.5
	c-1.3,4.5-3,9.6-5.2,15.1c-11.7,28.8-23.8,43.9-36,44.7c-0.9,0.1-1.7,0-2.5-0.1c-2.9-0.3-4.6-1.3-6-3.4c-2.6-4-5.6-13.9,3.6-35.5
	c4.9-11.6,10.7-24.4,17.2-34.2c0,0,0,0,0,0c2.3,4.4,9.2,13.4,28,13.4C899,506.6,899.3,506.6,899.7,506.5z M818.1,510.4
	C818.1,510.4,818.1,510.4,818.1,510.4c-2.3,7.7-6,16.1-10.7,24.4c-17.7,31.4-25.3,36.7-35.9,36.7c-0.7,0-1.5,0-2.3-0.1
	c-2.2-0.2-4-1.2-5.6-3.1c-4.6-5.5-3.5-12.5-1.9-20.4l0-0.1c0.8-4.7,5.7-15.8,9.7-22.9l0.8-1.5c5-9.1,9.8-17.8,14.8-25.1c0,0,0,0,0,0
	c4.5,6.9,12.4,11.2,22.1,11.8C812.5,510.4,815.4,510.5,818.1,510.4z M820.9,496C820.9,496,820.9,496,820.9,496
	c-3.3,0.2-6.8,0.2-10.6,0c-6.8-0.4-9.6-3.9-10.7-6.7c-0.7-1.7-1-3-1.1-4c0,0,0,0,0,0c4.2-3.5,8.3-5.3,12.5-5.7c0.2,0,0.3,0,0.5,0
	c0.4,0,0.7,0,1,0c2.8,0,3.7,0.7,5.5,3.1C820.3,485.7,821.3,490.2,820.9,496z M944,610.1c14.6-0.5,29.8-0.8,45.2-0.8l2.9,0
	c38,0,79.6,1.5,120.1,4.5c19.8,1.4,35.6,3.2,50.9,4.9c4,0.4,8.1,0.9,12.3,1.3c0,0,0,0,0,0c-17.5,13.5-34.7,21.9-56.3,27.5
	c-28.5,7.4-65.2,10.8-119,10.8c-15.6,0-33.3-0.3-54-0.9c-11.7-0.4-25.1-0.7-39.3-1.2c-28.6-0.8-61-1.8-89.9-2.8
	c-27.3-0.8-47.2-2.4-59.3-4.6c-10.8-2-11.9-4-11.9-4c0,0,0-0.2,0-0.3l0-0.4c-0.2-1.1-0.4-3.2,5.2-6.6c7.7-4.5,22.9-9.2,45.3-13.8
	C831.4,616.8,881.1,612.2,944,610.1z"/>
</svg>
