<?xml version="1.0" encoding="utf-8"?>
<!-- Generator: Adobe Illustrator 18.1.1, SVG Export Plug-In . SVG Version: 6.00 Build 0)  -->
<svg version="1.1" id="Layer_1" xmlns="http://www.w3.org/2000/svg" xmlns:xlink="http://www.w3.org/1999/xlink" x="0px" y="0px"
	 viewBox="0 0 2000 1000" enable-background="new 0 0 2000 1000" xml:space="preserve">
<rect fill="#FFFFFF" width="2000" height="1000"/>
<g>
	<polygon fill="#FFFFFF" points="1235.6,736.7 764.4,736.7 764.4,263.3 1235.6,263.3 1235.6,736.7 	"/>
	<polygon fill="#1D1D1B" points="869.7,403.8 869.7,372.7 853.8,372.7 853.8,403.8 844.9,403.8 844.9,333.5 853.8,333.5 
		853.8,364.8 869.7,364.8 869.7,333.5 878.5,333.5 878.5,403.8 869.7,403.8 	"/>
	<path fill="#1D1D1B" d="M908.4,405.1c-9.5,0-16.4-6-16.4-16.1v-55.4h8.8v55.6c0,5.3,2.5,8,7.7,8c5.3,0,7.7-2.7,7.7-8v-55.6h8.7
		v55.4C924.9,399,918,405.1,908.4,405.1L908.4,405.1z"/>
	<path fill="#1D1D1B" d="M952.2,405.1c-9.9,0-16.3-6.5-16.3-15.7v-6.4h8.6v5.5c0,5.9,2.7,9.3,7.7,9.3c5.2,0,7.7-3.3,7.7-8.1
		c0-6.5-2.6-11.3-9.8-17.7c-6.4-5.7-13.5-13.8-13.5-23c0-9.4,5.5-16.6,15.9-16.6c9.5,0,15.6,6.5,15.6,15.8v6.5h-8.3V349
		c0-5.4-2.3-9.1-7.5-9.1c-4.6,0-7.1,2.7-7.1,7.2c0,6.9,2.7,10.9,11,18.4c8.1,7.3,12.3,13.9,12.3,22.5
		C968.6,399.4,961,405.1,952.2,405.1L952.2,405.1z"/>
	<path fill="#1D1D1B" d="M1003,347.4c0-3.7-1.6-5.9-5.4-5.9h-8.2v24.5h7.4c3.9,0,6.2-2.4,6.2-6.9V347.4L1003,347.4z M1012.1,404.4
		c-6.4,0-8.9-1.9-8.9-8.4v-16c0-4.2-1.9-7-6-7h-7.9v30.8h-8.9v-70.3h17.2c9,0,14,4.4,14,14.1v10.7c0,6-1.9,9.8-7.5,11.2
		c5.5,1.2,7.8,5.9,7.8,11v15c0,1.9,0.6,2.7,2.4,2.7v6.2H1012.1L1012.1,404.4z"/>
	<polygon fill="#1D1D1B" points="1026.3,403.8 1026.3,333.5 1035.2,333.5 1035.2,403.8 1026.3,403.8 	"/>
	<polygon fill="#1D1D1B" points="1074.2,403.8 1063.6,372.6 1058.9,383.2 1058.9,403.8 1050.1,403.8 1050.1,333.5 1058.9,333.5 
		1058.9,369 1074.4,333.5 1083.5,333.5 1069.2,363.8 1083.6,403.8 1074.2,403.8 	"/>
	<polygon fill="#1D1D1B" points="1094.7,403.8 1094.7,333.5 1122.3,333.5 1122.3,341.6 1103.5,341.6 1103.5,363.4 1117.1,363.4 
		1117.1,371.1 1103.5,371.1 1103.5,395.8 1122.3,395.8 1122.3,403.8 1094.7,403.8 	"/>
	<polygon fill="#1D1D1B" points="1152.8,341.7 1152.8,403.8 1144.1,403.8 1144.1,341.7 1132.2,341.7 1132.2,333.5 1164.5,333.5 
		1164.5,341.7 1152.8,341.7 	"/>
	<path fill="#E57B3D" d="M875.7,424.7c-21.9,0-39.7,17.8-39.7,39.7c0,21.9,17.8,39.7,39.7,39.7c21.9,0,39.7-17.8,39.7-39.7
		C915.4,442.5,897.6,424.7,875.7,424.7L875.7,424.7z"/>
	<path fill="#E57B3D" d="M1054.9,541.3c17.6,0,31.9-14.3,31.9-31.9c0-17.6-14.3-31.9-31.9-31.9c-17.6,0-31.9,14.3-31.9,31.9
		C1023,527,1037.3,541.3,1054.9,541.3L1054.9,541.3z"/>
	<path fill="#E57B3D" d="M855.8,569.2c11,0,19.9-8.9,19.9-19.9c0-11-8.9-19.9-19.9-19.9c-11,0-19.9,8.9-19.9,19.9
		C836,560.3,844.9,569.2,855.8,569.2L855.8,569.2z"/>
	<path fill="#E57B3D" d="M1133.7,608.8c6.4,0,11.7-5.2,11.7-11.7c0-6.4-5.2-11.7-11.7-11.7c-6.4,0-11.7,5.2-11.7,11.7
		C1122,603.6,1127.2,608.8,1133.7,608.8L1133.7,608.8z"/>
	<path fill="#E57B3D" d="M1140.9,617.6c-13.5,0-24.4,10.9-24.4,24.4c0,13.5,10.9,24.4,24.4,24.4c13.5,0,24.4-10.9,24.4-24.4
		C1165.3,628.5,1154.4,617.6,1140.9,617.6L1140.9,617.6z"/>
	<path fill="#E57B3D" d="M959.2,589.6c30.1,0,54.5-24.4,54.5-54.5c0-30.1-24.4-54.5-54.5-54.5c-30.1,0-54.5,24.4-54.5,54.5
		C904.7,565.2,929.1,589.6,959.2,589.6L959.2,589.6z"/>
	<path fill="#E57B3D" d="M883.1,666.5c26,0,47.1-21.1,47.1-47.1c0-26-21.1-47.1-47.1-47.1c-26,0-47.1,21.1-47.1,47.1
		C836,645.4,857.1,666.5,883.1,666.5L883.1,666.5z"/>
	<path fill="#E57B3D" d="M965.2,664.3c16.3,0,29.4-13.2,29.4-29.4c0-16.3-13.2-29.4-29.4-29.4c-16.2,0-29.4,13.2-29.4,29.4
		C935.8,651.1,948.9,664.3,965.2,664.3L965.2,664.3z"/>
	<path fill="#E57B3D" d="M1109.4,507.5c7.7,0,14-6.3,14-14c0-7.7-6.3-14-14-14c-7.7,0-14,6.3-14,14
		C1095.4,501.2,1101.7,507.5,1109.4,507.5L1109.4,507.5z"/>
	<path fill="#E57B3D" d="M884.8,532.3c5.5,0,10-4.5,10-10c0-5.5-4.5-10-10-10c-5.5,0-10,4.5-10,10
		C874.9,527.9,879.3,532.3,884.8,532.3L884.8,532.3z"/>
	<path fill="#E57B3D" d="M1055.5,661.9c29.3,0,53.1-23.7,53.1-53.1c0-29.3-23.8-53-53.1-53c-29.3,0-53.1,23.8-53.1,53
		C1002.4,638.1,1026.2,661.9,1055.5,661.9L1055.5,661.9z"/>
	<path fill="#E57B3D" d="M1101,545.2c0,17.8,14.4,32.2,32.1,32.2c17.8,0,32.1-14.4,32.1-32.2c0-17.7-14.4-32.1-32.1-32.1
		C1115.4,513,1101,527.4,1101,545.2L1101,545.2z"/>
	<path fill="#1D1D1B" d="M1040.9,428.1c2.3-0.5,1.5,3.2-0.4,3C1039,430.8,1039.6,428.3,1040.9,428.1L1040.9,428.1z M1038.8,434.4
		c6.6,2.3,10.9-11.6,0.8-9.8C1035.4,425.4,1035.1,433,1038.8,434.4L1038.8,434.4z"/>
	<path fill="#1D1D1B" d="M1126.6,457.3c0.8-4.1,3.4-7.6,7.1-9.4C1133.1,451.8,1129.9,455.2,1126.6,457.3L1126.6,457.3z M1065.5,457
		c0.3-4.9,5.9-11.7,10.7-13.5c0.4-0.1,1-0.2,1.5,0.2C1074.8,449.4,1070.8,453.8,1065.5,457L1065.5,457z M1021.3,456.1
		c0.3-4.7,4.8-7.9,8.5-9.6C1028.1,450.3,1024.8,454.2,1021.3,456.1L1021.3,456.1z M944.5,463c-0.3,0.1-0.7,0.2-1.1,0.1
		c-0.2-0.1-0.3-0.2-0.2-0.3c0,0,0-0.1,0.1-0.1c1.3-1.2,2.7-2.4,4.1-3.5c0.9-0.7,1.8-1.4,2.7-2.1C949,461.4,946.5,462.4,944.5,463
		L944.5,463z M1140,459.1c-1.2-5.7,1-10.6,3-14.1c2.6-4.3,1.3-2.5,3.9-6.7c3.4-5.6,8.8-12.7,6.9-13.7c-2.3-1.6-4.9,3.3-6.3,5.4
		c-1,1.4-1.3,2-1.4,2.2c0.6-0.7-0.2,0.4,0,0c-0.2,0.3-0.6,0.8-1.4,1.9c-1.4,1.9-4.1,6.8-6.1,7.1c-2.4,0.3-3.8-0.3-6.1,1
		c-2.4,1.5-4.7,2.7-6.8,3.8c-5,2.7-7.9,8.1-13.1,9.9c-0.1-3.3,1.6-5.9,3.1-8.9c0.7-1.4,6.2-8.2,2.9-9c-3.1-0.7-6.2,4.4-7.8,5.7
		c-4.8,3.9-9.1,9.4-13.6,12.5c-0.6-3.3,1.7-6.4,3.3-8.9c0.7-1.2,7.2-8.4,3.5-9c-2.2-0.4-6.4,5.9-7.7,7.2c-2.4,2.3-5.2,5.2-7.4,7.6
		c-1.2,1.4-6.4,7-9.1,6.3c-2.6-0.7,0-7.6,0.7-9.5c1.3-3.2,3.3-6.2,3.7-8.5c1-6.6-3.6-4.7-6.7-3.1c-8.4,4.6-14.9,10.1-22,16.1
		c-1.1,1-3.7,3.6-4.9,3.2c-1.6-0.4,0.7-5.5,1.1-6.5c3.9-9.8,5.9-11.5,11.6-19.9c0.9-1.3,3.3-4.1,3-6c-0.6-3.8-5.5,2-6.2,2.8
		c-3.1,4.1-2.9,3.6-6.2,7.7c-4.3,5.4-9.5,10.5-14.5,16c-0.9,1-3.6,4.6-4.8,4.2c-1.9-0.6,1.1-5.4,1.6-6.7c1-2.4,2.8-4.7,2.4-7.2
		c-0.5-3.9-5.4-2.8-7.9-1.5c-7.3,3.9-16.9,11-24.3,16c-1.3,0.9-4.4,3.6-5.6,3c-2-1,1-8.3,1.5-9.4c1.3-2.8,4.4-6.2,3.8-8.9
		c-0.7-2.8-4.6-0.3-5.6,0.7c-2.1,1.9-4.5,4-6.6,5.6c-3.4,2.7-5.5,7.1-9.2,8.5c-0.1-4.3,3.2-8,5-11.2c0.5-0.9,1.6-2.7,1.5-3.8
		c-0.4-3.9-6.1,0.4-6.9,1.1c-4.3,3.5-9,8.4-13.8,11c-0.1-3.6,1.3-5.3,3-8.1c0.5-0.8,2-2.1,2.6-3.5c0.2-0.3,0.3-0.6,0.3-0.9
		c0.1-0.3,0.1-0.6,0-0.8c0-0.2-0.1-0.4-0.3-0.5c-0.9-0.9-3.4,0.1-5.6,1.3c-1.6,0.8-3,1.8-3.4,2c-0.4,0.3-1,0.6-1.7,1.1
		c-2.7,1.8-10,5.4-10.2,5.5c-2,1.2-1.7-0.5-2.3-1.5c-0.4-0.7-0.9-1.5-1.5-2.2c-2-2.5-5.5-4.4-4.8-8.4c0.7-4.1,6.7-7.5,9.8-9.8
		c2.4-1.8,1.4-4.4-1.1-3.6c-0.4,0.1-0.9,0.3-1.3,0.5c-4.4,1.8-8.6,5.5-10.5,9.8c0,0.1-0.1,0.1-0.1,0.2c-2.2,5.3-0.1,8.4,3,11.9
		c0.7,0.7,1.4,1.5,2.1,2.3c0.6,0.6,1,1.3,1.3,2.1c0.2,0.5,0.4,1,0.5,1.5c-2.3,1.4-4.4,2.9-6.5,4.5c-0.3,0.3-0.7,0.5-1,0.8
		c-1.7,1.4-5.3,3.7-5.3,6.3c0,1.8,1.6,2.8,3.2,3.3c0.6,0.2,1.2,0.2,1.7,0.2c6.5-0.1,11.6-5.7,12-12.2c0-0.2,0-0.4,0-0.6
		c0.1-0.1,0.1-0.2,0.2-0.3c0.2-0.3,0.4-0.5,0.6-0.7c1.3-1.2,3.4-1.9,4.9-2.9c2.2-1.4,4.2-4.1,7.5-3.7c0,0,0,0.1,0,0.1
		c0.3,5.6-6.7,11.5-3.5,16.7c8.3-2.9,10.5-12.5,18.5-15.3c0.7,4.4-4.1,8.8-3.7,13.9c0.3,5.1,5.5,0.3,6.7-1c1.6-1.7,2.8-3.3,4.1-4.7
		c2.8-3.1,5.3-7,9.2-7.7c-0.8,3.3-5.6,14.9,0.7,15.3c3.3,0.2,6.6-3.4,8.9-4.9c2.9-2,5-4.7,8.6-5.1c0.6,2.4-2.7,8.1,1,8.8
		c2.1,0.4,4.4-2.3,5.4-3.7c2.1-2.9,4.1-6.6,7.3-7.6c1.1,2.7-3.7,10.1,0.8,11c3.7,0.8,8.4-6.8,10.3-9c3.3-3.8,5.6-7.9,9.6-9.9
		c0.6,5.3-8,11.4-5.5,17.6c1.9,4.7,7.9-1.4,9.5-2.8c2.2-2.1,3.9-4,6.5-5.3c0.9,2.3-2.6,7.5,1.3,8.4c3.2,0.7,6-2.9,7.5-4.7
		c0.9-1.1,2.9-4,4.2-3.6c1.5,0.5-0.1,4.8,0.2,6.5c0.3,1.4,1.6,2.5,2.9,3c6.9,2.2,11.3-7.9,15.7-9.7c0.7,1.9-4.6,9.6-0.3,10.4
		c3.2,0.5,5-4.1,6.8-5.8c3.5-3.4,7.6-7.8,11.1-10c0.7,4.1-4.3,8-3.7,13.2c0.1,0.9,0.9,1.8,1.7,2c2.9,0.5,5.3-3.8,6.9-5.5
		c2.4-2.5,5.3-4.9,8.5-5.9c0,4-4.9,6.5-4.1,11.5c0.9,5.3,6.3-0.2,7.9-2c2.7-3.1,4-7.7,7.7-9.5c0.7,3.9-1.8,11.1,2.6,11.9
		c2.9,0.5,5.8-2.6,7.6-4c2.3-1.7,5.1-3.5,5.7-5.8C1147.4,452.9,1145.2,459.6,1140,459.1L1140,459.1z"/>
</g>
</svg>
