<?xml version="1.0" encoding="utf-8"?>
<!-- Generator: Adobe Illustrator 18.1.1, SVG Export Plug-In . SVG Version: 6.00 Build 0)  -->
<svg version="1.1" id="Layer_1" xmlns="http://www.w3.org/2000/svg" xmlns:xlink="http://www.w3.org/1999/xlink" x="0px" y="0px"
	 viewBox="0 0 2000 1000" enable-background="new 0 0 2000 1000" xml:space="preserve">
<rect fill="#F79A9A" width="1000" height="1000"/>
<rect x="1000" fill="#7DDBD8" width="1000" height="1000"/>
<g>
	<path fill="#FFFFFF" d="M516.4,647.7c-19.5,0-21.8-0.9-30.3-9.3c-9-8.9-9-20.7-9-37V361.1c0-9.4,7.6-16.9,16.9-16.9
		c9.4,0,16.9,7.6,16.9,16.9v240.3c0,3.9,0,8.7,0.2,12.1c4.8,0.4,17.2,0.3,21.7,0.3c9.4,0,16.9,7.6,16.9,16.9
		c0,9.4-7.6,16.9-16.9,16.9C528.6,647.6,519,647.7,516.4,647.7L516.4,647.7z"/>
	<path fill="#FFFFFF" d="M354.7,514.3c8.6-1.4,19.5-7.7,17.1-21.4c-1.6-8.9-9.4-13.7-18.7-12.2l-69.2,10.9V361.1
		c0-9.4-7.6-16.9-16.9-16.9c-9.4,0-16.9,7.6-16.9,16.9v240.3c0,13.9,0,25.9,9.2,35.1c10.1,10.1,23.9,11.2,60.2,11.2
		c4.5,0,9.3,0,14.4,0c6.3,0,13.3,0,20.9,0c9.4,0,16.9-7.6,16.9-16.9c0-9.4-7.6-16.9-16.9-16.9c-7.7,0-14.6,0-21,0
		c-22.5,0.1-42.3,0.1-49.6-1.4c-0.2-2.7-0.2-7.2-0.2-10.9v-74.7L354.7,514.3L354.7,514.3z"/>
	<path fill="#FFFFFF" d="M424.6,647.7c-9.4,0-16.9-7.6-16.9-16.9V485.7c0-9.4,7.6-16.9,16.9-16.9c9.4,0,16.9,7.6,16.9,16.9v145.1
		C441.5,640.1,434,647.7,424.6,647.7L424.6,647.7z"/>
	<path fill="#FFFFFF" d="M441.6,429.8c0-9.4-7.6-17-17-17s-17,7.6-17,17c0,9.4,7.6,17,17,17S441.6,439.2,441.6,429.8L441.6,429.8z"
		/>
	<path fill="#FFFFFF" d="M683.7,613.7c-7.6,0-14.6,0-20.9,0c-22.6,0.1-42.5,0.1-49.7-1.5c-0.2-2.8-0.2-7.3-0.2-10.9V473.8l70.9-11.4
		c11-1.9,16.9-8.8,16.9-18.1c0-9.4-8.6-17-19.7-15.3l-68.1,10.9v-78.8c0-9.4-7.6-16.9-16.9-16.9s-16.9,7.6-16.9,16.9v83.8l-26.7,4.2
		c-8.9,1.4-14.9,9.7-13.5,18.6c1.3,8,8.2,13.7,16,13.7c0.8,0,1.7-0.1,2.5-0.2l21.7-3.4v123.6c0,13.9,0,25.8,9.3,35.1
		c10.2,10.1,23.9,11.2,60.2,11.2c4.5,0,9.3,0,14.4,0c6.3,0,13.2,0,20.8,0c9.4,0,16.9-7.6,16.9-16.9
		C700.6,621.3,693,613.7,683.7,613.7L683.7,613.7z"/>
	<path fill="#FFFFFF" d="M728.9,336.6c-12.4,0-22.5,10.1-22.5,22.5s10.1,22.5,22.5,22.5c12.4,0,22.5-10.1,22.5-22.5
		S741.4,336.6,728.9,336.6L728.9,336.6z M728.9,387.4c-15.6,0-28.3-12.7-28.3-28.3c0-15.6,12.7-28.3,28.3-28.3
		c15.6,0,28.3,12.7,28.3,28.3C757.3,374.7,744.6,387.4,728.9,387.4L728.9,387.4z"/>
	<path fill="#FFFFFF" d="M741.4,371.2c-0.3,0.6-0.7,1.1-1.3,1.3c-0.3,0.1-0.6,0.2-0.9,0.2c0,0,0,0,0,0v0c-0.3,0-0.6-0.1-0.9-0.2
		c-0.3-0.1-0.5-0.3-0.7-0.4c0,0-0.1,0-0.1-0.1l-8.6-8.6l-8.3,8.3c-0.2,0.2-0.5,0.4-0.8,0.5c-0.6,0.3-1.3,0.3-1.9,0
		c-0.6-0.3-1.1-0.7-1.3-1.3c-0.1-0.3-0.2-0.6-0.2-0.9v-22c0-1.4,1.1-2.5,2.5-2.5c1.4,0,2.5,1.1,2.5,2.5v16l5.8-5.8
		c0.5-0.5,1.1-0.7,1.7-0.7s1.3,0.2,1.7,0.7l6.2,6.2v-16.4c0-1.4,1.1-2.5,2.5-2.5c1.4,0,2.5,1.1,2.5,2.5v22.3
		C741.6,370.6,741.5,370.9,741.4,371.2L741.4,371.2z"/>
</g>
<g>
	<path fill="#FFFFFF" d="M1517.8,654.4c-19.5,0-21.8-0.9-30.3-9.3c-9-8.9-9-20.7-9-37V367.8c0-9.4,7.6-16.9,16.9-16.9
		s16.9,7.6,16.9,16.9v240.3c0,3.9,0,8.7,0.2,12.1c4.8,0.4,17.2,0.3,21.7,0.3c9.4,0,16.9,7.6,16.9,16.9c0,9.4-7.6,16.9-16.9,16.9
		C1530,654.4,1520.4,654.4,1517.8,654.4L1517.8,654.4z"/>
	<path fill="#FFFFFF" d="M1356.1,521c8.6-1.4,19.5-7.7,17.1-21.4c-1.6-8.9-9.4-13.7-18.7-12.2l-69.2,10.9V367.8
		c0-9.4-7.6-16.9-16.9-16.9c-9.4,0-16.9,7.6-16.9,16.9v240.3c0,13.9,0,25.9,9.2,35.1c10.1,10.1,23.9,11.2,60.2,11.2
		c4.5,0,9.3,0,14.4,0c6.3,0,13.3,0,20.9,0c9.4,0,16.9-7.6,16.9-16.9c0-9.4-7.6-16.9-16.9-16.9c-7.7,0-14.6,0-21,0
		c-22.5,0.1-42.3,0.1-49.6-1.4c-0.2-2.7-0.2-7.2-0.2-10.9v-74.7L1356.1,521L1356.1,521z"/>
	<path fill="#FFFFFF" d="M1426,654.4c-9.4,0-16.9-7.6-16.9-16.9V492.4c0-9.4,7.6-16.9,16.9-16.9c9.4,0,16.9,7.6,16.9,16.9v145.1
		C1443,646.8,1435.4,654.4,1426,654.4L1426,654.4z"/>
	<path fill="#FFFFFF" d="M1443,436.5c0-9.4-7.6-17-17-17c-9.4,0-17,7.6-17,17c0,9.4,7.6,17,17,17
		C1435.4,453.5,1443,445.9,1443,436.5L1443,436.5z"/>
	<path fill="#FFFFFF" d="M1685.1,620.5c-7.6,0-14.6,0-20.9,0c-22.6,0.1-42.5,0.1-49.7-1.5c-0.2-2.8-0.2-7.3-0.2-10.9V480.5
		l70.9-11.4c11-1.9,16.9-8.8,16.9-18.2c0-9.4-8.6-17-19.7-15.3l-68.1,10.9v-78.8c0-9.4-7.6-16.9-16.9-16.9s-16.9,7.6-16.9,16.9v83.8
		l-26.7,4.2c-8.9,1.4-14.9,9.7-13.5,18.6c1.3,8,8.2,13.7,16,13.7c0.8,0,1.7-0.1,2.5-0.2l21.7-3.4v123.6c0,13.9,0,25.8,9.3,35.1
		c10.2,10.1,23.9,11.2,60.2,11.2c4.5,0,9.3,0,14.4,0c6.3,0,13.2,0,20.8,0c9.4,0,16.9-7.6,16.9-16.9
		C1702,628,1694.4,620.5,1685.1,620.5L1685.1,620.5z"/>
	<path fill="#FFFFFF" d="M1730.4,343.2c-12.4,0-22.5,10.1-22.5,22.5s10.1,22.5,22.5,22.5c12.4,0,22.5-10.1,22.5-22.5
		S1742.8,343.2,1730.4,343.2L1730.4,343.2z M1730.4,394c-15.6,0-28.3-12.7-28.3-28.3c0-15.6,12.7-28.3,28.3-28.3
		c15.6,0,28.3,12.7,28.3,28.3C1758.7,381.3,1746,394,1730.4,394L1730.4,394z"/>
	<path fill="#FFFFFF" d="M1735.4,374.4h-7.5v-6.2h4.9c1.4,0,2.5-1.1,2.5-2.5c0-1.4-1.1-2.5-2.5-2.5h-4.9V357h7.5
		c1.4,0,2.5-1.1,2.5-2.5c0-1.4-1.1-2.5-2.5-2.5h-10c-1.4,0-2.5,1.1-2.5,2.5v22.3c0,1.4,1.1,2.5,2.5,2.5h10c1.4,0,2.5-1.1,2.5-2.5
		C1737.8,375.5,1736.7,374.4,1735.4,374.4L1735.4,374.4z"/>
</g>
</svg>
