<?xml version="1.0" encoding="utf-8"?>
<!-- Generator: Adobe Illustrator 18.1.1, SVG Export Plug-In . SVG Version: 6.00 Build 0)  -->
<svg version="1.1" id="Layer_1" xmlns="http://www.w3.org/2000/svg" xmlns:xlink="http://www.w3.org/1999/xlink" x="0px" y="0px"
	 viewBox="-449 451 100 100" enable-background="new -449 451 100 100" xml:space="preserve">
<g>
	<path d="M-368,474.1c0,4.9-1.1,8.8-3.2,11.9v0c-0.1,0.2-0.2,0.4-0.4,0.5c0.2,0.3,0.4,0.6,0.6,0.8c1.1,1,2.4,1.6,4.1,1.6
		c1.9-0.1,3.6-1.2,5.2-3.4l0,0c0.8-1.1,1.5-2.3,2-3.6c0,0,0-0.1,0-0.1c0.6-1.7,0.9-3.6,0.9-5.6c0-3.6-0.5-6.5-1.5-8.6l0,0
		c-1.1-2.3-2.8-3.4-5.1-3.4c-1.2,0.1-2.6,0.7-4.2,1.9C-368.5,468.3-368,471-368,474.1z M-378.1,476.5c0,4.2-0.8,7.6-2.3,10.3
		c0.7,0.5,1.3,0.8,1.8,0.9c1.6,0,3-0.8,4.2-2.2l0,0c0,0,0.1-0.1,0.1-0.1c0.2-0.3,0.5-0.6,0.7-1v0c1.8-2.7,2.7-6.1,2.7-10.3
		c0-3.1-0.5-5.7-1.6-7.8l0,0c0,0,0-0.1,0-0.1c0,0,0,0,0,0c0,0,0,0,0,0c-1.1-2.1-2.6-3.1-4.6-3.2c-2.1,0-3.8,0.4-5.1,1.1
		c0.3,0.4,0.6,0.7,0.9,1.1l0,0C-379.2,468.1-378.1,471.9-378.1,476.5z M-420.2,516.1c-2.7-0.3-4.5-0.4-5.7-0.5
		c-1.1,0-2.9,0.1-5.3,0.4c-2.5,0.3-4,0.4-4.3,0.4c-3.3,0-5.9-0.9-7.8-2.6c-2.1-1.8-3.1-4.2-3.1-7.4c0-4.8,1.5-8.4,4.6-10.7v0
		c2.7-2.2,6.5-3.3,11.4-3.3c5.1,0,10.4,1,15.7,3.2c1.8,0.7,4.4,1.9,7.8,3.8c-0.4-9.9,0.1-18.1,1.5-24.6v0c1-4.6,2.9-8.2,5.4-10.7
		c2.6-2.6,5.6-3.8,9.1-3.8c2.4,0,4.4,0.6,6.3,1.8c0.2-0.1,0.4-0.3,0.5-0.4c1.7-1.1,4-1.7,6.8-1.7c2.6,0,4.7,1.1,6.4,3.4
		c2.2-1.5,4-2.3,5.6-2.2c3.5,0,6.1,1.7,7.7,5.1l0,0c1.2,2.4,1.7,5.7,1.7,9.9c0,2.1-0.3,4.1-0.9,6c6.3,12.1,6.6,24.5,1,37
		c-2.9,6.5-6.4,10.7-10.5,12.6c-4.1,2-8.7,1.8-13.9-0.6c-6.9,3.9-14.2,2.6-21.7-4c-4.1-3-7.1-5.1-9.1-6.5
		C-414.5,518-417.7,516.5-420.2,516.1z M-380.8,528.2L-380.8,528.2C-380.8,528.2-380.7,528.2-380.8,528.2c0.2-0.2,0.4-0.3,0.6-0.4
		c2.5-1.6,4.2-3.8,5.2-6.6c0.1-0.4,0.4-0.7,0.8-0.8c0.4-0.2,0.7-0.2,1.1,0c0.4,0.1,0.7,0.4,0.8,0.8c0.2,0.4,0.2,0.7,0,1.1
		c-1,2.7-2.6,5-4.8,6.9c3.6,1.3,6.8,1.3,9.7,0c3.5-1.8,6.5-5.5,9.1-11.2c4.9-10.9,5-21.7,0.1-32.3c-0.3,0.5-0.7,1.1-1.1,1.6l0,0
		c-2.3,3.1-4.8,4.6-7.6,4.5c-2.6,0-4.6-0.8-6.2-2.5c-0.2-0.2-0.4-0.4-0.6-0.7c-1.5,1.3-3.3,1.9-5.1,1.9c-1,0.1-2.1-0.4-3.5-1.4
		c-2,2.2-4.4,3.3-7.2,3.3c-2.9,0-5.1-1.4-6.8-4.4v0c-1.2-2.2-1.8-4.5-1.8-7c0-0.9,0.2-2.2,0.6-4v0c0.5-1.9,0.9-3.1,1.2-3.6
		c0.2-0.3,0.5-0.6,0.9-0.6c0.4-0.1,0.8,0,1.1,0.2c0.3,0.2,0.6,0.5,0.6,0.9c0.1,0.4,0,0.8-0.2,1.1c-0.2,0.4-0.5,1.3-0.8,2.7v0
		c-0.3,1.5-0.5,2.6-0.5,3.3c0,2,0.5,3.8,1.4,5.5v0c1,1.9,2.4,2.8,4.2,2.9c2.1,0,3.9-1,5.4-2.8c0,0,0,0,0,0c0.1-0.1,0.2-0.3,0.3-0.4
		c0,0,0,0,0,0c1.6-2.4,2.5-5.6,2.5-9.7c0-3.9-0.9-7.1-2.7-9.6c-0.5-0.7-1.1-1.3-1.7-1.8c0,0,0,0-0.1-0.1c-1.5-1.2-3.3-1.8-5.3-1.8
		c-2.7,0-5,1-7,3c-2.2,2.2-3.8,5.3-4.7,9.2c-1.4,6.6-1.9,15.2-1.3,25.6c0.5,0.4,0.9,0.7,1.2,1.1c1.2-0.5,2.7-1.1,4.6-1.9
		c0,0,0.1,0,0.1,0c2.5-1,4.7-1.4,6.6-1.4c1.9,0,3.1,0.1,3.6,0.2c0.8,0.1,2.2,0.6,4.2,1.5c0.4,0.2,0.6,0.4,0.8,0.8
		c0.2,0.4,0.1,0.8,0,1.1c-0.2,0.4-0.4,0.6-0.8,0.8c-0.4,0.2-0.8,0.1-1.1,0c-1.7-0.7-2.9-1.2-3.6-1.3c-0.4-0.1-1.4-0.1-3-0.1
		c-1.6,0-3.4,0.4-5.5,1.2c-2.6,1.1-4.5,1.9-5.8,2.4c-0.3,0.1-0.6,0.1-0.9,0c-0.3-0.1-0.6-0.3-0.8-0.5c-0.3-0.4-0.8-0.8-1.4-1.3
		c-0.2-0.1-0.4-0.2-0.6-0.3l0,0c-4.4-2.3-7.6-3.9-9.6-4.7c-4.9-2-9.8-3-14.6-3c-4.1,0-7.3,0.9-9.6,2.6v0c-2.3,1.9-3.5,4.7-3.5,8.4
		c0,2.2,0.7,3.9,2.1,5.2c1.4,1.2,3.4,1.8,5.8,1.8c0.3,0,1.6-0.1,4-0.4c2.5-0.3,4.4-0.4,5.6-0.4c1.2,0,3.2,0.2,6,0.5h0
		c2.9,0.3,6.6,2,10.9,5.1c2,1.4,5,3.6,9.2,6.6c0,0,0.1,0.1,0.1,0.1C-393.1,530.7-386.8,531.8-380.8,528.2z"/>
</g>
</svg>
