<?xml version="1.0" encoding="utf-8"?>
<!-- Generator: Adobe Illustrator 18.1.1, SVG Export Plug-In . SVG Version: 6.00 Build 0)  -->
<svg version="1.1" id="Layer_1" xmlns="http://www.w3.org/2000/svg" xmlns:xlink="http://www.w3.org/1999/xlink" x="0px" y="0px"
	 viewBox="-449 459.6 100 82.4" enable-background="new -449 459.6 100 82.4" xml:space="preserve">
<g>
	<path fill="#010101" d="M-352.4,506.9l-44.2-44.2c-1.3-1.3-3.7-1.3-5,0l-44.2,44.2c-1.3,1.3-1.3,3.7,0,5c1.3,1.3,3.7,1.3,5,0v25.8
		c0,1,1.5,2.5,2.5,2.5h77.5c1,0,2.5-1.5,2.5-2.5v-26.7l0.8,0.8c1.3,1.3,3.7,1.3,5,0C-351.1,510.6-351.1,508.2-352.4,506.9z
		 M-363.2,507.7v25.8c0,1-0.6,1.7-1.7,1.7h-20.8v-25.8c0-3.1-2.7-5-5.8-5h-15c-3.1,0-5.8,1.9-5.8,5v25.8h-21.7c-1,0-1.7-1.5-1.7-2.5
		v-24.2c0-0.5,0.6-1.7,1.2-2.9l35-35l12.1,11.3l23.4,23.4C-363.6,506.3-363.2,507.3-363.2,507.7z"/>
</g>
</svg>
