<?xml version="1.0" encoding="utf-8"?>
<!-- Generator: Adobe Illustrator 18.1.1, SVG Export Plug-In . SVG Version: 6.00 Build 0)  -->
<svg version="1.1" id="Layer_1" xmlns="http://www.w3.org/2000/svg" xmlns:xlink="http://www.w3.org/1999/xlink" x="0px" y="0px"
	 viewBox="0 0 100 75.4" enable-background="new 0 0 100 75.4" xml:space="preserve">
<path fill="#3C3C3B" d="M100,75.4H0V0h100V75.4L100,75.4z M11.8,68.4h76.3L63,42.7l-4.8,4.8c-2.1,2.1-5,3.2-8.1,3.2c0,0,0,0-0.1,0
	c-3.1,0-6.1-1.2-8.1-3.3l-4.8-4.9L11.8,68.4L11.8,68.4z M7,12v51.5l25.3-25.8L7,12L7,12z M68,37.8l25.1,25.7V12.6L68,37.8L68,37.8z
	 M11.8,7l35.1,35.6c0.8,0.8,1.9,1.2,3.2,1.2l0,0c1.2,0,2.4-0.4,3.2-1.2L88.7,7L11.8,7L11.8,7z"/>
</svg>
