<?xml version="1.0" encoding="utf-8"?>
<!-- Generator: Adobe Illustrator 18.1.1, SVG Export Plug-In . SVG Version: 6.00 Build 0)  -->
<svg version="1.1" id="Layer_1" xmlns="http://www.w3.org/2000/svg" xmlns:xlink="http://www.w3.org/1999/xlink" x="0px" y="0px"
	 viewBox="0 0 1000 1000" enable-background="new 0 0 1000 1000" xml:space="preserve">
<path fill="#E42B3C" d="M1000,877H0V123h1000V877L1000,877z M118,807h763L630,550l-48,48c-21,21-50,32-81,32c0,0,0,0-1,0
	c-31,0-61-12-81-33l-48-49L118,807L118,807z M70,243v515l253-258L70,243L70,243z M680,501l251,257V249L680,501L680,501z M118,193
	l351,356c8,8,19,12,32,12l0,0c12,0,24-4,32-12l354-356H118L118,193z"/>
</svg>
