<svg xmlns="http://www.w3.org/2000/svg" xmlns:xlink="http://www.w3.org/1999/xlink" version="1.1" id="Layer_1" x="0px" y="0px" viewBox="4.5 -9.0 90.0 121.5" enable-background="new 0 0 90 90" xml:space="preserve" height="100px" width="100px">
<path d="M59.6,69c1.8,0,3.6-0.3,5.2-0.8c2-0.7,3.5-2.3,4-4.4c0.5-2.1-0.1-4.3-1.6-5.8l-6.1-6.2c-2.4-2.5-6.7-2.5-9.3,0.1  c-0.9,0.9-2.6,0.9-3.5,0L38.7,42c-1-1-1-2.6,0.1-3.7c2.5-2.5,2.5-6.7,0-9.2l-6.1-6.2c-1.2-1.2-2.7-1.9-4.4-1.9  c-2.4,0-4.7,1.4-5.7,3.6c-3.9,8.5-0.2,19.4,10.2,30C36,58,47.8,69,59.6,69z M26.2,26.3c0.5-1,1.4-1.3,2.1-1.3c0.4,0,1,0.1,1.6,0.7  l6.1,6.2c1,1,1,2.6-0.1,3.7c-2.5,2.5-2.5,6.7,0,9.2l9.7,9.8c2.4,2.5,6.7,2.5,9.3-0.1c0.9-0.9,2.6-0.9,3.5,0l6.1,6.2  c0.5,0.6,0.8,1.3,0.6,2.1c-0.2,0.7-0.7,1.3-1.4,1.6C62.3,64.8,61,65,59.6,65c-8.1,0-17.7-6.8-24-13.2C31.2,47.4,21.6,36.1,26.2,26.3  z"/>
<text x="0.0" y="105.75" font-size="4.5" font-weight="bold" font-family="Helvetica Neue, Helvetica, Arial-Unicode, Arial, Sans-serif" fill="#000000">Created by Matthew R. Miller</text><text x="0.0" y="110.25" font-size="4.5" font-weight="bold" font-family="Helvetica Neue, Helvetica, Arial-Unicode, Arial, Sans-serif" fill="#000000">from the Noun Project</text></svg>