<?xml version="1.0" encoding="utf-8"?>
<!-- Generator: Adobe Illustrator 18.1.1, SVG Export Plug-In . SVG Version: 6.00 Build 0)  -->
<svg version="1.1" id="Layer_1" xmlns="http://www.w3.org/2000/svg" xmlns:xlink="http://www.w3.org/1999/xlink" x="0px" y="0px"
	 viewBox="0 0 500 500" enable-background="new 0 0 500 500" xml:space="preserve">
<g>
	<g>
		<path fill="#E42B3C" d="M180.5,115.4c-17.4,1.2-34.4,9.1-37.3,27.9c-2.8,18.5,2.4,37.1,19.6,46.6c7.8,4.3,16.5,6.5,25.2,7.8
			c9.1,1.3,18.6,0.9,26.2-4.9c6.4-4.9,10-12.4,11.9-20.2c2.1-8.6,4.3-19.4,1.5-28c-6.4-19.4-29.4-30.7-48.7-29.3
			c-9.6,0.7-9.6,15.7,0,15c7.9-0.6,15.5,1.1,22.3,5.3c6.4,3.9,12.7,10.4,12.7,18.3c-0.1,7.1-1.4,15.9-4.8,22.2
			c-3.6,6.9-10.2,8-17.5,7.2c-15-1.7-31.7-7.7-34.1-24.6c-0.9-6.5-0.9-16.1,3.9-21.2c4.7-5,12.4-6.6,18.9-7
			C190.1,129.8,190.2,114.8,180.5,115.4L180.5,115.4z"/>
	</g>
</g>
<g>
	<g>
		<path fill="#E42B3C" d="M325.5,113.1c-18.1-3-31.9,14.9-38.2,29.7c-7.1,16.7-2.9,34.1,12.5,44.3c14,9.3,34.6,8.7,49.4,1.8
			c17.1-8.1,20.5-28.8,17.5-45.9c-3.8-21.6-26.3-28.1-44.9-30.8c-4-0.6-8,1-9.2,5.2c-1,3.5,1.2,8.6,5.2,9.2
			c13.1,1.9,32.6,4.6,34.5,21c0.8,6.7,0.7,16.5-3.1,22.4c-3.8,5.8-11.8,7.8-18.3,8.6c-12.3,1.5-30.1-2.5-32.2-17.3
			c-1.1-7.5,3.2-15.3,7-21.4c1.9-3,4.2-5.7,7.1-7.9c2.1-1.6,5.8-4.8,8.7-4.3C331,129.1,335.1,114.7,325.5,113.1L325.5,113.1z"/>
	</g>
</g>
<g>
	<g>
		<path fill="#E42B3C" d="M49.8,236.8c5.3,14.1,12.9,27.1,21.5,39.4c10.3,14.8,22,29.4,36.4,40.5c27.6,21.3,61.5,38.1,96.5,41.4
			c34.4,3.2,69.4,3.6,103.5-2.4c17.6-3.1,35.1-7.7,51.2-15.7c13.6-6.8,26.3-16.3,37.8-26.1c11.4-9.7,20.9-21.2,30.1-33
			c6-7.7,11.1-15.3,14.8-24.3c3.6-8.5,6.1-17.4,9.2-26.1c3.2-9.1-11.3-13-14.5-4c-5,14-8.6,28.3-17.6,40.5
			c-7.9,10.7-16.5,21.3-26.2,30.5c-9.2,8.7-19.5,16.3-30.1,23.2c-13.8,9-29.4,14.3-45.4,17.9c-32.1,7.3-65,7.8-97.7,5.7
			c-16.2-1-31.8-3-47.2-8.6c-15.1-5.5-29.5-13.5-43-22.1c-16.5-10.5-29.1-23.8-40.9-39.4c-9.5-12.5-18.5-26.6-24-41.4
			C60.9,223.9,46.4,227.8,49.8,236.8L49.8,236.8z"/>
	</g>
</g>
<g>
	<g>
		<path fill="#E42B3C" d="M416.2,221.8c20.1,4.2,38.3,15.3,56.4,24.4c8.6,4.3,16.2-8.6,7.6-13c-19.3-9.7-38.7-21.5-60-25.9
			C410.8,205.3,406.8,219.8,416.2,221.8L416.2,221.8z"/>
	</g>
</g>
<g>
	<g>
		<path fill="#E42B3C" d="M30.7,251.2c10.7-2.1,21-6.7,31.3-10.1c10.8-3.5,20.5-9.3,30.8-13.8c3.7-1.6,4.5-7,2.7-10.3
			c-2.2-3.8-6.6-4.3-10.3-2.7c-9.7,4.3-18.9,9.9-29.1,12.9c-9.9,2.9-19.3,7.5-29.5,9.5C17.2,238.6,21.2,253.1,30.7,251.2L30.7,251.2
			z"/>
	</g>
</g>
<circle fill="#E42B3C" cx="185.7" cy="156.7" r="9.8"/>
<circle fill="#E42B3C" cx="327.7" cy="152.9" r="9.8"/>
</svg>
