<?xml version="1.0" encoding="utf-8"?>
<!-- Generator: Adobe Illustrator 18.1.1, SVG Export Plug-In . SVG Version: 6.00 Build 0)  -->
<svg version="1.1" id="Layer_1" xmlns="http://www.w3.org/2000/svg" xmlns:xlink="http://www.w3.org/1999/xlink" x="0px" y="0px"
	 viewBox="0 0 1000 1000" enable-background="new 0 0 1000 1000" xml:space="preserve">
<rect y="-0.5" fill="#3C25AD" width="1000" height="1001"/>
<g>
	<g>
		<g>
			<g>
				<path d="M401.8,520c1.6-56.9-69.8-80-83.3-80.8c8.9-8,12.6-14.8,18.6-26.3c15.9-30.3,10.9-80.2-38.8-100.7
					c-30.7-12.7-76.1-13.4-134.3,8.9c-19.4,7.4-10.8,18.3-4.4,36.7c4.6,13.4,2.8,13.1,31.1,3.4c11.2-3.8,8.5-1.9,9,31
					c0.1,11.2,0.2,176.4,2,230.2c0,0-19.8-6.5-33.1-3.5c-22.5,5-22.9,11.6-21.1,29.8c2.8,28.6,7.1,27.4,15.7,26.2
					c10.6-1.5,20.5-3.1,37.7-6.7c40-8.3,72.8-13.4,123.5-41.8C384.1,593,397.6,569.1,401.8,520z M237.5,444.2
					c0-32.1-0.5-72.6,0.1-91.6c0.1-4.9,48-21.4,61.7,1.2c13.6,22.6,0.7,49-10.1,63.3C278.3,431.2,249,441.5,237.5,444.2z
					 M309.2,582.1c-41.7,25.8-60.1,26.8-69,30.3c0.1-36.4-1.7-108.6-2-123.8c7.1-4.1,91.8-24.2,107.3,4.7
					C361.2,522.1,344.9,560,309.2,582.1z"/>
			</g>
			<path d="M428,357.4c11,0.4,41.5,12.1,30.8,32.5c-10.5,20.1-37.4,19-45.2,5.9C403,377.9,416.2,364.8,428,357.4z"/>
			<path d="M870,512c-6.7-6.2-24.8,0.8-30.6,5.2c-6.1,4.5-26.6,13.6-46.5,19.7c-19.1,5.8-69,16.3-114.3,21.3
				c0.6-3.4,4.5-34.6,4.5-34.6c7.2-88.4,25.8-132.3,9-132.7c-17.8-0.5-16.3,7.3-19.7,24.7c-6.4-9.7-8-13.5-27.4-22.4
				c-41.8,7.1-45.2,26.3-53.9,59.8c-3,11.6-8.5,41.2-12.3,40.4c0.3-9,1.7-41.2-1.8-53c-3.9-13.1-1.6-9.3-29.8-7.8
				c-29,1.5-43.2,1.2-47.1,11.7c1.2-26.8-8.7-21.8-12.1-38.8c-15.5,3.1-14.8,5-16.1,18.4c-1.8,18.1-1.5,48.7-9.5,64.9
				c-6.7,13.5-22.6,37.2-22.6,32.3c0-2,1.1-45.9,1.7-58.1c2-41.5,2.5-41.6-11.5-49.6c-17.8,5.8-16.8,7.3-19.6,66.4
				c-1.9,41.2-3.8,73.8-4.8,88.7c-0.5,8,0.9,6.6,16.4,4.4c16.7-2.3,16.4-1.3,30.1-16c15.8-17.2,12.7-16,22.3-31.5
				c-1.7,36.4-3.8,36.4,12.6,34.1c15-2.1,24.1-0.3,26.3-15.9c3.2-28.2-7.1-90.7,28.1-96.4c16.3-2.6,10,39.7,9.9,65.9
				c0,28.4-5,34.9,4.4,34.4c13.3-0.8,20.4-1.4,23.7-1.6c5.8-0.5,8.8-0.1,17.4-17.7c2.8,5.9,9.2,12.2,21.7,12.7
				c24.7,1,30-5.4,36.8-14.2c-0.8,9.7-4.1,25.5-5.8,34.1c-11.3,1.5-21.1,3-28.4,4.4c-34.5,6.8-179.6,9-222.7,37.5
				c-18.1,12-17.9,24.9-16.6,32.6c11,66.1,188.6,37.9,222.8,28.7c46.9-12.7,66.4-46.8,76-80.5c18.3-1.7,67.4-9.1,79.8-11.5
				c48.8-9.2,57-12.9,75.4-20.5c7.5-3.1,14.8-8.8,22.4-13C866.3,534.1,882.8,524,870,512z M659.2,462.6
				c-5.5,23.6-13.1,47.6-40.6,45.7c-10.6-0.7-11.1-18.3-4.8-39.8c7.7-26.3,14.3-47.3,33.8-42.8C661.2,428.8,665,437.9,659.2,462.6z
				 M628.2,619.3c-27.5,29-135.4,32.5-169.2,29.4c-18.9-1.8-42.2-3-42.5-13c-0.3-9.2,30.2-14.9,65.7-22.1
				c24.2-4.9,133.5-22,166.3-25.8C644.4,597.1,634.4,612.7,628.2,619.3z"/>
		</g>
		<g>
			<path d="M805.4,486.8c-7.1-9.1-7.4-8.9-15.7-1.2c-5,4.7-9,8.6-21.8,14.2c-35.3,15.4-41.8-14.9-39-31.9c17.3-1.2,41.3-4.2,57-10.5
				c14-5.6,30.9-16.1,30.5-44c-0.3-20.6-47.7-24.6-64.2-20.6c-22.7,13.1-49.4,31.4-43.5,95.6c2.8,30.9,33.8,37.8,48.4,36.2
				c20.4-2.2,58.4-17.4,62.5-42.1C813.7,482.5,809.5,492.1,805.4,486.8z M788.5,417.8c6.5,12.9-34.8,28.2-53.6,28.1
				C737,434.2,780.3,401.3,788.5,417.8z"/>
		</g>
	</g>
	<g>
		<g>
			<g>
				<path fill="#FFFFFF" d="M401.7,501.6c3.1-56.8-60.4-72.3-73.9-73.1c8.9-8,12.6-14.8,18.6-26.3c15.9-30.3,10.9-80.2-38.8-100.7
					c-30.7-12.7-69.7-2.9-129,16.4c-25.1,8.2-21.5,7.4-11.7,33c3.8,10,1.6,7.6,30.1-1.5c13.3-4.2,11.4-4.8,11.9,28
					c0.1,11.2,0.2,180.3,2,234.1c0,0-0.8,0.3-14.2,3.2c-44.3,9.5-41.8,6.5-40.3,20.9c2.9,28.6,3.1,27.5,7.2,27.4
					c10.7-0.2,32.4-5,47.4-8.6c39.7-9.5,72.8-13.8,118.7-42.7C387.6,575.3,398.8,553.8,401.7,501.6z M246.8,433.5
					c0-32.1-0.5-75.5,0.1-94.5c0.1-4.9,47-17.5,60.7,5.1c13.6,22.6,1.7,48.1-9.2,62.3C287.5,420.5,258.3,430.8,246.8,433.5z
					 M314.6,571.4c-41.7,25.8-56.3,26.8-65.1,30.3c0.1-36.4-1.7-110.6-2-125.7c7.1-4.1,87.9-21.8,106.3,8.6
					C371,512.5,350.4,549.2,314.6,571.4z"/>
				<path d="M162.5,665.5c-5.2,0-5.5-2.8-8.3-29.3c-0.1-0.9-0.2-1.7-0.3-2.4c-1.4-11.8,0.7-12.2,25.7-17.4c4.7-1,10.1-2.1,16.5-3.5
					c7.2-1.5,10.7-2.3,12.4-2.7c-1.3-43.8-1.7-153.7-1.8-206.9c0-14-0.1-23.2-0.1-25.6c-0.1-4.1-0.1-7.6-0.1-10.7
					c-0.1-11.1-0.1-17.3-1.8-17.3c-1.2,0-3.3,0.7-5.9,1.5l-1.3,0.4c-6.2,2-10.9,3.6-14.7,4.9c-6,2.1-9,3.1-11.3,3.1
					c-3.9,0-4.9-2.8-6.4-6.7l-0.4-1.1c-1.2-3.1-2.3-5.8-3.2-8.2c-3.5-8.7-5.4-13.5-3.6-17.4c2-4.3,8-6.3,19.9-10.2
					c43.1-14.1,73.1-22.3,98.3-22.3c12.1,0,22.6,1.9,32.1,5.9c27.1,11.2,38.8,29.9,43.7,43.6c7.1,19.4,5.6,41.9-3.9,60.1
					c-5.1,9.7-8.7,16.6-15.7,23.7c9.6,1.6,25.6,6.3,39.5,15.3c22.1,14.2,33,34.7,31.7,59.5c-1.3,24.4-4.5,44.3-15.6,62.1
					c-10.3,16.2-26.8,30.7-57.3,49.9c-39.4,24.9-70,31.8-102.3,39.1c-5.5,1.2-11.2,2.5-17,3.9c-23.4,5.6-39.5,8.5-47.9,8.7h-0.4
					C163,665.5,162.8,665.5,162.5,665.5z M162.2,661.2c0.1,0,0.5,0,0.9,0h0.5c8.1-0.2,23.9-3,47-8.6c5.8-1.4,11.5-2.7,17.1-3.9
					c31.9-7.2,62.1-14,100.9-38.5c58.1-36.6,68.3-58.3,71-108.6c1.3-23.3-8.7-42-29.7-55.6c-17.7-11.4-36.8-14.9-42.1-15.2l-5.2-0.3
					l3.9-3.4c8.8-7.8,12.3-14.6,18.1-25.7c8.9-17.1,10.3-38.2,3.7-56.7c-6.7-18.5-21-32.7-41.3-41.1c-9-3.7-19-5.6-30.5-5.6
					c-24.6,0-54.3,8.1-97,22c-10.6,3.4-16.1,5.4-17.3,7.9c-1.1,2.3,0.7,6.7,3.7,14c1,2.4,2.1,5.1,3.3,8.3l0.4,1.2
					c1.4,3.8,1.6,4,2.4,4c1.6,0,4.7-1.1,9.8-2.9c3.8-1.3,8.5-3,14.8-5l1.3-0.4c3.1-1,5.4-1.7,7.2-1.7c5.9,0,6,5.4,6.1,21.5
					c0,3.1,0,6.6,0.1,10.7c0,2.4,0.1,11.6,0.1,25.6c0.2,49.6,0.5,166,1.9,208.5l0.1,1.6l-1.5,0.5c-0.6,0.2-5.9,1.4-14.4,3.2
					c-6.5,1.4-11.8,2.5-16.5,3.5c-11.9,2.5-18.5,3.8-21.2,5.5c-1.7,1.1-1.7,2.1-1.2,7.2c0.1,0.8,0.2,1.6,0.3,2.5
					C159.9,648.5,161,659.7,162.2,661.2z M247.4,604.8v-3.2c0.1-27.3-0.9-75.9-1.5-104.9c-0.2-9.6-0.4-17-0.4-20.8v-1.3l1.1-0.6
					c4.7-2.7,32.3-9.2,58.5-9.2c26.3,0,43.3,6.2,50.8,18.5c8.3,13.8,8.4,30.7,0.2,47.7c-7.7,15.8-22,30.8-40.2,42.1
					c-33.6,20.8-49.7,25.6-59.4,28.5c-2.4,0.7-4.3,1.3-6,2L247.4,604.8z M249.7,477.3c0.1,4.1,0.2,10.9,0.4,19.4
					c0.6,28,1.5,74.2,1.6,101.9c1.1-0.3,2.2-0.7,3.4-1c9.4-2.8,25.2-7.5,58.4-28c17.6-10.9,31.3-25.2,38.6-40.3
					c5.3-11,9.7-27.5,0-43.6c-8.2-13.5-30.1-16.4-47.1-16.4C280.6,469.2,255.9,474.8,249.7,477.3z M244.6,436.2v-2.7
					c0-11.3,0-24.2-0.1-36.6c-0.1-23.4-0.2-45.5,0.1-58c0.2-5.7,19.8-10,32.5-10c10.8,0,25.1,2.4,32.1,14.1
					c6.4,10.6,8,22.7,4.8,35.9c-3.1,13.1-10.2,23.6-14.1,28.7c-11.8,15.4-42.8,25.5-52.8,27.9L244.6,436.2z M249,339.4
					c-0.3,12.4-0.2,34.2-0.1,57.4c0,11.4,0.1,23.2,0.1,33.9c13.1-3.6,38.1-13.3,47.7-25.7c3.7-4.8,10.4-14.8,13.3-27.1
					c2.9-12.1,1.4-23.1-4.3-32.7c-6-9.9-18.7-12-28.4-12C263.4,333.2,250.9,337.5,249,339.4z"/>
			</g>
		</g>
		<g>
			<path fill="#FFFFFF" d="M442.5,355.9c11,0.4,23.6,10.9,15.1,32.4c-4.7,12-27.7,18.2-37.6-0.3
				C410.2,369.6,427.3,355.3,442.5,355.9z"/>
			<path d="M438.6,401.8c-8.6,0-16.1-4.7-20.4-12.8c-4.1-7.8-4.2-15.7-0.2-22.5c4.8-7.9,14.8-13.2,24.6-12.8
				c6.7,0.3,12.9,3.7,16.5,9.2c3.1,4.7,5.6,13,0.5,26.1C456.7,396.5,447.8,401.8,438.6,401.8z M441.6,358.1
				c-8.1,0-16.1,4.3-19.9,10.7c-2.3,3.8-4.1,10.1,0.3,18.2c4.9,9.1,12.5,10.5,16.6,10.5c7.5,0,14.8-4.3,17-10
				c3.5-9,3.5-16.6-0.1-22.2c-2.8-4.3-7.8-7.1-13.1-7.3C442.1,358.1,441.8,358.1,441.6,358.1z"/>
		</g>
		<g>
			<path fill="#FFFFFF" d="M862,508.3c-7.5-5.2-7.5-6.2-13.3-1.9c-6.1,4.5-26.6,13.6-46.5,19.7c-19.1,5.8-69,16.3-114.3,21.3
				c0.6-3.4,4.5-34.6,4.5-34.6c16-123.4,29.9-120.9,13.1-120.4c-25.6,0.7-21-1.3-23.8,13.4c-6.4-9.7-34.7-19.2-60.4-1
				c-11.3,8-15.1,18.9-18.3,30.6c-3.2,11.6-11.2,48-15,47.2c0.3-9,1.7-41.2-1.8-53c-3.9-13.1-11.3-25.8-39.5-24.3
				c-29,1.5-33.5,17.7-37.4,28.2c1.2-26.8,4.6-28.5-15.3-26.9c-3.8,0.3-13.4,0.4-13.9,6.5c-1.5,18.1-2.4,49.7-10.4,65.9
				c-6.7,13.5-20.6,36.2-20.7,31.3c0-2,1.1-45.9,1.7-58.1c2-41.5,7.4-40.8-13.7-38.1c-20.1,2.6-15.2,6.5-18.3,56.8
				c-2.5,41.1-3.8,73.8-4.8,88.7c-0.5,8,0.8,6.1,16.4,4.4c10.7-1.2,16-2.7,27.9-16.5c15.2-17.7,13.9-15.5,23.5-31
				c-1.7,36.4-3.8,37.6,12.6,35.1c20.2-3.1,16.4-0.4,19.1-32.5c2.4-28.3-1.8-75.1,33.4-80.8c16.3-2.6,12.9,37.7,12.9,63.9
				c0,28.4-5,37.8,4.4,37.3c13.3-0.8,18.1-1.2,21.4-1.4c5.8-0.5,8.8-10.3,14-19.1c5,9.2,14.8,15,28.5,14c24.6-1.9,29.7-10.2,36.5-19
				c-0.8,9.7-3.8,27.5-5.5,36.1c-11.3,1.5-21.1,3-28.4,4.4c-39.1,7.7-247.4,20.3-242.9,71c5.9,66.8,192.4,39.8,225.4,26.8
				c26-10.2,50.9-28.2,68.7-76.8c18.3-1.7,75.8-9.4,88-12.3c49.8-11.6,56.5-14.4,73.5-23.4c8.2-4.4,16.5-9.9,23.2-15.4
				C872.9,519,876.4,518.2,862,508.3z M667.6,457.7c-5.5,23.6-12.1,41.7-39.7,39.9c-10.6-0.7-11.1-18.3-4.8-39.8
				c7.7-26.3,13.3-41.4,32.8-37C669.5,423.9,673.3,433,667.6,457.7z M633.6,608.5c-27.5,29-131.5,32.5-165.4,29.4
				c-18.9-1.8-42.2-3-42.5-13c-0.3-9.2,30.2-14.9,65.7-22.1c24.2-4.9,126.8-19.1,159.5-22.9C646.9,589.3,639.8,602,633.6,608.5z"/>
			<path d="M489.8,671.1L489.8,671.1c-83.2,0-102.8-24.6-104.6-45.2c-3.8-42.9,127.2-58.7,205.5-68.1c17.7-2.1,31.6-3.8,39.1-5.3
				c6.6-1.3,15.7-2.7,27-4.2c1.4-7,3.2-18.1,4.4-27c-5.7,6.7-13.4,12.4-33.4,14c-1.1,0.1-2.2,0.1-3.3,0.1c-10.8,0-19.6-4.2-25.2-12
				c-0.7,1.3-1.3,2.5-2,3.8c-3.5,6.9-6.5,12.8-12,13.2c-3.2,0.3-8,0.7-21.5,1.4c-0.3,0-0.6,0-0.9,0c-2.3,0-4-0.6-5.2-1.9
				c-2.5-2.7-2.2-7.5-1.5-16.3c0.4-5.5,0.9-12.4,0.9-21.2c0-3.7,0.1-7.6,0.2-11.8c0.3-18.7,0.8-41.9-5.6-48.4
				c-1.4-1.4-2.9-1.9-4.9-1.5c-28.1,4.5-29.6,37.9-30.8,64.7c-0.2,5-0.4,9.7-0.8,14.1c-0.4,4.9-0.7,9.1-0.9,12.4
				c-1.2,18.6-1.8,19.4-16.4,21.5c-1.1,0.2-2.3,0.3-3.6,0.5c-3,0.5-5.6,0.8-7.8,0.8c-1.7,0-4.2-0.2-6-2.1c-3.1-3.3-2.7-9.7-1.9-25.4
				c0-0.8,0.1-1.5,0.1-2.3c-4.5,7.1-6.2,9.1-14,18c-1.5,1.7-3.3,3.8-5.3,6.1c-12.1,14.1-17.9,16-29.3,17.2c-2.7,0.3-4.9,0.6-6.8,0.8
				c-2.9,0.4-5,0.7-6.6,0.7c-1.3,0-3-0.2-4.2-1.4c-1.4-1.5-1.4-3.9-1.2-6.8c0.4-6.2,0.9-15.4,1.5-27.1c0.8-16.7,1.9-37.5,3.4-61.7
				c0.6-10,0.9-18.3,1.2-24.9c1-26.7,1.1-31.5,19-33.8l1.9-0.3c3.7-0.5,6.5-0.9,8.6-0.9c1.9,0,4.2,0.2,5.8,2
				c2.5,2.7,2.1,7.4,1.2,18.7c-0.4,5.4-1,12.1-1.4,20.7c-0.5,9.8-1.3,41.8-1.6,53.6c4.1-5.6,11.5-17.9,16.5-28
				c6.5-13.1,8.2-37.5,9.5-55.4c0.2-3.5,0.5-6.8,0.7-9.7c0.6-7.4,10.2-8,14.8-8.3c0.4,0,0.8-0.1,1.1-0.1c3.2-0.3,5.9-0.4,8-0.4
				c3.1,0,6.3,0.3,8.3,2.5c2.5,2.6,2.4,6.8,1.9,14.8c4.8-8.6,13.7-17.1,34.5-18.2c1.5-0.1,2.9-0.1,4.3-0.1c26,0,33.4,13.1,37.3,26
				c2.9,9.5,2.6,31.4,2.2,45c2.7-8.1,6.1-21.6,8-29.3c1-4,1.9-7.5,2.5-9.9c3.3-11.9,7.2-23.3,19.1-31.8c9.8-7,21.1-10.6,32.6-10.6
				c12,0,22,4,27.6,8.8c0-0.3,0.1-0.7,0.1-1c1.4-9.4,3.2-9.4,17.2-9.7c2.2,0,4.8-0.1,7.9-0.2h1.2c0.9,0,1.7-0.1,2.4-0.1
				c1.9,0,4,0.1,5.3,1.8c1.9,2.4,1.1,6.1-1.7,18c-3.7,16-10.6,45.8-18,103.1l-0.2,1.9c-0.1,1.1-0.3,2.6-0.5,4.3
				c-1,7.9-2.5,20.1-3.3,25.7c44.3-5,92.7-15.3,111.2-20.9c19.9-6.1,40.2-15.1,45.9-19.3c2.5-1.8,4.4-3.1,6.6-3.1s3.9,1.2,7.1,3.5
				c0.6,0.5,1.4,1,2.2,1.5c8.1,5.6,10.8,8.5,10.9,11.5c0.1,2.8-2.2,4.6-5.1,6.9c-0.5,0.4-1,0.8-1.6,1.2
				c-7.1,5.7-15.4,11.3-23.6,15.6c-17.1,9.1-23.7,12-74,23.6c-12.2,2.8-67.7,10.3-87,12.2c-19.1,51.1-45.8,67.5-69.5,76.8
				C595.9,661.4,540.2,671.1,489.8,671.1z M666.9,507l-0.6,7.2c-0.8,9.7-3.8,27.4-5.5,36.3l-0.3,1.5l-1.5,0.2
				c-11.9,1.6-21.4,3.1-28.2,4.4c-7.7,1.5-21.7,3.2-39.5,5.3c-37.2,4.5-88.2,10.6-130.2,20.8c-48.8,11.8-73,26.1-71.5,42.6
				c1.3,14.5,11.9,25.3,31.6,32.3c16.9,6,40,9,68.8,9c49.9,0,104.8-9.5,122.1-16.3c22.9-9,48.8-25,67.5-75.5l0.5-1.3l1.3-0.1
				c17.8-1.6,75.3-9.4,87.7-12.2c49.7-11.6,56.2-14.4,72.9-23.3c7.9-4.2,16-9.6,22.9-15.1c0.6-0.5,1.1-0.9,1.6-1.3
				c1.6-1.3,3.5-2.7,3.4-3.4c0-0.9-1.6-3-9.1-8.1c-0.8-0.6-1.5-1.1-2.2-1.5c-2.3-1.6-3.8-2.7-4.6-2.7c-0.8,0-2.1,0.9-4,2.3
				c-6.1,4.6-26.6,13.7-47.2,20c-19,5.8-69.4,16.4-114.7,21.4l-2.8,0.3l0.5-2.8c0.4-2.4,2.5-19.3,3.7-28.3l0.6-4.5
				c0.1-0.6,0.2-1.2,0.3-1.7l0,0c7.4-57.4,14.4-87.4,18.1-103.5c1.7-7.5,3.1-13.4,2.5-14.4c-0.1,0-0.4-0.1-1.9-0.1
				c-0.7,0-1.4,0-2.2,0.1h-1.2c-3,0.1-5.7,0.1-7.9,0.2c-6.2,0.1-10,0.2-11.4,0.9c-0.8,0.4-1,1.4-1.6,5.1c-0.2,1.5-0.5,3.3-0.9,5.4
				l-1,5.2l-2.9-4.4c-3.3-5-14-10.3-27.2-10.3c-7.4,0-18.6,1.7-30.1,9.9c-10.8,7.7-14.4,18.3-17.5,29.4c-0.7,2.4-1.5,5.8-2.5,9.8
				c-8.4,33.6-10.8,39-14.5,39l0,0c-0.2,0-0.4,0-0.6-0.1l-1.8-0.4l0.1-4.3c0.4-10.7,1.3-39.3-1.8-49.7
				c-6.4-21.1-20.5-22.9-33.2-22.9c-1.3,0-2.7,0-4.1,0.1c-26.2,1.3-31,14.6-35,25.3l-5.3,14.2l0.6-13.5c0.2-3.9,0.4-7.2,0.6-10.1
				c0.5-7.4,0.8-12.3-0.6-13.9c-0.7-0.8-2.3-1.1-5.2-1.1c-2,0-4.5,0.2-7.7,0.4c-0.3,0-0.7,0.1-1.2,0.1c-5.4,0.4-10.5,1.2-10.8,4.4
				c-0.2,2.9-0.5,6.2-0.7,9.6c-1.3,18.2-3,43-9.9,57c-3,6-7.6,14.2-11.7,20.8c-7.8,12.4-9.3,12.4-10.5,12.4l0,0
				c-1.2,0-2.5-0.9-2.5-2.8c0-2,1.1-45.7,1.7-58.2c0.4-8.7,1-15.4,1.4-20.9c0.7-8.5,1.2-14.1-0.1-15.4c-0.1-0.1-0.6-0.6-2.7-0.6
				c-1.9,0-4.6,0.4-8.1,0.8l-1.9,0.3c-14.3,1.9-14.3,2.9-15.3,29.7c-0.2,6.6-0.5,14.9-1.2,25c-1.5,24-2.5,44.8-3.4,61.6
				c-0.6,11.7-1.1,20.9-1.5,27.1c-0.1,1.9-0.1,3.1,0.1,3.5c0.1,0,0.4,0.1,1,0.1c1.3,0,3.3-0.3,6-0.6c1.9-0.2,4.2-0.6,6.9-0.9
				c9.9-1.1,14.8-2.2,26.5-15.8c2-2.4,3.8-4.4,5.3-6.1c9.8-11.3,9.8-11.3,18-24.6l4.4-7.1l-0.4,8.3c-0.2,4-0.4,7.5-0.6,10.7
				c-0.7,12.7-1.1,20.3,0.7,22.2c0.3,0.4,1,0.8,2.9,0.8c1.8,0,4.3-0.4,7.1-0.8c1.3-0.2,2.5-0.4,3.6-0.5c6.6-1,9.3-1.4,10.6-3.1
				c1.4-1.9,1.7-6.4,2.2-14.5c0.2-3.4,0.5-7.5,0.9-12.5c0.4-4.3,0.6-8.9,0.8-13.9c1.2-28.3,2.8-63.7,34.4-68.8
				c3.4-0.5,6.3,0.4,8.6,2.8c7.7,7.8,7.3,30,6.9,51.6c-0.1,4.1-0.1,8-0.2,11.7c0,9-0.5,15.9-0.9,21.5c-0.5,6.6-0.8,11.8,0.4,13.1
				c0.1,0.1,0.5,0.5,2,0.5c0.2,0,0.4,0,0.6,0c13.5-0.8,18.2-1.2,21.4-1.4c3.1-0.3,5.7-5.4,8.5-10.9c1.2-2.3,2.4-4.8,3.8-7.1l1.9-3.3
				l1.8,3.3c5,9.1,14.5,13.8,26.4,12.8c22.3-1.7,27.6-8.7,33.8-16.7c0.4-0.5,0.8-1,1.1-1.5L666.9,507z M493.6,641
				c-9.9,0-18.9-0.3-25.5-1c-1.5-0.1-3-0.3-4.5-0.4c-19.5-1.7-39.6-3.5-40-14.7c-0.3-10.1,22.3-15.2,62.4-23.3l5-1
				c24.1-4.9,125.9-19,159.7-22.9l3.7-0.4l-1.4,3.4c-3.9,9.2-11.1,22.3-17.7,29.3C613.5,632.9,545.3,641,493.6,641z M647.4,582.5
				c-36.8,4.5-132.3,17.7-155.6,22.4l-5,1c-27.7,5.6-59.2,11.9-59,18.9c0.2,7.3,20.9,9.2,36.1,10.5c1.5,0.1,3,0.3,4.5,0.4
				c6.5,0.6,15.4,0.9,25.1,0.9c40.9,0,116.2-6.2,138.4-29.6C637.3,601.5,643.4,591.1,647.4,582.5z M631.6,499.9
				c-1.2,0-2.5,0-3.9-0.1c-3.2-0.2-5.9-1.7-7.7-4.3c-6.5-9.2-1.5-29.8,1-38.2c6.1-21.1,11.4-39.3,28.5-39.3c2.1,0,4.4,0.3,6.8,0.8
				c6.3,1.4,10.4,4,12.9,8.1c3.9,6.2,4,15.8,0.3,31.3C664.4,481,657.7,499.9,631.6,499.9z M649.5,422.1c-12.9,0-17.9,13.7-24.4,36.2
				c-4.7,16.3-5.3,29.2-1.6,34.5c1.1,1.6,2.6,2.4,4.5,2.5c1.2,0.1,2.4,0.1,3.6,0.1c23,0,28.8-16.6,33.8-38.4
				c3.3-14.1,3.4-23,0.2-28.1c-1.9-3.1-5.2-5-10.2-6.2C653.3,422.3,651.3,422.1,649.5,422.1z"/>
		</g>
		<g>
			<g>
				<path fill="#FFFFFF" d="M814.7,476.1c-7.1-9.1-7.4-8.9-15.7-1.2c-5,4.7-9,8.6-21.8,14.2c-35.3,15.4-41.8-12-39-29
					c17.3-1.2,47.7-6.7,60.8-17.3c12.8-10.3,21.5-28.3,10.4-45.7c-11.1-17.4-42.8-11.5-61.1,0.2C733,407,711.7,420,716,484.3
					c2,29.9,31.1,35.2,45.4,32.3c20.5-4.1,42-14.2,50.3-24.4C819.3,482.9,818.8,481.3,814.7,476.1z M790.3,411.2
					c7.8,12.2-29.2,24-47.9,24C744.3,423.5,781.8,397.9,790.3,411.2z"/>
				<path d="M754,519.6L754,519.6c-5.4,0-15.9-1-25.3-7.4c-8.9-6.1-14.1-15.7-14.9-27.6c-4.3-64.9,17.1-78.6,32.7-88.7l0.5-0.3
					c11-7.1,25.4-11.5,37.8-11.5c12.1,0,21.2,4.1,26.2,11.9c11.6,18.1,2.9,37.4-10.9,48.5c-13.8,11.1-44.4,16.3-60.3,17.6
					c-0.9,7.4,0,17.4,5.3,23.6c6.1,7.1,16.8,7.6,31,1.4c12.1-5.3,16.1-9,20.8-13.4l0.5-0.4c4.4-4.1,6.8-6.3,9.6-6.3
					c3.3,0,5.6,3.1,9.3,7.8c5.1,6.6,4.7,9.4-3,18.9c-8.2,10.3-29.9,20.9-51.6,25.2C759.4,519.4,756.8,519.6,754,519.6z M784.9,388.3
					c-11.6,0-25.1,4.1-35.5,10.8l-0.5,0.3c-14.7,9.5-34.9,22.5-30.7,84.8c1.5,22.9,20.3,31,35.8,31l0,0c2.5,0,4.9-0.2,7-0.6
					c20.4-4.1,41.4-14.2,49-23.7c6.9-8.5,6.3-9.2,2.9-13.6c-2.2-2.9-4.7-6.1-5.9-6.1c-1.1,0-3.7,2.4-6.7,5.2l-0.5,0.4
					c-4.9,4.6-9.2,8.6-22,14.2c-16.2,7.1-28.6,6.1-36-2.6c-6.6-7.8-7.4-20-6-28.7l0.3-1.7l1.7-0.1c17.1-1.2,47.1-6.7,59.6-16.8
					c18.2-14.7,16.7-32.3,9.9-42.8C802.2,390.1,792.3,388.3,784.9,388.3z M742.3,437.3h-2.6l0.4-2.5c1.9-10.4,26.9-29.5,42.1-29.5
					c5.5,0,8.3,2.6,9.7,4.7c1.8,2.8,1.9,5.8,0.2,8.7C786.5,429.3,758,437.3,742.3,437.3z M782.4,409.6c-12.2,0-32,14.8-36.9,23.3
					c18.3-0.9,39.5-9.6,43.1-16.2c0.9-1.6,0.8-2.9-0.1-4.4C787.3,410.5,785.3,409.6,782.4,409.6z"/>
			</g>
		</g>
	</g>
</g>
<g>
	<path fill="#FFFFFF" d="M382.2,790.6c0-1.2,0-2.4,0-3.6c0-0.5-0.1-1.1-0.2-1.6c0-1.1-0.1-2.3-0.1-3.4c0-1.6,0.2-5,0.1-6.5
		c0-1.2-0.4-2.4-0.6-3.5c-0.1-0.7-0.5-1.3-1.1-1.8c-0.2-0.2-0.6-0.4-0.9-0.4c-1.2,0.2-1.6,0.6-2.1,1.7c-0.4,1-0.4,2-0.4,3.1
		c0,1.9-0.1,5.6,0,7.5c0.1,1.6,0.1,3,0,4.4c0,0.8,0,1.7,0,3c0,0.4,0.1,1.6,0.1,2c0,1.2,0,1.9,0.2,3.1c0.2,1.2,1.7,1.5,2.9,1.5
		C382.8,796.3,382.2,791.2,382.2,790.6z"/>
	<path fill="#FFFFFF" d="M259.1,769.9c-0.7-0.1-2.6-0.3-2.8,0.4c-0.3,0.9-0.7,2.5-1.3,4.6c-0.1,0.5-0.4,1.7-0.6,2.2
		c-0.1,0.2-0.6,1.7-0.8,2.3c-0.5-0.8-0.5-0.8-0.6-1.1c-1-1.7-2.5-4.2-3.4-6c-0.8-1.7-1.5-1.9-2.7-1.9c-0.5,0-1.7-0.1-2.5,0.1
		c-1.5,0.3,0.1,2.9,0.7,4c0.5,0.9,4.7,7.8,6.2,10.4c-0.4,0.9-0.7,2.3-0.9,2.7c-0.8,2.1-2.1,4.4-2.5,6.4c0,1.5,3.2,2.3,4.2,0.8
		c1.1-1.7,1.7-3.6,2.4-5.3c1.7-4.3,3.2-7.4,4.4-11.5c0.4-1.4,1.8-5.2,2-6C261.2,769.9,260,770,259.1,769.9z"/>
	<path fill="#FFFFFF" d="M477.7,769.6c-1.2-0.1-2.3-0.1-3.5-0.1c-2,0.1-3.6,0.1-5.5,0.1c-1.1,0-3.5-0.1-4.4,0
		c-1.5,0.2-1.4,0.7-1.5,2.1c-0.2,1.7-0.3,3.2-0.4,5c-0.1,2.9,0,6,0,7.1c0,0.8,0,2.8,0,3c0,2,0,3.2,0,5.2c0,0.9,0,2.5,0.3,3.4
		c0.3,0.8,0.6,1,1.4,1.1c0.9,0.1,2,0,3,0c0.8-0.1,0.7-0.3,0.7-0.7c0-0.3,0-0.9,0-1.2c0-0.7,0-1.4-0.1-2.7c0-0.4,0-0.8,0-1.2
		c-0.1-0.6,0-2,0-2.2c-0.1-1.4-0.1-2.5,0-4c0.8,0.1,2.4,0.2,3,0.2c1.1,0,2.5,0,3.5-0.1c0.9,0,1.1-1,1.2-1.8c0.1-1-0.2-2.4-1.2-2.4
		c-1.5,0-2.9-0.2-4.4-0.1c-0.3,0-0.7,0.1-1,0c-0.6-0.1-1.4-0.2-1.3-0.8c0.1-0.7,0-0.6,0-1.9c0-0.2,0-1,0-1.6s0.1-1.3,0.8-1.4
		c1.2-0.1,4.2-0.1,5.4,0c0.9,0.1,2,0,3,0.1c0.9,0,2.2-0.4,2.3-1.5C479.2,771.7,479.1,769.7,477.7,769.6z"/>
	<path fill="#FFFFFF" d="M494.4,772.5c-0.8-1.3-2.9-2.7-4.3-2.9c-2.8-0.4-5.8,0.4-7.2,2.9c-1.1,1.9-1.8,3.8-2.1,5.3
		c-0.5,2-0.2,3-0.4,4.1c-0.1,0.6-0.1,1.5,0,1.5c0,0.4,0,0.9,0,1.3c0.1,2.9,0.7,5,2.2,7.6c0.7,1.2,1.7,2.2,2.8,3.1
		c1.7,1.3,5.6,1.7,7.7-0.1c2.3-2,3.5-3.8,3.7-7.3c0-0.4,0.3-2.9,0.3-3.8c0-2.4,0-3.6-0.5-5.8C496.2,776.4,495.6,774.2,494.4,772.5z
		 M492,782.6c0.1,1.7,0,3.5-0.4,5.2c-0.3,1.1-1.1,2.5-2,2.7c-1.1,0.2-2.3-0.2-3-1c-1.6-1.8-1.5-4.4-1.4-6.8c0-0.8,0.1-1.9,0.2-2.8
		c0.2-1.3,0.6-2.4,1.6-3.5c0.6-0.6,1.9-1.2,3.1-0.6c1.7,0.8,1.8,2.7,1.8,3.8C491.9,779.7,492,781.5,492,782.6z"/>
	<path fill="#FFFFFF" d="M514.9,786.2c-0.7-1-1.9-2.6-2.6-3.6c0.3-0.3,0.4-0.6,0.6-0.8c1.2-1.2,2.6-3.2,2.6-5c0-2.3-1-3.9-2.8-5.1
		c-1.7-1.2-3.4-1.6-5-1.8c-2.4-0.4-5.2-0.1-6.7,0.6c-0.2,0.1-0.1,1.9-0.1,2.2c0,0.8,0,1.6,0,2.4c0,2.3,0,4.1,0.1,6.3
		c0.1,1.6,0,2.9,0,4.2c0,2.4,0,3.5,0,6c0,1.4,0,3.5,0.8,4.3c0.2,0.2,1.9,0.4,2.2,0.4c0.9,0.1,1.4,0,1.8-1.1c0.3-0.9,0-1.9,0.1-3.3
		c0.1-1.7,0-3.4-0.1-5.1c0-0.6,0-1.1,0-1.7c0-0.3,0.3-0.7,0.5-0.8c0.3,0,1.4,0.2,1.7,0.4c0.2,0.1,0.2,0.3,0.3,0.5
		c0.3,0.6,0.6,1.3,1,1.9c0.7,1.4,1.5,2.7,2.2,4.1c0.5,0.9,0.9,1.7,1.3,2.6s0.6,1.6,1.4,2.2c0.5,0.3,1.3,0.5,1.9,0.5
		c0.9,0,2.1-0.1,2.2-0.9c0.4-1.9-0.9-5.3-2.4-7.4C515.8,787.5,515.4,786.8,514.9,786.2z M506,779.7c-0.8-0.1-0.7-2.8-0.7-3.4v-2.2
		c1.1,0,1.1,0,2.6,0.4c0.6,0.2,1.3,0.5,1.7,0.9c0.8,0.7,0.7,2.9-0.1,3.5C508.1,779.9,507.2,779.8,506,779.7z"/>
	<path fill="#FFFFFF" d="M275.5,772.1c-0.8-1.3-2.9-2.7-4.3-2.9c-2.8-0.4-5.8,0.4-7.2,2.9c-1.1,1.9-1.8,3.8-2.1,5.3
		c-0.5,2-0.2,3-0.4,4.1c-0.1,0.6-0.1,1.5,0,1.5c0,0.4,0,0.9,0,1.3c0.1,2.9,0.7,5,2.2,7.6c0.7,1.2,1.7,2.2,2.8,3.1
		c1.7,1.3,5.6,1.7,7.7-0.1c2.3-2,3.5-3.8,3.7-7.3c0-0.4,0.3-2.9,0.3-3.8c0-2.4,0-3.6-0.5-5.8C277.2,775.9,276.6,773.7,275.5,772.1z
		 M273,782.2c0.1,1.7,0,3.5-0.4,5.2c-0.3,1.1-1.1,2.5-2,2.7c-1.1,0.2-2.3-0.2-3-1c-1.6-1.8-1.5-4.4-1.4-6.8c0-0.8,0.1-1.9,0.2-2.8
		c0.2-1.3,0.6-2.4,1.6-3.5c0.6-0.6,1.9-1.2,3.1-0.6c1.7,0.8,1.8,2.7,1.8,3.8C272.9,779.2,273,781,273,782.2z"/>
	<path fill="#FFFFFF" d="M293.6,770c-0.1,0-0.7,0-0.7,0.6c0,0.3,0,0.8,0,1.1c0,1.8,0,13.1-0.4,14.8c-0.3,1.1-1.1,2.5-2,2.7
		c-1.1,0.2-2.3-0.2-3-1c-1.6-1.8-1.5-14.9-1.4-17.4c0-0.2-0.1-0.8-0.5-0.8c-1.6,0-1.8,0-3.4,0c-0.8,0-0.9,0.3-0.9,0.6
		c0,0.6,0,0.8,0,1.1c0,0.4,0,11.4,0,11.8c0.1,2.9,0.7,5,2.2,7.6c0.7,1.2,1.7,2.2,2.8,3.1c1.7,1.3,5.6,1.7,7.7-0.1
		c2.3-2,3.5-3.8,3.7-7.3c0-0.4,0.3-2.9,0.3-3.8c0-1,0-11.6,0-12.4C298,769.7,295.2,770,293.6,770z"/>
	<path fill="#FFFFFF" d="M315.8,785.7c-0.7-1-1.9-2.6-2.6-3.6c0.3-0.3,0.4-0.6,0.6-0.8c1.2-1.2,2.6-3.2,2.6-5c0-2.3-1-3.9-2.8-5.1
		c-1.7-1.2-3.4-1.6-5-1.8c-2.4-0.4-5.2-0.1-6.7,0.6c-0.2,0.1-0.1,1.9-0.1,2.2c0,0.8,0,1.6,0,2.4c0,2.3,0,4.1,0.1,6.3
		c0.1,1.6,0,2.9,0,4.2c0,2.4,0,3.5,0,6c0,1.4,0,3.5,0.8,4.3c0.2,0.2,1.9,0.4,2.2,0.4c0.9,0.1,1.4,0,1.8-1.1c0.3-0.9,0-1.9,0.1-3.3
		c0.1-1.7,0-3.4-0.1-5.1c0-0.6,0-1.1,0-1.7c0-0.3,0.3-0.7,0.5-0.8c0.3,0,1.4,0.2,1.7,0.4c0.2,0.1,0.2,0.3,0.3,0.5
		c0.3,0.6,0.6,1.3,1,1.9c0.7,1.4,1.5,2.7,2.2,4.1c0.5,0.9,0.9,1.7,1.3,2.6c0.4,0.9,0.6,1.6,1.4,2.2c0.5,0.3,1.3,0.5,1.9,0.5
		c0.9,0,2.1-0.1,2.2-0.9c0.4-1.9-0.9-5.3-2.4-7.4C316.7,787,316.3,786.4,315.8,785.7z M306.9,779.2c-0.8-0.1-0.7-2.8-0.7-3.4v-2.2
		c1.1,0,1.1,0,2.6,0.4c0.6,0.2,1.3,0.5,1.7,0.9c0.8,0.7,0.7,2.9-0.1,3.5C309,779.5,308.1,779.3,306.9,779.2z"/>
	<path fill="#FFFFFF" d="M570.4,770.7c-0.7-0.1-2.6-0.1-2.8,0.6c-0.2,0.9-0.5,2.6-1,4.7c-0.1,0.5-0.6,2.8-0.8,3.9
		c-0.1,0.3-0.7,3.6-0.8,4.1c-0.1,0.7-0.6,2.9-0.9,4c-0.1,0.3-0.2,1.3-0.5,1.7c-0.3,0.5-1-0.8-1.2-1.8c-0.1-0.7-1.1-4.7-1.3-6
		c-0.1-0.7-0.9-5.1-0.9-5.5c-0.1-0.6-0.4-2.3-0.7-4c-0.3-1.6-0.2-2-1.8-2.1c-0.5,0-1.9,0.1-2.4,0.3c-1,0.4-1.5,1.6-1.2,2.6
		c0.3,1,0.7,3.5,1,4.5c0.8,2.8,1.2,5.2,2,8.8c0.1,0.5,0.4,1.9,0.6,2.4c0.2,0.7,0.4,1.7,0.5,2.5c0.2,1,0.5,2.4,1.6,3.9
		c1.1,1.5,4.6,1.8,6.1,0.5c1.3-1.1,1.7-2,2.3-3.7c1.6-4,2.4-8.7,3.3-12.9c0.3-1.4,0.9-6,1-6.8C572.6,770.5,571.2,770.7,570.4,770.7z
		"/>
	<path fill="#FFFFFF" d="M609.5,786.6c-0.7-1-1.9-2.6-2.6-3.6c0.3-0.3,0.4-0.6,0.6-0.8c1.2-1.2,2.6-3.2,2.6-5c0-2.3-1-3.9-2.8-5.1
		c-1.7-1.2-3.4-1.6-5-1.8c-2.4-0.4-5.2-0.1-6.7,0.6c-0.2,0.1-0.1,1.9-0.1,2.2c0,0.8,0,1.6,0,2.4c0,2.3,0,4.1,0.1,6.3
		c0.1,1.6,0,2.9,0,4.2c0,2.4,0,3.5,0,6c0,1.4,0,3.5,0.8,4.3c0.2,0.2,1.9,0.4,2.2,0.4c0.9,0.1,1.4,0,1.8-1.1c0.3-0.9,0-1.9,0.1-3.3
		c0.1-1.7,0-3.4-0.1-5.1c0-0.6,0-1.1,0-1.7c0-0.3,0.3-0.7,0.5-0.8c0.3,0,1.4,0.2,1.7,0.4c0.2,0.1,0.2,0.3,0.3,0.5
		c0.3,0.6,0.6,1.3,1,1.9c0.7,1.4,1.5,2.7,2.2,4.1c0.5,0.9,0.9,1.7,1.3,2.6c0.4,0.9,0.6,1.6,1.4,2.2c0.5,0.3,1.3,0.5,1.9,0.5
		c0.9,0,2.1-0.1,2.2-0.9c0.4-1.9-0.9-5.3-2.4-7.4C610.4,787.9,610,787.3,609.5,786.6z M600.6,780.1c-0.8-0.1-0.7-2.8-0.7-3.4v-2.2
		c1.1,0,1.1,0,2.6,0.4c0.6,0.2,1.3,0.5,1.7,0.9c0.8,0.7,0.7,2.9-0.1,3.5C602.7,780.4,601.8,780.2,600.6,780.1z"/>
	<path fill="#FFFFFF" d="M548.5,791.5c-1.2,0-2.3,0.1-3.5,0.2c-1.7,0.1-3.4,0.2-5.7,0.2c-0.3,0-0.1-2.2-0.1-2.5
		c-0.1-1.4-0.1-2.5,0-4c0.8,0.1,2.4,0.2,3,0.2c1.1,0,2.5,0,3.5-0.1c0.9,0,1.1-1,1.2-1.9c0.1-1-0.2-2.4-1.2-2.4
		c-1.5,0-2.9-0.2-4.4-0.1c-0.3,0-0.7,0.1-1,0c-0.6-0.1-1.4-0.3-1.3-0.8c0.1-0.7,0-0.6,0-1.9c0-0.2,0-1,0-1.6s0.1-1.3,0.8-1.4
		c1.2-0.1,4.2-0.1,5.4,0c0.9,0.1,2,0,3,0.1c0.9,0,2.2-0.4,2.3-1.5c0.1-1.4,0-3.4-1.5-3.5c-1.2-0.1-2.3-0.1-3.5-0.1
		c-2,0.1-3.6,0.1-5.5,0.1c-1.1,0-3.5-0.1-4.4,0c-1.5,0.2-1.4,0.7-1.6,2.1c-0.2,1.7-0.3,3.2-0.4,5c-0.1,2.9,0,6,0,7.1
		c0,0.8,0,2.9,0,3c0,2,0,3.2,0,5.3c0,1,0,2.5,0.3,3.4c0.3,0.8,0.6,1,1.4,1.1c1.3,0.2,3-0.1,4.3-0.1c2.5,0,5.7,0.4,8.5,0
		c1.7-0.2,2-0.8,2.1-2.4c0-0.3,0.1-1.6,0.1-1.8C550.3,792.1,549.6,791.5,548.5,791.5z"/>
	<path fill="#FFFFFF" d="M590.3,791.5c-1.2,0-2.3,0.1-3.5,0.2c-1.7,0.1-3.4,0.2-5.7,0.2c-0.3,0-0.1-2.2-0.1-2.5
		c-0.1-1.4-0.1-2.5,0-4c0.8,0.1,2.4,0.2,3,0.2c1.1,0,2.5,0,3.5-0.1c0.9,0,1.1-1,1.2-1.9c0.1-1-0.2-2.4-1.2-2.4
		c-1.5,0-2.9-0.2-4.4-0.1c-0.3,0-0.7,0.1-1,0c-0.6-0.1-1.4-0.3-1.3-0.8c0.1-0.7,0-0.6,0-1.9c0-0.2,0-1,0-1.6s0.1-1.3,0.8-1.4
		c1.2-0.1,4.2-0.1,5.4,0c0.9,0.1,2,0,3,0.1c0.9,0,2.2-0.4,2.3-1.5c0.1-1.4,0-3.4-1.5-3.5c-1.2-0.1-2.3-0.1-3.5-0.1
		c-2,0.1-3.6,0.1-5.5,0.1c-1.1,0-3.5-0.1-4.4,0c-1.5,0.2-1.4,0.7-1.6,2.1c-0.2,1.7-0.3,3.2-0.4,5c-0.1,2.9,0,6,0,7.1
		c0,0.8,0,2.9,0,3c0,2,0,3.2,0,5.3c0,1,0,2.5,0.3,3.4c0.3,0.8,0.6,1,1.4,1.1c1.3,0.2,3-0.1,4.3-0.1c2.5,0,5.7,0.4,8.5,0
		c1.7-0.2,2-0.8,2.1-2.4c0-0.3,0.1-1.6,0.1-1.8C592,792.1,591.3,791.5,590.3,791.5z"/>
	<path fill="#FFFFFF" d="M350.7,770.4c-1.2-0.1-2.3-0.1-3.5-0.1c-2,0.1-3.6,0.1-5.5,0.1c-1.1,0-3.5-0.1-4.4,0
		c-1.5,0.2-1.4,0.7-1.5,2.1c-0.2,1.7-0.3,3.2-0.4,5c-0.1,2.9,0,6,0,7.1c0,0.8,0,2.8,0,3c0,2,0,3.2,0,5.2c0,0.9,0,2.5,0.3,3.4
		c0.3,0.8,0.6,1,1.4,1.1c0.9,0.1,2,0,3,0c0.8-0.1,0.7-0.3,0.7-0.7c0-0.3,0-0.9,0-1.2c0-0.7,0-1.4-0.1-2.7c0-0.4,0-0.8,0-1.2
		c-0.1-0.6,0-2,0-2.2c-0.1-1.4-0.1-2.5,0-4c0.8,0.1,2.4,0.2,3,0.2c1.1,0,2.5,0,3.5-0.1c0.9,0,1.1-1,1.2-1.8c0.1-1-0.2-2.4-1.2-2.4
		c-1.5,0-2.9-0.2-4.4-0.1c-0.3,0-0.7,0.1-1,0c-0.6-0.1-1.4-0.2-1.3-0.8c0.1-0.7,0-0.6,0-1.9c0-0.2,0-1,0-1.6s0.1-1.3,0.8-1.4
		c1.2-0.1,4.2-0.1,5.4,0c0.9,0.1,2,0,3,0.1c0.9,0,2.2-0.4,2.3-1.5C352.2,772.5,352.1,770.5,350.7,770.4z"/>
	<path fill="#FFFFFF" d="M370.3,786.2c-0.7-1-1.9-2.6-2.6-3.6c0.3-0.3,0.4-0.6,0.6-0.8c1.2-1.2,2.6-3.2,2.6-5c0-2.3-1-3.9-2.8-5.1
		c-1.7-1.2-3.4-1.6-5-1.8c-2.4-0.4-5.2-0.1-6.7,0.6c-0.2,0.1-0.1,1.9-0.1,2.2c0,0.8,0,1.6,0,2.4c0,2.3,0,4.1,0.1,6.3
		c0.1,1.6,0,2.9,0,4.2c0,2.4,0,3.5,0,6c0,1.4,0,3.5,0.8,4.3c0.2,0.2,1.9,0.4,2.2,0.4c0.9,0.1,1.4,0,1.8-1.1c0.3-0.9,0-1.9,0.1-3.3
		c0.1-1.7,0-3.4-0.1-5.1c0-0.6,0-1.1,0-1.7c0-0.3,0.3-0.7,0.5-0.8c0.3,0,1.4,0.2,1.7,0.4c0.2,0.1,0.2,0.3,0.3,0.5
		c0.3,0.6,0.6,1.3,1,1.9c0.7,1.4,1.5,2.7,2.2,4.1c0.5,0.9,0.9,1.7,1.3,2.6c0.4,0.9,0.6,1.6,1.4,2.2c0.5,0.3,1.3,0.5,1.9,0.5
		c0.9,0,2.1-0.1,2.2-0.9c0.4-1.9-0.9-5.3-2.4-7.4C371.2,787.5,370.8,786.8,370.3,786.2z M361.4,779.7c-0.8-0.1-0.7-2.8-0.7-3.4v-2.2
		c1.1,0,1.1,0,2.6,0.4c0.6,0.2,1.3,0.5,1.7,0.9c0.8,0.7,0.7,2.9-0.1,3.5C363.5,779.9,362.6,779.8,361.4,779.7z"/>
	<path fill="#FFFFFF" d="M426.2,776.4c-0.1-1.6,0-4.6-0.7-6.1c-0.4-1-0.9-1.1-1.9-1.1c-1.5,0-2,0-2.6,1.4c-0.2,0.6-0.3,1.5-0.2,2.1
		c0.1,1.4-0.1,2.6,0.1,3.9c0.2,1.9,0.2,3.9,0.4,5.8c0,0,0,0.1-0.1,0.1c-0.4-0.6-0.6-1.2-1-2c-0.6-1.1-1.2-2.1-1.8-3.2
		c-1-1.7-1.5-2.4-2.8-4.6c-0.8-1.4-1.2-2-1.6-2.5c-0.4-0.5-1.5-1.1-2.1-1.1c-1.1,0-2.6,0-3,0.2c-0.6,0.4-0.8,0.8-0.8,1.8
		c0.1,2.2,0.1,3.8,0.2,6.1c0.1,3,0,5.6,0,8c0,2.4-0.1,5.6-0.1,7c0,0.8,0.1,2,0.2,2.8c0,0.9,1.3,1.1,1.7,1.1c1,0.1,3.2,0.4,3.4-0.6
		c0.3-1.9,0.3-4.3,0.1-6.7c-0.2-2.1-0.1-3.8-0.2-6.9c-0.1-1.1-0.1-1.4,0-2.5c0.3,0.3,0.9,1.3,1,1.5c1,1.8,1.5,2.7,2.4,4.6
		c1,1.9,1.3,3,2.2,4.5c0.5,0.9,1,1.9,1.6,2.8c0.6,0.9,1.3,2,2.1,2.6c0.6,0.4,1,0.5,1.6,0.6c0.9,0.2,1.3-0.4,1.6-0.6
		c1.6-1.8,0.7-4.3,0.8-6.7c0-0.7,0-1.7,0-3.2c0-1.8-0.1-3.4-0.1-4.8C426.3,779.1,426.2,777.8,426.2,776.4z"/>
	<path fill="#FFFFFF" d="M401.9,790.2c-1.2,0-2.3,0.1-3.5,0.2c-1.7,0.1-3.4,0.2-5.7,0.2c-0.3,0-0.1-2.2-0.1-2.5
		c-0.1-1.4-0.1-2.5,0-4c0.8,0.1,2.4,0.2,3,0.2c1.1,0,2.5,0,3.5-0.1c0.9,0,1.1-1,1.2-1.9c0.1-1-0.2-2.4-1.2-2.4
		c-1.5,0-2.9-0.2-4.4-0.1c-0.3,0-0.7,0.1-1,0c-0.6-0.1-1.4-0.3-1.3-0.8c0.1-0.7,0-0.6,0-1.9c0-0.2,0-1,0-1.6s0.1-1.3,0.8-1.4
		c1.2-0.1,4.2-0.1,5.4,0c0.9,0.1,2,0,3,0.1c0.9,0,2.2-0.4,2.3-1.5c0.1-1.4,0-3.4-1.5-3.5c-1.2-0.1-2.3-0.1-3.5-0.1
		c-2,0.1-3.6,0.1-5.5,0.1c-1.1,0-3.5-0.1-4.4,0c-1.5,0.2-1.4,0.7-1.6,2.1c-0.2,1.7-0.3,3.2-0.4,5c-0.1,2.9,0,6,0,7.1
		c0,0.8,0,2.9,0,3c0,2,0,3.2,0,5.3c0,1,0,2.5,0.3,3.4c0.3,0.8,0.6,1,1.4,1.1c1.3,0.2,3-0.1,4.3-0.1c2.5,0,5.7,0.4,8.5,0
		c1.7-0.2,2-0.8,2.1-2.4c0-0.3,0.1-1.6,0.1-1.8C403.7,790.8,403,790.2,401.9,790.2z"/>
	<path fill="#FFFFFF" d="M443.3,772.9c-1.2-1.4-2.8-2.6-4.5-3c-1.7-0.4-2.6-0.8-4.5-0.6c-0.8,0-1.6,0-2.4,0c-1.2,0-1.2,0.1-1.3,2
		c-0.1,0.9-0.1,2.2-0.1,2.6c0.2,2.3,0,5.3,0,7.6c0,3.2-0.2,4.8,0.1,7.6c0.1,2.1,0,3.7,0.2,6c0.1,1.5,3,0.9,4,0.9
		c1.3,0,3.8-0.3,5.1-0.5c0.8-0.2,2.8-1.2,3.6-2.6c1-1.5,1.3-2.5,1.6-4.3c0.2-1.6,0.4-3,0.5-4.6c0.1-1.7-0.1-4.4-0.3-6.2
		C445.2,776.1,444.5,774.2,443.3,772.9z M437.9,790.5c-0.8,0.4-2.3,1-2.4,0.1c-0.1-0.8,0-1.1-0.1-2c0-0.5-0.1-1.7-0.1-2.4
		c0-1-0.1-3.2-0.2-5.9c0-0.2,0-1.6,0-2.7c0-0.8-0.1-2.3-0.1-3.3c0-0.8,2.4,0.4,3.2,0.8c1.4,0.8,2.2,1.6,2.6,2.9
		c0.3,0.9,0.4,2.3,0.5,2.9c0.1,0.8,0.1,2,0.1,2.2c-0.1,1.3-0.1,1.7-0.3,2.9c-0.1,0.7-0.7,2-1,2.7C440,789.4,438.6,790.1,437.9,790.5
		z"/>
	<path fill="#FFFFFF" d="M686.2,773.9c-0.8-1.2-2.8-2.6-4.2-2.8c-2.7-0.3-5.6,0.4-7,2.8c-1.1,1.8-1.7,3.6-2,5.1
		c-0.5,2-0.2,2.9-0.4,3.9c-0.1,0.5,0,1.4,0,1.5c0,0.4,0,0.8,0,1.2c0.1,2.8,0.6,4.9,2.1,7.3c0.7,1.2,1.6,2.2,2.7,3
		c1.6,1.2,5.5,1.6,7.5-0.1c2.2-2,3.3-3.7,3.6-7c0-0.3,0.3-2.8,0.3-3.7c0-2.3,0-3.4-0.5-5.6C687.9,777.6,687.3,775.5,686.2,773.9z
		 M683.9,783.7c0.1,1.6,0,3.4-0.4,5c-0.3,1-1.1,2.4-2,2.6c-1,0.2-2.2-0.2-2.9-0.9c-1.5-1.7-1.5-4.3-1.3-6.6c0-0.7,0.1-1.8,0.2-2.7
		c0.1-1.3,0.5-2.3,1.5-3.3c0.6-0.6,1.8-1.2,3-0.6c1.6,0.7,1.7,2.6,1.7,3.6C683.8,780.9,683.9,782.5,683.9,783.7z"/>
	<path fill="#FFFFFF" d="M754.2,777.9c-0.1-1.6,0-4.4-0.7-5.9c-0.4-1-0.8-1.1-1.8-1.1c-1.4,0-2,0-2.5,1.3c-0.2,0.6-0.3,1.4-0.2,2.1
		c0.1,1.3-0.1,2.5,0.1,3.8c0.2,1.9,0.2,3.7,0.4,5.6c0,0,0,0.1-0.1,0.1c-0.4-0.6-0.6-1.2-1-1.9c-0.5-1-1.2-2-1.7-3.1
		c-0.9-1.7-1.4-2.3-2.7-4.5c-0.8-1.3-1.1-2-1.5-2.4c-0.4-0.5-1.4-1.1-2.1-1.1c-1.1,0-2.6,0-2.9,0.2c-0.6,0.4-0.8,0.8-0.8,1.7
		c0.1,2.2,0.1,3.7,0.2,5.9c0.1,2.9,0,5.5,0,7.8c0,2.3-0.1,5.4-0.1,6.8c0,0.8,0.1,1.9,0.2,2.7c0,0.9,1.3,1.1,1.6,1.1
		c1,0,3.1,0.4,3.3-0.6c0.3-1.9,0.3-4.1,0.1-6.4c-0.1-2.1-0.1-3.7-0.2-6.7c-0.1-1-0.1-1.4,0-2.4c0.3,0.3,0.9,1.3,1,1.5
		c1,1.7,1.4,2.7,2.3,4.4c0.9,1.9,1.3,2.9,2.1,4.4c0.5,0.9,1,1.9,1.5,2.7c0.6,0.9,1.2,1.9,2.1,2.5c0.5,0.4,0.9,0.5,1.6,0.6
		c0.8,0.2,1.3-0.4,1.5-0.6c1.5-1.8,0.7-4.1,0.8-6.5c0-0.7,0-1.6,0-3.1c0-1.8-0.1-3.2-0.1-4.7C754.3,780.6,754.3,779.3,754.2,777.9z"
		/>
	<path fill="#FFFFFF" d="M731.5,791.4c-1.1,0-2.3,0.1-3.4,0.2c-1.7,0.1-3.3,0.2-5.5,0.2c-0.3,0-0.1-2.2-0.1-2.4
		c-0.1-1.4-0.1-2.5,0-3.9c0.7,0.1,2.3,0.2,2.9,0.2c1.1,0,2.4,0,3.4-0.1c0.9,0,1.1-0.9,1.2-1.8c0.1-0.9-0.2-2.3-1.2-2.3
		c-1.5,0-2.8-0.2-4.2-0.1c-0.3,0-0.7,0.1-1,0c-0.6-0.1-1.3-0.2-1.3-0.8c0.1-0.6,0-0.6,0-1.9c0-0.2,0-0.9,0-1.5s0.1-1.3,0.8-1.3
		c1.2-0.1,4.1-0.1,5.2,0c0.9,0.1,2,0,2.9,0.1c0.9,0,2.1-0.4,2.2-1.4c0.1-1.4,0-3.3-1.4-3.4c-1.2-0.1-2.2-0.1-3.4-0.1
		c-1.9,0.1-3.5,0.1-5.3,0.1c-1.1,0-3.4-0.1-4.3,0c-1.4,0.2-1.4,0.7-1.5,2c-0.2,1.7-0.3,3.1-0.4,4.9c-0.1,2.8,0,5.8,0,6.9
		c0,0.8,0,2.8,0,2.9c0,2,0,3.1,0,5.1c0,0.9,0,2.4,0.3,3.3c0.2,0.8,0.6,1,1.4,1.1c1.3,0.2,2.9-0.1,4.2-0.1c2.4,0,5.5,0.4,8.3,0
		c1.6-0.2,1.9-0.7,2-2.4c0-0.3,0.1-1.5,0.1-1.8C733.2,792,732.5,791.4,731.5,791.4z"/>
	<path fill="#FFFFFF" d="M777,771.4c-2.5-0.4-4.9-0.2-7.2-0.3c-1.4,0-2.6-0.1-4.8,0c-1.4,0-2.2,0-3.7,0.1c-1.9,0.1-4.1-0.5-4.5,1.2
		c-0.2,0.7-0.3,2.2,0.1,2.7c0.4,0.5,2,1,2.9,0.9c1.3,0,2,0,3.2,0.1c0.3,0,1.6,0,1.6,0.2c0,0.5,0,1.6,0,2.6c0,1.3,0,3,0,4.3
		c-0.1,3.6,0,4.6,0.1,7.6c0,1.6-0.1,4.8,0.8,5.6c0.7,0.6,2.6,0.6,3.5,0.1c0.7-0.4,0.8-1.8,0.8-2.6c0-1.4,0-2.6,0-4.4
		c0-1.1-0.1-0.8,0-1.9c0-0.8,0-2.3,0-3.4c0-2.1,0.1-3.8,0-6.2c0-0.4,0-1.4,0-1.7c0.2-0.1,0.2-0.1,0.3-0.1c0.1,0,0.2,0,0.3,0
		c2.1-0.2,2.7-0.1,4.4-0.2c1.3-0.1,2.3-0.1,3.1-0.4c0.5-0.2,0.5-1.4,0.6-1.7C778.6,772.3,778.7,771.7,777,771.4z"/>
	<path fill="#FFFFFF" d="M669.9,773c0-1-0.2-1.4-0.8-1.7c-0.3-0.2-1.8-0.2-2.9-0.2c-0.6,0-1.7,0.6-2.1,1.1c-0.4,0.5-0.7,1.1-1.5,2.4
		c-1.3,2.2-1.8,2.8-2.7,4.5c-0.6,1-0.7,1-1.1,1.9c-0.5-0.9-0.6-0.9-1.1-1.9c-0.9-1.7-1.4-2.3-2.7-4.5c-0.8-1.3-1.1-2-1.5-2.4
		c-0.4-0.5-1.4-1.1-2.1-1.1c-1.1,0-2.6,0-2.9,0.2c-0.6,0.4-0.8,0.8-0.8,1.7c0.1,2.2,0.1,3.7,0.2,5.9c0.1,2.9,0,5.5,0,7.8
		c0,2.3-0.1,5.4-0.1,6.8c0,0.8,0.1,1.9,0.2,2.7c0,0.9,1.3,1.1,1.6,1.1c1,0.1,3.1,0.4,3.3-0.6c0.3-1.9,0.3-4.1,0.1-6.4
		c-0.1-2.1-0.1-3.7-0.2-6.7c-0.1-1-0.1-1.4,0-2.4c0.3,0.3,0.9,1.3,1,1.5c1,1.6,3.4,4.3,4.6,6.1c0.1,0.2,0.4,0.6,0.5,0.6
		c0.1,0,0.4-0.4,0.5-0.6c1.2-1.8,3.6-4.4,4.6-6c0.1-0.2,0.7-1.2,1-1.5c0.1,1.1,0.1,1.4,0,2.4c-0.2,2.9-0.1,4.6-0.2,6.7
		c-0.2,2.3-0.2,4.6,0.1,6.4c0.2,1,2.3,0.7,3.3,0.6c0.3,0,1.6-0.2,1.6-1.1c0-0.8,0.1-1.9,0.2-2.7c0-1.4-0.1-4.5-0.1-6.8
		s-0.1-4.9,0-7.8C669.8,776.7,669.8,775.1,669.9,773z"/>
	<path fill="#FFFFFF" d="M713.7,772.8c0-1-0.2-1.4-0.8-1.7c-0.3-0.2-1.8-0.2-2.9-0.2c-0.6,0-1.7,0.6-2.1,1.1
		c-0.4,0.5-0.7,1.1-1.5,2.4c-1.3,2.2-1.8,2.8-2.7,4.5c-0.6,1-0.7,1-1.1,1.9c-0.5-0.9-0.6-0.9-1.1-1.9c-0.9-1.7-1.4-2.3-2.7-4.5
		c-0.8-1.3-1.1-2-1.5-2.4c-0.4-0.5-1.4-1.1-2.1-1.1c-1.1,0-2.6,0-2.9,0.2c-0.6,0.4-0.8,0.8-0.8,1.7c0.1,2.2,0.1,3.7,0.2,5.9
		c0.1,2.9,0,5.5,0,7.8s-0.1,5.4-0.1,6.8c0,0.8,0.1,1.9,0.2,2.7c0,0.9,1.3,1.1,1.6,1.1c1,0.1,3.1,0.4,3.3-0.6
		c0.3-1.9,0.3-4.1,0.1-6.4c-0.1-2.1-0.1-3.7-0.2-6.7c-0.1-1-0.1-1.4,0-2.4c0.3,0.3,0.9,1.3,1,1.5c1,1.6,3.4,4.3,4.6,6.1
		c0.1,0.2,0.4,0.6,0.5,0.6s0.4-0.4,0.5-0.6c1.2-1.8,3.6-4.4,4.6-6c0.1-0.2,0.7-1.2,1-1.5c0.1,1.1,0.1,1.4,0,2.4
		c-0.2,2.9-0.1,4.6-0.2,6.7c-0.2,2.3-0.2,4.6,0.1,6.4c0.2,1,2.3,0.7,3.3,0.6c0.3,0,1.6-0.2,1.6-1.1c0-0.8,0.1-1.9,0.2-2.7
		c0-1.4-0.1-4.5-0.1-6.8c0-2.3-0.1-4.9,0-7.8C713.6,776.5,713.6,775,713.7,772.8z"/>
	<path fill="#FFFFFF" d="M628,771c-0.7-0.1-2.6-0.3-2.8,0.4c-0.3,0.9-0.7,2.5-1.3,4.6c-0.1,0.5-0.4,1.7-0.6,2.2
		c-0.1,0.2-0.6,1.7-0.8,2.3c-0.5-0.8-0.5-0.8-0.6-1.1c-1-1.7-2.5-4.2-3.4-6c-0.8-1.7-1.5-1.9-2.7-1.9c-0.5,0-1.7-0.1-2.5,0.1
		c-1.5,0.3,0.1,2.9,0.7,4c0.5,0.9,4.7,7.8,6.2,10.4c-0.4,0.9-0.7,2.3-0.9,2.7c-0.8,2.1-2.1,4.4-2.5,6.4c0,1.5,3.2,2.3,4.2,0.8
		c1.1-1.7,1.7-3.6,2.4-5.3c1.7-4.3,3.2-7.4,4.4-11.5c0.4-1.4,1.8-5.2,2-6C630,771,628.8,771.1,628,771z"/>
</g>
</svg>
