<?xml version="1.0" encoding="utf-8"?>
<!-- Generator: Adobe Illustrator 18.1.1, SVG Export Plug-In . SVG Version: 6.00 Build 0)  -->
<svg version="1.1" id="Layer_1" xmlns="http://www.w3.org/2000/svg" xmlns:xlink="http://www.w3.org/1999/xlink" x="0px" y="0px"
	 viewBox="0 0 800 240" enable-background="new 0 0 800 240" xml:space="preserve">
<g>
	<path d="M211,172.1c-71.8,0-130.2-58.4-130.2-130.2h12c0,65.2,53,118.2,118.2,118.2c65.2,0,118.2-53,118.2-118.2h12
		C341.2,113.7,282.7,172.1,211,172.1z"/>
	<g>
		<line x1="103.4" y1="104" x2="53.9" y2="128.9"/>
		<rect x="72.6" y="88.8" transform="matrix(0.4492 0.8934 -0.8934 0.4492 147.3511 -6.0989)" width="12" height="55.4"/>
	</g>
	<g>
		<line x1="146" y1="149.4" x2="116.8" y2="196.5"/>
		<rect x="125.4" y="145.2" transform="matrix(0.8494 0.5278 -0.5278 0.8494 111.0659 -43.3118)" width="12" height="55.4"/>
	</g>
	<g>
		<line x1="321.4" y1="103.2" x2="370.9" y2="128.1"/>
		<rect x="318.4" y="109.6" transform="matrix(0.8934 0.4492 -0.4492 0.8934 88.8259 -143.1555)" width="55.4" height="12"/>
	</g>
	<g>
		<line x1="278.7" y1="148.6" x2="307.9" y2="195.6"/>
		<rect x="265.6" y="166.1" transform="matrix(0.5278 0.8494 -0.8494 0.5278 284.6729 -167.8757)" width="55.4" height="12"/>
	</g>
	<g>
		<line x1="211.3" y1="166.1" x2="210.6" y2="221.5"/>
		<rect x="205" y="166.1" transform="matrix(0.9999 1.106599e-02 -1.106599e-02 0.9999 2.1577 -2.3225)" width="12" height="55.4"/>
	</g>
	<path d="M586.2,169.3c-71.8,0-130.2-58.4-130.2-130.2h12c0,65.2,53,118.2,118.2,118.2c65.2,0,118.2-53,118.2-118.2h12
		C716.4,110.9,658,169.3,586.2,169.3z"/>
	<g>
		<line x1="478.6" y1="101.2" x2="429.1" y2="126.1"/>
		<rect x="447.9" y="85.9" transform="matrix(0.4492 0.8934 -0.8934 0.4492 351.5215 -342.9129)" width="12" height="55.4"/>
	</g>
	<g>
		<line x1="521.3" y1="146.6" x2="492.1" y2="193.6"/>
		<rect x="500.7" y="142.4" transform="matrix(0.8494 0.5278 -0.5278 0.8494 166.1056 -241.7956)" width="12" height="55.4"/>
	</g>
	<g>
		<line x1="696.6" y1="100.4" x2="746.1" y2="125.3"/>
		<rect x="693.7" y="106.8" transform="matrix(0.8934 0.4492 -0.4492 0.8934 127.5518 -312.0212)" width="55.4" height="12"/>
	</g>
	<g>
		<line x1="654" y1="145.8" x2="683.2" y2="192.8"/>
		<rect x="640.9" y="163.3" transform="matrix(0.5278 0.8494 -0.8494 0.5278 459.4892 -487.9411)" width="55.4" height="12"/>
	</g>
	<g>
		<line x1="586.5" y1="163.3" x2="585.9" y2="218.7"/>
		
			<rect x="580.2" y="163.3" transform="matrix(0.9999 1.089935e-02 -1.089935e-02 0.9999 2.1167 -6.378)" width="12" height="55.4"/>
	</g>
</g>
</svg>
