<?xml version="1.0" encoding="utf-8"?>
<!-- Generator: Adobe Illustrator 18.1.1, SVG Export Plug-In . SVG Version: 6.00 Build 0)  -->
<svg version="1.1" id="Layer_2" xmlns="http://www.w3.org/2000/svg" xmlns:xlink="http://www.w3.org/1999/xlink" x="0px" y="0px"
	 viewBox="-649 401 100 100" enable-background="new -649 401 100 100" xml:space="preserve">
<path fill="#28333D" d="M-595.4,498.5h-43.5c0,0-8.2,1.4-8.2-8.2c0-9.5,0-81.3,0-81.3s-0.2-7,7-7s82,0,82,0s7.1-0.2,7.1,7.2
	c0,7.4,0,81.7,0,81.7s1.8,7.9-7.9,7.9c-9.6,0-21.6,0-21.6,0v-37.5h11.5l2.3-14.7h-14V437c0,0,0-6.7,6.7-6.7c6.7,0,8.1,0,8.1,0v-12.9
	c0,0-11.3-3-21.2,1.8s-8.5,16.6-8.5,26.7c-4.8,0-12.4,0-12.4,0v14.7l12.8,0L-595.4,498.5z"/>
</svg>
