<?xml version="1.0" encoding="utf-8"?>
<!-- Generator: Adobe Illustrator 18.1.1, SVG Export Plug-In . SVG Version: 6.00 Build 0)  -->
<svg version="1.1" id="Layer_2" xmlns="http://www.w3.org/2000/svg" xmlns:xlink="http://www.w3.org/1999/xlink" x="0px" y="0px"
	 viewBox="335.1 63.6 772.5 769.5" enable-background="new 335.1 63.6 772.5 769.5" xml:space="preserve">
<path fill="#28333D" d="M747.4,817.3H415.2c0,0-62.6,10.7-62.6-62.6c0-72.5,0-620.8,0-620.8s-1.5-53.5,53.5-53.5s626.2,0,626.2,0
	s54.2-1.5,54.2,55s0,623.9,0,623.9s13.7,60.3-60.3,60.3c-73.3,0-164.9,0-164.9,0V533.2H949L966.5,421H859.6v-73.3
	c0,0,0-51.2,51.2-51.2s61.9,0,61.9,0V198c0,0-86.3-22.9-161.9,13.7s-64.9,126.8-64.9,203.9c-36.7,0-94.7,0-94.7,0v112.3h97.7
	L747.4,817.3z"/>
</svg>
