<?xml version="1.0" encoding="utf-8"?>
<!-- Generator: Adobe Illustrator 18.1.1, SVG Export Plug-In . SVG Version: 6.00 Build 0)  -->
<svg version="1.1" id="Layer_1" xmlns="http://www.w3.org/2000/svg" xmlns:xlink="http://www.w3.org/1999/xlink" x="0px" y="0px"
	 viewBox="-949 963.6 100 75.4" enable-background="new -949 963.6 100 75.4" xml:space="preserve">
<path fill="#FFFFFF" d="M-849,1039h-100v-75.4h100V1039L-849,1039z M-937.2,1032h76.3l-25.1-25.7l-4.8,4.8c-2.1,2.1-5,3.2-8.1,3.2
	c0,0,0,0-0.1,0c-3.1,0-6.1-1.2-8.1-3.3l-4.8-4.9L-937.2,1032L-937.2,1032z M-942,975.6v51.5l25.3-25.8L-942,975.6L-942,975.6z
	 M-881,1001.4l25.1,25.7v-50.9L-881,1001.4L-881,1001.4z M-937.2,970.6l35.1,35.6c0.8,0.8,1.9,1.2,3.2,1.2c0,0,0,0,0,0
	c1.2,0,2.4-0.4,3.2-1.2l35.4-35.6H-937.2L-937.2,970.6z"/>
</svg>
