<?xml version="1.0" encoding="utf-8"?>
<!-- Generator: Adobe Illustrator 18.1.1, SVG Export Plug-In . SVG Version: 6.00 Build 0)  -->
<svg version="1.1" xmlns="http://www.w3.org/2000/svg" xmlns:xlink="http://www.w3.org/1999/xlink" x="0px" y="0px"
	 viewBox="0 0 1000 1000" enable-background="new 0 0 1000 1000" xml:space="preserve">
<g id="Layer_1">
	<path fill="#E8E8E8" d="M337.8,691.6c6.2,5.1,14.4,11.8,24.2,21.1c10.3,8.7,21.1,17.5,33.4,25.7c19,12.8,38,22.6,56,29.8
		c18.5,7.2,38,10.8,58.6,10.8c19,0,34.9-2.1,47.8-6.2c13.4-4.6,22.6-10.3,30.3-17c7.7-7.2,12.8-14.9,15.9-24.7
		c3.1-9.2,5.1-19,5.1-29.8c0-11.3-4.6-22.1-13.4-30.8c-8.7-8.7-19.5-17-32.4-24.2s-25.7-13.4-39.6-18.5c-13.9-5.1-25.7-9.2-36-12.8
		c-44.7-15.9-83.8-32.4-117.7-50.4c-33.4-18.5-61.2-38-83.8-60.1c-22.1-22.1-39.1-46.8-50.4-73.5c-11.3-26.7-17-56-17-88.9
		c0-34.9,7.2-66.3,21.1-94c13.9-28.3,33.9-52.4,60.1-72.5c25.7-20,57-35.5,93.5-46.8c36.5-10.8,77.1-16.4,122.3-16.4
		c33.9,0,66.3,3.6,97.1,11.3c30.8,7.7,61.7,19.5,91.5,36.5c12.8,7.7,24.7,14.9,36,23.1s21.6,15.9,29.8,23.1
		c8.7,7.7,30.8-52.9,36.5-46.8c15.9,17.5,22.6,36,24.2,40.6c2.6,10.3-5.7,22.6-13.9,32.9c-3.1,3.6-29.3,33.9-33.9,39.1l-85.3,91
		c-6.2,6.2-12.8,9.2-19,9.2c-5.1,0-10.3-1-14.4-4.6c-4.6-3.1-8.7-7.2-14.4-11.3l-5.1-4.6c-7.7-6.2-15.9-12.8-24.7-19.5
		c-8.7-7.2-19-12.8-29.3-18.5c-10.8-5.7-21.6-10.3-32.9-13.4c-11.3-3.6-23.1-5.1-35.5-5.1c-11.8,0-24.2,1-34.9,3.1
		c-10.8,2.1-20,5.1-28.3,9.2c-8.2,4.1-14.4,10.3-19.5,17.5c-5.1,7.7-7.7,16.4-7.7,26.7c0,10.8,2.6,19.5,7.7,27.2
		c5.1,7.7,13.4,14.4,23.1,21.6c10.8,6.2,23.1,12.8,38.5,18.5c14.9,5.7,33.4,11.8,53.4,19c39.1,13.4,75.5,26.7,109.5,41.1
		c33.4,14.4,61.7,31.3,86.3,50.4c24.2,19.5,43.2,43.2,57,69.9c13.9,27.2,20,60.1,20,99.2c0,41.1-8.2,78.1-25.2,111
		c-17,33.4-39.6,61.7-68.9,85.3c-29.3,23.1-63.7,41.6-102.8,54.5s-82.2,19.5-127.4,19.5c-43.2,0-84.8-7.7-126.4-22.6
		c-41.1-14.9-79.7-36-115.6-61.7c-14.9-10.8-27.2-21.6-38-32.4c-10.3-10.8-18.5-19-24.2-25.2l-2.1-2.1c-0.5-0.5-0.5-1-1-1
		c-0.5,0-0.5-0.5-1-0.5c-0.5-0.5-0.5-1-1-1c-0.5,0-0.5-0.5-1-0.5c-8.7-9.2-36.5-43.7-40.6-73.5c-0.5-6.2,31.3,37.5,40.6,29.8
		l96.6-92c7.7-5.7,13.9-8.2,19-8.2c3.1,0,7.2,1,10.8,3.1C328,683.9,332.6,687.5,337.8,691.6z"/>
	<g>
		<path fill="#F4D345" d="M330.1,628.9c6.2,5.1,14.4,11.8,24.2,21.1c10.3,8.7,21.1,17.5,33.4,25.7c19,12.8,38,22.6,56,29.8
			c18.5,7.2,38,10.8,58.6,10.8c19,0,34.9-2.1,47.8-6.2c12.8-4.6,22.6-10.3,30.3-17c7.7-7.2,12.8-14.9,15.9-24.7
			c3.1-9.2,5.1-19,5.1-29.8c0-11.3-4.6-22.1-13.4-30.8c-8.7-8.7-19.5-17-32.4-24.2c-12.8-7.2-25.7-13.4-39.6-18.5
			c-13.9-5.1-25.7-9.2-36-12.8c-44.7-15.9-83.8-32.4-117.7-50.4c-33.4-18.5-61.2-38-83.8-60.1c-22.1-22.1-39.1-46.8-50.4-73.5
			c-11.3-26.7-17-56-17-88.9c0-34.9,7.2-66.3,21.1-94c13.9-28.3,33.9-52.4,60.1-72.5c25.7-20,57-35.5,93.5-46.8
			c36.5-10.8,77.1-16.4,122.3-16.4c33.9,0,66.3,3.6,97.1,11.3c30.8,7.7,61.7,19.5,91.5,36.5c12.8,7.7,24.7,14.9,36,23.1
			s21.6,15.9,29.8,23.1c8.7,7.7,14.9,14.4,20,21.6c5.1,7.2,7.7,12.8,7.7,17c0,5.1-1,9.2-3.6,13.4c-2.6,4.1-6.2,8.7-10.8,13.9
			l-85.3,91c-6.2,6.2-12.8,9.2-19,9.2c-5.1,0-10.3-1-14.4-4.6c-4.6-3.1-8.7-7.2-14.4-11.3l-5.1-4.6c-7.7-6.2-15.9-12.8-24.7-19.5
			c-8.7-7.2-19-12.8-29.3-18.5c-10.8-5.7-21.6-10.3-32.9-13.4c-11.3-3.6-23.1-5.1-35.5-5.1c-11.8,0-24.2,1-34.9,3.1
			c-10.8,2.1-20,5.1-28.3,9.2c-8.2,4.6-14.4,10.3-19.5,17.5c-5.1,7.7-7.2,16.4-7.2,26.7c0,10.8,2.6,19.5,7.7,27.2
			c5.1,7.7,13.4,14.4,23.1,21.6c10.8,6.2,23.1,12.8,38.5,18.5c14.9,5.7,33.4,11.8,53.4,19c39.1,13.4,75.5,26.7,109.5,41.1
			c33.4,14.4,61.7,31.3,86.3,50.4c24.2,19.5,43.2,43.2,57,69.9c13.9,27.2,20,60.1,20,99.2c0,41.1-8.2,78.1-25.2,111
			c-17,33.4-39.6,61.7-68.9,85.3c-29.3,23.1-63.7,41.6-102.8,54.5c-39.1,12.8-82.2,19.5-127.4,19.5c-43.2,0-84.8-7.7-126.4-22.6
			c-41.1-14.9-79.7-36-115.6-61.7c-14.9-10.8-27.2-21.6-38-32.4c-10.3-10.8-18.5-19-24.2-25.2l-2.1-2.1c-0.5-0.5-0.5-1-1-1
			c-0.5,0-0.5-0.5-1-0.5c-0.5-0.5-0.5-1-1-1c-0.5,0-0.5-0.5-1-0.5c-8.7-9.2-12.8-17-12.8-22.1c0-6.2,4.6-13.4,12.8-21.6l96.6-92
			c7.7-5.7,13.9-8.2,19-8.2c3.1,0,7.2,1,10.8,3.1C320.8,620.7,324.9,624.8,330.1,628.9z"/>
		<path fill="#D8B10E" d="M500.7,929.5c-45.2,0-90.4-8.2-134.1-24.7c-43.2-15.9-83.2-38-120.8-64.2c-15.9-11.3-29.8-23.1-40.6-33.9
			c-10.3-10.8-18.5-19-24.7-25.2l-3.1-3.1l-0.5-0.5l-0.5-1c-0.5-0.5-0.5-0.5-1-1l-0.5-0.5c-12.8-13.9-19-25.7-19-37.5
			c0-13.4,6.2-25.2,20-38l98.7-94c11.8-8.2,22.1-12.8,31.3-12.8c7.7,0,14.4,2.1,22.1,6.2c5.1,3.1,10.3,7.2,16.4,11.8
			c6.2,5.1,14.4,11.8,24.7,21.6c8.7,8.2,19.5,16.4,31.3,24.2c17.5,11.3,34.9,21.1,51.9,27.2c15.9,6.2,32.9,9.2,50.4,9.2
			c16.4,0,30.3-2.1,41.1-5.1c9.2-3.1,17-7.7,22.1-11.8c5.1-4.6,8.2-9.2,10.3-15.9c2.6-7.2,3.6-14.4,3.6-22.6
			c0-5.7-2.1-10.8-7.2-15.9c-7.2-7.7-16.4-14.4-27.2-20c-11.3-6.2-24.2-11.8-36.5-16.4c-13.4-5.1-25.2-8.7-35.5-12.8
			c-46.2-15.9-86.3-33.4-120.8-51.9c-35.5-19-65.3-40.6-88.9-63.7c-24.2-24.2-43.2-51.4-55-80.2c-11.8-29.3-18.5-61.7-18.5-97.1
			c0-38,7.7-72.5,23.1-104.3c14.9-30.8,38-58.1,66.3-80.2c27.7-21.6,61.7-38.5,100.2-50.4c38.5-11.3,81.7-17.5,129-17.5
			c35.5,0,69.9,3.6,102.8,11.8c32.9,8.2,65.8,21.1,97.1,38.5c13.9,8.2,26.7,16.4,38,24.7c11.8,8.2,22.6,16.4,31.3,24.7
			c10.3,8.7,17.5,16.4,23.1,24.7c8.2,10.8,11.8,21.1,11.8,30.3c0,8.7-2.6,17-7.2,24.7c-3.1,5.7-7.7,11.3-13.9,17.5l-85.3,93
			c-10.8,10.8-22.1,15.9-34.9,15.9c-10.3,0-19-3.1-27.2-8.2c-5.1-3.1-10.3-7.7-15.9-12.8l-5.1-4.6c-7.2-5.7-14.4-11.8-23.1-18.5
			c-8.2-5.7-17-11.3-26.7-16.4c-9.2-5.1-19-8.7-29.3-11.8c-20-6.2-41.6-5.1-59.6-2.1c-8.2,2.1-15.9,4.6-22.1,7.7
			c-5.1,2.6-8.7,6.2-11.8,10.8c-2.6,3.6-3.6,8.2-3.6,14.4c0,5.7,1,10.8,3.6,14.4c3.1,5.1,8.7,10.3,17,14.9
			c8.7,5.7,21.1,11.3,34.9,16.4c14.9,5.7,32.9,11.8,52.9,18.5c39.6,13.4,77.1,27.2,111,41.6c34.9,14.9,65.8,33.4,91.5,53.4
			c26.7,21.6,47.3,47.3,62.7,77.6c14.9,30.3,22.6,66.8,22.6,108.4c0,44.2-9.2,85.3-27.7,121.3c-18.5,36-43.7,66.8-75,92
			c-30.8,25.2-68.3,44.7-110,58.1C593.7,922.8,547.9,929.5,500.7,929.5z M212.9,750.1L212.9,750.1c6.2,7.2,14.4,14.9,24.7,25.2
			c9.2,9.2,21.1,19.5,34.9,29.8c33.9,24.7,70.9,44.2,110.5,58.6c38.5,14.4,78.1,21.6,118.7,21.6c43.2,0,83.2-6.2,120.8-18.5
			c36.5-11.8,68.9-29.3,96.1-50.4c26.7-21.6,47.8-47.3,63.2-77.6c15.4-30.3,22.6-64.2,22.6-101.7c0-35.5-6.2-65.3-18.5-88.9
			c-11.8-24.2-29.3-45.2-50.4-62.7c-22.6-18.5-49.8-33.9-80.7-47.8c-32.9-13.9-68.9-27.7-107.4-40.6c-21.1-7.2-39.1-13.4-55-19
			c-17-6.2-30.8-13.4-43.2-20c-13.4-8.2-23.1-17-29.8-27.7c-7.7-11.3-11.3-24.7-11.3-39.6c0-14.4,3.6-27.7,10.8-38.5
			c7.2-10.3,15.9-18.5,27.2-24.7c10.3-5.7,22.1-9.2,34.9-11.8c24.7-4.6,53.4-5.7,80.2,2.6c12.8,3.6,25.2,8.7,36.5,14.9
			c11.3,5.7,22.1,12.8,32.4,20c9.2,7.2,18.5,13.9,25.7,20l5.7,5.1c4.6,3.6,8.7,7.2,11.8,9.2c0.5,0,0.5,0.5,1,0.5s2.1-0.5,3.6-2.6
			l85.3-91c4.6-5.1,7.2-8.2,8.2-10.3c0-0.5,0.5-0.5,0.5-1c-0.5-0.5-1-2.6-3.1-5.1c-3.6-5.7-10.3-11.3-17-17.5
			c-8.2-7.2-17.5-14.4-27.7-21.6c-10.8-7.7-22.1-14.9-34.9-22.1c-27.7-14.9-57-27.2-85.8-33.9c-29.3-7.2-60.1-10.8-92-10.8
			c-43.2,0-81.7,5.1-116.1,15.9c-33.4,10.3-62.7,24.7-86.3,43.2c-23.1,17.5-41.1,39.6-53.4,65.3s-19,53.4-19,84.8
			c0,29.8,5.1,57,14.9,80.2c10.3,24.2,25.2,46.2,45.2,65.8c21.1,20,47.3,39.6,79.1,56c32.4,17.5,70.9,33.9,114.1,49.3
			c10.3,3.1,22.1,7.7,36,12.8c14.9,5.7,29.3,11.8,43.2,19.5c14.4,8.2,27.2,17.5,37.5,28.3c12.8,13.4,19.5,29.3,19.5,46.2
			c0,12.8-2.1,25.2-5.7,36.5c-4.6,12.8-11.3,24.2-21.6,33.4c-10.3,9.2-22.6,16.4-38.5,22.1c-14.9,5.1-33.4,7.7-55,7.7
			c-23.1,0-45.2-3.6-66.3-11.8c-20-7.7-40.6-18.5-60.6-31.3c-13.4-9.2-25.7-18.5-36-27.7c-9.2-8.7-17.5-14.9-23.1-20
			c-5.1-4.6-8.2-6.2-10.3-7.7c-1,0.5-2.6,1-5.1,3.1l-95.6,91c-2.6,2.6-3.6,3.6-5.1,5.1c0.5,1,2.6,3.1,4.6,5.7c1,0.5,2.6,2.1,3.1,3.1
			C210.3,747.1,211.4,748.6,212.9,750.1z"/>
	</g>
	<polygon fill="#FFFFFF" points="333.5,258.1 316.9,191.9 280.8,293.1 288.4,212.4 186.7,304.4 280.8,185.5 221.1,189.8 
		298.6,153.7 315.8,56.9 322.8,133.8 434.7,39.2 341.6,151.1 403.5,140.8 334.1,183.9 	"/>
	<path fill="#FFFFFF" d="M303.3,365.8c-7.2,0-13.4-4.6-14.9-11.8c-19.5-72.5-8.7-132.1,30.3-175.7c61.2-68.3,173.7-75.5,218.4-68.9
		c8.7,1,14.4,9.2,13.4,18.5c-1,8.7-9.2,14.4-18.5,13.4c-38-5.7-138.2,0.5-190.1,58.6c-32.4,35.5-39.6,84.8-23.1,146.5
		c2.6,8.2-2.6,17-11.3,19.5C305.9,365.8,304.9,365.8,303.3,365.8z"/>
	<path fill="#FFFFFF" d="M489.4,804.1c-3.1,0-6.2,0-9.2,0h-8.2c-8.7,0-15.9-7.2-15.9-15.9c0-8.7,7.2-15.9,15.9-15.9l0,0h8.2
		c83.2,0.5,152.6-6.2,163.4-91c1-8.7,8.7-14.4,17.5-13.9c8.7,1,14.4,8.7,13.9,17.5C660.5,799,556.7,804.1,489.4,804.1z"/>
</g>
<g id="Layer_4" display="none">
	<g display="inline">
		<g>
			<path fill="#FFFFFF" d="M670.2,117.2c-9.3-11.1-19.4-21.6-30.4-31c-34.5-29.5-81.2-45.7-126.4-41
				C390.4,58.1,354,111.6,335.5,181.1c-7.4,27.7-11.9,55.8-7,85.2c5.4,32.7,15.9,62.3,30.9,91.3c31.5,61,95.3,114,146.1,161.4
				c17,15.8,32.6,33.4,47.2,51.5c27.9,34.8,44.9,126.1,19.8,160.1c-12.6,17.2-63.9,19.8-82.6-7.4c-24.2-35-28.8-87.6-32.1-124.4
				c-2-22.3-24.3-33.1-46.9-33.6c-20.6-0.4-17.6-1.6-38.1-0.5c-17.6,1-65.7,5.4-89.1,16.4c-35.7,16.8,35.1,199.1,51.9,231
				c53,101,148.2,160.8,280.4,100.5c55.5-25.3,97.4-52.5,118-104.8c15-38.3,26.3-70.5,28.6-111.6c3.1-54.6-15.9-114-40.2-164.1
				c-24.5-50.4-68.8-97.1-109.6-134c-23.2-21.1-94.4-89.9-116.5-115.5c-11.9-13.8-18.6-36.2-14.5-46.7c8.5-21.6,26.7-22.5,41.7-22.7
				c36.3-0.4,50.2-0.7,82.9,58.4c43.2,77.9,72.3,68.7,105,48.8c4.4-2.7,22.7-19.7,25.5-24.1c4.3-6.7,14.5-24.5,13.2-32.4
				c-5.4-32.8-14.1-44.1-28.8-74C707.8,162.3,689.9,140.9,670.2,117.2z"/>
			<path d="M515.1,943.2c-76.1,0-141.8-45.5-185.1-128.1c-11.4-21.7-76-178.6-60-226.2c2.2-6.6,5.9-11.2,11.1-13.6
				c28-13.1,85.1-16.6,91.5-17c6.1-0.3,10.5-0.5,14-0.5c3.6,0,6.2,0.1,9.4,0.3c3.5,0.2,7.8,0.5,15.2,0.6
				c24.7,0.5,50.7,12.9,53.1,39.4l0.1,1.2c3.4,36.7,8,86.9,30.9,120.2c7.6,11,23,17.6,41.1,17.6c13.8,0,26.6-4.3,31.1-10.4
				c10.3-14,13.6-42.1,8.8-75.1c-4.5-31.1-15.7-61.4-28.4-77.3c-16-19.9-31.2-36.6-46.5-50.8c-7.2-6.7-14.6-13.5-22.4-20.6
				c-45.7-41.8-97.5-89.2-125.1-142.5c-16-30.9-26.3-61.4-31.6-93.2c-5.5-33.4,0.9-64.5,7.1-87.9c17.3-64.8,51.4-126.7,183.3-140.6
				c5.4-0.6,10.9-0.8,16.3-0.8c40.8,0,82.7,15.8,114.9,43.3c10.9,9.3,21.4,20,31.2,31.8c19.6,23.5,38,45.7,52,74
				c2.9,5.8,5.4,10.8,7.9,15.7c10.2,19.7,16.9,32.7,21.4,60.1c1.9,11.4-11.5,32.7-14.2,36.9c-3.4,5.3-22.4,22.9-27.6,26
				c-12.6,7.7-26.3,14.8-40.9,14.8c0,0,0,0,0,0c-25.2,0-47.7-20.3-73-66c-29.4-53-41.6-55.1-68.9-55.1c-2.6,0-5.4,0-8.2,0.1
				c-16.4,0.2-29.3,1.7-36,18.6c-3,7.6,2.6,27.7,13.4,40.2c22.2,25.7,93.7,94.8,116,115c54,49,90.4,93.4,111,136
				c20.6,42.3,44.4,105.7,40.9,167.3c-2.4,42.7-14.6,76.7-29.1,113.5c-21,53.5-63.7,82-121.3,108.3
				C582.7,934.8,547.9,943.2,515.1,943.2z M386.5,570.6c-3.3,0-7.4,0.1-13.3,0.5c-22.4,1.2-65.8,5.9-86.7,15.8
				c-1.9,0.9-3.3,2.9-4.4,6.1c-13,38.5,43.1,185.5,59.2,216.2c41,78.2,102.7,121.3,173.8,121.3c30.9,0,64-7.9,98.3-23.6
				c56.3-25.7,95.1-51.6,114.7-101.3c14.6-37.1,25.9-68.7,28.2-109.6c3.3-58.8-19.7-120-39.6-161c-19.9-41-55.3-84.2-108.1-132.1
				c-22.4-20.3-94.6-90-117.1-116.1c-13.4-15.5-20.7-40.3-15.6-53.2c10.4-26.3,33.6-26.5,47.6-26.7c3.1,0,5.9-0.1,8.6-0.1
				c32.5,0,48.9,5.6,80,61.7c29.5,53.2,49.4,59.4,61.9,59.4c0,0,0,0,0,0c10.8,0,21.5-5.2,34.2-12.9c3.8-2.3,21.4-18.9,23.5-22.1
				c7.2-11.1,12.9-24.1,12.3-27.9c-4.2-25.4-10.2-37-20.2-56.3c-2.4-4.7-5.1-9.9-8.1-15.9c-13.3-27-30.5-47.6-50.4-71.5
				c-9.4-11.3-19.4-21.4-29.7-30.3C605.7,65.5,566.8,50.8,529,50.8c-5,0-10.1,0.3-15,0.8c-117.3,12.3-153.7,61.3-172.3,131.1
				c-5.9,22.2-12,51.5-6.9,82.5c5,30.5,15,59.7,30.3,89.4c26.5,51.2,77.4,97.8,122.3,138.9c7.8,7.2,15.2,13.9,22.5,20.7
				c15.8,14.7,31.4,31.8,47.8,52.2c14.3,17.8,26.2,49.7,31.1,83.4c5.4,36.8,1.3,67.6-11.1,84.5c-7.1,9.6-22.9,15.6-41.4,15.6
				c-22.3,0-41.6-8.7-51.6-23.2c-24.9-36-29.6-88.2-33.1-126.3l-0.1-1.2c-1.1-12.4-12.5-27.2-40.7-27.8c-7.6-0.2-12.1-0.4-15.6-0.6
				C392,570.7,389.7,570.6,386.5,570.6z"/>
		</g>
		<rect x="360.4" y="553.3" transform="matrix(0.5047 0.8633 -0.8633 0.5047 677.8005 -28.8306)" width="7.3" height="45.8"/>
		<rect x="338.5" y="553.3" transform="matrix(0.5047 0.8633 -0.8633 0.5047 666.9623 -9.9408)" width="7.3" height="45.8"/>
		<rect x="387" y="553.3" transform="matrix(0.5047 0.8633 -0.8633 0.5047 691.0063 -51.8468)" width="7.3" height="45.8"/>
		<rect x="408.7" y="557" transform="matrix(0.5047 0.8633 -0.8633 0.5047 704.8661 -68.7093)" width="7.3" height="45.8"/>
		<rect x="425.1" y="564.3" transform="matrix(0.5047 0.8633 -0.8633 0.5047 719.2914 -79.2638)" width="7.3" height="45.8"/>
		<rect x="432.4" y="578.9" transform="matrix(0.5047 0.8633 -0.8633 0.5047 735.4974 -78.3349)" width="7.3" height="45.8"/>
		<rect x="432.4" y="597.1" transform="matrix(0.5047 0.8633 -0.8633 0.5047 751.2389 -69.303)" width="7.3" height="45.8"/>
		<rect x="436" y="613.5" transform="matrix(0.5047 0.8633 -0.8633 0.5047 767.2126 -64.3226)" width="7.3" height="45.8"/>
		<rect x="693.6" y="827.9" transform="matrix(0.5047 0.8633 -0.8633 0.5047 1079.9059 -180.4823)" width="7.3" height="45.8"/>
		<rect x="702.7" y="809.7" transform="matrix(0.5047 0.8633 -0.8633 0.5047 1068.6803 -197.3849)" width="7.3" height="45.8"/>
		<rect x="713.6" y="787.8" transform="matrix(0.5047 0.8633 -0.8633 0.5047 1055.2096 -217.668)" width="7.3" height="45.8"/>
		<rect x="719.1" y="769.6" transform="matrix(0.5047 0.8633 -0.8633 0.5047 1042.1776 -231.4223)" width="7.3" height="45.8"/>
		<rect x="726.4" y="749.5" transform="matrix(0.5047 0.8633 -0.8633 0.5047 1028.4747 -247.6541)" width="7.3" height="45.8"/>
		<rect x="728.2" y="731.3" transform="matrix(0.5047 0.8633 -0.8633 0.5047 1013.6365 -258.2601)" width="7.3" height="45.8"/>
		<rect x="730.2" y="706.5" transform="matrix(0.5113 0.8594 -0.8594 0.5113 991.2451 -270.9843)" width="7.3" height="59.2"/>
		<rect x="730.2" y="690" transform="matrix(0.5113 0.8594 -0.8594 0.5113 977.1416 -279.0047)" width="7.3" height="59.2"/>
		<rect x="730.2" y="673.6" transform="matrix(0.5113 0.8594 -0.8594 0.5113 963.0381 -287.0251)" width="7.3" height="59.2"/>
		<rect x="730.2" y="657.2" transform="matrix(0.5113 0.8594 -0.8594 0.5113 948.9346 -295.0455)" width="7.3" height="59.2"/>
		<rect x="730.2" y="640.8" transform="matrix(0.5113 0.8594 -0.8594 0.5113 934.8312 -303.0659)" width="7.3" height="59.2"/>
		<rect x="730.2" y="622.6" transform="matrix(0.5113 0.8594 -0.8594 0.5113 919.1606 -311.9774)" width="7.3" height="59.2"/>
		<rect x="728.4" y="604.3" transform="matrix(0.5113 0.8594 -0.8594 0.5113 902.5989 -319.3218)" width="7.3" height="59.2"/>
		<rect x="722.9" y="586.1" transform="matrix(0.5113 0.8594 -0.8594 0.5113 884.2549 -323.5323)" width="7.3" height="59.2"/>
		<rect x="717.5" y="567.9" transform="matrix(0.5113 0.8594 -0.8594 0.5113 865.9109 -327.7426)" width="7.3" height="59.2"/>
		<rect x="710.2" y="551.5" transform="matrix(0.5113 0.8594 -0.8594 0.5113 848.2429 -329.4948)" width="7.3" height="59.2"/>
		<rect x="702.9" y="535.1" transform="matrix(0.5113 0.8594 -0.8594 0.5113 830.5748 -331.247)" width="7.3" height="59.2"/>
		<rect x="695.6" y="518.6" transform="matrix(0.5113 0.8594 -0.8594 0.5113 812.9067 -332.9991)" width="7.3" height="59.2"/>
		<rect x="686.5" y="502.2" transform="matrix(0.5113 0.8594 -0.8594 0.5113 794.3474 -333.1842)" width="7.3" height="59.2"/>
		<rect x="677.4" y="485.8" transform="matrix(0.5113 0.8594 -0.8594 0.5113 775.7881 -333.3694)" width="7.3" height="59.2"/>
		<rect x="666.4" y="471.2" transform="matrix(0.5113 0.8594 -0.8594 0.5113 757.9048 -331.0963)" width="7.3" height="59.2"/>
		<rect x="655.5" y="456.7" transform="matrix(0.5113 0.8594 -0.8594 0.5113 740.0215 -328.8232)" width="7.3" height="59.2"/>
		<rect x="644.5" y="442.1" transform="matrix(0.5113 0.8594 -0.8594 0.5113 722.1381 -326.5501)" width="7.3" height="59.2"/>
		<rect x="631.8" y="427.5" transform="matrix(0.5113 0.8594 -0.8594 0.5113 703.3636 -322.71)" width="7.3" height="59.2"/>
		<rect x="615.4" y="414.7" transform="matrix(0.5113 0.8594 -0.8594 0.5113 684.3738 -314.8446)" width="7.3" height="59.2"/>
		<rect x="602.6" y="400.1" transform="matrix(0.5113 0.8594 -0.8594 0.5113 665.5994 -311.0044)" width="7.3" height="59.2"/>
		<rect x="588" y="387.4" transform="matrix(0.5113 0.8594 -0.8594 0.5113 647.5007 -304.7061)" width="7.3" height="59.2"/>
		<rect x="575.2" y="372.8" transform="matrix(0.5113 0.8594 -0.8594 0.5113 628.7258 -300.8661)" width="7.3" height="59.2"/>
		<rect x="562.5" y="358.2" transform="matrix(0.5113 0.8594 -0.8594 0.5113 609.9514 -297.026)" width="7.3" height="59.2"/>
		<rect x="546.1" y="345.4" transform="matrix(0.5113 0.8594 -0.8594 0.5113 590.9612 -289.1608)" width="7.3" height="59.2"/>
		<rect x="533.3" y="332.7" transform="matrix(0.5113 0.8594 -0.8594 0.5113 573.7538 -284.4295)" width="7.3" height="59.2"/>
		<rect x="520.5" y="319.9" transform="matrix(0.5113 0.8594 -0.8594 0.5113 556.5463 -279.6982)" width="7.3" height="59.2"/>
		<rect x="506" y="307.1" transform="matrix(0.5113 0.8594 -0.8594 0.5113 538.4477 -273.3999)" width="7.3" height="59.2"/>
		<rect x="495" y="292.5" transform="matrix(0.5113 0.8594 -0.8594 0.5113 520.5643 -271.1268)" width="7.3" height="59.2"/>
		<rect x="480.4" y="279.8" transform="matrix(0.5113 0.8594 -0.8594 0.5113 502.4658 -264.8285)" width="7.3" height="59.2"/>
		<rect x="467.7" y="265.2" transform="matrix(0.5113 0.8594 -0.8594 0.5113 483.6913 -260.9883)" width="7.3" height="59.2"/>
		<rect x="456.7" y="250.6" transform="matrix(0.5113 0.8594 -0.8594 0.5113 465.8079 -258.7152)" width="7.3" height="59.2"/>
		<rect x="453.1" y="230.6" transform="matrix(0.5113 0.8594 -0.8594 0.5113 446.788 -265.3838)" width="7.3" height="59.2"/>
		<rect x="451.3" y="212.3" transform="matrix(0.5113 0.8594 -0.8594 0.5113 430.2263 -272.7283)" width="7.3" height="59.2"/>
		<rect x="715.6" y="265.2" transform="matrix(0.5113 0.8594 -0.8594 0.5113 604.8882 -474.1075)" width="7.3" height="59.2"/>
		<rect x="717.5" y="247" transform="matrix(0.5113 0.8594 -0.8594 0.5113 590.1088 -484.5862)" width="7.3" height="59.2"/>
		<rect x="717.5" y="226.9" transform="matrix(0.5113 0.8594 -0.8594 0.5113 572.8712 -494.3889)" width="7.3" height="59.2"/>
		<rect x="712" y="210.5" transform="matrix(0.5113 0.8594 -0.8594 0.5113 556.0943 -497.7081)" width="7.3" height="59.2"/>
		<rect x="702.9" y="195.9" transform="matrix(0.5113 0.8594 -0.8594 0.5113 539.1021 -497.0021)" width="7.3" height="59.2"/>
		<rect x="695.6" y="179.5" transform="matrix(0.5113 0.8594 -0.8594 0.5113 521.434 -498.7542)" width="7.3" height="59.2"/>
		<rect x="686.5" y="164.9" transform="matrix(0.5113 0.8594 -0.8594 0.5113 504.4418 -498.0482)" width="7.3" height="59.2"/>
		<rect x="679.2" y="148.5" transform="matrix(0.5113 0.8594 -0.8594 0.5113 486.7737 -499.8004)" width="7.3" height="59.2"/>
		<rect x="670.1" y="133.9" transform="matrix(0.5113 0.8594 -0.8594 0.5113 469.7815 -499.0943)" width="7.3" height="59.2"/>
		<rect x="659.1" y="119.3" transform="matrix(0.5113 0.8594 -0.8594 0.5113 451.8981 -496.8212)" width="7.3" height="59.2"/>
		<rect x="648.2" y="106.6" transform="matrix(0.5113 0.8594 -0.8594 0.5113 435.5818 -493.657)" width="7.3" height="59.2"/>
		<rect x="637.2" y="93.8" transform="matrix(0.5113 0.8594 -0.8594 0.5113 419.2656 -490.4928)" width="7.3" height="59.2"/>
		<rect x="624.5" y="82.9" transform="matrix(0.5113 0.8594 -0.8594 0.5113 403.6252 -484.8703)" width="7.3" height="59.2"/>
		<rect x="611.7" y="70.1" transform="matrix(0.5113 0.8594 -0.8594 0.5113 386.4177 -480.139)" width="7.3" height="59.2"/>
		<rect x="598.9" y="59.2" transform="matrix(0.5113 0.8594 -0.8594 0.5113 370.7773 -474.5166)" width="7.3" height="59.2"/>
		<rect x="584.4" y="50" transform="matrix(0.5113 0.8594 -0.8594 0.5113 355.8128 -466.4359)" width="7.3" height="59.2"/>
		<rect x="568" y="42.7" transform="matrix(0.5113 0.8594 -0.8594 0.5113 341.5242 -455.8971)" width="7.3" height="59.2"/>
		<rect x="547.9" y="37.3" transform="matrix(0.5113 0.8594 -0.8594 0.5113 327.0204 -441.3329)" width="7.3" height="59.2"/>
		<rect x="527.8" y="33.6" transform="matrix(0.5113 0.8594 -0.8594 0.5113 314.0836 -425.8777)" width="7.3" height="59.2"/>
		<rect x="506" y="31.8" transform="matrix(0.5113 0.8594 -0.8594 0.5113 301.8227 -407.9641)" width="7.3" height="59.2"/>
		<rect x="487.7" y="30" transform="matrix(0.5113 0.8594 -0.8594 0.5113 291.3441 -393.1848)" width="7.3" height="59.2"/>
		<rect x="437.8" y="631.7" transform="matrix(0.5047 0.8633 -0.8633 0.5047 783.8574 -56.8649)" width="7.3" height="45.8"/>
		<rect x="441.5" y="648.2" transform="matrix(0.5047 0.8633 -0.8633 0.5047 799.8311 -51.8845)" width="7.3" height="45.8"/>
		<rect x="445.1" y="664.6" transform="matrix(0.5047 0.8633 -0.8633 0.5047 815.8048 -46.9041)" width="7.3" height="45.8"/>
		<rect x="448.8" y="681" transform="matrix(0.5047 0.8633 -0.8633 0.5047 831.7786 -41.9237)" width="7.3" height="45.8"/>
		<rect x="454.2" y="695.6" transform="matrix(0.5047 0.8633 -0.8633 0.5047 847.0813 -39.4207)" width="7.3" height="45.8"/>
		<rect x="465.2" y="706.5" transform="matrix(0.5047 0.8633 -0.8633 0.5047 861.9453 -43.4464)" width="7.3" height="45.8"/>
		<rect x="474.3" y="717.4" transform="matrix(0.5047 0.8633 -0.8633 0.5047 875.9062 -45.898)" width="7.3" height="45.8"/>
		<rect x="485.2" y="726.6" transform="matrix(0.5047 0.8633 -0.8633 0.5047 889.1961 -50.827)" width="7.3" height="45.8"/>
		<rect x="503.5" y="730.2" transform="matrix(0.5047 0.8633 -0.8633 0.5047 901.3763 -64.7621)" width="7.3" height="45.8"/>
		<g>
			<path fill="#FFFFFF" d="M633.7,130.4c-9.3-11.1-19.4-21.6-30.4-31c-34.5-29.5-81.1-43.4-126.4-41
				c-78.1,4.2-159.3,66.4-177.8,135.8c-7.4,27.7-11.9,55.8-7,85.2c5.4,32.7,15.9,62.3,30.9,91.3c31.5,61,95.3,114,146.1,161.4
				c17,15.8,32.6,33.4,47.2,51.5c27.9,34.8,44.9,126.1,19.8,160.1c-12.6,17.2-63.9,19.8-82.6-7.4c-24.2-35-28.8-87.6-32.1-124.4
				c-2-22.3-24.3-33.1-46.9-33.6c-20.6-0.4-17.6-1.6-38.1-0.5c-17.6,1-36.8,5.8-54.5,7.3c-39.4,3.2,0.5,208.2,17.2,240.2
				c53,101,142.1,148.8,280.4,104.2c53.1-17.1,97.4-47.1,118-99.3c15-38.3,20.8-79.6,23.2-120.7c3.1-54.6-10.4-108.5-34.8-158.6
				c-24.5-50.4-68.8-95.2-109.6-132.2c-23.2-21.1-95-96.3-116.5-119.2c-13.5-14.3-20.4-34.4-16.3-44.9c8.5-21.6,28.6-28,43.5-28.1
				c36.3-0.4,58.2,13.2,90.9,72.2c43.2,77.9,79.9,57.1,112.5,37.1c4.4-2.7,18.1-11,20.9-15.3c4.3-6.7,16.2-21.4,11.4-37.9
				c-9.3-31.9-23.2-49.6-37.9-79.4C671.3,175.4,653.4,154,633.7,130.4z"/>
			<path d="M483,952.5c-82.5,0-146.3-41.8-189.5-124.3c-15.1-28.8-50-197.3-27.3-238.6c4.6-8.4,10.8-10.6,15.2-10.9
				c8-0.6,16.6-2.1,24.9-3.4c9.8-1.6,20-3.3,29.7-3.8c6.1-0.3,10.5-0.5,14-0.5c3.6,0,6.2,0.2,9.4,0.3c3.5,0.2,7.8,0.5,15.2,0.6
				c24.7,0.5,50.7,12.9,53.1,39.4l0.1,1.2c3.4,36.7,8,86.9,30.9,120.2c7.6,11,23,17.6,41.1,17.6c13.8,0,26.6-4.3,31.1-10.4
				c10.3-14,13.6-42.1,8.8-75.1c-4.5-31.1-15.7-61.4-28.4-77.3c-16-19.9-31.2-36.5-46.5-50.8c-7.2-6.7-14.6-13.5-22.4-20.6
				c-45.7-41.8-97.5-89.2-125-142.5c-16-30.9-26.3-61.4-31.6-93.2c-5.5-33.4,0.9-64.5,7.1-87.9C312.1,120.6,396.2,56.3,476.6,52
				c3.5-0.2,7-0.3,10.5-0.3c45.4,0,88.2,15.2,120.4,42.8c10.9,9.3,21.4,20,31.2,31.8c19.6,23.5,38,45.7,52,74
				c4.7,9.5,9.3,17.7,13.7,25.7c9.3,16.7,18.1,32.5,24.6,54.8c5.1,17.6-5.2,32.8-10.7,40.9c-0.6,0.8-1.1,1.5-1.5,2.2
				c-2.5,3.9-9.1,8.9-22.7,17.2l-0.2,0.1c-14.1,8.6-31.6,19.3-50.8,19.3c0,0,0,0,0,0c-25.6,0-48.7-19.2-70.7-58.8
				c-32.5-58.6-52.9-69-83.8-69l-1.5,0c-8.5,0.1-29.2,2.6-37.7,24.1c-2.9,7.4,2.5,24.9,15,38.2c23.1,24.6,93.6,98.4,116.2,118.8
				c38.1,34.6,85.2,81,111,134.1c26.5,54.5,38.4,108.9,35.4,161.8c-2.8,49.9-10.3,88.9-23.6,122.6c-19,48.4-60.1,83.1-121.9,103.1
				C546.4,946.8,513.3,952.5,483,952.5z M350.1,583.7c-3.3,0-7.4,0.1-13.3,0.5c-9,0.5-18.8,2.1-28.3,3.7c-8.6,1.4-17.5,2.9-26,3.6
				c-0.8,0.1-2.8,0.2-5.1,4.4c-8.2,14.8-7.8,58.1,1,115.7c8,52.4,19.9,98.3,26.5,110.7c40.9,78,100.8,117.5,178.2,117.5
				c28.9,0,60.7-5.5,94.5-16.4c58.9-19,96.2-50.3,114-95.6c12.8-32.5,20-70.2,22.7-118.7c2.9-50.7-8.6-103-34.1-155.5
				c-24.9-51.1-70.8-96.5-108.1-130.3c-24.6-22.3-99.6-101.2-116.9-119.5c-15-15.9-22.7-38.6-17.6-51.6
				c11.6-29.5,40.7-32.1,49.4-32.2c41.2-0.5,64.4,17.6,96.6,75.5c29,52.2,51.9,52.2,59.5,52.2c0,0,0,0,0,0
				c14.4,0,27.9-7.6,44.1-17.4l0.2-0.1c15.4-9.4,18.2-12.5,18.7-13.3c0.5-0.7,1-1.5,1.6-2.4c4.7-6.9,12.5-18.3,9-30.2
				c-6.1-21-14.2-35.4-23.5-52.2c-4.5-8.1-9.2-16.5-14-26.2c-13.3-27-30.5-47.6-50.4-71.5c-9.4-11.3-19.4-21.4-29.7-30.3
				c-30-25.6-69.8-39.7-112.1-39.7c-3.2,0-6.5,0.1-9.8,0.3c-75.4,4-154.1,64.1-172,131.1c-5.9,22.2-12,51.5-6.9,82.5
				c5,30.5,15,59.7,30.3,89.4c26.5,51.2,77.4,97.8,122.3,138.9c7.8,7.2,15.2,13.9,22.5,20.7c15.8,14.7,31.4,31.8,47.8,52.2
				c14.3,17.8,26.2,49.7,31.1,83.4c5.4,36.8,1.3,67.6-11.1,84.5c-7.1,9.6-22.9,15.6-41.4,15.6c-22.3,0-41.6-8.7-51.6-23.2
				c-24.9-36-29.6-88.2-33.1-126.3l-0.1-1.2c-1.1-12.4-12.5-27.2-40.7-27.8c-7.6-0.2-12.1-0.4-15.6-0.6
				C355.6,583.9,353.3,583.7,350.1,583.7z"/>
		</g>
	</g>
</g>
<g id="Layer_2" display="none">
	<g display="inline">
		<g>
			<path fill-rule="evenodd" clip-rule="evenodd" fill="#F8A1FF" d="M708.3,596.2c-13.4-32.4-58.2-73.6-85.6-95
				c-45.5-35.5-83.7-62.5-120.3-106.8c-31.8-38.5-69.8-104.6-47.6-149.1c15.1-30.2,37.8-34.6,65.5-31.9c25,2.4,61.8,74.7,74.7,96.2
				c6.8,11.2,10.5,24.6,18.5,34.7c20.1,25.5,46.7,26.3,72.6,7c22-16.4,16.3-38.9,18.1-60.6c-3.4-63.9-19.7-104.2-57.8-156
				c-33.7-45.8-82.3-69.3-139.6-69.8c-47.1-0.4-87.6,14.5-124.4,42.9c-60.8,46.9-78.6,90.3-80,164c-1.2,66.7,8.9,125.7,51.6,173.4
				c47.8,53.4,63.5,73.1,117.8,112.8c13.3,9.7,56.2,45.9,66.6,58.6c21.9,26.6,43.2,54.6,45.9,87.3c1.7,21.4-14.9,48.9-34.5,59.7
				c-24.1,13.4-68.5,14.5-90.4,1.9c-35.7-20.7-44.2-24.6-61.9-66.7c-10.4-24.8-26.5-61.5-43.4-69.9c-10-5-32.2-8-47.6-1.2
				c-36.4,16-48.4,41-46.7,93c0.7,21.9,13.8,53.4,25.2,72.1c22.4,37,31.9,52.1,63.8,77.3c64,50.5,159.7,73.3,240.1,55.6
				c28.6-6.3,53.7-19.6,67.1-28.8c47.2-31.9,54.8-43.2,73.9-94c8.1-21.7,9.8-86.6,8.4-110.8C736.7,659.6,721.8,628.7,708.3,596.2z"
				/>
			<path d="M504.8,64.9c0.7,0,1.3,0,2,0c57.3,0.6,105.9,24,139.6,69.8c38.1,51.7,54.4,92.1,57.8,156c-1.8,21.7,3.9,44.2-18.1,60.6
				c-11.8,8.8-23.8,13.4-35.2,13.4c-13.6,0-26.5-6.6-37.4-20.4c-8-10.1-11.7-23.5-18.5-34.7c-13-21.5-49.8-93.8-74.7-96.2
				c-4.3-0.4-8.6-0.7-12.6-0.7c-22,0-40.1,7.1-52.8,32.6c-22.2,44.4,15.7,110.5,47.6,149.1c36.6,44.3,74.9,71.3,120.3,106.8
				c27.4,21.4,72.3,62.7,85.6,95c13.5,32.5,28.4,63.4,30.2,95.7c1.4,24.2-0.3,89.1-8.4,110.8c-19.1,50.8-26.7,62.2-73.9,94
				c-13.4,9.1-38.5,22.4-67.1,28.8c-18.2,4-37.2,5.9-56.4,5.9c-65.7,0-134.2-22.5-183.7-61.6c-31.9-25.2-41.3-40.3-63.8-77.3
				c-11.4-18.7-24.5-50.3-25.2-72.1c-1.7-52.1,10.4-77,46.7-93c6.4-2.8,13.9-3.9,21.3-3.9c10.4,0,20.4,2.3,26.3,5.2
				c16.8,8.4,32.9,45.2,43.4,69.9c17.7,42.1,26.2,46.1,61.9,66.7c10.3,5.9,25.5,8.8,41.4,8.8c17.8,0,36.2-3.7,49-10.8
				c19.5-10.9,36.2-38.4,34.5-59.7c-2.7-32.7-24.1-60.7-45.9-87.3c-10.5-12.7-53.3-48.9-66.6-58.6c-54.3-39.7-70.1-59.4-117.8-112.8
				c-42.7-47.7-52.8-106.7-51.6-173.4c1.3-73.7,19.2-117.1,80-164C418.7,79.8,458.5,64.9,504.8,64.9 M504.8,37.3L504.8,37.3
				c-51.2,0-96.7,15.9-139.2,48.6c-64.6,49.8-89.1,100-90.7,185.3c-1.1,57.8,4.6,131.9,58.6,192.3c4.1,4.6,8,8.9,11.6,13.1
				c38.9,43.7,58.5,65.6,110.5,103.6c13.6,10,53.8,44.4,61.6,53.8C537,658,554.9,681.6,557,706c0.7,9.2-9,27-20.4,33.3
				c-8,4.4-21.9,7.3-35.6,7.3c-13.8,0-23.5-2.8-27.5-5.1l-3.1-1.8c-31.1-18-33.7-19.5-47.3-51.8c-18.3-43.5-34.2-72.8-56.4-83.9
				c-10.1-5.1-24.6-8.1-38.6-8.1c-12,0-22.9,2.1-32.4,6.3c-58.1,25.6-64.7,72.4-63.2,119.2c0.9,27.3,15.7,63.5,29.2,85.6
				c24.1,39.7,35.3,56.9,70.3,84.6c53.6,42.3,128.6,67.5,200.7,67.5c21.5,0,42.5-2.2,62.4-6.6c39-8.6,68.6-27.4,76.7-32.9
				c53.5-36.1,63.7-52.6,84.2-107.1c10.4-27.9,11.5-98.6,10.1-122.1c-1.9-32.9-14.7-63.1-27.1-92.3c-1.7-4.1-3.5-8.2-5.2-12.3
				c-18.9-45.8-81.7-96.5-94.1-106.2c-6.1-4.8-12.1-9.4-18-13.9c-36.7-28.3-68.3-52.7-98-88.7c-44.4-53.7-54-99.4-44.2-119.2
				c7.4-14.7,15-17.3,28.2-17.3c2.4,0,5,0.1,7.9,0.3c8.8,5.6,25,28.9,48,69.5c3.1,5.4,5.7,10.1,7.9,13.7c2,3.2,3.8,7.4,5.8,11.7
				c3.7,8.1,7.9,17.3,14.7,25.8c20.2,25.5,43.2,30.8,59,30.8c17.4,0,34.8-6.3,51.6-18.9c28.3-21.1,28.6-49.6,28.8-68.5
				c0-4.3,0.1-8.3,0.4-11.9l0.2-1.9l-0.1-1.9c-3.6-66.9-20.7-113.2-63.1-170.8C630,66,574.2,38,507,37.3L504.8,37.3L504.8,37.3
				L504.8,37.3z"/>
		</g>
		<path fill="#FFFFFF" d="M589.1,141.2c-2.3,0-4.6-0.7-6.6-2.1l-2.2-1.5c-17.3-12.3-63.2-45-136.3-9.8c-5.7,2.8-12.6,0.3-15.3-5.4
			c-2.8-5.7-0.3-12.6,5.4-15.3c85.4-41.1,141.3-1.3,159.6,11.8l2,1.4c5.2,3.6,6.5,10.8,2.8,16C596.2,139.5,592.7,141.2,589.1,141.2z
			"/>
		<path fill="#FFFFFF" d="M350,210.4c-1.3,0-2.6-0.2-3.8-0.7c-6-2.1-9.1-8.7-7-14.7c8.8-24.8,28-47.6,55.5-65.7
			c5.3-3.5,12.4-2,15.9,3.3c3.5,5.3,2,12.4-3.3,15.9c-23.3,15.4-39.4,34.1-46.5,54.2C359.2,207.5,354.7,210.4,350,210.4z"/>
		<path fill="#FFFFFF" d="M504.7,819.8c-17.1,0-33.7-4.2-43.9-7.3c-6.1-1.9-9.4-8.3-7.6-14.4c1.9-6.1,8.3-9.4,14.4-7.6
			c20.7,6.4,40,8,53,4.3c6.1-1.7,12.4,1.8,14.2,7.9c1.7,6.1-1.8,12.5-7.9,14.2C519.8,819,512.2,819.8,504.7,819.8z"/>
		<path fill="#FFFFFF" d="M562.6,811.1c-4.5,0-8.8-2.7-10.6-7.1c-2.4-5.9,0.4-12.6,6.2-15c6.6-2.9,60.2-40.8,44-86.2
			c-2.1-6,1-12.5,7-14.7c6-2.1,12.5,1,14.7,7c21,59.2-39.5,108-56.9,115.2C565.6,810.8,564.1,811.1,562.6,811.1z"/>
	</g>
</g>
<g id="Layer_3" display="none">
	<path display="inline" d="M393.5,540.2c-3.5-15.7-58.7-20.8-81.8,6.1C269,595.7,242.1,672.3,229.5,735
		c-18,89.3,16.2,172.7,127,182.6c30.7,2.7,61.4-7.6,87.5-24c165-103.2,208.8-268.7,189.9-452c-7.1-69-36.6-137.4-31.3-207
		c1.7-22.8,11.1-46.1,29.7-59.4c18.6-13.3,47.3-13.3,62.6,3.7c7,7.8,10.6,17.9,16.5,26.5c19.4,28,58.7,11.5,62.8-18.3
		c3.9-27.9-12.5-62.7-34.3-79.7c-25.9-20.1-62.5-30.9-95.2-28.2c-37,3-72.7,23.1-92.5,54.4c-30,47.4-23.5,111.4-19.1,164.7
		c5.1,62.4,14.6,124.4,16.4,187.1c6,205.3-70.7,326.4-183.4,316.4C253.2,791.7,393.5,540.2,393.5,540.2z"/>
	<path display="inline" fill="none" stroke="#FFFFFF" stroke-width="4" stroke-linecap="round" stroke-miterlimit="10" d="
		M365.1,542.5c-13.5,1.5-54,1.5-84,85.5"/>
	<path display="inline" fill="none" stroke="#FFFFFF" stroke-width="4" stroke-linecap="round" stroke-miterlimit="10" d="
		M548.1,184c0,0,10.5-87,115.5-91.5"/>
</g>
</svg>
