<?xml version="1.0" encoding="utf-8"?>
<!-- Generator: Adobe Illustrator 18.1.1, SVG Export Plug-In . SVG Version: 6.00 Build 0)  -->
<svg version="1.1" id="Layer_1" xmlns="http://www.w3.org/2000/svg" xmlns:xlink="http://www.w3.org/1999/xlink" x="0px" y="0px"
	 viewBox="0 0 1000 530" enable-background="new 0 0 1000 530" xml:space="preserve">
<g>
	<path fill="#E8E8E8" d="M201.9,150.4c1.2,1,2.8,2.3,4.7,4.1c2,1.7,4.1,3.4,6.5,5c3.7,2.5,7.4,4.4,10.9,5.8
		c3.6,1.4,7.4,2.1,11.4,2.1c3.7,0,6.8-0.4,9.3-1.2c2.6-0.9,4.4-2,5.9-3.3c1.5-1.4,2.5-2.9,3.1-4.8c0.6-1.8,1-3.7,1-5.8
		c0-2.2-0.9-4.3-2.6-6s-3.8-3.3-6.3-4.7s-5-2.6-7.7-3.6s-5-1.8-7-2.5c-8.7-3.1-16.3-6.3-22.9-9.8c-6.5-3.6-11.9-7.4-16.3-11.7
		c-4.3-4.3-7.6-9.1-9.8-14.3c-2.2-5.2-3.3-10.9-3.3-17.3c0-6.8,1.4-12.9,4.1-18.3c2.7-5.5,6.6-10.2,11.7-14.1
		c5-3.9,11.1-6.9,18.2-9.1c7.1-2.1,15-3.2,23.8-3.2c6.6,0,12.9,0.7,18.9,2.2s12,3.8,17.8,7.1c2.5,1.5,4.8,2.9,7,4.5s4.2,3.1,5.8,4.5
		c1.7,1.5,6-10.3,7.1-9.1c3.1,3.4,4.4,7,4.7,7.9c0.5,2-1.1,4.4-2.7,6.4c-0.6,0.7-5.7,6.6-6.6,7.6L272,86.5c-1.2,1.2-2.5,1.8-3.7,1.8
		c-1,0-2-0.2-2.8-0.9c-0.9-0.6-1.7-1.4-2.8-2.2l-1-0.9c-1.5-1.2-3.1-2.5-4.8-3.8c-1.7-1.4-3.7-2.5-5.7-3.6c-2.1-1.1-4.2-2-6.4-2.6
		c-2.2-0.7-4.5-1-6.9-1c-2.3,0-4.7,0.2-6.8,0.6s-3.9,1-5.5,1.8s-2.8,2-3.8,3.4c-1,1.5-1.5,3.2-1.5,5.2c0,2.1,0.5,3.8,1.5,5.3
		s2.6,2.8,4.5,4.2c2.1,1.2,4.5,2.5,7.5,3.6c2.9,1.1,6.5,2.3,10.4,3.7c7.6,2.6,14.7,5.2,21.3,8c6.5,2.8,12,6.1,16.8,9.8
		c4.7,3.8,8.4,8.4,11.1,13.6c2.7,5.3,3.9,11.7,3.9,19.3c0,8-1.6,15.2-4.9,21.6c-3.3,6.5-7.7,12-13.4,16.6c-5.7,4.5-12.4,8.1-20,10.6
		s-16,3.8-24.8,3.8c-8.4,0-16.5-1.5-24.6-4.4c-8-2.9-15.5-7-22.5-12c-2.9-2.1-5.3-4.2-7.4-6.3c-2-2.1-3.6-3.7-4.7-4.9l-0.4-0.4
		c-0.1-0.1-0.1-0.2-0.2-0.2c-0.1,0-0.1-0.1-0.2-0.1c-0.1-0.1-0.1-0.2-0.2-0.2c-0.1,0-0.1-0.1-0.2-0.1c-1.7-1.8-7.1-8.5-7.9-14.3
		c-0.1-1.2,6.1,7.3,7.9,5.8l18.8-17.9c1.5-1.1,2.7-1.6,3.7-1.6c0.6,0,1.4,0.2,2.1,0.6C200,148.9,200.9,149.6,201.9,150.4z"/>
	<path fill="#E8E8E8" d="M310.6,122.1c0-7.6,1-15,2.9-22.1c2-7,4.8-13.6,8.4-19.9c3.6-6.1,8-11.8,13-16.8s10.7-9.3,16.8-13
		c6.1-3.6,12.8-6.4,19.8-8.4c7.1-2,14.5-2.9,22.1-2.9s15,1,22.1,2.9c7.1,2,13.8,4.8,19.9,8.4c6.1,3.6,11.8,7.9,16.8,13
		c5,5,9.5,10.7,13,16.8s6.4,12.8,8.4,19.9c2,7,2.9,14.4,2.9,22.1c0,7.6-1,15-2.9,22.1c-2,7-4.8,13.6-8.4,19.8s-7.9,11.7-13,16.7
		c-5,5-10.7,9.3-16.8,13c-6.1,3.6-12.8,6.4-19.9,8.4s-14.5,2.9-22.1,2.9c-7.7,0-15.1-1-22.1-2.9c-7.1-2-13.6-4.8-19.8-8.4
		c-6.1-3.6-11.8-8-16.8-13s-9.3-10.6-13-16.7c-3.6-6.1-6.4-12.7-8.4-19.8C311.6,137.1,310.6,129.8,310.6,122.1z"/>
	<path fill="#E8E8E8" d="M496.4,46.2c0-1.5,0.4-2.7,1.2-3.6c0.9-0.9,1.8-1.4,2.9-1.4h104c1.7,0,2.9,0.5,3.8,1.4
		c0.9,1,1.2,2.2,1.2,3.8l2.8,15c0,11.8-1.1,13.5-2.1,14.6c-0.9,1.1-2.6,2.5-5.9,2.3h-66.1V112h48.9c1.4,0,2.6,0.4,3.4,1.1
		c1,0.7,1.4,2,1.4,3.7l2.8,14.6c0,12.2-1.1,13.4-2,14.5s-3.1,2.1-5.5,2.1h-49l2.7,38.1c0,3.1,0.6,16.1-5.3,16.3H500
		c-2.6-0.4-9-1.4-9.6-16.7L496.4,46.2z"/>
	<path fill="#E8E8E8" d="M631,46.1c0-1.4,0.4-2.5,1.2-3.3c0.7-1,2-1.4,3.6-1.4h31.9c1.1,0,2.2,0.5,3.4,1.4s1.8,2.1,1.8,3.4
		l2.8,140.1c0,13.8-4.7,16.5-8.2,16.5h-31.9c-3.2,0-9.7-2.5-10.4-15.7L631,46.1z"/>
	<path fill="#E8E8E8" d="M700.1,46.2c0-1.5,0.4-2.7,1.2-3.7c0.9-0.9,2-1.4,3.6-1.4h107.8c1.6,0,2.8,0.5,3.7,1.4
		c0.9,1,1.4,2.2,1.4,3.8v26.9c0,1.2-0.5,2.5-1.4,3.6s-2.1,1.7-3.8,1.7h-70.4v26.9h54.3c1.4,0,2.5,0.4,3.4,1s1.4,1.7,1.4,3.3v23.5
		c0,1-0.4,2-1.2,2.9c-0.7,1-2,1.5-3.4,1.5h-54.4v27.8h73c3.3,0,4.9,1.7,4.9,5l2.9,15.5c0,0.6-0.2,8.7-0.6,12.4
		c-0.1,1.4-1,2.6-2.1,3.2c-1.6,0.9-3.6,1.2-5.4,1.2H705c-3.1,0-6.5-0.9-7.4-1.8c-0.7-0.9-3.2-1.1-3.2-14.5L700.1,46.2z"/>
	<path fill="#E8E8E8" d="M29.4,243.6c0-1.4,0.4-2.5,1.2-3.3c0.7-1,2-1.4,3.6-1.4h35.5c1,0,2.1,0.2,3.2,0.7s2,1.4,2.8,2.6
		c9.2,14.9,18.3,29.5,27.4,43.9s18.2,29,27.5,43.9v-87c0.2-1.4,0.9-2.3,1.7-3.1c0.9-0.7,1.8-1.1,3.1-1.1h31c1.5,0,2.8,0.4,3.8,1.2
		s1.5,2,1.5,3.6l2.9,140.9c0,11.3-2.5,13.3-3.3,13.9c-0.9,0.7-4.2,1.7-5.7,1.7h-32.2c-1,0-2.9-0.4-3.7-1c-0.7-0.6-1.5-1.5-2.3-2.6
		c-9.6-16-19.2-31.7-28.6-47.3s-18.9-31.3-28.6-47.3L73,384c0,13.3-2.1,14-2.7,14.7c-0.7,0.7-3.2,1.2-5.2,1.2H31.7
		c-1.7,0-3.6-0.5-4.3-1.4s-3.1-1.5-3.7-14.9L29.4,243.6z"/>
	<path fill="#E8E8E8" d="M195.6,243.6c0-1.4,0.4-2.5,1.2-3.3c0.7-1,2-1.4,3.6-1.4h31.9c1.1,0,2.2,0.5,3.4,1.4s1.8,2.1,1.8,3.4
		l2.8,140.6c0,14.5-4.7,16-8.1,16H198c-3.2,0-8-3.8-8-16.2L195.6,243.6z"/>
	<path fill="#E8E8E8" d="M260.9,243.4c0-1.4,0.5-2.5,1.4-3.3c0.9-1,2.1-1.4,3.6-1.4H298c1.2,0,2.3,0.5,3.3,1.4s1.6,2.1,1.6,3.4
		v118.2h59.7c1.4,0,2.5,0.5,3.3,1.4c0.9,0.9,1.4,2.1,1.4,3.6l2.8,16.8c0,12.4-2,13.8-2.7,14.9c-0.9,1-3.3,1.8-4.9,1.8h-97.1
		c-5,0-9.8-2-10.6-16.3L260.9,243.4z"/>
	<path fill="#E8E8E8" d="M409.2,348c1.2,1,2.8,2.3,4.7,4.1c2,1.7,4.1,3.4,6.6,5c3.7,2.5,7.4,4.4,10.9,5.8c3.6,1.4,7.4,2.1,11.4,2.1
		c3.7,0,6.8-0.4,9.3-1.2c2.5-0.9,4.4-2,5.9-3.3c1.5-1.4,2.5-2.9,3.1-4.8s1-3.7,1-5.8c0-2.2-0.9-4.3-2.6-6s-3.8-3.3-6.3-4.7
		c-2.5-1.4-5-2.6-7.7-3.6s-5-1.8-7-2.5c-8.7-3.1-16.3-6.3-22.9-9.8c-6.5-3.6-11.9-7.4-16.3-11.7c-4.3-4.3-13.4-13.1-16.1-27.6
		c-1-5.5,3.1,2.5,3.1-3.9c0-6.8,1.4-12.9,4.1-18.3c2.7-5.5,6.6-10.2,11.7-14.1s11.1-6.9,18.2-9.1c7.1-2.1,15-3.2,23.8-3.2
		c6.6,0,12.9,0.7,18.9,2.2s12,3.8,17.8,7.1c2.5,1.5,4.8,2.9,7,4.5s4.2,3.1,5.8,4.5c1.7,1.5,6.5-9.8,7.5-8.5c2.7,3.4,2.7,9,2.7,10
		s-0.7,3.4-1.2,4.3c-0.5,0.7-1.2,1.7-2.1,2.7l-20.9,22.1c-1.2,1.2-2.5,1.8-3.7,1.8c-1,0-2-0.2-2.8-0.9c-0.9-0.6-1.7-1.4-2.8-2.2
		l-1-0.9c-1.5-1.2-3.1-2.5-4.8-3.8c-1.7-1.4-3.7-2.5-5.7-3.6c-2.1-1.1-4.2-2-6.4-2.6c-2.2-0.7-4.5-1-6.9-1c-2.3,0-4.7,0.2-6.8,0.6
		c-2.1,0.4-3.9,1-5.5,1.8c-1.6,0.9-2.8,2-3.8,3.4c-1,1.5-1.4,3.2-1.4,5.2c0,2.1,0.5,3.8,1.5,5.3s2.6,2.8,4.5,4.2
		c2,1.2,4.5,2.5,7.5,3.6c2.9,1.1,6.5,2.3,10.4,3.7c7.6,2.6,14.7,5.2,21.3,8c6.5,2.8,12,6.1,16.8,9.8c4.7,3.8,8.4,8.4,11.1,13.6
		c2.7,5.3,6.8,2.7,6.8,10.3c0,8-2.3,20-7.7,30.6c-3.3,6.5-7.7,12-13.4,16.6c-5.7,4.5-12.4,8.1-20,10.6s-16,3.8-24.8,3.8
		c-8.4,0-16.5-1.5-24.6-4.4c-8-2.9-15.5-7-22.5-12c-2.9-2.1-5.3-4.2-7.4-6.3c-2-2.1-3.6-3.7-4.7-4.9l-0.4-0.4
		c-0.1-0.1-0.1-0.2-0.2-0.2s-0.1-0.1-0.2-0.1c-0.1-0.1-0.1-0.2-0.2-0.2s-0.1-0.1-0.2-0.1c-1.7-1.8-8.7-10.7-8.2-16
		c0.1-1.2,6.5,9,8.2,7.5l18.8-17.9c1.5-1.1,2.7-1.6,3.7-1.6c0.6,0,1.4,0.2,2.1,0.6C407.3,346.4,408.2,347.1,409.2,348z"/>
	<path fill="#E8E8E8" d="M547.1,348c1.2,1,2.8,2.3,4.7,4.1c2,1.7,4.1,3.4,6.6,5c3.7,2.5,7.4,4.4,10.9,5.8c3.6,1.4,7.4,2.1,11.4,2.1
		c3.7,0,6.8-0.4,9.3-1.2c2.5-0.9,4.4-2,5.9-3.3c1.5-1.4,2.5-2.9,3.1-4.8c0.6-1.8,1-3.7,1-5.8c0-2.2-0.9-4.3-2.6-6
		c-1.7-1.7-3.8-3.3-6.3-4.7c-2.5-1.4-5-2.6-7.7-3.6s-5-1.8-7-2.5c-8.7-3.1-16.3-6.3-22.9-9.8c-6.5-3.6-11.9-7.4-16.3-11.7
		c-4.3-4.3-14.6-16.2-16.6-29c-0.9-5.5,3.6,3.8,3.6-2.6c0-6.8,1.4-12.9,4.1-18.3c2.7-5.5,6.6-10.2,11.7-14.1s11.1-6.9,18.2-9.1
		c7.1-2.1,15-3.2,23.8-3.2c6.6,0,12.9,0.7,18.9,2.2s12,3.8,17.8,7.1c2.5,1.5,4.8,2.9,7,4.5s4.2,3.1,5.8,4.5c1.7,1.5,6.5-9.3,7.6-8.1
		c4.1,4.8,2.7,9.8,2.7,10.7c0,1-1.8,4.2-2.3,4.9c-0.5,0.7-1.2,1.7-2.1,2.7l-19.8,20.3c-1.2,1.2-2.5,1.8-3.7,1.8c-1,0-2-0.2-2.8-0.9
		c-0.9-0.6-1.7-1.4-2.8-2.2l-1-0.9c-1.5-1.2-3.1-2.5-4.8-3.8c-1.7-1.4-3.7-2.5-5.7-3.6c-2.1-1.1-4.2-2-6.4-2.6c-2.2-0.7-4.5-1-6.9-1
		c-2.3,0-4.7,0.2-6.8,0.6s-3.9,1-5.5,1.8c-1.6,0.9-2.8,2-3.8,3.4c-1,1.5-1.4,3.2-1.4,5.2c0,2.1,0.5,3.8,1.5,5.3s2.6,2.8,4.5,4.2
		c2,1.2,4.5,2.5,7.5,3.6c2.9,1.1,6.5,2.3,10.4,3.7c7.6,2.6,14.7,5.2,21.3,8c6.5,2.8,12,6.1,16.8,9.8c4.7,3.8,8.4,8.4,11.1,13.6
		c2.7,5.3,6.5,4.3,6.5,11.8c0,8-2.9,21.6-6.3,28.1c-3.3,6.5-9,12.9-14.6,17.4c-5.7,4.5-12.4,8.1-20,10.6s-16,3.8-24.8,3.8
		c-8.4,0-16.5-1.5-24.6-4.4c-8-2.9-15.5-7-22.5-12c-2.9-2.1-5.3-4.2-7.4-6.3c-2-2.1-3.6-3.7-4.7-4.9l-0.4-0.4
		c-0.1-0.1-0.1-0.2-0.2-0.2s-0.1-0.1-0.2-0.1c-0.1-0.1-0.1-0.2-0.2-0.2c-0.1,0-0.1-0.1-0.2-0.1c-1.7-1.8-9-10.3-8.2-16.2
		c0.1-1.2,6.6,9.3,8.2,7.7l18.8-17.9c1.5-1.1,2.7-1.6,3.7-1.6c0.6,0,1.4,0.2,2.1,0.6C545.2,346.4,546.1,347.1,547.1,348z"/>
	<path fill="#E8E8E8" d="M655.3,319.6c0-7.6,1-15,2.9-22.1c2-7,4.8-13.6,8.4-19.9c3.6-6.1,8-11.8,13-16.8s10.7-9.3,16.8-13
		c6.1-3.6,12.8-6.4,19.8-8.4c7.1-2,14.5-2.9,22.1-2.9s15,1,22.1,2.9c7.1,2,13.8,4.8,19.9,8.4c6.1,3.6,11.8,7.9,16.8,13
		c5,5,9.5,10.7,13,16.8c3.6,6.1,6.4,12.8,8.4,19.9c2,7,5.4,10.4,5.4,18.2c0,7.6-1.8,16.1-3.8,23.1s-6.4,16.6-10,22.7
		s-7.9,11.7-13,16.7c-5,5-10.7,9.3-16.8,13c-6.1,3.6-12.8,6.4-19.9,8.4c-7.1,2-14.5,2.9-22.1,2.9c-7.7,0-15.1-1-22.1-2.9
		c-7.1-2-13.6-4.8-19.8-8.4c-6.1-3.6-11.8-8-16.8-13s-20.2-22.7-22.9-36.1c-1.4-7,2.3-1.2,0.4-8.4
		C655.3,326.7,655.3,327.4,655.3,319.6z"/>
	<path fill="#E8E8E8" d="M833.1,233.2c4.4,9.1,4.8,7.9,5.5,7c0.7-1,2-1.4,3.6-1.4h35.5c1,0,2.1,0.2,3.2,0.7c1.1,0.5,2.1,1.4,2.8,2.6
		c9.2,14.9,18.3,29.5,27.4,43.9s18.2,29,27.5,43.9v-87c0.2-1.4,0.9-2.3,1.7-3.1c0.9-0.7,1.8-1.1,3.1-1.1h30.8c1.5,0,2.8,0.4,3.8,1.2
		s1.5,2,1.5,3.6l2.9,141.2c0,8.7-1.4,11.9-1.8,12.9c-1.5,3.3-8.1,2.6-9.7,2.6h-27.3c-1,0-4.2-0.4-4.9-1s-2.7-2.7-3.6-3.8
		c-9.6-16-19.2-31.7-28.6-47.3c-9.5-15.6-18.9-31.3-28.6-47.3l2.7,84.5c0,1.6-0.5,9.3-2.5,12.2c-1.5,2.2-4.7,2.6-6.5,2.6h-31.1
		c-1.7,0-5.4-1.2-6.4-2.7c-0.6-1-2.3-5.7-2.8-12.3L833.1,233.2z"/>
	<g>
		<path fill="#E8E8E8" d="M62.5,489.2c-0.7,0.7-1.5,1.5-2.3,2.3c-0.9,0.9-1.8,1.6-2.8,2.3c-1,0.7-2.2,1.4-3.4,1.8
			c-1.2,0.5-2.5,0.7-3.9,0.7c-3.7,0-7-0.7-10.1-2.1s-5.7-3.2-7.9-5.5s-3.9-5.2-5.2-8.4c-1.2-3.2-1.8-6.6-1.8-10.3
			c0-3.7,0.6-7.1,1.8-10.3c1.2-3.2,2.9-6,5.2-8.4c2.2-2.3,4.8-4.2,7.9-5.5c3.1-1.4,6.4-2,10.1-2c1.5,0,2.8,0.2,4.1,0.6
			c1.2,0.4,2.3,1,3.3,1.6s2,1.5,2.7,2.2c0.9,0.9,1.6,1.7,2.3,2.5v-18.3c0-0.9,0.2-1.6,0.7-2.2s1.4-0.9,2.3-0.9h9
			c0.4,0,0.7,0.1,1.1,0.2s0.7,0.4,1.1,0.6s0.6,0.6,0.7,1c0.2,0.4,0.2,0.7,0.2,1.2v59.8c0,2.1-1.1,3.1-3.2,3.1h-7.9
			c-0.5,0-1-0.1-1.2-0.2s-0.5-0.4-0.7-0.6s-0.4-0.6-0.5-1s-0.4-0.9-0.6-1.4L62.5,489.2z M39.6,470c0,1.7,0.2,3.4,0.9,4.9
			c0.5,1.5,1.4,2.8,2.3,3.9c1,1.1,2.2,2,3.7,2.7c1.5,0.6,2.9,1,4.8,1c1.7,0,3.3-0.2,4.8-0.9c1.5-0.6,2.8-1.5,3.9-2.6
			c1.1-1.1,2-2.3,2.7-3.8s1.1-3.1,1.1-4.7V470c0-1.7-0.4-3.3-1-4.9s-1.5-2.9-2.7-4.1c-1.1-1.2-2.5-2.1-4.1-2.8c-1.5-0.7-3.2-1-5-1
			c-1.7,0-3.3,0.4-4.8,1c-1.5,0.7-2.7,1.6-3.7,2.8c-1,1.2-1.8,2.6-2.3,4.1C39.8,466.7,39.6,468.3,39.6,470z"/>
		<path fill="#E8E8E8" d="M128.6,489.3c-2.3,2.2-5,3.8-8,5c-2.9,1.2-6,1.8-9.3,1.8c-3.7,0-7.1-0.6-10.3-2c-3.3-1.4-6.1-3.2-8.6-5.5
			s-4.4-5.2-5.9-8.4c-1.5-3.2-2.2-6.6-2.2-10.4c0-2.3,0.2-4.7,0.9-6.9c0.6-2.2,1.4-4.3,2.5-6.1c1.1-2,2.3-3.7,3.8-5.3
			c1.5-1.6,3.2-2.9,5-4.2c1.8-1.2,3.9-2.1,6.1-2.7s4.5-1,6.9-1c2.2,0,4.4,0.2,6.4,0.9c2.1,0.6,4.1,1.5,5.9,2.5
			c1.8,1.1,3.6,2.3,5,3.8c1.5,1.5,2.8,3.1,3.9,4.9c1.1,1.7,2,3.7,2.6,5.7s0.9,4.1,0.9,6.3c0,1.4,0,2.6,0,3.4c0,0.9-0.2,1.6-0.6,2.1
			c-0.4,0.5-1,0.9-1.8,1.1c-0.9,0.2-2.1,0.2-3.8,0.2H99.2c0.2,1.7,0.9,3.2,1.6,4.3c0.9,1.1,1.7,2.1,2.8,2.7c1.1,0.7,2.2,1.2,3.4,1.5
			s2.3,0.5,3.4,0.5c1,0,2-0.1,2.9-0.2c1-0.2,2-0.5,2.9-0.9s1.8-0.7,2.6-1.1c0.7-0.5,1.5-0.9,1.8-1.4c0.4-0.4,0.7-0.6,1.1-0.7
			c0.2-0.1,0.6-0.2,1-0.2s0.7,0.1,1.1,0.4c0.4,0.2,0.7,0.6,1.2,1l4.3,4.8c0.2,0.4,0.5,0.6,0.6,1c0.1,0.2,0.1,0.6,0.1,0.9
			c0,0.5-0.1,1-0.5,1.4C129.4,488.7,129,489.1,128.6,489.3z M109.4,456c-1,0-2.1,0.2-3.1,0.6s-1.8,1-2.7,1.7
			c-0.9,0.7-1.6,1.5-2.3,2.3c-0.7,0.9-1.2,1.7-1.7,2.7H120c-0.6-1-1.2-2-1.8-2.8c-0.6-0.9-1.4-1.6-2.2-2.3c-0.9-0.6-1.8-1.2-2.8-1.6
			C112.1,456.1,110.8,456,109.4,456z"/>
		<path fill="#E8E8E8" d="M149,479.6c0.7,0.7,1.5,1.4,2.3,1.8c0.9,0.5,1.6,0.9,2.5,1.2c0.7,0.4,1.5,0.5,2.1,0.6s1,0.2,1.2,0.2
			c0.5,0,1.1,0,2,0c0.7,0,1.6-0.1,2.2-0.4c0.7-0.2,1.4-0.5,1.8-1c0.5-0.5,0.7-1.1,0.7-2c0-0.7-0.1-1.4-0.5-1.7
			c-0.2-0.5-0.7-0.9-1.2-1.1c-0.6-0.4-1.2-0.6-2.1-0.9s-1.7-0.5-2.7-0.9c-3.2-0.9-5.9-1.8-8-3.1c-2.1-1.2-3.7-2.6-4.9-4.1
			s-2.1-3.1-2.6-4.8c-0.5-1.7-0.7-3.6-0.7-5.4c0-2.2,0.5-4.2,1.4-6s2.1-3.3,3.8-4.7c1.6-1.4,3.6-2.3,5.9-2.9
			c2.2-0.7,4.8-1.1,7.6-1.1c1.7,0,3.3,0.1,4.7,0.4c1.5,0.2,2.8,0.7,4.2,1.4c1.4,0.6,2.6,1.4,3.9,2.3c1.2,1,2.6,2.1,3.8,3.4
			c0.5,0.5,0.7,1,0.7,1.5s-0.2,1-0.9,1.5c-1,0.9-2.1,1.7-2.9,2.6c-1,0.9-2,1.7-2.9,2.7c-0.4,0.2-0.6,0.5-1,0.5c-0.4,0.1-0.6,0-0.9,0
			c-0.2-0.1-0.6-0.2-0.9-0.4c-0.2-0.2-0.5-0.4-0.7-0.7c-1-1-2-1.7-3.2-2.1s-2.3-0.5-3.3-0.5c-1.4,0-2.3,0.2-3.1,0.7
			c-0.7,0.5-1.1,1.1-1.1,2.1c0,0.7,0.4,1.2,0.7,1.6c0.5,0.4,1,0.7,1.7,1c0.7,0.2,1.4,0.5,2.2,0.6c0.7,0.1,1.5,0.4,2.1,0.5
			c2.5,0.7,4.5,1.6,6.6,2.6c2,0.9,3.7,2,5.2,3.3c1.5,1.4,2.6,2.9,3.4,4.8c0.9,1.8,1.2,4.1,1.2,6.8c0,2.7-0.5,5-1.6,7.1
			s-2.5,3.8-4.3,5.3s-4.1,2.5-6.5,3.2c-2.6,0.7-5.3,1.1-8.1,1.1c-1.6,0-3.3-0.1-5-0.5c-1.7-0.2-3.3-0.7-4.9-1.5
			c-1.6-0.6-3.1-1.5-4.5-2.6c-1.5-1-2.7-2.3-3.8-3.7c-0.2-0.4-0.5-0.7-0.6-1.2c-0.1-0.4-0.2-0.9-0.2-1.2c0-0.4,0.1-0.7,0.2-1.1
			c0.1-0.4,0.4-0.6,0.7-0.9l5.2-5.2c0.6-0.5,1.2-0.7,1.7-0.6C147.7,478.4,148.3,478.9,149,479.6z"/>
		<path fill="#E8E8E8" d="M186.5,427.4c0-1.1,0.2-2,0.7-2.3c0.5-0.5,1.2-0.7,2.2-0.7h9.3c1,0,1.7,0.2,2.2,0.7
			c0.6,0.5,0.9,1.2,0.9,2.3v7.9c0,0.4-0.1,0.6-0.2,1c-0.1,0.4-0.4,0.7-0.6,1.1c-0.2,0.4-0.6,0.6-1,0.9c-0.4,0.2-0.9,0.4-1.4,0.4
			h-9.3c-2,0-2.9-1.1-2.9-3.3v-7.9h0.1V427.4z M186.5,447.7c0-0.9,0.2-1.6,0.7-2.2s1.2-0.9,2.2-0.9h9.2c0.4,0,0.6,0.1,1,0.2
			s0.7,0.4,1,0.6c0.4,0.2,0.6,0.6,0.9,1c0.2,0.4,0.4,0.9,0.4,1.2v44.6c0,1-0.2,1.7-0.9,2.3c-0.6,0.5-1.4,0.7-2.5,0.7h-9.2
			c-2,0-2.9-1-2.9-3.1v-44.6h0.1V447.7z"/>
		<path fill="#E8E8E8" d="M247.1,493.6c0.2-0.9,0.5-2,0.4-3.1c0-1.1,0-2.3,0-3.6c-0.7,0.9-1.6,1.7-2.3,2.6c-0.9,0.9-1.7,1.7-2.7,2.6
			c-1,0.7-2.1,1.5-3.3,2s-2.7,0.7-4.3,0.7c-3.6,0-6.9-0.6-10-1.8s-5.8-2.9-8-5.2c-2.2-2.2-3.9-4.8-5.3-7.9
			c-1.2-3.1-1.8-6.4-1.8-10.1s0.6-7.1,1.8-10.3c1.2-3.2,2.9-6,5.3-8.4c2.2-2.3,4.9-4.2,8-5.5s6.4-2,10-2c1.6,0,3.2,0.2,4.4,0.7
			c1.4,0.5,2.6,1.1,3.6,2c1.1,0.9,2.1,1.7,2.9,2.7c0.9,1,1.7,2,2.6,2.9l1.5-4.8c0.1-0.5,0.2-0.9,0.5-1.2c0.1-0.4,0.2-0.7,0.5-1
			c0.2-0.2,0.5-0.5,0.9-0.6s0.7-0.2,1.4-0.2h6c0.2,0,0.6,0,1,0.1s0.7,0.2,1,0.6c0.4,0.2,0.6,0.6,0.9,1c0.2,0.4,0.2,0.7,0.2,1.4V488
			c0,4.2-0.7,7.9-2.1,11.2c-1.4,3.2-3.2,6-5.5,8.2s-5.2,3.9-8.4,5.2c-3.2,1.2-6.8,1.7-10.4,1.7c-1.5,0-2.9-0.1-4.7-0.4
			c-1.6-0.2-3.3-0.6-4.9-1.1s-3.2-1.1-4.8-2c-1.5-0.7-2.9-1.7-4.1-2.7c-0.4-0.2-0.6-0.5-0.9-0.9c-0.2-0.4-0.4-0.7-0.5-1.1
			s-0.1-0.9,0-1.4s0.4-1,0.6-1.5l3.8-5.3c0.7-0.7,1.4-1.1,2-1.2c0.6,0,1.4,0.2,2.3,1c0.6,0.6,1.5,1.1,2.3,1.6
			c0.9,0.4,1.7,0.7,2.7,0.9c0.9,0.2,1.8,0.4,2.7,0.5s1.7,0.1,2.5,0.1c1.2,0,2.5-0.1,3.8-0.5c1.4-0.4,2.6-0.7,3.7-1.5
			c1.1-0.6,2.1-1.4,2.9-2.3C246.2,495.8,246.7,494.9,247.1,493.6z M224.2,469.9c0,1.8,0.2,3.4,0.9,5c0.5,1.5,1.4,2.8,2.3,3.9
			c1,1.1,2.2,2,3.7,2.7c1.5,0.6,2.9,1,4.8,1c1.7,0,3.3-0.2,4.8-0.9c1.5-0.6,2.8-1.5,3.9-2.5c1.1-1.1,2-2.3,2.7-3.8s1.1-2.9,1.1-4.7
			v-1.4c-0.1-1.6-0.5-3.2-1.1-4.7c-0.7-1.5-1.6-2.7-2.7-3.8c-1.1-1.1-2.5-2-3.9-2.7c-1.5-0.6-3.1-1-4.8-1s-3.3,0.4-4.8,1
			c-1.5,0.7-2.7,1.6-3.7,2.7s-1.8,2.5-2.3,4.1C224.5,466.6,224.2,468.2,224.2,469.9z"/>
		<path fill="#E8E8E8" d="M271.6,445.3c0.4-0.2,0.7-0.5,1.1-0.6s0.7-0.1,1.1-0.1h6c0.5,0,0.9,0.1,1.2,0.2c0.4,0.1,0.6,0.4,0.9,0.7
			c0.2,0.2,0.5,0.6,0.6,1s0.2,0.7,0.4,1.1l1.2,5.2c0.4-0.9,1-1.7,1.7-2.8c0.7-1.1,1.7-2.1,2.9-2.9c1.2-0.9,2.6-1.7,4.2-2.3
			c1.6-0.6,3.4-1,5.7-1c3.1,0,5.8,0.6,8.2,1.7c2.5,1.2,4.5,2.8,6.4,4.8c1.7,2,3.1,4.4,4.1,7.1s1.5,5.7,1.5,8.6v26.2
			c0,1-0.2,1.7-0.6,2.3s-1.1,0.7-2.1,0.7h-9.2c-1.1,0-2-0.2-2.3-0.6c-0.4-0.4-0.6-1.1-0.6-2.2v-26.1c0-1.1-0.2-2.2-0.7-3.3
			s-1.2-2-2.1-2.7s-1.8-1.4-2.9-1.8c-1.1-0.5-2.2-0.7-3.3-0.7c-1,0-2,0.2-2.9,0.6c-1,0.4-2,1-2.7,1.7c-0.9,0.7-1.6,1.6-2.1,2.7
			c-0.6,1-0.9,2.1-1,3.3v26.1c0,0.5-0.1,0.9-0.2,1.4s-0.5,0.9-0.7,1c-0.4,0.2-0.6,0.4-1,0.5c-0.2,0.1-0.6,0.1-1.1,0.1h-9.1
			c-1.1,0-2-0.2-2.5-0.9c-0.5-0.6-0.7-1.4-0.7-2.2v-44.7c0-0.5,0.1-1,0.4-1.4c0.2-0.4,0.5-0.7,1-1L271.6,445.3z"/>
		<path fill="#E8E8E8" d="M370.2,489.3c-2.3,2.2-5,3.8-8,5c-2.9,1.2-6,1.8-9.3,1.8c-3.7,0-7.1-0.6-10.3-2c-3.3-1.4-6.1-3.2-8.6-5.5
			s-4.4-5.2-5.9-8.4c-1.5-3.2-2.2-6.6-2.2-10.4c0-2.3,0.2-4.7,0.9-6.9c0.6-2.2,1.4-4.3,2.5-6.1c1.1-2,2.3-3.7,3.8-5.3
			c1.5-1.6,3.2-2.9,5-4.2s3.9-2.1,6.1-2.7s4.5-1,6.9-1c2.2,0,4.4,0.2,6.4,0.9c2.1,0.6,4.1,1.5,5.9,2.5c1.8,1.1,3.6,2.3,5,3.8
			c1.5,1.5,2.8,3.1,3.9,4.9c1.1,1.7,2,3.7,2.6,5.7s0.9,4.1,0.9,6.3c0,1.4,0,2.6,0,3.4c0,0.9-0.2,1.6-0.6,2.1s-1,0.9-1.8,1.1
			c-0.9,0.2-2.1,0.2-3.8,0.2h-28.9c0.2,1.7,0.9,3.2,1.6,4.3c0.9,1.1,1.7,2.1,2.8,2.7c1.1,0.7,2.2,1.2,3.4,1.5s2.3,0.5,3.4,0.5
			c1,0,2-0.1,2.9-0.2c1-0.2,2-0.5,2.9-0.9s1.8-0.7,2.6-1.1c0.7-0.5,1.5-0.9,1.8-1.4c0.4-0.4,0.7-0.6,1.1-0.7c0.2-0.1,0.6-0.2,1-0.2
			s0.7,0.1,1.1,0.4c0.4,0.2,0.7,0.6,1.2,1l4.3,4.8c0.2,0.4,0.5,0.6,0.6,1c0.1,0.2,0.1,0.6,0.1,0.9c0,0.5-0.1,1-0.5,1.4
			C371,488.7,370.6,489.1,370.2,489.3z M350.9,456c-1,0-2.1,0.2-3.1,0.6s-1.8,1-2.7,1.7c-0.9,0.7-1.6,1.5-2.3,2.3
			c-0.7,0.9-1.2,1.7-1.7,2.7h20.5c-0.6-1-1.2-2-1.8-2.8c-0.6-0.9-1.4-1.6-2.2-2.3c-0.9-0.6-1.8-1.2-2.8-1.6
			C353.6,456.1,352.4,456,350.9,456z"/>
		<path fill="#E8E8E8" d="M384.4,447.5c0-0.5,0.1-0.9,0.2-1.4c0.2-0.4,0.5-0.7,0.7-1c0.7-0.5,1.5-0.7,2.2-0.7h6
			c0.5,0,0.9,0.1,1.2,0.2c0.2,0.2,0.5,0.4,0.7,0.7c0.2,0.2,0.4,0.6,0.5,1s0.4,0.7,0.5,1.1c0,0.1,0.1,0.4,0.4,0.7
			c0.2,0.4,0.4,0.9,0.5,1.4c0.2,0.5,0.4,1,0.5,1.4c0.1,0.5,0.2,0.7,0.4,0.9c0.9-0.9,1.6-1.8,2.3-2.8c0.7-1,1.5-1.8,2.3-2.7
			c0.9-0.9,1.7-1.5,2.7-2.1c1-0.5,2.2-0.9,3.6-0.9c1.5,0,2.7,0.1,3.8,0.4s2.2,0.5,3.2,1c1,0.4,2,1,3.1,1.6c1,0.6,2.1,1.4,3.3,2.2
			c1.8,1,2.2,2.5,1,4.4l-3.7,6.3c-0.5,0.9-1.2,1.4-2,1.5c-0.7,0.2-1.6,0.1-2.6-0.4c-1.1-1.1-2.3-2-3.6-2.5s-2.6-0.9-4.1-0.9
			c-1,0-2,0.1-2.7,0.5c-0.7,0.2-1.5,0.7-2.1,1.2s-1.2,1.2-1.8,2s-1.1,1.6-1.7,2.5v29c0,1-0.2,1.7-0.7,2.3c-0.5,0.5-1.4,0.7-2.5,0.7
			h-9c-2.1,0-3.1-1-3.1-3.1v-44.6L384.4,447.5L384.4,447.5z"/>
		<path fill="#E8E8E8" d="M497.5,461.3c0.1,0,0.2,0,0.6,0c0.9,0,1.7-0.2,2.6-0.7c0.7-0.5,1.4-1.2,1.7-2.1c0.2-0.2,0.5-0.5,0.5-0.7
			c0.1-0.2,0.1-0.6,0.1-0.9c0.1-0.6,0.4-1,0.7-1.4c0.2-0.4,0.6-0.5,1.1-0.5c0.2,0,0.4,0,0.4,0l10.6,2.1c0.5,0,0.9,0.2,1.2,0.7
			c0.4,0.5,0.5,1,0.5,1.5c0,0.2,0,0.4,0,0.5c-0.4,2.5-1.2,4.7-2.3,6.6s-2.6,3.7-4.2,5.2c-1.6,1.5-3.4,2.6-5.5,3.3
			c-2.1,0.7-4.2,1.2-6.4,1.2c-1,0-2.1-0.1-3.1-0.2l-3.1-0.6c-0.2,2.9-0.7,5.5-1.6,7.7s-2,4.1-3.2,5.5c-1.4,1.6-2.8,2.8-4.5,3.8
			s-3.4,1.7-5.4,2.2s-3.9,0.9-5.9,1.1c-2.1,0.2-4.1,0.2-6.1,0.2c-3.4,0-6.6-0.5-9.7-1.6s-5.8-2.7-8.1-4.7c-2.3-2-4.2-4.3-5.5-7
			c-1.4-2.7-2.1-5.7-2.1-9c0-2.3,0.2-4.4,0.7-6.3c0.5-1.8,1.1-3.4,2-4.9s1.8-2.7,3.1-3.8c1.2-1.1,2.5-2.2,3.9-3.2
			c-1.5-1.5-2.6-3.3-3.6-5.4s-1.4-4.3-1.4-6.8c0-2.7,0.6-5.3,1.7-7.5c1.1-2.3,2.6-4.3,4.4-6s4.1-3.1,6.4-4.1c2.5-1,4.9-1.5,7.6-1.5
			s5.2,0.4,7.6,1c2.5,0.7,4.5,1.8,6.4,3.3c1.8,1.6,3.3,3.6,4.4,6c1.1,2.5,1.6,5.5,1.6,9.1c0,0.7-0.2,1.2-0.6,1.6s-1,0.6-1.5,0.6
			c-1.6,0-3.2,0-4.9,0c-1.6,0-3.2,0-4.9,0c-1.4,0-2.1-0.6-2.1-1.8c0-0.7-0.1-1.5-0.2-2.1s-0.5-1.2-0.9-1.7s-1-0.9-1.6-1.1
			c-0.7-0.2-1.5-0.4-2.6-0.4s-2.1,0.2-2.7,0.6c-0.7,0.4-1.2,0.9-1.6,1.5s-0.6,1.2-0.9,1.8c-0.1,0.7-0.2,1.4-0.2,1.8s0.1,0.9,0.2,1.5
			s0.5,1.4,0.9,2.1s0.9,1.4,1.6,2c0.6,0.6,1.5,1,2.5,1.2c1.1,0.2,1.6,0.9,1.6,1.8c0,0.2,0,0.4,0,0.5l-1.8,8.8
			c-0.1,0.6-0.2,1-0.6,1.2s-0.7,0.4-1.1,0.4c-0.2,0-0.5,0-0.7,0s-0.5,0-0.6,0c-1,0-1.8,0.2-2.5,0.9c-0.6,0.5-1.1,1.1-1.5,1.8
			c-0.4,0.7-0.6,1.5-0.7,2.2s-0.2,1.4-0.2,2c0,1,0.1,2,0.4,3.1c0.2,1.1,0.7,2.2,1.5,3.1c0.7,1,1.6,1.7,2.8,2.5c1.2,0.6,2.7,1,4.5,1
			c1.2,0,2.5-0.1,3.6-0.5s2.1-0.9,3.1-1.6c0.9-0.7,1.6-1.6,2.1-2.6s0.9-2.2,0.9-3.7l-2.8-0.6c-0.5-0.1-0.7-0.4-1.1-0.7
			c-0.2-0.4-0.4-0.7-0.4-1.2c0-0.2,0-0.4,0-0.5c0.4-1.7,0.6-3.4,1-5.2c0.4-1.7,0.7-3.4,1-5.3c0.1-0.5,0.2-0.9,0.6-1.2
			c0.4-0.2,0.7-0.4,1.1-0.4c0.2,0,0.4,0,0.4,0L497.5,461.3z"/>
		<path fill="#E8E8E8" d="M538.6,427.4c0-1.1,0.2-2,0.7-2.3c0.5-0.5,1.2-0.7,2.2-0.7h9.3c1,0,1.7,0.2,2.2,0.7
			c0.6,0.5,0.9,1.2,0.9,2.3v7.9c0,0.4-0.1,0.6-0.2,1c-0.1,0.4-0.4,0.7-0.6,1.1c-0.2,0.4-0.6,0.6-1,0.9c-0.4,0.2-0.9,0.4-1.4,0.4
			h-9.3c-2,0-2.9-1.1-2.9-3.3v-7.9h0.1V427.4z M538.6,447.7c0-0.9,0.2-1.6,0.7-2.2s1.2-0.9,2.2-0.9h9.2c0.4,0,0.6,0.1,1,0.2
			s0.7,0.4,1,0.6c0.4,0.2,0.6,0.6,0.9,1c0.2,0.4,0.4,0.9,0.4,1.2v44.6c0,1-0.2,1.7-0.9,2.3c-0.6,0.6-1.4,0.7-2.5,0.7h-9.2
			c-2,0-2.9-1-2.9-3.1v-44.6h0.1V447.7z"/>
		<path fill="#E8E8E8" d="M562.3,432.6c0-0.9,0.2-1.6,0.6-2.2c0.4-0.6,1.1-0.9,2.2-0.9h9.8c0.2,0,0.5,0.1,0.9,0.2
			c0.2,0.1,0.6,0.4,0.9,0.6c0.2,0.2,0.5,0.6,0.6,1s0.2,0.7,0.2,1.2v59.8c0,1-0.2,1.7-0.9,2.3c-0.6,0.5-1.4,0.7-2.2,0.7h-9.3
			c-1,0-1.7-0.2-2.2-0.7c-0.4-0.5-0.6-1.2-0.6-2.3V432.6z"/>
		<path fill="#E8E8E8" d="M585.8,432.6c0-0.9,0.2-1.6,0.6-2.2c0.4-0.6,1.1-0.9,2.2-0.9h9.8c0.2,0,0.5,0.1,0.9,0.2
			c0.2,0.1,0.6,0.4,0.9,0.6c0.2,0.2,0.5,0.6,0.6,1s0.2,0.7,0.2,1.2v59.8c0,1-0.2,1.7-0.9,2.3c-0.6,0.5-1.4,0.7-2.2,0.7h-9.3
			c-1,0-1.7-0.2-2.2-0.7c-0.4-0.5-0.6-1.2-0.6-2.3V432.6L585.8,432.6z"/>
		<path fill="#E8E8E8" d="M656.6,494.7c-0.4,0.2-0.7,0.5-1.1,0.6c-0.4,0.1-0.7,0.1-1.1,0.1h-6c-0.5,0-0.9-0.1-1.2-0.2
			s-0.6-0.4-0.9-0.7c-0.2-0.2-0.5-0.6-0.6-1s-0.2-0.7-0.4-1.1l-1.2-5.2c-0.4,0.9-1,1.7-1.7,2.8c-0.7,1.1-1.7,2.1-2.9,2.9
			c-1.2,0.9-2.6,1.7-4.2,2.3c-1.6,0.6-3.4,1-5.7,1c-3.1,0-5.8-0.6-8.2-1.7c-2.5-1.2-4.5-2.8-6.4-4.8c-1.7-2.1-3.1-4.4-4.1-7.1
			s-1.5-5.7-1.5-8.7v-26.2c0-1,0.2-1.8,0.6-2.3c0.5-0.5,1.1-0.7,2.1-0.7h9.2c1.1,0,2,0.2,2.3,0.6c0.4,0.4,0.6,1.1,0.6,2.2v26.1
			c0,1.1,0.2,2.2,0.7,3.3c0.5,1,1.2,2,2.1,2.7c0.9,0.7,1.8,1.4,2.9,1.8c1.1,0.5,2.2,0.7,3.3,0.7c1,0,2-0.2,2.9-0.7
			c1-0.5,2-1.1,2.8-1.8c0.9-0.7,1.6-1.6,2.1-2.7c0.6-1,0.9-2.1,0.9-3.3v-26.1c0-0.5,0.1-0.9,0.2-1.4c0.1-0.5,0.5-0.9,0.7-1
			c0.4-0.2,0.6-0.4,1-0.5c0.2-0.1,0.6-0.1,1.1-0.1h9.1c1.1,0,2,0.2,2.5,0.9c0.5,0.6,0.7,1.4,0.7,2.2v44.9c0,0.5-0.1,1-0.4,1.4
			c-0.2,0.4-0.5,0.7-1,1L656.6,494.7z"/>
		<path fill="#E8E8E8" d="M673.6,479.6c0.7,0.7,1.5,1.4,2.3,1.8c0.9,0.5,1.6,0.9,2.5,1.2c0.7,0.4,1.5,0.5,2.1,0.6s1,0.2,1.2,0.2
			c0.5,0,1.1,0,2,0c0.7,0,1.6-0.1,2.2-0.4c0.7-0.2,1.4-0.5,1.8-1s0.7-1.1,0.7-2c0-0.7-0.1-1.4-0.5-1.7c-0.2-0.5-0.7-0.9-1.2-1.1
			c-0.6-0.4-1.2-0.6-2.1-0.9c-0.9-0.2-1.7-0.5-2.7-0.9c-3.2-0.9-5.9-1.8-8-3.1s-3.7-2.6-4.9-4.1s-2.1-3.1-2.6-4.8
			c-0.5-1.7-0.7-3.6-0.7-5.4c0-2.2,0.5-4.2,1.4-6s2.1-3.3,3.8-4.7c1.6-1.4,3.6-2.3,5.9-2.9c2.2-0.7,4.8-1.1,7.6-1.1
			c1.7,0,3.2,0.1,4.7,0.4c1.5,0.2,2.8,0.7,4.2,1.4c1.4,0.6,2.6,1.4,3.9,2.3c1.2,1,2.6,2.1,3.8,3.4c0.5,0.5,0.7,1,0.7,1.5
			s-0.2,1-0.9,1.5c-1,0.9-2.1,1.7-2.9,2.6c-1,0.9-2,1.7-2.9,2.7c-0.4,0.2-0.6,0.5-1,0.5s-0.6,0-0.9,0c-0.2-0.1-0.6-0.2-0.9-0.4
			c-0.2-0.2-0.5-0.4-0.7-0.7c-1-1-2-1.7-3.2-2.1s-2.3-0.5-3.3-0.5c-1.4,0-2.3,0.2-3.1,0.7c-0.7,0.5-1.1,1.1-1.1,2.1
			c0,0.7,0.4,1.2,0.7,1.6c0.5,0.4,1,0.7,1.7,1c0.7,0.2,1.4,0.5,2.2,0.6c0.7,0.1,1.5,0.4,2.1,0.5c2.5,0.7,4.5,1.6,6.6,2.6
			c2,0.9,3.7,2,5.2,3.3c1.5,1.4,2.6,2.9,3.4,4.8c0.9,1.8,1.2,4.1,1.2,6.8c0,2.7-0.5,5-1.6,7.1s-2.5,3.8-4.3,5.3s-4.1,2.5-6.5,3.2
			c-2.6,0.7-5.3,1.1-8.1,1.1c-1.6,0-3.3-0.1-5-0.5c-1.7-0.2-3.3-0.7-4.9-1.5c-1.6-0.6-3.1-1.5-4.5-2.6c-1.5-1-2.7-2.3-3.8-3.7
			c-0.2-0.4-0.5-0.7-0.6-1.2c-0.1-0.4-0.2-0.9-0.2-1.2c0-0.4,0.1-0.7,0.2-1.1c0.1-0.4,0.4-0.6,0.7-0.9l5.2-5.2
			c0.6-0.5,1.2-0.7,1.7-0.6C672.2,478.4,672.8,478.9,673.6,479.6z"/>
		<path fill="#E8E8E8" d="M714.2,436.6c0-0.9,0.2-1.5,0.9-1.8c0.5-0.4,1.4-0.9,2.3-1.2l9.1-3.2c0.1,0,0.2,0,0.4,0s0.2,0,0.4,0
			c1,0,1.6,0.2,2,0.9c0.4,0.6,0.5,1.4,0.5,2.2v12.7h6.6c0.9,0,1.6,0.2,2.1,0.7s0.9,1.2,0.9,2.3v7.7c0,1.1-0.2,2-0.9,2.5
			c-0.5,0.5-1.2,0.7-2.1,0.7h-6.6v32.2c0,1-0.2,1.7-0.9,2.3c-0.6,0.5-1.4,0.7-2.5,0.7h-9.1c-2.1,0-3.1-1-3.1-3.1V460h-2.9
			c-2.1,0-3.1-1.1-3.1-3.2v-7.7c0-2.1,1-3.1,3.1-3.1h2.9L714.2,436.6L714.2,436.6z"/>
		<path fill="#E8E8E8" d="M746.8,447.5c0-0.5,0.1-0.9,0.2-1.4c0.2-0.4,0.5-0.7,0.7-1c0.7-0.5,1.5-0.7,2.2-0.7h6
			c0.5,0,0.9,0.1,1.2,0.2c0.2,0.2,0.5,0.4,0.7,0.7c0.2,0.2,0.4,0.6,0.5,1s0.4,0.7,0.5,1.1c0,0.1,0.1,0.4,0.4,0.7
			c0.1,0.4,0.4,0.9,0.5,1.4c0.2,0.5,0.4,1,0.5,1.4c0.1,0.5,0.2,0.7,0.4,0.9c0.9-0.9,1.6-1.8,2.3-2.8s1.5-1.8,2.3-2.7
			c0.9-0.9,1.7-1.5,2.7-2.1c1-0.5,2.2-0.9,3.6-0.9c1.5,0,2.7,0.1,3.8,0.4c1.1,0.2,2.2,0.5,3.2,1s2,1,3.1,1.6c1,0.6,2.1,1.4,3.3,2.2
			c1.8,1,2.2,2.5,1,4.4l-3.7,6.3c-0.5,0.9-1.2,1.4-2,1.5c-0.7,0.2-1.6,0.1-2.6-0.4c-1.1-1.1-2.3-2-3.6-2.5c-1.2-0.5-2.6-0.9-4.1-0.9
			c-1,0-2,0.1-2.7,0.5c-0.7,0.2-1.5,0.7-2.1,1.2s-1.2,1.2-1.8,2c-0.6,0.7-1.1,1.6-1.7,2.5v29c0,1-0.2,1.7-0.7,2.3
			c-0.5,0.5-1.4,0.7-2.5,0.7h-9c-2.1,0-3.1-1-3.1-3.1v-44.6L746.8,447.5L746.8,447.5z"/>
		<path fill="#E8E8E8" d="M841.2,492.5c0,0.5-0.1,0.9-0.2,1.4c-0.1,0.4-0.4,0.7-0.9,1c-0.2,0.2-0.6,0.5-1,0.6s-0.7,0.1-1,0.1h-7.9
			c-0.6,0-1-0.1-1.4-0.2s-0.6-0.4-0.9-0.6s-0.4-0.6-0.5-1s-0.2-0.9-0.5-1.2l-1.1-2.9c-0.7,0.7-1.5,1.5-2.3,2.3
			c-0.9,0.9-1.8,1.6-2.8,2.2c-1,0.7-2.1,1.2-3.3,1.7s-2.5,0.7-3.8,0.7c-2.5,0-4.8-0.4-7-0.9c-2.2-0.6-4.3-1.5-6.3-2.6
			s-3.7-2.5-5.3-4.1s-2.9-3.3-4.1-5.3c-1.1-2-2-4.1-2.6-6.3c-0.6-2.2-0.9-4.7-0.9-7.1c0-3.7,0.7-7.1,2.1-10.3c1.4-3.2,3.2-6,5.5-8.4
			c2.3-2.3,5.2-4.2,8.2-5.5c3.2-1.4,6.6-2,10.2-2c1.6,0,3.2,0.2,4.5,0.7c1.4,0.5,2.7,1.1,3.8,2s2.2,1.7,3.1,2.7
			c0.9,1,1.7,2.1,2.5,3.1l1.6-4.8c0.2-0.6,0.5-1.2,0.6-1.6s0.4-0.7,0.6-0.9c0.2-0.2,0.5-0.4,0.7-0.4c0.2-0.1,0.7-0.1,1.2-0.1h6
			c0.2,0,0.6,0,1,0.1s0.7,0.2,1,0.6c0.4,0.2,0.6,0.6,0.9,1c0.1,0.4,0.2,0.9,0.2,1.2v44.6h0.1V492.5z M801.8,470
			c0,1.7,0.2,3.4,0.9,4.9c0.5,1.5,1.4,2.8,2.3,3.9c1,1.1,2.2,2,3.7,2.7c1.5,0.6,2.9,1,4.8,1s3.4-0.4,5-1c1.5-0.6,2.8-1.6,4.1-2.7
			c1.1-1.1,2-2.5,2.7-3.9c0.6-1.5,1-3.2,1-4.9c0-1.7-0.4-3.3-1-4.9s-1.5-2.9-2.7-4.1c-1.1-1.2-2.5-2.1-4.1-2.8c-1.5-0.7-3.2-1-5-1
			c-1.7,0-3.3,0.4-4.8,1c-1.5,0.7-2.7,1.6-3.7,2.8c-1,1.2-1.8,2.6-2.3,4.1C802.2,466.7,801.8,468.3,801.8,470z"/>
		<path fill="#E8E8E8" d="M854,436.6c0-0.9,0.2-1.5,0.9-1.8c0.5-0.4,1.4-0.9,2.3-1.2l9.1-3.2c0.1,0,0.2,0,0.4,0s0.2,0,0.4,0
			c1,0,1.6,0.2,2,0.9c0.4,0.6,0.5,1.4,0.5,2.2v12.7h6.6c0.9,0,1.6,0.2,2.1,0.7s0.9,1.2,0.9,2.3v7.7c0,1.1-0.2,2-0.9,2.5
			c-0.5,0.5-1.2,0.7-2.1,0.7h-6.6v32.2c0,1-0.2,1.7-0.9,2.3c-0.6,0.5-1.4,0.7-2.5,0.7h-9.1c-2.1,0-3.1-1-3.1-3.1V460h-2.9
			c-2.1,0-3.1-1.1-3.1-3.2v-7.7c0-2.1,1-3.1,3.1-3.1h2.9L854,436.6L854,436.6z"/>
		<path fill="#E8E8E8" d="M882.5,470c0-2.5,0.4-4.8,1-7.1c0.6-2.2,1.5-4.4,2.7-6.3c1.1-2,2.5-3.7,4.1-5.3c1.6-1.6,3.3-2.9,5.3-4.1
			s4.1-2,6.3-2.6s4.7-0.9,7.1-0.9c3.7,0,7,0.6,10.2,2s6,3.2,8.4,5.5c2.3,2.3,4.2,5.2,5.7,8.4c1.4,3.2,2.1,6.6,2.1,10.3
			c0,2.5-0.4,4.8-1,7.1c-0.6,2.2-1.5,4.3-2.7,6.3c-1.1,2-2.5,3.7-4.1,5.3s-3.3,2.9-5.3,4.1s-4.1,2-6.3,2.6s-4.5,0.9-7,0.9
			s-4.8-0.4-7.1-0.9c-2.2-0.6-4.3-1.5-6.3-2.6s-3.7-2.5-5.3-4.1s-2.9-3.3-4.1-5.3c-1.1-2-2-4.1-2.7-6.3
			C882.8,474.8,882.5,472.5,882.5,470z M897.2,470c0,1.7,0.2,3.4,0.9,4.9c0.5,1.5,1.4,2.8,2.3,3.9c1,1.1,2.2,2,3.7,2.7
			c1.5,0.6,3.1,1,4.8,1s3.3-0.4,4.7-1s2.6-1.6,3.6-2.7s1.7-2.5,2.2-3.9c0.5-1.5,0.7-3.2,0.7-4.9c0-1.7-0.2-3.3-0.7-4.9
			s-1.2-2.9-2.2-4.1s-2.2-2.1-3.6-2.8c-1.4-0.7-2.9-1-4.7-1s-3.4,0.4-4.8,1c-1.5,0.7-2.7,1.6-3.7,2.8c-1,1.2-1.7,2.6-2.3,4.1
			C897.4,466.7,897.2,468.3,897.2,470z"/>
		<path fill="#E8E8E8" d="M941.8,447.5c0-0.5,0.1-0.9,0.2-1.4c0.2-0.4,0.5-0.7,0.7-1c0.7-0.5,1.5-0.7,2.2-0.7h6
			c0.5,0,0.9,0.1,1.2,0.2c0.2,0.2,0.5,0.4,0.7,0.7c0.2,0.2,0.4,0.6,0.5,1s0.4,0.7,0.5,1.1c0,0.1,0.1,0.4,0.4,0.7
			c0.1,0.4,0.4,0.9,0.5,1.4c0.2,0.5,0.4,1,0.5,1.4c0.1,0.5,0.2,0.7,0.4,0.9c0.9-0.9,1.6-1.8,2.3-2.8s1.5-1.8,2.3-2.7
			c0.9-0.9,1.7-1.5,2.7-2.1c1-0.5,2.2-0.9,3.6-0.9c1.5,0,2.7,0.1,3.8,0.4s2.2,0.5,3.2,1c1,0.4,2,1,3.1,1.6c1,0.6,2.1,1.4,3.3,2.2
			c1.8,1,2.2,2.5,1,4.4l-3.7,6.3c-0.5,0.9-1.2,1.4-2,1.5c-0.7,0.2-1.6,0.1-2.6-0.4c-1.1-1.1-2.3-2-3.6-2.5c-1.2-0.5-2.6-0.9-4.1-0.9
			c-1,0-2,0.1-2.7,0.5c-0.7,0.2-1.5,0.7-2.1,1.2s-1.2,1.2-1.8,2c-0.6,0.7-1.1,1.6-1.7,2.5v29c0,1-0.2,1.7-0.7,2.3
			c-0.5,0.5-1.4,0.7-2.5,0.7h-8.7c-2.1,0-3.1-1-3.1-3.1v-44.5H941.8z"/>
	</g>
</g>
<g>
	<path fill="#F4D345" d="M200.4,138.2c1.2,1,2.8,2.3,4.7,4.1c2,1.7,4.1,3.4,6.5,5c3.7,2.5,7.4,4.4,10.9,5.8
		c3.6,1.4,7.4,2.1,11.4,2.1c3.7,0,6.8-0.4,9.3-1.2c2.5-0.9,4.4-2,5.9-3.3c1.5-1.4,2.5-2.9,3.1-4.8c0.6-1.8,1-3.7,1-5.8
		c0-2.2-0.9-4.3-2.6-6s-3.8-3.3-6.3-4.7s-5-2.6-7.7-3.6s-5-1.8-7-2.5c-8.7-3.1-16.3-6.3-22.9-9.8c-6.5-3.6-11.9-7.4-16.3-11.7
		c-4.3-4.3-7.6-9.1-9.8-14.3c-2.2-5.2-3.3-10.9-3.3-17.3c0-6.8,1.4-12.9,4.1-18.3c2.7-5.5,6.6-10.2,11.7-14.1
		c5-3.9,11.1-6.9,18.2-9.1c7.1-2.1,15-3.2,23.8-3.2c6.6,0,12.9,0.7,18.9,2.2s12,3.8,17.8,7.1c2.5,1.5,4.8,2.9,7,4.5s4.2,3.1,5.8,4.5
		c1.7,1.5,2.9,2.8,3.9,4.2s1.5,2.5,1.5,3.3c0,1-0.2,1.8-0.7,2.6s-1.2,1.7-2.1,2.7l-16.6,17.7c-1.2,1.2-2.5,1.8-3.7,1.8
		c-1,0-2-0.2-2.8-0.9c-0.9-0.6-1.7-1.4-2.8-2.2l-1-0.9c-1.5-1.2-3.1-2.5-4.8-3.8c-1.7-1.4-3.7-2.5-5.7-3.6c-2.1-1.1-4.2-2-6.4-2.6
		c-2.2-0.7-4.5-1-6.9-1c-2.3,0-4.7,0.2-6.8,0.6s-3.9,1-5.5,1.8c-1.6,0.9-2.8,2-3.8,3.4c-1,1.5-1.4,3.2-1.4,5.2
		c0,2.1,0.5,3.8,1.5,5.3s2.6,2.8,4.5,4.2c2.1,1.2,4.5,2.5,7.5,3.6c2.9,1.1,6.5,2.3,10.4,3.7c7.6,2.6,14.7,5.2,21.3,8
		c6.5,2.8,12,6.1,16.8,9.8c4.7,3.8,8.4,8.4,11.1,13.6c2.7,5.3,3.9,11.7,3.9,19.3c0,8-1.6,15.2-4.9,21.6c-3.3,6.5-7.7,12-13.4,16.6
		c-5.7,4.5-12.4,8.1-20,10.6s-16,3.8-24.8,3.8c-8.4,0-16.5-1.5-24.6-4.4c-8-2.9-15.5-7-22.5-12c-2.9-2.1-5.3-4.2-7.4-6.3
		c-2-2.1-3.6-3.7-4.7-4.9l-0.4-0.4c-0.1-0.1-0.1-0.2-0.2-0.2c-0.1,0-0.1-0.1-0.2-0.1c-0.1-0.1-0.1-0.2-0.2-0.2
		c-0.1,0-0.1-0.1-0.2-0.1c-1.7-1.8-2.5-3.3-2.5-4.3c0-1.2,0.9-2.6,2.5-4.2l18.8-17.9c1.5-1.1,2.7-1.6,3.7-1.6c0.6,0,1.4,0.2,2.1,0.6
		C198.6,136.6,199.4,137.4,200.4,138.2z"/>
	<path fill="#D8B10E" d="M233.6,196.7c-8.8,0-17.6-1.6-26.1-4.8c-8.4-3.1-16.2-7.4-23.5-12.5c-3.1-2.2-5.8-4.5-7.9-6.6
		c-2-2.1-3.6-3.7-4.8-4.9l-0.6-0.6l-0.1-0.1l-0.1-0.2c-0.1-0.1-0.1-0.1-0.2-0.2l-0.1-0.1c-2.5-2.7-3.7-5-3.7-7.3
		c0-2.6,1.2-4.9,3.9-7.4l19.2-18.3c2.3-1.6,4.3-2.5,6.1-2.5c1.5,0,2.8,0.4,4.3,1.2c1,0.6,2,1.4,3.2,2.3c1.2,1,2.8,2.3,4.8,4.2
		c1.7,1.6,3.8,3.2,6.1,4.7c3.4,2.2,6.8,4.1,10.1,5.3c3.1,1.2,6.4,1.8,9.8,1.8c3.2,0,5.9-0.4,8-1c1.8-0.6,3.3-1.5,4.3-2.3
		c1-0.9,1.6-1.8,2-3.1c0.5-1.4,0.7-2.8,0.7-4.4c0-1.1-0.4-2.1-1.4-3.1c-1.4-1.5-3.2-2.8-5.3-3.9c-2.2-1.2-4.7-2.3-7.1-3.2
		c-2.6-1-4.9-1.7-6.9-2.5c-9-3.1-16.8-6.5-23.5-10.1c-6.9-3.7-12.7-7.9-17.3-12.4c-4.7-4.7-8.4-10-10.7-15.6
		c-2.3-5.7-3.6-12-3.6-18.9c0-7.4,1.5-14.1,4.5-20.3c2.9-6,7.4-11.3,12.9-15.6c5.4-4.2,12-7.5,19.5-9.8c7.5-2.2,15.9-3.4,25.1-3.4
		c6.9,0,13.6,0.7,20,2.3c6.4,1.6,12.8,4.1,18.9,7.5c2.7,1.6,5.2,3.2,7.4,4.8c2.3,1.6,4.4,3.2,6.1,4.8c2,1.7,3.4,3.2,4.5,4.8
		c1.6,2.1,2.3,4.1,2.3,5.9c0,1.7-0.5,3.3-1.4,4.8c-0.6,1.1-1.5,2.2-2.7,3.4l-16.6,18.1c-2.1,2.1-4.3,3.1-6.8,3.1
		c-2,0-3.7-0.6-5.3-1.6c-1-0.6-2-1.5-3.1-2.5l-1-0.9c-1.4-1.1-2.8-2.3-4.5-3.6c-1.6-1.1-3.3-2.2-5.2-3.2c-1.8-1-3.7-1.7-5.7-2.3
		c-3.9-1.2-8.1-1-11.6-0.4c-1.6,0.4-3.1,0.9-4.3,1.5c-1,0.5-1.7,1.2-2.3,2.1c-0.5,0.7-0.7,1.6-0.7,2.8c0,1.1,0.2,2.1,0.7,2.8
		c0.6,1,1.7,2,3.3,2.9c1.7,1.1,4.1,2.2,6.8,3.2c2.9,1.1,6.4,2.3,10.3,3.6c7.7,2.6,15,5.3,21.6,8.1c6.8,2.9,12.8,6.5,17.8,10.4
		c5.2,4.2,9.2,9.2,12.2,15.1c2.9,5.9,4.4,13,4.4,21.1c0,8.6-1.8,16.6-5.4,23.6s-8.5,13-14.6,17.9c-6,4.9-13.3,8.7-21.4,11.3
		C251.7,195.4,242.8,196.7,233.6,196.7z M177.6,161.8L177.6,161.8c1.2,1.4,2.8,2.9,4.8,4.9c1.8,1.8,4.1,3.8,6.8,5.8
		c6.6,4.8,13.8,8.6,21.5,11.4c7.5,2.8,15.2,4.2,23.1,4.2c8.4,0,16.2-1.2,23.5-3.6c7.1-2.3,13.4-5.7,18.7-9.8
		c5.2-4.2,9.3-9.2,12.3-15.1s4.4-12.5,4.4-19.8c0-6.9-1.2-12.7-3.6-17.3c-2.3-4.7-5.7-8.8-9.8-12.2c-4.4-3.6-9.7-6.6-15.7-9.3
		c-6.4-2.7-13.4-5.4-20.9-7.9c-4.1-1.4-7.6-2.6-10.7-3.7c-3.3-1.2-6-2.6-8.4-3.9c-2.6-1.6-4.5-3.3-5.8-5.4c-1.5-2.2-2.2-4.8-2.2-7.7
		c0-2.8,0.7-5.4,2.1-7.5c1.4-2,3.1-3.6,5.3-4.8c2-1.1,4.3-1.8,6.8-2.3c4.8-0.9,10.4-1.1,15.6,0.5c2.5,0.7,4.9,1.7,7.1,2.9
		c2.2,1.1,4.3,2.5,6.3,3.9c1.8,1.4,3.6,2.7,5,3.9l1.1,1c0.9,0.7,1.7,1.4,2.3,1.8c0.1,0,0.1,0.1,0.2,0.1s0.4-0.1,0.7-0.5l16.6-17.7
		c0.9-1,1.4-1.6,1.6-2c0-0.1,0.1-0.1,0.1-0.2c-0.1-0.1-0.2-0.5-0.6-1c-0.7-1.1-2-2.2-3.3-3.4c-1.6-1.4-3.4-2.8-5.4-4.2
		c-2.1-1.5-4.3-2.9-6.8-4.3c-5.4-2.9-11.1-5.3-16.7-6.6c-5.7-1.4-11.7-2.1-17.9-2.1c-8.4,0-15.9,1-22.6,3.1
		c-6.5,2-12.2,4.8-16.8,8.4c-4.5,3.4-8,7.7-10.4,12.7s-3.7,10.4-3.7,16.5c0,5.8,1,11.1,2.9,15.6c2,4.7,4.9,9,8.8,12.8
		c4.1,3.9,9.2,7.7,15.4,10.9c6.3,3.4,13.8,6.6,22.2,9.6c2,0.6,4.3,1.5,7,2.5c2.9,1.1,5.7,2.3,8.4,3.8c2.8,1.6,5.3,3.4,7.3,5.5
		c2.5,2.6,3.8,5.7,3.8,9c0,2.5-0.4,4.9-1.1,7.1c-0.9,2.5-2.2,4.7-4.2,6.5s-4.4,3.2-7.5,4.3c-2.9,1-6.5,1.5-10.7,1.5
		c-4.5,0-8.8-0.7-12.9-2.3c-3.9-1.5-7.9-3.6-11.8-6.1c-2.6-1.8-5-3.6-7-5.4c-1.8-1.7-3.4-2.9-4.5-3.9c-1-0.9-1.6-1.2-2-1.5
		c-0.2,0.1-0.5,0.2-1,0.6l-18.6,17.7c-0.5,0.5-0.7,0.7-1,1c0.1,0.2,0.5,0.6,0.9,1.1c0.2,0.1,0.5,0.4,0.6,0.6
		C177.1,161.2,177.3,161.5,177.6,161.8z"/>
</g>
<g>
	<path fill="#F4D345" d="M309.3,109.9c0-7.6,1-15,2.9-22.1c2-7,4.8-13.6,8.4-19.9c3.6-6.1,8-11.8,13-16.8s10.7-9.3,16.8-13
		c6.1-3.6,12.8-6.4,19.8-8.4c7.1-2,14.5-2.9,22.1-2.9s15,1,22.1,2.9c7.1,2,13.8,4.8,19.9,8.4s11.8,7.9,16.8,13c5,5,9.5,10.7,13,16.8
		c3.6,6.1,6.4,12.8,8.4,19.9c2,7,2.9,14.4,2.9,22.1c0,7.6-1,15-2.9,22.1c-2,7-4.8,13.6-8.4,19.8c-3.6,6.1-7.9,11.7-13,16.7
		c-5,5-10.7,9.3-16.8,13c-6.1,3.6-12.8,6.4-19.9,8.4s-14.5,2.9-22.1,2.9c-7.7,0-15.1-1-22.1-2.9c-7.1-2-13.6-4.8-19.8-8.4
		c-6.1-3.6-11.8-8-16.8-13s-9.3-10.6-13-16.7c-3.6-6.1-6.4-12.7-8.4-19.8C310.3,124.9,309.3,117.5,309.3,109.9z"/>
	<path fill="#D8B10E" d="M392.4,197c-8,0-15.9-1-23.2-3.1c-7.4-2.1-14.4-5-20.9-8.8c-6.4-3.8-12.4-8.4-17.7-13.6
		c-5.3-5.3-9.8-11.2-13.6-17.6s-6.8-13.4-8.8-20.8c-2.1-7.4-3.1-15.2-3.1-23.2s1-15.9,3.1-23.2c2.1-7.4,5-14.4,8.8-20.9
		s8.4-12.4,13.6-17.7c5.3-5.3,11.2-10,17.7-13.6c6.4-3.8,13.4-6.8,20.9-8.8c7.4-2.1,15.2-3.2,23.3-3.2c8,0,15.7,1.1,23.2,3.2
		c7.4,2.1,14.5,5,20.9,8.8s12.4,8.4,17.7,13.6c5.3,5.3,10,11.3,13.6,17.8c3.8,6.5,6.8,13.5,8.8,20.9c2.1,7.4,3.2,15.2,3.2,23.2
		s-1.1,15.9-3.2,23.2c-2.1,7.4-5,14.4-8.8,20.8c-3.8,6.4-8.4,12.3-13.6,17.6c-5.3,5.3-11.3,9.8-17.7,13.6
		c-6.5,3.8-13.5,6.8-20.9,8.8C408.1,196,400.3,197,392.4,197z M392.4,31c-7.3,0-14.3,1-21,2.8c-6.6,1.8-13,4.5-18.8,8
		c-5.8,3.4-11.2,7.5-15.9,12.3c-4.8,4.8-8.8,10.2-12.3,16c-3.4,5.9-6.1,12.2-8,18.8s-2.8,13.8-2.8,21s1,14.3,2.8,21
		c1.8,6.6,4.5,12.9,8,18.7c3.4,5.8,7.6,11.2,12.3,15.9c4.8,4.8,10.1,8.8,16,12.3c5.8,3.4,12.2,6,18.8,8c6.6,1.8,13.8,2.8,21,2.8
		c7.1,0,14.3-1,20.9-2.8c6.8-1.8,13-4.5,18.8-8c5.8-3.4,11.2-7.6,16-12.3c4.8-4.8,9-10.1,12.3-15.9c3.4-5.8,6-12,8-18.8
		c1.8-6.6,2.8-13.6,2.8-20.9s-1-14.3-2.8-20.9s-4.5-13-8-18.9c-3.4-5.9-7.5-11.2-12.3-16s-10.2-9-16-12.3c-5.8-3.4-12.2-6-18.9-8
		C406.6,31.8,399.5,31,392.4,31z"/>
</g>
<g>
	<path fill="#F4D345" d="M495,34c0-1.5,0.4-2.7,1.2-3.6s1.8-1.4,2.9-1.4h104.1c1.7,0,2.9,0.5,3.8,1.4c0.9,1,1.2,2.2,1.2,3.8v26.9
		c0,1.2-0.5,2.5-1.4,3.6s-2.1,1.7-3.8,1.7h-66v33.7h48.8c1.4,0,2.6,0.4,3.4,1.1c1,0.7,1.4,2,1.4,3.7v25.9c0,1.2-0.4,2.5-1.2,3.6
		c-0.9,1.1-2,1.7-3.4,1.7h-49v49.8c0,3.1-1.7,4.7-5,4.7h-33.2c-2.6-0.4-3.9-1.8-3.9-4.5V34H495z"/>
	<path fill="#D8B10E" d="M532.1,194.6h-33.7c-4.7-0.6-7.6-4.1-7.6-8.8V34c0-3.3,1.4-5.4,2.5-6.5c1.6-1.6,3.6-2.6,5.8-2.7h0.2h104
		c3.7,0,5.8,1.6,7,2.8c1.6,1.7,2.3,3.9,2.3,6.6v26.9c0,2.2-0.7,4.3-2.2,6.1c-1.2,1.5-3.4,3.3-7.3,3.3h-61.8v25.1h44.5
		c2.3,0,4.4,0.7,6.1,2.1c1.4,1.1,3.1,3.2,3.1,7v25.9c0,2.2-0.7,4.2-2.1,6.1c-1.6,2.2-4.1,3.4-6.9,3.4h-44.7v45.5
		C541.3,191.2,537.7,194.6,532.1,194.6z M499.3,186H532c0.4,0,0.5,0,0.7,0c0-0.1,0-0.2,0-0.4v-54.1H586l0,0c0.4-0.5,0.4-0.9,0.4-0.9
		v-26.1c0-0.1,0-0.4,0-0.4c-0.1,0-0.2-0.1-0.6-0.1h-53.1V61.9h70.4c0.4,0,0.5,0,0.5,0c0.4-0.5,0.4-0.7,0.4-0.9V34.2
		c0-0.5-0.1-0.7-0.1-0.9c-0.1,0-0.2,0-0.6,0H499.5c0,0,0,0-0.1,0.1c0,0,0,0.2,0,0.6v151.8C499.3,185.9,499.3,185.9,499.3,186z"/>
</g>
<g>
	<path fill="#F4D345" d="M629.5,33.8c0-1.4,0.4-2.5,1.2-3.3c0.7-1,2-1.4,3.6-1.4h31.9c1.1,0,2.2,0.5,3.4,1.4s1.8,2.1,1.8,3.4v151.6
		c0,3.2-1.7,4.8-5.3,4.8h-31.9c-3.2,0-4.8-1.6-4.8-4.8L629.5,33.8L629.5,33.8z"/>
	<path fill="#D8B10E" d="M666.3,194.6h-31.9c-5.7,0-9.1-3.4-9.1-9.1V33.8c0-2.3,0.7-4.4,2.2-6.1c1.1-1.4,3.2-2.9,6.9-2.9h31.9
		c2,0,3.9,0.7,5.9,2.1c2.3,1.7,3.7,4.2,3.7,7v151.8C676,191.2,672.3,194.6,666.3,194.6z M633.9,186c0.1,0,0.2,0,0.5,0h31.9
		c0.5,0,0.9,0,1-0.1c0-0.1,0-0.2,0-0.4V33.8l0,0c-0.6-0.4-0.9-0.5-1-0.5h-31.9c-0.2,0-0.4,0-0.4,0c0,0.1-0.1,0.2-0.1,0.5v151.8
		C633.8,185.8,633.8,185.9,633.9,186z"/>
</g>
<g>
	<path fill="#F4D345" d="M698.7,34c0-1.5,0.4-2.7,1.2-3.7c0.9-0.9,2-1.4,3.6-1.4h107.8c1.6,0,2.8,0.5,3.7,1.4c0.9,1,1.4,2.2,1.4,3.8
		V61c0,1.2-0.5,2.5-1.4,3.6s-2.1,1.7-3.8,1.7h-70.4v26.9H795c1.4,0,2.5,0.4,3.4,1s1.4,1.7,1.4,3.3V121c0,1-0.4,2-1.2,2.9
		c-0.7,1-2,1.5-3.4,1.5h-54.4v27.8h73c3.3,0,4.9,1.7,4.9,5v27.3c0,0.7-0.2,1.4-0.9,2c-0.2,2-1.7,3.1-4.4,3.1H703.5
		c-1.5,0-2.6-0.4-3.4-1.1c-0.9-0.7-1.4-2-1.4-3.6L698.7,34L698.7,34z"/>
	<path fill="#D8B10E" d="M813.4,194.6H703.5c-2.5,0-4.7-0.7-6.3-2.2c-1.2-1.1-2.7-3.2-2.7-6.8V34c0-3.3,1.4-5.4,2.3-6.5
		c1.1-1.2,3.2-2.7,6.6-2.7h107.8c3.6,0,5.7,1.5,6.9,2.8c1.1,1.2,2.5,3.3,2.5,6.8v26.9c0,2.2-0.7,4.3-2.2,6.1
		c-1.2,1.5-3.4,3.3-7.3,3.3H745V89h50c2.3,0,4.3,0.6,5.9,1.8c1.5,1,3.2,3.1,3.2,6.8v23.5c0,2-0.7,4.1-2.2,5.7
		c-1.1,1.4-3.2,2.9-6.8,2.9H745v19.2h68.7c5.7,0,9.2,3.6,9.2,9.3v27.3c0,1.5-0.4,2.7-1.2,3.9C821,191.5,819,194.6,813.4,194.6z
		 M703,186c0.1,0,0.2,0,0.5,0h109.9c0.1,0,0.2,0,0.2,0l0.1-0.7l0.6-0.6v-26.5c0-0.2,0-0.5,0-0.6c-0.1,0-0.2,0-0.5,0h-77.3V121h58.7
		c0.1,0,0.2,0,0.2,0l0.1-0.1V97.6c-0.1,0-0.2,0-0.5,0h-58.6V61.9h74.7c0.4,0,0.5,0,0.5,0c0.4-0.5,0.4-0.7,0.4-0.9V34.2
		c0-0.5-0.1-0.7-0.1-0.9c0,0-0.1,0-0.5,0H703.7c-0.2,0-0.4,0-0.4,0c0,0.1-0.1,0.2-0.1,0.6v151.6C703,185.8,703,185.9,703,186z"/>
</g>
<g>
	<path fill="#F4D345" d="M28,231.3c0-1.4,0.4-2.5,1.2-3.3c0.7-1,2-1.4,3.6-1.4h35.5c1,0,2.1,0.2,3.2,0.7s2,1.4,2.8,2.6
		c9.2,14.9,18.3,29.5,27.4,43.9s18.2,29,27.5,43.9v-87c0.2-1.4,0.9-2.3,1.7-3.1c0.9-0.7,1.8-1.1,3.1-1.1h31c1.5,0,2.8,0.4,3.8,1.2
		c1,0.9,1.5,2,1.5,3.6v152.4c0,1.5-0.5,2.5-1.4,3.2s-2.1,1-3.6,1h-34.8c-1,0-1.7-0.4-2.5-1c-0.7-0.6-1.5-1.5-2.3-2.6
		c-9.6-16-19.2-31.7-28.6-47.3s-18.9-31.3-28.6-47.3V383c0,1.6-0.4,2.8-1.1,3.6c-0.7,0.7-2.1,1.2-3.9,1.2H32.8
		c-1.7,0-2.8-0.5-3.7-1.4c-0.7-0.9-1.1-2-1.1-3.3C28,383.1,28,231.3,28,231.3z"/>
	<path fill="#D8B10E" d="M165.3,392.2h-34.7c-2,0-3.8-0.7-5.4-2.1c-1-0.9-1.8-2-2.8-3.2l-0.2-0.4l-28.6-47.3
		C86.7,327.9,79.8,316.5,73,305v78c0,2.7-0.7,4.9-2.2,6.5c-1.6,1.7-3.9,2.6-7.1,2.6H32.8c-3.7,0-5.8-1.6-6.9-2.9
		c-1.4-1.7-2.1-3.8-2.1-6v-152c0-2.3,0.7-4.4,2.2-6.1c1.1-1.4,3.2-2.9,6.9-2.9h35.5c1.6,0,3.3,0.4,4.9,1.1c1.8,0.9,3.4,2.2,4.7,4.2
		c9.2,14.9,18.4,29.6,27.4,44c6.5,10.3,13,20.6,19.5,31.2v-72.5l0.1-0.5c0.5-2.2,1.6-4.1,3.2-5.4c1.6-1.4,3.7-2.1,5.8-2.1h31
		c2.6,0,4.7,0.7,6.5,2.2c1.5,1.1,3.1,3.3,3.1,6.9v152.4c0,3.6-1.6,5.5-2.9,6.6C169.9,391.5,167.8,392.2,165.3,392.2z M130.9,383.6
		h34.4c0.2,0,0.5,0,0.6,0V231.3c0-0.1,0-0.2,0-0.2c-0.1-0.1-0.4-0.2-1-0.2h-31c-0.1,0-0.2,0-0.2,0.1c-0.1,0.1-0.1,0.2-0.2,0.4v101.5
		l-8-12.8c-9.2-14.9-18.4-29.5-27.5-43.9c-9-14.4-18.2-29.1-27.3-44c-0.2-0.2-0.6-0.7-1-1c-0.5-0.2-1-0.4-1.4-0.4H32.8
		c-0.2,0-0.4,0-0.4,0c0,0.1-0.1,0.2-0.1,0.5v151.9c0,0.1,0,0.2,0,0.4c0.1,0,0.2,0,0.5,0h30.8c0.2,0,0.5,0,0.7,0c0-0.1,0-0.2,0-0.5
		V274.4l8,13.1c9.6,15.7,19.3,31.7,28.6,47.3l28.5,47.1C130,382.7,130.5,383.2,130.9,383.6z"/>
</g>
<g>
	<path fill="#F4D345" d="M194.1,231.3c0-1.4,0.4-2.5,1.2-3.3c0.7-1,2-1.4,3.6-1.4h31.9c1.1,0,2.2,0.5,3.4,1.4s1.8,2.1,1.8,3.4v151.8
		c0,3.2-1.7,4.8-5.3,4.8h-31.9c-3.2,0-4.8-1.6-4.8-4.8V231.3H194.1z"/>
	<path fill="#D8B10E" d="M230.9,392.2H199c-5.7,0-9.1-3.4-9.1-9.1V231.3c0-2.3,0.7-4.4,2.2-6.1c1.1-1.4,3.2-2.9,6.9-2.9h31.9
		c2,0,3.9,0.7,5.9,2.1c2.3,1.7,3.7,4.2,3.7,7V383C240.6,388.7,236.9,392.2,230.9,392.2z M198.6,383.5c0.1,0,0.2,0,0.5,0H231
		c0.5,0,0.9,0,1-0.1c0-0.1,0-0.2,0-0.4V231.4l0,0c-0.6-0.4-0.9-0.5-1-0.5h-31.9c-0.2,0-0.4,0-0.4,0c0,0.1-0.1,0.2-0.1,0.5v151.8
		C198.4,383.3,198.4,383.4,198.6,383.5z"/>
</g>
<g>
	<path fill="#F4D345" d="M259.5,231.3c0-1.4,0.5-2.5,1.4-3.3c0.9-1,2.1-1.4,3.6-1.4h32.2c1.2,0,2.3,0.5,3.3,1.4s1.6,2.1,1.6,3.4
		v118.2h59.7c1.4,0,2.5,0.5,3.3,1.4c0.9,0.9,1.4,2.1,1.4,3.6v28.6c0,1.2-0.4,2.3-1.2,3.3c-0.9,1-2,1.6-3.6,1.6h-97.1
		c-3.2,0-4.8-1.6-4.8-4.8v-152L259.5,231.3L259.5,231.3z"/>
	<path fill="#D8B10E" d="M361.4,392.2h-97.1c-5.7,0-9.1-3.4-9.1-9.1V231.3c0-2.3,0.9-4.5,2.5-6.3c1.2-1.2,3.3-2.8,6.8-2.8h32.2
		c2.2,0,4.4,0.9,6.1,2.3c2,1.6,2.9,3.9,3.1,6.5v0.2v113.9h55.4c2.3,0,4.5,0.9,6.3,2.5c1.2,1.2,2.8,3.3,2.8,6.8V383
		c0,2.2-0.7,4.3-2.2,6.1C367,390.4,365,392,361.4,392.2L361.4,392.2z M263.8,383.5c0.1,0,0.2,0,0.5,0h97c0.2,0,0.4,0,0.4-0.1
		c0.2-0.2,0.2-0.5,0.2-0.6v-28.6c0-0.2,0-0.4,0-0.5c-0.1-0.1-0.1-0.1-0.4-0.1h-64.3V231.1c0-0.2-0.1-0.2-0.1-0.4
		c-0.4-0.2-0.5-0.2-0.6-0.2h-32.2c-0.2,0-0.5,0-0.5,0c-0.1,0.1-0.1,0.1-0.1,0.4v151.9C263.8,383.3,263.8,383.4,263.8,383.5z"/>
</g>
<g>
	<path fill="#F4D345" d="M407.8,335.7c1.2,1,2.8,2.3,4.7,4.1c2,1.7,4.1,3.4,6.6,5c3.7,2.5,7.4,4.4,10.9,5.8
		c3.6,1.4,7.4,2.1,11.4,2.1c3.7,0,6.8-0.4,9.3-1.2c2.5-0.9,4.4-2,5.9-3.3c1.5-1.4,2.5-2.9,3.1-4.8c0.6-1.8,1-3.7,1-5.8
		c0-2.2-0.9-4.3-2.6-6s-3.8-3.3-6.3-4.7c-2.5-1.4-5-2.6-7.7-3.6s-5-1.8-7-2.5c-8.7-3.1-16.3-6.3-22.9-9.8
		c-6.5-3.6-11.9-7.4-16.3-11.7c-4.3-4.3-7.6-9.1-9.8-14.3c-2.2-5.2-3.3-10.9-3.3-17.3c0-6.8,1.4-12.9,4.1-18.3
		c2.7-5.5,6.6-10.2,11.7-14.1s11.1-6.9,18.2-9.1c7.1-2.1,15-3.2,23.8-3.2c6.6,0,12.9,0.7,18.9,2.2s12,3.8,17.8,7.1
		c2.5,1.5,4.8,2.9,7,4.5s4.2,3.1,5.8,4.5c1.7,1.5,2.9,2.8,3.9,4.2s1.5,2.5,1.5,3.3c0,1-0.2,1.8-0.7,2.6c-0.5,0.7-1.2,1.7-2.1,2.7
		l-16.6,17.7c-1.2,1.2-2.5,1.8-3.7,1.8c-1,0-2-0.2-2.8-0.9c-0.9-0.6-1.7-1.4-2.8-2.2l-1-0.9c-1.5-1.2-3.1-2.5-4.8-3.8
		c-1.7-1.4-3.7-2.5-5.7-3.6c-2.1-1.1-4.2-2-6.4-2.6c-2.2-0.7-4.5-1-6.9-1c-2.3,0-4.7,0.2-6.8,0.6c-2.1,0.4-3.9,1-5.5,1.8
		s-2.8,2-3.8,3.4c-1,1.5-1.4,3.2-1.4,5.2c0,2.1,0.5,3.8,1.5,5.3s2.6,2.8,4.5,4.2c2,1.2,4.5,2.5,7.5,3.6s6.5,2.3,10.4,3.7
		c7.6,2.6,14.7,5.2,21.3,8s12,6.1,16.8,9.8c4.7,3.8,8.4,8.4,11.1,13.6c2.7,5.3,3.9,11.7,3.9,19.3c0,8-1.6,15.2-4.9,21.6
		c-3.3,6.5-7.7,12-13.4,16.6s-12.4,8.1-20,10.6s-16,3.8-24.8,3.8c-8.4,0-16.5-1.5-24.6-4.4c-8-2.9-15.5-7-22.5-12
		c-2.9-2.1-5.3-4.2-7.4-6.3c-2-2.1-3.6-3.7-4.7-4.9L381,362c-0.1-0.1-0.1-0.2-0.2-0.2s-0.1-0.1-0.2-0.1c-0.1-0.1-0.1-0.2-0.2-0.2
		s-0.1-0.1-0.2-0.1c-1.7-1.8-2.5-3.3-2.5-4.3c0-1.2,0.9-2.6,2.5-4.2L399,335c1.5-1.1,2.7-1.6,3.7-1.6c0.6,0,1.4,0.2,2.1,0.6
		C405.9,334.2,406.7,334.9,407.8,335.7z"/>
	<path fill="#D8B10E" d="M440.9,394.2c-8.8,0-17.6-1.6-26.1-4.8c-8.4-3.1-16.2-7.4-23.5-12.5c-3.1-2.2-5.8-4.5-7.9-6.6
		c-2-2.1-3.6-3.7-4.8-4.9l-0.6-0.6l-0.1-0.1l-0.2-0.2c-0.1-0.1-0.1-0.1-0.2-0.2l-0.1-0.1c-2.5-2.7-3.7-5-3.7-7.3
		c0-2.6,1.2-4.9,3.9-7.4l19.2-18.3c4.1-2.9,7.3-3.1,10.4-1.2c1,0.6,2,1.4,3.2,2.3c1.2,1,2.8,2.5,4.8,4.2c1.7,1.6,3.8,3.2,6.1,4.7
		c3.4,2.2,6.8,4.1,10.1,5.3c3.1,1.2,6.4,1.8,9.8,1.8c3.2,0,5.9-0.4,8-1c1.8-0.6,3.3-1.5,4.3-2.3c1-0.9,1.6-1.8,2-3.1
		c0.5-1.4,0.7-2.8,0.7-4.4c0-1.1-0.4-2.1-1.4-3.1c-1.4-1.5-3.2-2.8-5.3-3.9c-2.2-1.2-4.7-2.3-7.1-3.2c-2.6-1-4.9-1.7-6.9-2.5
		c-9-3.1-16.8-6.5-23.5-10.1c-6.9-3.7-12.7-7.9-17.3-12.4c-4.7-4.7-8.4-10-10.7-15.6c-2.3-5.7-3.6-12-3.6-18.9
		c0-7.4,1.5-14.1,4.5-20.3c2.9-6,7.4-11.3,12.9-15.6c5.4-4.2,12-7.5,19.5-9.8c7.5-2.2,15.9-3.4,25.1-3.4c6.9,0,13.6,0.7,20,2.3
		s12.8,4.1,18.9,7.5c2.7,1.6,5.2,3.2,7.4,4.8c2.3,1.6,4.4,3.2,6.1,4.8c2,1.7,3.4,3.2,4.5,4.8c1.6,2.1,2.3,4.1,2.3,5.9
		c0,1.7-0.5,3.3-1.4,4.8c-0.6,1.1-1.5,2.2-2.7,3.4l-16.7,17.8c-2.1,2.1-4.3,3.1-6.8,3.1c-2,0-3.7-0.5-5.3-1.6c-1-0.6-2-1.5-3.1-2.5
		l-1-0.9c-1.4-1.1-2.8-2.3-4.5-3.6c-1.6-1.1-3.3-2.2-5.2-3.2c-1.8-1-3.7-1.7-5.7-2.3c-3.9-1.2-8.1-1-11.6-0.4
		c-1.6,0.4-3.1,0.9-4.3,1.5c-1,0.5-1.7,1.2-2.3,2.1c-0.5,0.7-0.7,1.6-0.7,2.8c0,1.1,0.2,2.1,0.7,2.8c0.6,1,1.7,2,3.3,2.9
		c1.7,1.1,4.1,2.2,6.8,3.2c2.9,1.1,6.4,2.3,10.3,3.6c7.7,2.6,15,5.3,21.6,8.1c6.8,2.9,12.8,6.5,17.8,10.4c5.2,4.2,9.2,9.2,12.2,15.1
		s4.4,13,4.4,21.1c0,8.6-1.8,16.6-5.4,23.6s-8.5,13-14.6,17.9c-6,4.9-13.3,8.7-21.4,11.3C459,392.9,450.2,394.2,440.9,394.2z
		 M384.9,359.3L384.9,359.3c1.2,1.4,2.8,2.9,4.8,4.9c1.8,1.8,4.1,3.8,6.8,5.8c6.6,4.8,13.8,8.6,21.5,11.4c7.5,2.8,15.2,4.2,23.1,4.2
		c8.4,0,16.2-1.2,23.5-3.6c7.1-2.3,13.4-5.7,18.7-9.8c5.2-4.2,9.3-9.2,12.3-15.1s4.4-12.5,4.4-19.8c0-6.9-1.2-12.7-3.6-17.3
		c-2.3-4.7-5.7-8.8-9.8-12.2c-4.4-3.6-9.7-6.6-15.7-9.3c-6.4-2.7-13.4-5.4-20.9-7.9c-4.1-1.4-7.6-2.6-10.7-3.7
		c-3.3-1.2-6-2.6-8.4-3.9c-2.6-1.6-4.4-3.3-5.8-5.4c-1.5-2.2-2.2-4.8-2.2-7.7c0-2.8,0.7-5.4,2.1-7.5c1.4-2,3.1-3.6,5.3-4.8
		c2-1.1,4.3-1.8,6.8-2.3c4.8-0.9,10.4-1.1,15.6,0.5c2.5,0.7,4.9,1.7,7.1,2.9c2.2,1.1,4.3,2.5,6.3,3.9c1.8,1.4,3.6,2.7,5,3.9l1.1,1
		c0.9,0.7,1.7,1.4,2.3,1.8c0.1,0.1,0.1,0.1,0.2,0.1s0.4-0.1,0.7-0.5l16.6-17.7c0.9-1,1.4-1.6,1.6-2c0-0.1,0.1-0.1,0.1-0.2
		c-0.1-0.1-0.2-0.5-0.6-1c-0.7-1.1-2-2.2-3.3-3.4c-1.6-1.4-3.4-2.8-5.4-4.2c-2.1-1.5-4.3-2.9-6.8-4.3c-5.4-2.9-11.1-5.3-16.7-6.6
		c-5.7-1.4-11.7-2.1-17.9-2.1c-8.4,0-15.9,1-22.6,3.1c-6.5,2-12.2,4.8-16.8,8.4c-4.5,3.4-8,7.7-10.4,12.7
		c-2.5,4.9-3.7,10.4-3.7,16.5c0,5.8,1,11.1,2.9,15.6c2,4.7,4.9,9,8.8,12.8c4.1,3.9,9.2,7.7,15.4,10.9c6.3,3.4,13.8,6.6,22.2,9.6
		c2,0.6,4.3,1.5,7,2.5c2.8,1.1,5.7,2.3,8.4,3.8c2.8,1.6,5.3,3.4,7.3,5.5c2.5,2.6,3.8,5.7,3.8,9c0,2.5-0.4,4.9-1.1,7.1
		c-0.9,2.5-2.2,4.7-4.2,6.5c-1.8,1.8-4.4,3.2-7.5,4.3c-2.9,1-6.5,1.5-10.7,1.5c-4.5,0-8.8-0.7-12.9-2.3c-3.9-1.5-7.9-3.6-11.8-6.1
		c-2.6-1.8-5-3.6-7-5.4c-1.8-1.6-3.4-2.9-4.7-3.9c-1-0.9-1.6-1.2-2-1.5c-0.2,0.1-0.5,0.2-1,0.6l-18.6,17.7c-0.5,0.5-0.7,0.7-1,1
		c0.1,0.2,0.5,0.6,1,1.2c0.2,0.1,0.4,0.4,0.6,0.6C384.4,358.8,384.6,359.1,384.9,359.3z"/>
</g>
<g>
	<path fill="#F4D345" d="M545.6,335.7c1.2,1,2.8,2.3,4.7,4.1c2,1.7,4.1,3.4,6.6,5c3.7,2.5,7.4,4.4,10.9,5.8
		c3.6,1.4,7.4,2.1,11.4,2.1c3.7,0,6.8-0.4,9.3-1.2c2.5-0.9,4.4-2,5.9-3.3c1.5-1.4,2.5-2.9,3.1-4.8c0.6-1.8,1-3.7,1-5.8
		c0-2.2-0.9-4.3-2.6-6c-1.7-1.7-3.8-3.3-6.3-4.7c-2.5-1.4-5-2.6-7.7-3.6s-5-1.8-7-2.5c-8.7-3.1-16.3-6.3-22.9-9.8
		c-6.5-3.6-11.9-7.4-16.3-11.7c-4.3-4.3-7.6-9.1-9.8-14.3s-3.3-10.9-3.3-17.3c0-6.8,1.4-12.9,4.1-18.3c2.7-5.5,6.6-10.2,11.7-14.1
		c5-3.9,11.1-6.9,18.2-9.1c7.1-2.1,15-3.2,23.8-3.2c6.6,0,12.9,0.7,18.9,2.2s12,3.8,17.8,7.1c2.5,1.5,4.8,2.9,7,4.5s4.2,3.1,5.8,4.5
		c1.7,1.5,2.9,2.8,3.9,4.2s1.5,2.5,1.5,3.3c0,1-0.2,1.8-0.7,2.6c-0.5,0.7-1.2,1.7-2.1,2.7l-16.6,17.7c-1.2,1.2-2.5,1.8-3.7,1.8
		c-1,0-2-0.2-2.8-0.9c-0.9-0.6-1.7-1.4-2.8-2.2l-1-0.9c-1.5-1.2-3.1-2.5-4.8-3.8c-1.7-1.4-3.7-2.5-5.7-3.6c-2.1-1.1-4.2-2-6.4-2.6
		c-2.2-0.7-4.5-1-6.9-1s-4.7,0.2-6.8,0.6s-3.9,1-5.5,1.8c-1.6,0.9-2.8,2-3.8,3.4s-1.4,3.2-1.4,5.2c0,2.1,0.5,3.8,1.5,5.3
		s2.6,2.8,4.5,4.2c2,1.2,4.5,2.5,7.5,3.6s6.5,2.3,10.4,3.7c7.6,2.6,14.7,5.2,21.3,8c6.5,2.8,12,6.1,16.8,9.8
		c4.7,3.8,8.4,8.4,11.1,13.6c2.7,5.3,3.9,11.7,3.9,19.3c0,8-1.6,15.2-4.9,21.6c-3.3,6.5-7.7,12-13.4,16.6s-12.4,8.1-20,10.6
		s-16,3.8-24.8,3.8c-8.4,0-16.5-1.5-24.6-4.4c-8-2.9-15.5-7-22.5-12c-2.9-2.1-5.3-4.2-7.4-6.3c-2-2.1-3.6-3.7-4.7-4.9l-0.4-0.4
		c-0.1-0.1-0.1-0.2-0.2-0.2s-0.1-0.1-0.2-0.1c-0.1-0.1-0.1-0.2-0.2-0.2c-0.1,0-0.1-0.1-0.2-0.1c-1.7-1.8-2.5-3.3-2.5-4.3
		c0-1.2,0.9-2.6,2.5-4.2l18.8-17.9c1.5-1.1,2.7-1.6,3.7-1.6c0.6,0,1.4,0.2,2.1,0.6C543.7,334.2,544.6,334.9,545.6,335.7z"/>
	<path fill="#D8B10E" d="M578.8,394.2c-8.8,0-17.6-1.6-26.1-4.8c-8.4-3.1-16.2-7.4-23.5-12.5c-3.1-2.2-5.8-4.5-7.9-6.6
		c-2-2.1-3.6-3.7-4.8-4.9l-1-1c-0.1-0.1-0.1-0.1-0.2-0.2l-0.1-0.1c-2.5-2.7-3.7-5-3.7-7.3c0-2.6,1.2-4.9,3.9-7.4l19.2-18.3
		c2.3-1.7,4.3-2.5,6.1-2.5c1.5,0,2.8,0.4,4.3,1.2c1,0.6,2,1.4,3.2,2.3c1.2,1,2.8,2.5,4.8,4.2c1.7,1.6,3.8,3.2,6.1,4.7
		c3.4,2.2,6.8,4.1,10.1,5.3c3.1,1.2,6.4,1.8,9.8,1.8c3.2,0,5.9-0.4,8-1c1.8-0.6,3.3-1.5,4.3-2.3c1-0.9,1.6-1.8,2-3.1
		c0.5-1.4,0.7-2.8,0.7-4.4c0-1.1-0.4-2.1-1.4-3.1c-1.4-1.5-3.2-2.8-5.3-3.9c-2.2-1.2-4.7-2.3-7.1-3.2c-2.6-1-4.9-1.7-6.9-2.5
		c-9-3.1-16.8-6.5-23.5-10.1c-6.9-3.7-12.7-7.9-17.3-12.4c-4.7-4.7-8.4-10-10.7-15.6c-2.3-5.7-3.6-12-3.6-18.9
		c0-7.4,1.5-14.1,4.5-20.3c2.9-6,7.4-11.3,12.9-15.6c5.4-4.2,12-7.5,19.5-9.8c7.5-2.2,15.9-3.4,25.1-3.4c6.9,0,13.6,0.7,20,2.3
		s12.8,4.1,18.9,7.5c2.7,1.6,5.2,3.2,7.4,4.8c2.3,1.6,4.4,3.2,6.1,4.8c2,1.7,3.4,3.2,4.5,4.8c1.6,2.1,2.3,4.1,2.3,5.9
		c0,1.7-0.5,3.3-1.4,4.8c-0.6,1.1-1.5,2.2-2.7,3.4l-16.7,17.8c-2.1,2.1-4.3,3.1-6.8,3.1c-2,0-3.7-0.5-5.3-1.6c-1-0.6-2-1.5-3.1-2.5
		l-1-0.9c-1.4-1.1-2.8-2.3-4.5-3.6c-1.6-1.1-3.3-2.2-5.2-3.2c-1.8-1-3.7-1.7-5.7-2.3c-3.9-1.2-8.1-1-11.6-0.4
		c-1.6,0.4-3.1,0.9-4.3,1.5c-1,0.5-1.7,1.2-2.3,2.1c-0.5,0.7-0.7,1.6-0.7,2.8c0,1.1,0.2,2.1,0.7,2.8c0.6,1,1.7,2,3.3,2.9
		c1.7,1.1,4.1,2.2,6.8,3.2c2.9,1.1,6.4,2.3,10.3,3.6c7.7,2.6,15,5.3,21.6,8.1c6.8,2.9,12.8,6.5,17.8,10.4c5.2,4.2,9.2,9.2,12.2,15.1
		c2.9,5.9,4.4,13,4.4,21.1c0,8.6-1.8,16.6-5.4,23.6s-8.5,13-14.6,17.9c-6,4.9-13.3,8.7-21.4,11.3C596.8,392.9,588,394.2,578.8,394.2
		z M522.7,359.3L522.7,359.3c1.2,1.4,2.8,2.9,4.8,4.9c1.8,1.8,4.1,3.8,6.8,5.8c6.6,4.8,13.8,8.6,21.5,11.4
		c7.5,2.8,15.2,4.2,23.1,4.2c8.4,0,16.2-1.2,23.5-3.6c7.1-2.3,13.4-5.7,18.7-9.8c5.2-4.2,9.3-9.2,12.3-15.1s4.4-12.5,4.4-19.8
		c0-6.9-1.2-12.7-3.6-17.3c-2.3-4.7-5.7-8.8-9.8-12.2c-4.4-3.6-9.7-6.6-15.7-9.3c-6.4-2.7-13.4-5.4-20.9-7.9
		c-4.1-1.4-7.6-2.6-10.7-3.7c-3.3-1.2-6-2.6-8.4-3.9c-2.5-1.6-4.4-3.3-5.8-5.4c-1.5-2.2-2.2-4.8-2.2-7.7c0-2.8,0.7-5.4,2.1-7.5
		c1.4-2,3.1-3.6,5.3-4.8c2-1.1,4.3-1.8,6.8-2.3c4.8-0.9,10.4-1.1,15.6,0.5c2.5,0.7,4.9,1.7,7.1,2.9c2.2,1.1,4.3,2.5,6.3,3.9
		c1.8,1.4,3.6,2.7,5,3.9l1.1,1c0.9,0.7,1.7,1.4,2.3,1.8c0.1,0.1,0.1,0.1,0.2,0.1c0.1,0,0.4-0.1,0.7-0.5l16.6-17.7
		c0.9-1,1.4-1.6,1.6-2c0-0.1,0.1-0.1,0.1-0.2c-0.1-0.1-0.2-0.5-0.6-1c-0.7-1.1-2-2.2-3.3-3.4c-1.6-1.4-3.4-2.8-5.5-4.2
		c-2.1-1.5-4.3-2.9-6.8-4.3c-5.4-2.9-11.1-5.3-16.7-6.6c-5.7-1.4-11.7-2.1-17.9-2.1c-8.4,0-15.9,1-22.6,3.1
		c-6.5,2-12.2,4.8-16.8,8.4c-4.5,3.4-8,7.7-10.4,12.7c-2.4,5-3.7,10.4-3.7,16.5c0,5.8,1,11.1,2.9,15.6c2,4.7,4.9,9,8.8,12.8
		c4.1,3.9,9.2,7.7,15.4,10.9c6.3,3.4,13.8,6.6,22.2,9.6c2,0.6,4.3,1.5,7,2.5c2.8,1.1,5.7,2.3,8.4,3.8c2.8,1.6,5.3,3.4,7.3,5.5
		c2.5,2.6,3.8,5.7,3.8,9c0,2.5-0.4,4.9-1.1,7.1c-0.9,2.5-2.2,4.7-4.2,6.5c-1.8,1.8-4.4,3.2-7.5,4.3c-2.9,1-6.5,1.5-10.7,1.5
		c-4.5,0-8.8-0.7-12.9-2.3c-3.9-1.5-7.9-3.6-11.8-6.1c-2.6-1.8-5-3.6-7-5.4c-1.8-1.6-3.4-2.9-4.7-3.9c-1-0.9-1.6-1.2-2-1.5
		c-0.2,0.1-0.5,0.2-1,0.6l-18.6,17.7c-0.5,0.5-0.7,0.7-1,1c0.1,0.2,0.5,0.6,1,1.2c0.2,0.1,0.4,0.4,0.6,0.6
		C522.2,358.8,522.5,359.1,522.7,359.3z M520.6,357.5c0.1,0.1,0.4,0.1,0.5,0.2C520.9,357.7,520.8,357.6,520.6,357.5z"/>
</g>
<g>
	<path fill="#F4D345" d="M654,307.3c0-7.6,1-15,2.9-22.1c2-7,4.8-13.6,8.4-19.9c3.6-6.1,8-11.8,13-16.8s10.7-9.3,16.8-13
		c6.1-3.6,12.8-6.4,19.8-8.4c7.1-2,14.5-2.9,22.1-2.9s15,1,22.1,2.9c7.1,2,13.8,4.8,19.9,8.4c6.1,3.6,11.8,7.9,16.8,13
		c5,5,9.5,10.7,13,16.8c3.6,6.1,6.4,12.8,8.4,19.9c2,7,2.9,14.4,2.9,22.1c0,7.6-1,15-2.9,22.1c-2,7.1-4.8,13.6-8.4,19.8
		c-3.6,6.1-7.9,11.7-13,16.7c-5,5-10.7,9.3-16.8,13c-6.1,3.6-12.8,6.4-19.9,8.4c-7.1,2-14.5,2.9-22.1,2.9c-7.7,0-15.1-1-22.1-2.9
		c-7.1-2-13.6-4.8-19.8-8.4c-6.1-3.6-11.8-8-16.8-13s-9.3-10.6-13-16.7c-3.6-6.1-6.4-12.7-8.4-19.8C655,322.4,654,315.1,654,307.3z"
		/>
	<path fill="#D8B10E" d="M737,394.6c-8,0-15.9-1-23.2-3.1c-7.4-2.1-14.4-5-20.9-8.8c-6.4-3.8-12.4-8.4-17.7-13.6
		c-5.3-5.3-9.8-11.2-13.6-17.6s-6.8-13.4-8.8-20.8c-2.1-7.4-3.1-15.2-3.1-23.2s1-15.9,3.1-23.2c2.1-7.4,5-14.4,8.8-20.9
		s8.4-12.4,13.6-17.7c5.3-5.3,11.2-10,17.7-13.6c6.4-3.7,13.4-6.8,20.9-8.8c7.4-2.1,15.2-3.2,23.3-3.2c8,0,15.7,1.1,23.2,3.2
		c7.4,2.1,14.5,5,20.9,8.8s12.4,8.4,17.7,13.6c5.3,5.3,10,11.3,13.6,17.8c3.8,6.5,6.8,13.5,8.8,20.9c2.1,7.4,3.2,15.2,3.2,23.2
		s-1.1,15.9-3.2,23.2c-2.1,7.4-5,14.4-8.8,20.8s-8.4,12.3-13.6,17.6c-5.3,5.3-11.3,9.8-17.7,13.6c-6.5,3.8-13.5,6.8-20.9,8.8
		C752.8,393.6,745,394.6,737,394.6z M737,228.4c-7.3,0-14.3,1-21,2.8c-6.6,1.8-13,4.5-18.8,8c-5.8,3.3-11.2,7.5-15.9,12.3
		c-4.8,4.8-8.8,10.2-12.3,16c-3.4,5.9-6.1,12.2-8,18.8c-1.8,6.6-2.8,13.8-2.8,21c0,7.3,1,14.3,2.8,21c1.8,6.6,4.5,13,8,18.7
		c3.4,5.8,7.6,11.2,12.3,15.9c4.8,4.8,10.1,8.8,16,12.3c5.8,3.4,12.2,6,18.8,8c6.6,1.8,13.8,2.8,21,2.8c7.1,0,14.3-1,20.9-2.8
		c6.8-1.8,13-4.5,18.8-8c5.8-3.4,11.2-7.6,16-12.3c4.8-4.8,9-10.1,12.3-15.9c3.4-5.8,6-12,8-18.8c1.8-6.6,2.8-13.6,2.8-20.9
		s-1-14.3-2.8-20.9s-4.5-13-8-18.9c-3.4-5.9-7.5-11.2-12.3-16c-4.8-4.8-10.2-9-16-12.3c-5.8-3.4-12.2-6-18.9-8
		C751.3,229.4,744.2,228.4,737,228.4z"/>
</g>
<g>
	<path fill="#F4D345" d="M836.1,231.3c0-1.4,0.4-2.5,1.2-3.3c0.7-1,2-1.4,3.6-1.4h35.5c1,0,2.1,0.2,3.2,0.7c1.1,0.5,2.1,1.4,2.8,2.6
		c9.2,14.9,18.3,29.5,27.4,43.9c9.1,14.4,18.2,29,27.5,43.9v-87c0.2-1.4,0.9-2.3,1.7-3.1c0.9-0.7,1.8-1.1,3.1-1.1h31
		c1.5,0,2.8,0.4,3.8,1.2c1,0.9,1.5,2,1.5,3.6v152.4c0,1.5-0.5,2.5-1.4,3.2s-2.1,1-3.6,1h-34.8c-1,0-1.7-0.4-2.5-1
		c-0.7-0.6-1.5-1.5-2.3-2.6c-9.6-16-19.2-31.7-28.6-47.3s-18.9-31.3-28.6-47.3V383c0,1.6-0.4,2.8-1.1,3.6c-0.7,0.7-2.1,1.2-3.9,1.2
		h-30.8c-1.7,0-2.8-0.5-3.7-1.4c-0.7-0.9-1.1-2-1.1-3.3L836.1,231.3L836.1,231.3z"/>
	<path fill="#D8B10E" d="M973.4,392.2h-34.7c-2,0-3.8-0.7-5.4-2.1c-1-0.9-1.8-2-2.8-3.3l-0.2-0.4l-28.6-47.3
		c-6.8-11.1-13.6-22.5-20.6-34.2v78c0,2.7-0.7,4.9-2.2,6.5c-1.6,1.7-3.9,2.6-7.1,2.6H841c-3.7,0-5.8-1.6-6.9-2.9
		c-1.4-1.7-2.1-3.8-2.1-6V231.3c0-2.3,0.7-4.4,2.2-6.1c1.1-1.4,3.2-2.9,6.9-2.9h35.5c1.6,0,3.3,0.4,4.9,1.1c1.8,0.9,3.4,2.2,4.7,4.2
		c9.2,14.9,18.4,29.6,27.4,44c6.5,10.3,13,20.6,19.5,31.2v-72.5l0.1-0.5c0.5-2.2,1.6-4.1,3.2-5.4c1.6-1.4,3.7-2.1,5.8-2.1h31
		c2.6,0,4.7,0.7,6.5,2.2c1.5,1.1,3.1,3.3,3.1,6.9v152.4c0,3.6-1.6,5.5-2.9,6.6C978,391.5,975.9,392.2,973.4,392.2z M938.9,383.6
		h34.4c0.2,0,0.5,0,0.6,0V231.3c0-0.1,0-0.2,0-0.2c-0.1-0.1-0.4-0.2-1-0.2h-31c-0.1,0-0.2,0-0.2,0.1c-0.1,0.1-0.1,0.2-0.2,0.4v101.5
		l-8-12.8c-9.2-14.9-18.4-29.5-27.5-43.9c-9-14.3-18.2-29.1-27.4-43.9c-0.2-0.2-0.6-0.7-1-1c-0.5-0.2-1-0.4-1.4-0.4h-35.5
		c-0.2,0-0.4,0-0.4,0c0,0.1-0.1,0.2-0.1,0.5v151.9c0,0.1,0,0.2,0,0.4c0.1,0,0.2,0,0.5,0h30.8c0.2,0,0.5,0,0.7,0c0-0.1,0-0.2,0-0.5
		V274.5l8,13.1c9.8,16.1,19.4,31.9,28.6,47.3l28.5,47.1C938.1,382.7,938.6,383.2,938.9,383.6z"/>
</g>
<rect x="388.1" y="26.7" fill="#D8B10E" width="8.6" height="166.1"/>
<rect x="297.1" y="224.1" fill="#D8B10E" width="8.6" height="166.1"/>
<rect x="62.4" y="224.1" fill="#D8B10E" width="8.6" height="160"/>
<rect x="933.7" y="226.5" fill="#D8B10E" width="8.6" height="157.5"/>
<rect x="735.8" y="26.7" fill="#D8B10E" width="8.6" height="166.1"/>
<rect x="732.7" y="224.1" fill="#D8B10E" width="8.6" height="166.1"/>
<rect x="100.8" y="340.9" transform="matrix(0.5288 0.8487 -0.8487 0.5288 361.8634 38.5275)" fill="#D8B10E" width="90.9" height="8.6"/>
<rect x="814.7" y="259.6" transform="matrix(0.5288 0.8487 -0.8487 0.5288 629.2312 -605.7128)" fill="#D8B10E" width="90.9" height="8.6"/>
<rect x="495" y="61.9" fill="#D8B10E" width="42" height="8.6"/>
<rect x="532.7" y="91.2" fill="#D8B10E" width="8.6" height="57.8"/>
<polygon fill="#FFFFFF" points="199.8,62.8 196.7,50.5 190,69.3 191.4,54.3 172.5,71.4 190,49.3 178.9,50.1 193.3,43.4 196.5,25.4 
	197.8,39.7 218.6,22.1 201.3,42.9 212.8,41 199.9,49 "/>
<polygon fill="#FFFFFF" points="355.9,184.1 352.8,170.2 344.7,191 346.8,174.2 325,192.7 345.3,168.6 333,169.2 349.2,162.2 
	353.4,142.2 354.4,158.3 378.1,139.4 358.1,161.8 371,160.2 356.5,168.7 "/>
<polygon fill="#FFFFFF" points="508.1,59.6 506,46.9 497.8,65.3 500.5,50.3 480.1,65.7 499.4,45.1 488.3,45.1 503.2,39.6 
	507.9,21.8 508.1,36.3 530.4,20.4 511.2,39.7 522.9,38.8 509.3,45.7 "/>
<polygon fill="#FFFFFF" points="638.1,156.6 640.3,168.8 648.1,150.9 645.7,165.4 665.3,149.9 646.8,170.4 657.7,170.2 643.3,176 
	639.1,193.3 638.6,179.3 617.4,195.3 635.5,176 624.1,177.1 637.1,170.1 "/>
<polygon fill="#FFFFFF" points="715.5,60.8 711.9,47.3 704.8,68.2 706.1,51.6 685.6,70.9 704.4,46.1 692.2,47.3 707.9,39.4 
	711,19.4 712.8,35.3 735.3,15.2 716.6,38.7 729.4,36.4 715.4,45.6 "/>
<polygon fill="#FFFFFF" points="31.1,228.9 35.1,241.3 40.7,221.6 40.3,237 58.5,218.1 42.1,242.1 53.4,240.4 39.2,248.3 37.2,267 
	34.8,252.4 14.9,272.1 31.1,249.5 19.4,252.2 31.9,243.1 "/>
<polygon fill="#FFFFFF" points="202.3,351 206.1,363 211.7,344 211.1,358.9 229,341 212.8,364 223.8,362.4 209.9,369.9 207.8,388.1 
	205.6,373.8 185.9,392.5 202,371 190.7,373.4 203,364.7 "/>
<polygon fill="#FFFFFF" points="268.6,229.3 272.4,241.3 278.1,222.3 277.5,237.3 295.4,219.3 279.2,242.3 290.1,240.7 276.2,248.2 
	274.1,266.4 271.9,252.2 252.3,270.8 268.4,249.3 257.1,251.8 269.3,243.1 "/>
<polygon fill="#FFFFFF" points="405.6,226.4 408.1,238.8 415.7,220.5 413.5,235.3 433.3,219.3 414.7,240.4 425.8,240.1 411.2,246 
	407,263.8 406.4,249.5 384.9,265.9 403.2,246.1 391.6,247.4 404.8,240.1 "/>
<polygon fill="#FFFFFF" points="537.5,232.6 540.6,246.8 548.9,225.6 546.7,242.7 568.9,224 548.2,248.5 560.8,247.9 544.1,255.1 
	539.8,275.5 538.8,259 514.5,278.3 535,255.4 521.9,257 536.7,248.3 "/>
<polygon fill="#FFFFFF" points="704.6,351.8 705.8,364.1 715,346.9 711.5,361.3 732.3,347.4 712.2,366.3 723,366.9 708.2,371.5 
	702.5,388.4 703.3,374.4 680.6,388.6 700.4,370.9 689,371 702.5,365.1 "/>
<polygon fill="#FFFFFF" points="840.6,358.2 844.8,371.4 850.7,350.5 850.2,366.8 869.5,346.9 852.3,372.2 864.1,370.4 849.1,378.7 
	847,398.5 844.4,383 823.4,403.7 840.6,380 828.2,382.8 841.5,373.2 "/>
<polygon fill="#FFFFFF" points="943.5,226 948,239.6 954.1,217.9 953.7,235 973.7,214.2 955.8,240.5 968.2,238.6 952.5,247.4 
	950.4,268 947.7,251.9 925.7,273.5 943.5,248.7 930.7,251.7 944.5,241.6 "/>
<path fill="#FFFFFF" d="M377.6,178.4c-0.4,0-0.7,0-1.1-0.1c-0.5-0.2-54.6-14.3-54.2-68.6c0.4-55.7,53.6-68.7,54.2-68.9
	c1.6-0.6,3.3,0.2,3.9,1.8s-0.2,3.3-1.8,3.9c-0.5,0.2-50.1,15.5-50.1,63.2c0,47.1,49.6,62.5,50.1,62.8c1.6,0.6,2.5,2.3,1.8,3.9
	C380.1,177.6,378.8,178.4,377.6,178.4z"/>
<path fill="#FFFFFF" d="M195.2,87c-1.4,0-2.6-0.9-2.9-2.3c-3.8-14.1-1.7-25.7,5.9-34.2c11.9-13.3,33.8-14.7,42.5-13.4
	c1.7,0.2,2.8,1.8,2.6,3.6c-0.2,1.7-1.8,2.8-3.6,2.6c-7.4-1.1-26.9,0.1-37,11.4c-6.3,6.9-7.7,16.5-4.5,28.5c0.5,1.6-0.5,3.3-2.2,3.8
	C195.7,87,195.5,87,195.2,87z"/>
<path fill="#FFFFFF" d="M508.7,182.1c-1.7,0-3.1-1.4-3.1-3.1V80.2c0-1.7,1.4-3.1,3.1-3.1s3.1,1.4,3.1,3.1v98.7
	C511.8,180.6,510.3,182.1,508.7,182.1z"/>
<path fill="#FFFFFF" d="M508.7,55.9c-1.7,0-3.1-1.4-3.1-3.1V41.3c0-1.7,1.4-3.1,3.1-3.1s3.1,1.4,3.1,3.1v11.6
	C511.8,54.6,510.3,55.9,508.7,55.9z"/>
<path fill="#FFFFFF" d="M644.5,180.9c-1.7,0-3.1-1.4-3.1-3.1V42.4c0-1.7,1.4-3.1,3.1-3.1c1.7,0,3.1,1.4,3.1,3.1v135.4
	C647.6,179.4,646.2,180.9,644.5,180.9z"/>
<path fill="#FFFFFF" d="M207.9,375.4c-1.7,0-3.1-1.4-3.1-3.1V240.6c0-1.7,1.4-3.1,3.1-3.1s3.1,1.4,3.1,3.1v131.7
	C211,374.1,209.6,375.4,207.9,375.4z"/>
<path fill="#FFFFFF" d="M42,375.4c-1.7,0-3.1-1.4-3.1-3.1V240.6c0-1.7,1.4-3.1,3.1-3.1c1.7,0,3.1,1.4,3.1,3.1v131.7
	C45.1,374.1,43.7,375.4,42,375.4z"/>
<path fill="#FFFFFF" d="M274.3,375.4c-1.7,0-3.1-1.4-3.1-3.1V240.6c0-1.7,1.4-3.1,3.1-3.1s3.1,1.4,3.1,3.1v131.7
	C277.3,374.1,276,375.4,274.3,375.4z"/>
<path fill="#FFFFFF" d="M712.3,182.1c-1.7,0-3.1-1.4-3.1-3.1V42.6c0-1.7,1.4-3.1,3.1-3.1c1.7,0,3.1,1.4,3.1,3.1V179
	C715.4,180.6,714.1,182.1,712.3,182.1z"/>
<path fill="#FFFFFF" d="M144.5,314.8c-1.7,0-3.1-1.4-3.1-3.1v-70.5c0-1.7,1.4-3.1,3.1-3.1s3.1,1.4,3.1,3.1v70.5
	C147.6,313.4,146.2,314.8,144.5,314.8z"/>
<path fill="#FFFFFF" d="M952.8,377.4c-1.7,0-3.1-1.4-3.1-3.1V242.6c0-1.7,1.4-3.1,3.1-3.1s3.1,1.4,3.1,3.1v131.7
	C955.9,376,954.5,377.4,952.8,377.4z"/>
<path fill="#FFFFFF" d="M849.7,377.4c-1.7,0-3.1-1.4-3.1-3.1v-100c0-1.7,1.4-3.1,3.1-3.1c1.7,0,3.1,1.4,3.1,3.1v100
	C852.8,376,851.4,377.4,849.7,377.4z"/>
<path fill="#FFFFFF" d="M231.4,172.3c-0.6,0-1.2,0-1.8,0H228c-1.7,0-3.1-1.4-3.1-3.1c0-1.7,1.4-3.1,3.1-3.1l0,0h1.6
	c16.2,0.1,29.7-1.2,31.8-17.7c0.2-1.7,1.7-2.8,3.4-2.7c1.7,0.2,2.8,1.7,2.7,3.4C264.7,171.3,244.5,172.3,231.4,172.3z"/>
<path fill="#FFFFFF" d="M403.9,283.7c-1.4,0-2.6-0.9-2.9-2.3c-3.8-14.1-1.7-25.7,5.9-34.2c11.9-13.3,33.8-14.7,42.5-13.4
	c1.7,0.2,2.8,1.8,2.6,3.6c-0.2,1.7-1.8,2.8-3.6,2.6c-7.4-1.1-26.9,0.1-37,11.4c-6.3,6.9-7.7,16.5-4.5,28.5c0.5,1.6-0.5,3.3-2.2,3.8
	C404.5,283.7,404.2,283.7,403.9,283.7z"/>
<path fill="#FFFFFF" d="M440,368.9c-0.6,0-1.2,0-1.7,0h-1.6c-1.7,0-3.1-1.4-3.1-3.1s1.4-3.1,3.1-3.1l0,0h1.6
	c16.2,0.1,29.7-1.2,31.8-17.7c0.2-1.7,1.7-2.8,3.4-2.7c1.7,0.2,2.8,1.7,2.7,3.4C473.3,368,453.2,368.9,440,368.9z"/>
<path fill="#FFFFFF" d="M541.5,282.5c-1.4,0-2.6-0.9-2.9-2.3c-3.8-14.1-1.7-25.7,5.9-34.2c11.9-13.3,33.8-14.7,42.5-13.4
	c1.7,0.2,2.8,1.8,2.6,3.6s-1.8,2.8-3.6,2.6c-7.4-1.1-26.9,0.1-37,11.4c-6.3,6.9-7.7,16.5-4.5,28.5c0.5,1.6-0.5,3.3-2.2,3.8
	C542.1,282.5,541.8,282.5,541.5,282.5z"/>
<path fill="#FFFFFF" d="M577.7,367.7c-0.6,0-1.2,0-1.7,0h-1.6c-1.7,0-3.1-1.4-3.1-3.1s1.4-3.1,3.1-3.1l0,0h1.6
	c16.2,0.1,29.7-1.2,31.8-17.7c0.2-1.7,1.7-2.8,3.4-2.7c1.7,0.2,2.8,1.7,2.7,3.4C611,366.8,590.8,367.7,577.7,367.7z"/>
<path fill="#FFFFFF" d="M720.5,376.1c-0.4,0-0.7,0-1.1-0.1c-0.5-0.2-54.6-14.3-54.2-68.6c0.4-55.7,53.6-68.7,54.2-68.9
	c1.6-0.6,3.3,0.2,3.9,1.8c0.6,1.6-0.2,3.3-1.8,3.9c-0.5,0.2-50.1,15.5-50.1,63.2c0,47.1,49.6,62.5,50.1,62.8
	c1.6,0.6,2.5,2.3,1.8,3.9C722.9,375.4,721.7,376.1,720.5,376.1z"/>
</svg>
