<?xml version="1.0" encoding="utf-8"?>
<!-- Generator: Adobe Illustrator 18.1.1, SVG Export Plug-In . SVG Version: 6.00 Build 0)  -->
<svg version="1.1" id="Layer_1" xmlns="http://www.w3.org/2000/svg" xmlns:xlink="http://www.w3.org/1999/xlink" x="0px" y="0px"
	 viewBox="0 0 800 431.3" enable-background="new 0 0 800 431.3" xml:space="preserve">
<g>
	<path fill="#6911B7" d="M38.4,123.4c1,0.8,2.3,1.9,3.8,3.3c1.6,1.4,3.3,2.8,5.3,4.1c3,2,6,3.6,8.9,4.7c2.9,1.1,6,1.7,9.3,1.7
		c3,0,5.5-0.3,7.6-1c2-0.7,3.6-1.6,4.8-2.7c1.2-1.1,2-2.4,2.5-3.9c0.5-1.5,0.8-3,0.8-4.7c0-1.8-0.7-3.5-2.1-4.9
		c-1.4-1.4-3.1-2.7-5.1-3.8c-2-1.1-4.1-2.1-6.3-2.9c-2.2-0.8-4.1-1.5-5.7-2c-7.1-2.5-13.3-5.1-18.6-8c-5.3-2.9-9.7-6-13.3-9.5
		c-3.5-3.5-6.2-7.4-8-11.6c-1.8-4.2-2.7-8.9-2.7-14.1c0-5.5,1.1-10.5,3.3-14.9c2.2-4.5,5.4-8.3,9.5-11.5c4.1-3.2,9-5.6,14.8-7.4
		c5.8-1.7,12.2-2.6,19.4-2.6c5.4,0,10.5,0.6,15.4,1.8c4.9,1.2,9.8,3.1,14.5,5.8c2,1.2,3.9,2.4,5.7,3.7c1.8,1.3,3.4,2.5,4.7,3.7
		c1.4,1.2,4.9-8.4,5.8-7.4c2.5,2.8,3.6,5.7,3.8,6.4c0.4,1.6-0.9,3.6-2.2,5.2c-0.5,0.6-4.6,5.4-5.4,6.2L95.9,71.5c-1,1-2,1.5-3,1.5
		c-0.8,0-1.6-0.2-2.3-0.7c-0.7-0.5-1.4-1.1-2.3-1.8l-0.8-0.7c-1.2-1-2.5-2-3.9-3.1c-1.4-1.1-3-2-4.6-2.9c-1.7-0.9-3.4-1.6-5.2-2.1
		c-1.8-0.6-3.7-0.8-5.6-0.8c-1.9,0-3.8,0.2-5.5,0.5c-1.7,0.3-3.2,0.8-4.5,1.5c-1.3,0.7-2.3,1.6-3.1,2.8c-0.8,1.2-1.2,2.6-1.2,4.2
		c0,1.7,0.4,3.1,1.2,4.3c0.8,1.2,2.1,2.3,3.7,3.4c1.7,1,3.7,2,6.1,2.9c2.4,0.9,5.3,1.9,8.5,3c6.2,2.1,12,4.2,17.3,6.5
		c5.3,2.3,9.8,5,13.7,8c3.8,3.1,6.8,6.8,9,11.1c2.2,4.3,3.2,9.5,3.2,15.7c0,6.5-1.3,12.4-4,17.6c-2.7,5.3-6.3,9.8-10.9,13.5
		c-4.6,3.7-10.1,6.6-16.3,8.6c-6.2,2-13,3.1-20.2,3.1c-6.8,0-13.4-1.2-20-3.6c-6.5-2.4-12.6-5.7-18.3-9.8c-2.4-1.7-4.3-3.4-6-5.1
		c-1.6-1.7-2.9-3-3.8-4l-0.3-0.3c-0.1-0.1-0.1-0.2-0.2-0.2c-0.1,0-0.1-0.1-0.2-0.1c-0.1-0.1-0.1-0.2-0.2-0.2c-0.1,0-0.1-0.1-0.2-0.1
		c-1.4-1.5-5.8-6.9-6.4-11.6c-0.1-1,5,5.9,6.4,4.7l15.3-14.6c1.2-0.9,2.2-1.3,3-1.3c0.5,0,1.1,0.2,1.7,0.5
		C36.9,122.2,37.6,122.7,38.4,123.4z"/>
	<path fill="#6911B7" d="M126.9,100.4c0-6.2,0.8-12.2,2.4-18c1.6-5.7,3.9-11.1,6.8-16.2c2.9-5,6.5-9.6,10.6-13.7
		c4.1-4.1,8.7-7.6,13.7-10.6c5-2.9,10.4-5.2,16.1-6.8c5.8-1.6,11.8-2.4,18-2.4c6.2,0,12.2,0.8,18,2.4c5.8,1.6,11.2,3.9,16.2,6.8
		c5,2.9,9.6,6.4,13.7,10.6c4.1,4.1,7.7,8.7,10.6,13.7c2.9,5,5.2,10.4,6.8,16.2c1.6,5.7,2.4,11.7,2.4,18c0,6.2-0.8,12.2-2.4,18
		c-1.6,5.7-3.9,11.1-6.8,16.1c-2.9,5-6.4,9.5-10.6,13.6c-4.1,4.1-8.7,7.6-13.7,10.6c-5,2.9-10.4,5.2-16.2,6.8
		c-5.8,1.6-11.8,2.4-18,2.4c-6.3,0-12.3-0.8-18-2.4c-5.8-1.6-11.1-3.9-16.1-6.8c-5-2.9-9.6-6.5-13.7-10.6
		c-4.1-4.1-7.6-8.6-10.6-13.6c-2.9-5-5.2-10.3-6.8-16.1C127.7,112.6,126.9,106.6,126.9,100.4z"/>
	<path fill="#6911B7" d="M278.1,38.6c0-1.2,0.3-2.2,1-2.9c0.7-0.7,1.5-1.1,2.4-1.1h84.6c1.4,0,2.4,0.4,3.1,1.1c0.7,0.8,1,1.8,1,3.1
		l2.3,12.2c0,9.6-0.9,11-1.7,11.9c-0.7,0.9-2.1,2-4.8,1.9h-53.8v27.4H352c1.1,0,2.1,0.3,2.8,0.9c0.8,0.6,1.1,1.6,1.1,3l2.3,11.9
		c0,9.9-0.9,10.9-1.6,11.8c-0.7,0.9-2.5,1.7-4.5,1.7h-39.9l2.2,31c0,2.5,0.5,13.1-4.3,13.3h-29c-2.1-0.3-7.3-1.1-7.8-13.6
		L278.1,38.6z"/>
	<path fill="#6911B7" d="M387.6,38.5c0-1.1,0.3-2,1-2.7c0.6-0.8,1.6-1.1,2.9-1.1h26c0.9,0,1.8,0.4,2.8,1.1c1,0.7,1.5,1.7,1.5,2.8
		l2.3,114c0,11.2-3.8,13.4-6.7,13.4h-26c-2.6,0-7.9-2-8.5-12.8L387.6,38.5z"/>
	<path fill="#6911B7" d="M443.8,38.6c0-1.2,0.3-2.2,1-3c0.7-0.7,1.6-1.1,2.9-1.1h87.7c1.3,0,2.3,0.4,3,1.1c0.7,0.8,1.1,1.8,1.1,3.1
		v21.9c0,1-0.4,2-1.1,2.9c-0.7,0.9-1.7,1.4-3.1,1.4h-57.3v21.9h44.2c1.1,0,2,0.3,2.8,0.8c0.7,0.5,1.1,1.4,1.1,2.7v19.1
		c0,0.8-0.3,1.6-1,2.4c-0.6,0.8-1.6,1.2-2.8,1.2h-44.3v22.6h59.4c2.7,0,4,1.4,4,4.1l2.4,12.6c0,0.5-0.2,7.1-0.5,10.1
		c-0.1,1.1-0.8,2.1-1.7,2.6c-1.3,0.7-2.9,1-4.4,1h-89.4c-2.5,0-5.3-0.7-6-1.5c-0.6-0.7-2.6-0.9-2.6-11.8L443.8,38.6z"/>
	<path fill="#6911B7" d="M17,198.2c0-1.1,0.3-2,1-2.7c0.6-0.8,1.6-1.1,2.9-1.1h28.9c0.8,0,1.7,0.2,2.6,0.6c0.9,0.4,1.6,1.1,2.3,2.1
		c7.5,12.1,14.9,24,22.3,35.7c7.4,11.7,14.8,23.6,22.4,35.7v-70.8c0.2-1.1,0.7-1.9,1.4-2.5c0.7-0.6,1.5-0.9,2.5-0.9h25.2
		c1.2,0,2.3,0.3,3.1,1c0.8,0.7,1.2,1.6,1.2,2.9l2.4,114.7c0,9.2-2,10.8-2.7,11.3c-0.7,0.6-3.4,1.4-4.6,1.4h-26.2
		c-0.8,0-2.4-0.3-3-0.8c-0.6-0.5-1.2-1.2-1.9-2.1c-7.8-13-15.6-25.8-23.3-38.5c-7.7-12.7-15.4-25.5-23.3-38.5l2.3,66.8
		c0,10.8-1.7,11.4-2.2,12c-0.6,0.6-2.6,1-4.2,1H18.9c-1.4,0-2.9-0.4-3.5-1.1c-0.6-0.7-2.5-1.2-3-12.1L17,198.2z"/>
	<path fill="#6911B7" d="M152.3,198.2c0-1.1,0.3-2,1-2.7c0.6-0.8,1.6-1.1,2.9-1.1h26c0.9,0,1.8,0.4,2.8,1.1c1,0.7,1.5,1.7,1.5,2.8
		l2.3,114.4c0,11.8-3.8,13-6.6,13h-28c-2.6,0-6.5-3.1-6.5-13.2L152.3,198.2z"/>
	<path fill="#6911B7" d="M205.4,198.1c0-1.1,0.4-2,1.1-2.7c0.7-0.8,1.7-1.1,2.9-1.1h26.2c1,0,1.9,0.4,2.7,1.1
		c0.8,0.7,1.3,1.7,1.3,2.8v96.2h48.6c1.1,0,2,0.4,2.7,1.1s1.1,1.7,1.1,2.9l2.3,13.7c0,10.1-1.6,11.2-2.2,12.1
		c-0.7,0.8-2.7,1.5-4,1.5h-79c-4.1,0-8-1.6-8.6-13.3L205.4,198.1z"/>
	<path fill="#6911B7" d="M326.1,283.2c1,0.8,2.3,1.9,3.8,3.3c1.6,1.4,3.3,2.8,5.4,4.1c3,2,6,3.6,8.9,4.7c2.9,1.1,6,1.7,9.3,1.7
		c3,0,5.5-0.3,7.6-1c2-0.7,3.6-1.6,4.8-2.7c1.2-1.1,2-2.4,2.5-3.9c0.5-1.5,0.8-3,0.8-4.7c0-1.8-0.7-3.5-2.1-4.9
		c-1.4-1.4-3.1-2.7-5.1-3.8c-2-1.1-4.1-2.1-6.3-2.9c-2.2-0.8-4.1-1.5-5.7-2c-7.1-2.5-13.3-5.1-18.6-8c-5.3-2.9-9.7-6-13.3-9.5
		c-3.5-3.5-10.9-10.7-13.1-22.5c-0.8-4.5,2.5,2,2.5-3.2c0-5.5,1.1-10.5,3.3-14.9c2.2-4.5,5.4-8.3,9.5-11.5c4.1-3.2,9-5.6,14.8-7.4
		c5.8-1.7,12.2-2.6,19.4-2.6c5.4,0,10.5,0.6,15.4,1.8c4.9,1.2,9.8,3.1,14.5,5.8c2,1.2,3.9,2.4,5.7,3.7c1.8,1.3,3.4,2.5,4.7,3.7
		c1.4,1.2,5.3-8,6.1-6.9c2.2,2.8,2.2,7.3,2.2,8.1c0,0.8-0.6,2.8-1,3.5c-0.4,0.6-1,1.4-1.7,2.2l-17,18c-1,1-2,1.5-3,1.5
		c-0.8,0-1.6-0.2-2.3-0.7c-0.7-0.5-1.4-1.1-2.3-1.8l-0.8-0.7c-1.2-1-2.5-2-3.9-3.1c-1.4-1.1-3-2-4.6-2.9c-1.7-0.9-3.4-1.6-5.2-2.1
		c-1.8-0.6-3.7-0.8-5.6-0.8c-1.9,0-3.8,0.2-5.5,0.5c-1.7,0.3-3.2,0.8-4.5,1.5c-1.3,0.7-2.3,1.6-3.1,2.8c-0.8,1.2-1.1,2.6-1.1,4.2
		c0,1.7,0.4,3.1,1.2,4.3c0.8,1.2,2.1,2.3,3.7,3.4c1.6,1,3.7,2,6.1,2.9c2.4,0.9,5.3,1.9,8.5,3c6.2,2.1,12,4.2,17.3,6.5
		c5.3,2.3,9.8,5,13.7,8c3.8,3.1,6.8,6.8,9,11.1c2.2,4.3,5.5,2.2,5.5,8.4c0,6.5-1.9,16.3-6.3,24.9c-2.7,5.3-6.3,9.8-10.9,13.5
		c-4.6,3.7-10.1,6.6-16.3,8.6c-6.2,2-13,3.1-20.2,3.1c-6.8,0-13.4-1.2-20-3.6c-6.5-2.4-12.6-5.7-18.3-9.8c-2.4-1.7-4.3-3.4-6-5.1
		c-1.6-1.7-2.9-3-3.8-4l-0.3-0.3c-0.1-0.1-0.1-0.2-0.2-0.2c-0.1,0-0.1-0.1-0.2-0.1c-0.1-0.1-0.1-0.2-0.2-0.2c-0.1,0-0.1-0.1-0.2-0.1
		c-1.4-1.5-7.1-8.7-6.7-13c0.1-1,5.3,7.3,6.7,6.1l15.3-14.6c1.2-0.9,2.2-1.3,3-1.3c0.5,0,1.1,0.2,1.7,0.5
		C324.6,281.9,325.3,282.5,326.1,283.2z"/>
	<path fill="#6911B7" d="M438.3,283.2c1,0.8,2.3,1.9,3.8,3.3c1.6,1.4,3.3,2.8,5.4,4.1c3,2,6,3.6,8.9,4.7c2.9,1.1,6,1.7,9.3,1.7
		c3,0,5.5-0.3,7.6-1c2-0.7,3.6-1.6,4.8-2.7c1.2-1.1,2-2.4,2.5-3.9c0.5-1.5,0.8-3,0.8-4.7c0-1.8-0.7-3.5-2.1-4.9
		c-1.4-1.4-3.1-2.7-5.1-3.8c-2-1.1-4.1-2.1-6.3-2.9c-2.2-0.8-4.1-1.5-5.7-2c-7.1-2.5-13.3-5.1-18.6-8c-5.3-2.9-9.7-6-13.3-9.5
		c-3.5-3.5-11.9-13.2-13.5-23.6c-0.7-4.5,2.9,3.1,2.9-2.1c0-5.5,1.1-10.5,3.3-14.9c2.2-4.5,5.4-8.3,9.5-11.5c4.1-3.2,9-5.6,14.8-7.4
		c5.8-1.7,12.2-2.6,19.4-2.6c5.4,0,10.5,0.6,15.4,1.8c4.9,1.2,9.8,3.1,14.5,5.8c2,1.2,3.9,2.4,5.7,3.7c1.8,1.3,3.4,2.5,4.7,3.7
		c1.4,1.2,5.3-7.6,6.2-6.6c3.3,3.9,2.2,8,2.2,8.7c0,0.8-1.5,3.4-1.9,4c-0.4,0.6-1,1.4-1.7,2.2l-16.1,16.5c-1,1-2,1.5-3,1.5
		c-0.8,0-1.6-0.2-2.3-0.7c-0.7-0.5-1.4-1.1-2.3-1.8l-0.8-0.7c-1.2-1-2.5-2-3.9-3.1c-1.4-1.1-3-2-4.6-2.9c-1.7-0.9-3.4-1.6-5.2-2.1
		c-1.8-0.6-3.7-0.8-5.6-0.8c-1.9,0-3.8,0.2-5.5,0.5c-1.7,0.3-3.2,0.8-4.5,1.5c-1.3,0.7-2.3,1.6-3.1,2.8c-0.8,1.2-1.1,2.6-1.1,4.2
		c0,1.7,0.4,3.1,1.2,4.3c0.8,1.2,2.1,2.3,3.7,3.4c1.6,1,3.7,2,6.1,2.9c2.4,0.9,5.3,1.9,8.5,3c6.2,2.1,12,4.2,17.3,6.5
		c5.3,2.3,9.8,5,13.7,8c3.8,3.1,6.8,6.8,9,11.1c2.2,4.3,5.3,3.5,5.3,9.6c0,6.5-2.4,17.6-5.1,22.9c-2.7,5.3-7.3,10.5-11.9,14.2
		c-4.6,3.7-10.1,6.6-16.3,8.6c-6.2,2-13,3.1-20.2,3.1c-6.8,0-13.4-1.2-20-3.6c-6.5-2.4-12.6-5.7-18.3-9.8c-2.4-1.7-4.3-3.4-6-5.1
		c-1.6-1.7-2.9-3-3.8-4l-0.3-0.3c-0.1-0.1-0.1-0.2-0.2-0.2c-0.1,0-0.1-0.1-0.2-0.1c-0.1-0.1-0.1-0.2-0.2-0.2c-0.1,0-0.1-0.1-0.2-0.1
		c-1.4-1.5-7.3-8.4-6.7-13.2c0.1-1,5.4,7.6,6.7,6.3l15.3-14.6c1.2-0.9,2.2-1.3,3-1.3c0.5,0,1.1,0.2,1.7,0.5
		C436.8,281.9,437.5,282.5,438.3,283.2z"/>
	<path fill="#6911B7" d="M526.4,260.1c0-6.2,0.8-12.2,2.4-18c1.6-5.7,3.9-11.1,6.8-16.2c2.9-5,6.5-9.6,10.6-13.7
		c4.1-4.1,8.7-7.6,13.7-10.6c5-2.9,10.4-5.2,16.1-6.8c5.8-1.6,11.8-2.4,18-2.4c6.2,0,12.2,0.8,18,2.4c5.8,1.6,11.2,3.9,16.2,6.8
		c5,2.9,9.6,6.4,13.7,10.6c4.1,4.1,7.7,8.7,10.6,13.7c2.9,5,5.2,10.4,6.8,16.2c1.6,5.7,4.4,8.5,4.4,14.8c0,6.2-1.5,13.1-3.1,18.8
		c-1.6,5.7-5.2,13.5-8.1,18.5c-2.9,5-6.4,9.5-10.6,13.6c-4.1,4.1-8.7,7.6-13.7,10.6c-5,2.9-10.4,5.2-16.2,6.8
		c-5.8,1.6-11.8,2.4-18,2.4c-6.3,0-12.3-0.8-18-2.4c-5.8-1.6-11.1-3.9-16.1-6.8c-5-2.9-9.6-6.5-13.7-10.6
		c-4.1-4.1-16.4-18.5-18.6-29.4c-1.1-5.7,1.9-1,0.3-6.8C526.4,265.9,526.4,266.4,526.4,260.1z"/>
	<path fill="#6911B7" d="M671.1,189.8c3.6,7.4,3.9,6.4,4.5,5.7c0.6-0.8,1.6-1.1,2.9-1.1h28.9c0.8,0,1.7,0.2,2.6,0.6
		c0.9,0.4,1.7,1.1,2.3,2.1c7.5,12.1,14.9,24,22.3,35.7c7.4,11.7,14.8,23.6,22.4,35.7v-70.8c0.2-1.1,0.7-1.9,1.4-2.5
		c0.7-0.6,1.5-0.9,2.5-0.9H786c1.2,0,2.3,0.3,3.1,1c0.8,0.7,1.2,1.6,1.2,2.9l2.4,114.9c0,7.1-1.1,9.7-1.5,10.5
		c-1.2,2.7-6.6,2.1-7.9,2.1h-22.2c-0.8,0-3.4-0.3-4-0.8c-0.6-0.5-2.2-2.2-2.9-3.1c-7.8-13-15.6-25.8-23.3-38.5
		c-7.7-12.7-15.4-25.5-23.3-38.5l2.2,68.8c0,1.3-0.4,7.6-2,9.9c-1.2,1.8-3.8,2.1-5.3,2.1h-25.3c-1.4,0-4.4-1-5.2-2.2
		c-0.5-0.8-1.9-4.6-2.3-10L671.1,189.8z"/>
</g>
<g>
	<g>
		<path fill="#F4D345" d="M37.2,113.5c1,0.8,2.3,1.9,3.8,3.3c1.6,1.4,3.3,2.8,5.3,4.1c3,2,6,3.6,8.9,4.7c2.9,1.1,6,1.7,9.3,1.7
			c3,0,5.5-0.3,7.6-1c2-0.7,3.6-1.6,4.8-2.7c1.2-1.1,2-2.4,2.5-3.9c0.5-1.5,0.8-3,0.8-4.7c0-1.8-0.7-3.5-2.1-4.9
			c-1.4-1.4-3.1-2.7-5.1-3.8c-2-1.1-4.1-2.1-6.3-2.9c-2.2-0.8-4.1-1.5-5.7-2c-7.1-2.5-13.3-5.1-18.6-8c-5.3-2.9-9.7-6-13.3-9.5
			c-3.5-3.5-6.2-7.4-8-11.6c-1.8-4.2-2.7-8.9-2.7-14.1c0-5.5,1.1-10.5,3.3-14.9c2.2-4.5,5.4-8.3,9.5-11.5c4.1-3.2,9-5.6,14.8-7.4
			c5.8-1.7,12.2-2.6,19.4-2.6c5.4,0,10.5,0.6,15.4,1.8c4.9,1.2,9.8,3.1,14.5,5.8c2,1.2,3.9,2.4,5.7,3.7c1.8,1.3,3.4,2.5,4.7,3.7
			c1.4,1.2,2.4,2.3,3.2,3.4c0.8,1.1,1.2,2,1.2,2.7c0,0.8-0.2,1.5-0.6,2.1c-0.4,0.6-1,1.4-1.7,2.2L94.7,61.6c-1,1-2,1.5-3,1.5
			c-0.8,0-1.6-0.2-2.3-0.7c-0.7-0.5-1.4-1.1-2.3-1.8l-0.8-0.7c-1.2-1-2.5-2-3.9-3.1c-1.4-1.1-3-2-4.6-2.9c-1.7-0.9-3.4-1.6-5.2-2.1
			c-1.8-0.6-3.7-0.8-5.6-0.8c-1.9,0-3.8,0.2-5.5,0.5c-1.7,0.3-3.2,0.8-4.5,1.5c-1.3,0.7-2.3,1.6-3.1,2.8c-0.8,1.2-1.2,2.6-1.2,4.2
			c0,1.7,0.4,3.1,1.2,4.3c0.8,1.2,2.1,2.3,3.7,3.4c1.7,1,3.7,2,6.1,2.9c2.4,0.9,5.3,1.9,8.5,3c6.2,2.1,12,4.2,17.3,6.5
			c5.3,2.3,9.8,5,13.7,8c3.8,3.1,6.8,6.8,9,11.1c2.2,4.3,3.2,9.5,3.2,15.7c0,6.5-1.3,12.4-4,17.6c-2.7,5.3-6.3,9.8-10.9,13.5
			c-4.6,3.7-10.1,6.6-16.3,8.6c-6.2,2-13,3.1-20.2,3.1c-6.8,0-13.4-1.2-20-3.6c-6.5-2.4-12.6-5.7-18.3-9.8c-2.4-1.7-4.3-3.4-6-5.1
			c-1.6-1.7-2.9-3-3.8-4l-0.3-0.3c-0.1-0.1-0.1-0.2-0.2-0.2c-0.1,0-0.1-0.1-0.2-0.1c-0.1-0.1-0.1-0.2-0.2-0.2
			c-0.1,0-0.1-0.1-0.2-0.1c-1.4-1.5-2-2.7-2-3.5c0-1,0.7-2.1,2-3.4l15.3-14.6c1.2-0.9,2.2-1.3,3-1.3c0.5,0,1.1,0.2,1.7,0.5
			C35.7,112.2,36.4,112.8,37.2,113.5z"/>
		<path fill="#D8B10E" d="M64.2,161.1c-7.2,0-14.3-1.3-21.2-3.9c-6.8-2.5-13.2-6-19.1-10.2c-2.5-1.8-4.7-3.7-6.4-5.4
			c-1.6-1.7-2.9-3-3.9-4l-0.5-0.5c0,0-0.1-0.1-0.1-0.1l-0.1-0.2c-0.1-0.1-0.1-0.1-0.2-0.2l-0.1-0.1c-2-2.2-3-4.1-3-5.9
			c0-2.1,1-4,3.2-6l15.6-14.9c1.9-1.3,3.5-2,5-2c1.2,0,2.3,0.3,3.5,1c0.8,0.5,1.6,1.1,2.6,1.9c1,0.8,2.3,1.9,3.9,3.4
			c1.4,1.3,3.1,2.6,5,3.8c2.8,1.8,5.5,3.3,8.2,4.3c2.5,1,5.2,1.5,8,1.5c2.6,0,4.8-0.3,6.5-0.8c1.5-0.5,2.7-1.2,3.5-1.9
			c0.8-0.7,1.3-1.5,1.6-2.5c0.4-1.1,0.6-2.3,0.6-3.6c0-0.9-0.3-1.7-1.1-2.5c-1.1-1.2-2.6-2.3-4.3-3.2c-1.8-1-3.8-1.9-5.8-2.6
			c-2.1-0.8-4-1.4-5.6-2c-7.3-2.5-13.7-5.3-19.1-8.2c-5.6-3-10.3-6.4-14.1-10.1c-3.8-3.8-6.8-8.1-8.7-12.7
			c-1.9-4.6-2.9-9.8-2.9-15.4c0-6,1.2-11.5,3.7-16.5c2.4-4.9,6-9.2,10.5-12.7c4.4-3.4,9.8-6.1,15.9-8c6.1-1.8,12.9-2.8,20.4-2.8
			c5.6,0,11.1,0.6,16.3,1.9c5.2,1.3,10.4,3.3,15.4,6.1c2.2,1.3,4.2,2.6,6,3.9c1.9,1.3,3.6,2.6,5,3.9c1.6,1.4,2.8,2.6,3.7,3.9
			c1.3,1.7,1.9,3.3,1.9,4.8c0,1.4-0.4,2.7-1.1,3.9c-0.5,0.9-1.2,1.8-2.2,2.8L97.2,64c-1.7,1.7-3.5,2.5-5.5,2.5c-1.6,0-3-0.5-4.3-1.3
			c-0.8-0.5-1.6-1.2-2.5-2l-0.8-0.7c-1.1-0.9-2.3-1.9-3.7-2.9c-1.3-0.9-2.7-1.8-4.2-2.6c-1.5-0.8-3-1.4-4.6-1.9
			c-3.2-1-6.6-0.8-9.4-0.3c-1.3,0.3-2.5,0.7-3.5,1.2c-0.8,0.4-1.4,1-1.9,1.7c-0.4,0.6-0.6,1.3-0.6,2.3c0,0.9,0.2,1.7,0.6,2.3
			c0.5,0.8,1.4,1.6,2.7,2.4c1.4,0.9,3.3,1.8,5.5,2.6c2.4,0.9,5.2,1.9,8.4,2.9c6.3,2.1,12.2,4.3,17.6,6.6c5.5,2.4,10.4,5.3,14.5,8.5
			c4.2,3.4,7.5,7.5,9.9,12.3c2.4,4.8,3.6,10.6,3.6,17.2c0,7-1.5,13.5-4.4,19.2c-2.9,5.7-6.9,10.6-11.9,14.6
			c-4.9,4-10.8,7.1-17.4,9.2C78.9,160,71.7,161.1,64.2,161.1z M18.6,132.7L18.6,132.7c1,1.1,2.3,2.4,3.9,4c1.5,1.5,3.3,3.1,5.5,4.7
			c5.4,3.9,11.2,7,17.5,9.3c6.1,2.3,12.4,3.4,18.8,3.4c6.8,0,13.2-1,19.1-2.9c5.8-1.9,10.9-4.6,15.2-8c4.2-3.4,7.6-7.5,10-12.3
			c2.4-4.8,3.6-10.2,3.6-16.1c0-5.6-1-10.3-2.9-14.1c-1.9-3.8-4.6-7.2-8-9.9c-3.6-2.9-7.9-5.4-12.8-7.6c-5.2-2.2-10.9-4.4-17-6.4
			c-3.3-1.1-6.2-2.1-8.7-3c-2.7-1-4.9-2.1-6.8-3.2c-2.1-1.3-3.7-2.7-4.7-4.4c-1.2-1.8-1.8-3.9-1.8-6.3c0-2.3,0.6-4.4,1.7-6.1
			c1.1-1.6,2.5-2.9,4.3-3.9c1.6-0.9,3.5-1.5,5.5-1.9c3.9-0.7,8.5-0.9,12.7,0.4c2,0.6,4,1.4,5.8,2.4c1.8,0.9,3.5,2,5.1,3.2
			c1.5,1.1,2.9,2.2,4.1,3.2l0.9,0.8c0.7,0.6,1.4,1.1,1.9,1.5c0.1,0,0.1,0.1,0.2,0.1c0.1,0,0.3-0.1,0.6-0.4l13.5-14.4
			c0.7-0.8,1.1-1.3,1.3-1.6c0-0.1,0.1-0.1,0.1-0.2c-0.1-0.1-0.2-0.4-0.5-0.8c-0.6-0.9-1.6-1.8-2.7-2.8c-1.3-1.1-2.8-2.3-4.4-3.4
			c-1.7-1.2-3.5-2.4-5.5-3.5c-4.4-2.4-9-4.3-13.6-5.4c-4.6-1.1-9.5-1.7-14.6-1.7c-6.8,0-12.9,0.8-18.4,2.5
			c-5.3,1.6-9.9,3.9-13.7,6.8c-3.7,2.8-6.5,6.3-8.5,10.3c-2,4-3,8.5-3,13.4c0,4.7,0.8,9,2.4,12.7c1.6,3.8,4,7.3,7.2,10.4
			c3.3,3.2,7.5,6.3,12.5,8.9c5.1,2.8,11.2,5.4,18.1,7.8c1.6,0.5,3.5,1.2,5.7,2c2.4,0.9,4.6,1.9,6.8,3.1c2.3,1.3,4.3,2.8,5.9,4.5
			c2,2.1,3.1,4.6,3.1,7.3c0,2-0.3,4-0.9,5.8c-0.7,2-1.8,3.8-3.4,5.3c-1.6,1.5-3.6,2.6-6.1,3.5c-2.4,0.8-5.3,1.2-8.7,1.2
			c-3.7,0-7.2-0.6-10.5-1.9c-3.2-1.2-6.4-2.9-9.6-5c-2.1-1.5-4.1-2.9-5.7-4.4c-1.5-1.4-2.8-2.4-3.7-3.2c-0.8-0.7-1.3-1-1.6-1.2
			c-0.2,0.1-0.4,0.2-0.8,0.5l-15.1,14.4c-0.4,0.4-0.6,0.6-0.8,0.8c0.1,0.2,0.4,0.5,0.7,0.9c0.2,0.1,0.4,0.3,0.5,0.5
			C18.2,132.2,18.4,132.4,18.6,132.7z"/>
	</g>
	<g>
		<path fill="#F4D345" d="M125.8,90.4c0-6.2,0.8-12.2,2.4-18c1.6-5.7,3.9-11.1,6.8-16.2c2.9-5,6.5-9.6,10.6-13.7
			c4.1-4.1,8.7-7.6,13.7-10.6c5-2.9,10.4-5.2,16.1-6.8c5.8-1.6,11.8-2.4,18-2.4c6.2,0,12.2,0.8,18,2.4c5.8,1.6,11.2,3.9,16.2,6.8
			c5,2.9,9.6,6.4,13.7,10.6c4.1,4.1,7.7,8.7,10.6,13.7c2.9,5,5.2,10.4,6.8,16.2c1.6,5.7,2.4,11.7,2.4,18c0,6.2-0.8,12.2-2.4,18
			c-1.6,5.7-3.9,11.1-6.8,16.1c-2.9,5-6.4,9.5-10.6,13.6c-4.1,4.1-8.7,7.6-13.7,10.6c-5,2.9-10.4,5.2-16.2,6.8
			c-5.8,1.6-11.8,2.4-18,2.4c-6.3,0-12.3-0.8-18-2.4c-5.8-1.6-11.1-3.9-16.1-6.8c-5-2.9-9.6-6.5-13.7-10.6
			c-4.1-4.1-7.6-8.6-10.6-13.6c-2.9-5-5.2-10.3-6.8-16.1C126.6,102.6,125.8,96.6,125.8,90.4z"/>
		<path fill="#D8B10E" d="M193.4,161.3c-6.5,0-12.9-0.8-18.9-2.5c-6-1.7-11.7-4.1-17-7.2c-5.2-3.1-10.1-6.8-14.4-11.1
			c-4.3-4.3-8-9.1-11.1-14.3c-3.1-5.2-5.5-10.9-7.2-16.9c-1.7-6-2.5-12.4-2.5-18.9c0-6.5,0.8-12.9,2.5-18.9c1.7-6,4.1-11.7,7.2-17
			c3.1-5.3,6.8-10.1,11.1-14.4c4.3-4.3,9.1-8.1,14.4-11.1c5.2-3.1,10.9-5.5,17-7.2c6-1.7,12.4-2.6,19-2.6c6.5,0,12.8,0.9,18.9,2.6
			c6,1.7,11.8,4.1,17,7.2c5.2,3.1,10.1,6.8,14.4,11.1c4.3,4.3,8.1,9.2,11.1,14.5c3.1,5.3,5.5,11,7.2,17c1.7,6,2.6,12.4,2.6,18.9
			c0,6.5-0.9,12.9-2.6,18.9c-1.7,6-4.1,11.7-7.2,16.9c-3.1,5.2-6.8,10-11.1,14.3c-4.3,4.3-9.2,8-14.4,11.1c-5.3,3.1-11,5.5-17,7.2
			C206.2,160.5,199.9,161.3,193.4,161.3z M193.4,26.2c-5.9,0-11.6,0.8-17.1,2.3c-5.4,1.5-10.6,3.7-15.3,6.5
			c-4.7,2.8-9.1,6.1-12.9,10c-3.9,3.9-7.2,8.3-10,13c-2.8,4.8-5,9.9-6.5,15.3c-1.5,5.4-2.3,11.2-2.3,17.1c0,5.9,0.8,11.6,2.3,17.1
			c1.5,5.4,3.7,10.5,6.5,15.2c2.8,4.7,6.2,9.1,10,12.9c3.9,3.9,8.2,7.2,13,10c4.7,2.8,9.9,4.9,15.3,6.5c5.4,1.5,11.2,2.3,17.1,2.3
			c5.8,0,11.6-0.8,17-2.3c5.5-1.5,10.6-3.7,15.3-6.5c4.7-2.8,9.1-6.2,13-10c3.9-3.9,7.3-8.2,10-12.9c2.8-4.7,4.9-9.8,6.5-15.3
			c1.5-5.4,2.3-11.1,2.3-17c0-5.9-0.8-11.6-2.3-17c-1.5-5.4-3.7-10.6-6.5-15.4c-2.8-4.8-6.1-9.1-10-13c-3.9-3.9-8.3-7.3-13-10
			c-4.7-2.8-9.9-4.9-15.4-6.5C205,26.9,199.2,26.2,193.4,26.2z"/>
	</g>
	<g>
		<path fill="#F4D345" d="M276.9,28.7c0-1.2,0.3-2.2,1-2.9c0.7-0.7,1.5-1.1,2.4-1.1H365c1.4,0,2.4,0.4,3.1,1.1c0.7,0.8,1,1.8,1,3.1
			v21.9c0,1-0.4,2-1.1,2.9c-0.7,0.9-1.7,1.4-3.1,1.4h-53.8v27.4h39.7c1.1,0,2.1,0.3,2.8,0.9c0.8,0.6,1.1,1.6,1.1,3v21.1
			c0,1-0.3,2-1,2.9c-0.7,0.9-1.6,1.4-2.8,1.4h-39.9v40.5c0,2.5-1.4,3.8-4.1,3.8h-27c-2.1-0.3-3.2-1.5-3.2-3.7V28.7z"/>
		<path fill="#D8B10E" d="M307.1,159.4l-27.4,0c-3.8-0.5-6.2-3.3-6.2-7.2V28.7c0-2.7,1.1-4.4,2-5.3c1.3-1.3,2.9-2.1,4.7-2.2l0.2,0
			H365c3,0,4.7,1.3,5.7,2.3c1.3,1.4,1.9,3.2,1.9,5.4v21.9c0,1.8-0.6,3.5-1.8,5c-1,1.2-2.8,2.7-5.9,2.7h-50.3v20.4h36.2
			c1.9,0,3.6,0.6,5,1.7c1.1,0.9,2.5,2.6,2.5,5.7v21.1c0,1.8-0.6,3.4-1.7,5c-1.3,1.8-3.3,2.8-5.6,2.8h-36.4v37
			C314.6,156.6,311.7,159.4,307.1,159.4z M280.4,152.4h26.6c0.3,0,0.4,0,0.6,0c0-0.1,0-0.2,0-0.3v-44H351c0,0,0,0,0,0
			c0.3-0.4,0.3-0.7,0.3-0.7V86.2c0-0.1,0-0.3,0-0.3c-0.1,0-0.2-0.1-0.5-0.1h-43.2V51.4h57.3c0.3,0,0.4,0,0.4,0
			c0.3-0.4,0.3-0.6,0.3-0.7V28.8c0-0.4-0.1-0.6-0.1-0.7c-0.1,0-0.2,0-0.5,0h-84.4c0,0,0,0-0.1,0.1c0,0,0,0.2,0,0.5v123.5
			C280.4,152.3,280.4,152.3,280.4,152.4z"/>
	</g>
	<g>
		<path fill="#F4D345" d="M386.4,28.5c0-1.1,0.3-2,1-2.7c0.6-0.8,1.6-1.1,2.9-1.1h26c0.9,0,1.8,0.4,2.8,1.1c1,0.7,1.5,1.7,1.5,2.8
			V152c0,2.6-1.4,3.9-4.3,3.9h-26c-2.6,0-3.9-1.3-3.9-3.9V28.5z"/>
		<path fill="#D8B10E" d="M416.3,159.4h-26c-4.6,0-7.4-2.8-7.4-7.4V28.5c0-1.9,0.6-3.6,1.8-5c0.9-1.1,2.6-2.4,5.6-2.4h26
			c1.6,0,3.2,0.6,4.8,1.7c1.9,1.4,3,3.4,3,5.7V152C424.2,156.6,421.2,159.4,416.3,159.4z M390,152.4c0.1,0,0.2,0,0.4,0h26
			c0.4,0,0.7,0,0.8-0.1c0-0.1,0-0.2,0-0.3V28.5c0,0,0,0,0,0c-0.5-0.3-0.7-0.4-0.8-0.4l-26,0c-0.2,0-0.3,0-0.3,0
			c0,0.1-0.1,0.2-0.1,0.4V152C389.9,152.2,389.9,152.3,390,152.4z"/>
	</g>
	<g>
		<path fill="#F4D345" d="M442.7,28.7c0-1.2,0.3-2.2,1-3c0.7-0.7,1.6-1.1,2.9-1.1h87.7c1.3,0,2.3,0.4,3,1.1c0.7,0.8,1.1,1.8,1.1,3.1
			v21.9c0,1-0.4,2-1.1,2.9c-0.7,0.9-1.7,1.4-3.1,1.4h-57.3v21.9h44.2c1.1,0,2,0.3,2.8,0.8c0.7,0.5,1.1,1.4,1.1,2.7v19.1
			c0,0.8-0.3,1.6-1,2.4c-0.6,0.8-1.6,1.2-2.8,1.2h-44.3v22.6h59.4c2.7,0,4,1.4,4,4.1v22.2c0,0.6-0.2,1.1-0.7,1.6
			c-0.2,1.6-1.4,2.5-3.6,2.5h-89.4c-1.2,0-2.1-0.3-2.8-0.9c-0.7-0.6-1.1-1.6-1.1-2.9V28.7z"/>
		<path fill="#D8B10E" d="M536,159.4h-89.4c-2,0-3.8-0.6-5.1-1.8c-1-0.9-2.2-2.6-2.2-5.5V28.7c0-2.7,1.1-4.4,1.9-5.3
			c0.9-1,2.6-2.2,5.4-2.2h87.7c2.9,0,4.6,1.2,5.6,2.3c0.9,1,2,2.7,2,5.5v21.9c0,1.8-0.6,3.5-1.8,5c-1,1.2-2.8,2.7-5.9,2.7h-53.8
			v14.9h40.7c1.9,0,3.5,0.5,4.8,1.5c1.2,0.8,2.6,2.5,2.6,5.5v19.1c0,1.6-0.6,3.3-1.8,4.6c-0.9,1.1-2.6,2.4-5.5,2.4h-40.8v15.6h55.9
			c4.6,0,7.5,2.9,7.5,7.6v22.2c0,1.2-0.3,2.2-1,3.2C542.2,156.8,540.6,159.4,536,159.4z M446.2,152.4c0.1,0,0.2,0,0.4,0H536
			c0.1,0,0.2,0,0.2,0l0.1-0.6l0.5-0.5v-21.6c0-0.2,0-0.4,0-0.5c-0.1,0-0.2,0-0.4,0h-62.9V99.4h47.8c0.1,0,0.2,0,0.2,0
			c0,0,0.1-0.1,0.1-0.1V80.4c-0.1,0-0.2,0-0.4,0h-47.7V51.4h60.8c0.3,0,0.4,0,0.4,0c0.3-0.4,0.3-0.6,0.3-0.7V28.8
			c0-0.4-0.1-0.6-0.1-0.7c0,0-0.1,0-0.4,0h-87.7c-0.2,0-0.3,0-0.3,0c0,0.1-0.1,0.2-0.1,0.5v123.4
			C446.2,152.2,446.2,152.3,446.2,152.4z"/>
	</g>
	<g>
		<path fill="#F4D345" d="M15.9,188.2c0-1.1,0.3-2,1-2.7c0.6-0.8,1.6-1.1,2.9-1.1h28.9c0.8,0,1.7,0.2,2.6,0.6
			c0.9,0.4,1.6,1.1,2.3,2.1c7.5,12.1,14.9,24,22.3,35.7c7.4,11.7,14.8,23.6,22.4,35.7v-70.8c0.2-1.1,0.7-1.9,1.4-2.5
			c0.7-0.6,1.5-0.9,2.5-0.9h25.2c1.2,0,2.3,0.3,3.1,1c0.8,0.7,1.2,1.6,1.2,2.9v124c0,1.2-0.4,2-1.1,2.6c-0.7,0.6-1.7,0.8-2.9,0.8
			H99.4c-0.8,0-1.4-0.3-2-0.8c-0.6-0.5-1.2-1.2-1.9-2.1c-7.8-13-15.6-25.8-23.3-38.5c-7.7-12.7-15.4-25.5-23.3-38.5v76
			c0,1.3-0.3,2.3-0.9,2.9c-0.6,0.6-1.7,1-3.2,1H19.8c-1.4,0-2.3-0.4-3-1.1c-0.6-0.7-0.9-1.6-0.9-2.7V188.2z"/>
		<path fill="#D8B10E" d="M127.6,319.2H99.4c-1.6,0-3.1-0.6-4.4-1.7c-0.8-0.7-1.5-1.6-2.3-2.6l-0.2-0.3l-23.3-38.5
			c-5.6-9.2-11.2-18.5-16.8-27.8v63.5c0,2.2-0.6,4-1.8,5.3c-1.3,1.4-3.2,2.1-5.8,2.1H19.8c-3,0-4.7-1.3-5.6-2.4
			c-1.1-1.4-1.7-3.1-1.7-4.9V188.2c0-1.9,0.6-3.6,1.8-5c0.9-1.1,2.6-2.4,5.6-2.4h28.9c1.3,0,2.7,0.3,4,0.9c1.5,0.7,2.8,1.8,3.8,3.4
			c7.5,12.1,15,24.1,22.3,35.8c5.3,8.4,10.6,16.8,15.9,25.4v-59l0.1-0.4c0.4-1.8,1.3-3.3,2.6-4.4c1.3-1.1,3-1.7,4.7-1.7h25.2
			c2.1,0,3.8,0.6,5.3,1.8c1.2,0.9,2.5,2.7,2.5,5.6v124c0,2.9-1.3,4.5-2.4,5.4C131.4,318.6,129.7,319.2,127.6,319.2z M99.6,312.2h28
			c0.2,0,0.4,0,0.5,0V188.2c0-0.1,0-0.2,0-0.2c-0.1-0.1-0.3-0.2-0.8-0.2h-25.2c-0.1,0-0.2,0-0.2,0.1c-0.1,0.1-0.1,0.2-0.2,0.3v82.6
			l-6.5-10.4c-7.5-12.1-15-24-22.4-35.7C65.5,213,58,201,50.6,188.9c-0.2-0.2-0.5-0.6-0.8-0.8c-0.4-0.2-0.8-0.3-1.1-0.3H19.8
			c-0.2,0-0.3,0-0.3,0c0,0.1-0.1,0.2-0.1,0.4v123.6c0,0.1,0,0.2,0,0.3c0.1,0,0.2,0,0.4,0h25.1c0.2,0,0.4,0,0.6,0c0-0.1,0-0.2,0-0.4
			v-88.4l6.5,10.7c7.8,12.8,15.7,25.8,23.3,38.5l23.2,38.3C98.9,311.4,99.3,311.8,99.6,312.2z"/>
	</g>
	<g>
		<path fill="#F4D345" d="M151.1,188.2c0-1.1,0.3-2,1-2.7c0.6-0.8,1.6-1.1,2.9-1.1h26c0.9,0,1.8,0.4,2.8,1.1c1,0.7,1.5,1.7,1.5,2.8
			v123.5c0,2.6-1.4,3.9-4.3,3.9h-26c-2.6,0-3.9-1.3-3.9-3.9V188.2z"/>
		<path fill="#D8B10E" d="M181,319.2h-26c-4.6,0-7.4-2.8-7.4-7.4V188.2c0-1.9,0.6-3.6,1.8-5c0.9-1.1,2.6-2.4,5.6-2.4h26
			c1.6,0,3.2,0.6,4.8,1.7c1.9,1.4,3,3.4,3,5.7v123.5C188.9,316.3,185.9,319.2,181,319.2z M154.7,312.1c0.1,0,0.2,0,0.4,0h26
			c0.4,0,0.7,0,0.8-0.1c0-0.1,0-0.2,0-0.3V188.3c0,0,0,0,0,0c-0.5-0.3-0.7-0.4-0.8-0.4l-26,0c-0.2,0-0.3,0-0.3,0
			c0,0.1-0.1,0.2-0.1,0.4v123.5C154.6,311.9,154.6,312,154.7,312.1z"/>
	</g>
	<g>
		<path fill="#F4D345" d="M204.3,188.2c0-1.1,0.4-2,1.1-2.7c0.7-0.8,1.7-1.1,2.9-1.1h26.2c1,0,1.9,0.4,2.7,1.1
			c0.8,0.7,1.3,1.7,1.3,2.8v96.2h48.6c1.1,0,2,0.4,2.7,1.1s1.1,1.7,1.1,2.9v23.3c0,1-0.3,1.9-1,2.7c-0.7,0.8-1.6,1.3-2.9,1.3h-79
			c-2.6,0-3.9-1.3-3.9-3.9V188.2z"/>
		<path fill="#D8B10E" d="M287.2,319.2h-79c-4.6,0-7.4-2.8-7.4-7.4V188.2c0-1.9,0.7-3.7,2-5.1c1-1,2.7-2.3,5.5-2.3h26.2
			c1.8,0,3.6,0.7,5,1.9c1.6,1.3,2.4,3.2,2.5,5.3l0,0.2v92.7h45.1c1.9,0,3.7,0.7,5.1,2c1,1,2.3,2.7,2.3,5.5v23.3c0,1.8-0.6,3.5-1.8,5
			C291.8,317.7,290.1,319,287.2,319.2L287.2,319.2z M207.8,312.1c0.1,0,0.2,0,0.4,0h78.9c0.2,0,0.3,0,0.3-0.1
			c0.2-0.2,0.2-0.4,0.2-0.5v-23.3c0-0.2,0-0.3,0-0.4c-0.1-0.1-0.1-0.1-0.3-0.1H235v-99.6c0-0.2-0.1-0.2-0.1-0.3
			c-0.3-0.2-0.4-0.2-0.5-0.2h-26.2c-0.2,0-0.4,0-0.4,0c-0.1,0.1-0.1,0.1-0.1,0.3v123.6C207.8,311.9,207.8,312,207.8,312.1z"/>
	</g>
	<g>
		<path fill="#F4D345" d="M325,273.2c1,0.8,2.3,1.9,3.8,3.3c1.6,1.4,3.3,2.8,5.4,4.1c3,2,6,3.6,8.9,4.7c2.9,1.1,6,1.7,9.3,1.7
			c3,0,5.5-0.3,7.6-1c2-0.7,3.6-1.6,4.8-2.7c1.2-1.1,2-2.4,2.5-3.9c0.5-1.5,0.8-3,0.8-4.7c0-1.8-0.7-3.5-2.1-4.9
			c-1.4-1.4-3.1-2.7-5.1-3.8c-2-1.1-4.1-2.1-6.3-2.9c-2.2-0.8-4.1-1.5-5.7-2c-7.1-2.5-13.3-5.1-18.6-8c-5.3-2.9-9.7-6-13.3-9.5
			c-3.5-3.5-6.2-7.4-8-11.6c-1.8-4.2-2.7-8.9-2.7-14.1c0-5.5,1.1-10.5,3.3-14.9c2.2-4.5,5.4-8.3,9.5-11.5c4.1-3.2,9-5.6,14.8-7.4
			c5.8-1.7,12.2-2.6,19.4-2.6c5.4,0,10.5,0.6,15.4,1.8c4.9,1.2,9.8,3.1,14.5,5.8c2,1.2,3.9,2.4,5.7,3.7c1.8,1.3,3.4,2.5,4.7,3.7
			c1.4,1.2,2.4,2.3,3.2,3.4c0.8,1.1,1.2,2,1.2,2.7c0,0.8-0.2,1.5-0.6,2.1c-0.4,0.6-1,1.4-1.7,2.2l-13.5,14.4c-1,1-2,1.5-3,1.5
			c-0.8,0-1.6-0.2-2.3-0.7c-0.7-0.5-1.4-1.1-2.3-1.8l-0.8-0.7c-1.2-1-2.5-2-3.9-3.1c-1.4-1.1-3-2-4.6-2.9c-1.7-0.9-3.4-1.6-5.2-2.1
			c-1.8-0.6-3.7-0.8-5.6-0.8c-1.9,0-3.8,0.2-5.5,0.5c-1.7,0.3-3.2,0.8-4.5,1.5c-1.3,0.7-2.3,1.6-3.1,2.8c-0.8,1.2-1.1,2.6-1.1,4.2
			c0,1.7,0.4,3.1,1.2,4.3c0.8,1.2,2.1,2.3,3.7,3.4c1.6,1,3.7,2,6.1,2.9c2.4,0.9,5.3,1.9,8.5,3c6.2,2.1,12,4.2,17.3,6.5
			c5.3,2.3,9.8,5,13.7,8c3.8,3.1,6.8,6.8,9,11.1c2.2,4.3,3.2,9.5,3.2,15.7c0,6.5-1.3,12.4-4,17.6c-2.7,5.3-6.3,9.8-10.9,13.5
			c-4.6,3.7-10.1,6.6-16.3,8.6c-6.2,2-13,3.1-20.2,3.1c-6.8,0-13.4-1.2-20-3.6c-6.5-2.4-12.6-5.7-18.3-9.8c-2.4-1.7-4.3-3.4-6-5.1
			c-1.6-1.7-2.9-3-3.8-4l-0.3-0.3c-0.1-0.1-0.1-0.2-0.2-0.2c-0.1,0-0.1-0.1-0.2-0.1c-0.1-0.1-0.1-0.2-0.2-0.2
			c-0.1,0-0.1-0.1-0.2-0.1c-1.4-1.5-2-2.7-2-3.5c0-1,0.7-2.1,2-3.4l15.3-14.6c1.2-0.9,2.2-1.3,3-1.3c0.5,0,1.1,0.2,1.7,0.5
			C323.4,272,324.1,272.5,325,273.2z"/>
		<path fill="#D8B10E" d="M351.9,320.8c-7.2,0-14.3-1.3-21.2-3.9c-6.8-2.5-13.2-6-19.1-10.2c-2.5-1.8-4.7-3.7-6.4-5.4
			c-1.6-1.7-2.9-3-3.9-4l-0.5-0.5c0,0-0.1-0.1-0.1-0.1l-0.2-0.2c-0.1-0.1-0.1-0.1-0.2-0.2l-0.1-0.1c-2-2.2-3-4.1-3-5.9
			c0-2.1,1-4,3.2-6l15.6-14.9c3.3-2.4,5.9-2.5,8.5-1c0.8,0.5,1.6,1.1,2.6,1.9c1,0.8,2.3,2,3.9,3.4c1.4,1.3,3.1,2.6,5,3.8
			c2.8,1.8,5.5,3.3,8.2,4.3c2.5,1,5.2,1.5,8,1.5c2.6,0,4.8-0.3,6.5-0.8c1.5-0.5,2.7-1.2,3.5-1.9c0.8-0.7,1.3-1.5,1.6-2.5
			c0.4-1.1,0.6-2.3,0.6-3.6c0-0.9-0.3-1.7-1.1-2.5c-1.1-1.2-2.6-2.3-4.3-3.2c-1.8-1-3.8-1.9-5.8-2.6c-2.1-0.8-4-1.4-5.6-2
			c-7.3-2.5-13.7-5.3-19.1-8.2c-5.6-3-10.3-6.4-14.1-10.1c-3.8-3.8-6.8-8.1-8.7-12.7c-1.9-4.6-2.9-9.8-2.9-15.4
			c0-6,1.2-11.5,3.7-16.5c2.4-4.9,6-9.2,10.5-12.7c4.4-3.4,9.8-6.1,15.9-8c6.1-1.8,12.9-2.8,20.4-2.8c5.6,0,11.1,0.6,16.3,1.9
			c5.2,1.3,10.4,3.3,15.4,6.1c2.2,1.3,4.2,2.6,6,3.9c1.9,1.3,3.6,2.6,5,3.9c1.6,1.4,2.8,2.6,3.7,3.9c1.3,1.7,1.9,3.3,1.9,4.8
			c0,1.4-0.4,2.7-1.1,3.9c-0.5,0.9-1.2,1.8-2.2,2.8l-13.6,14.5c-1.7,1.7-3.5,2.5-5.5,2.5c-1.6,0-3-0.4-4.3-1.3
			c-0.8-0.5-1.6-1.2-2.5-2l-0.8-0.7c-1.1-0.9-2.3-1.9-3.7-2.9c-1.3-0.9-2.7-1.8-4.2-2.6c-1.5-0.8-3-1.4-4.6-1.9
			c-3.2-1-6.6-0.8-9.4-0.3c-1.3,0.3-2.5,0.7-3.5,1.2c-0.8,0.4-1.4,1-1.9,1.7c-0.4,0.6-0.6,1.3-0.6,2.3c0,0.9,0.2,1.7,0.6,2.3
			c0.5,0.8,1.4,1.6,2.7,2.4c1.4,0.9,3.3,1.8,5.5,2.6c2.4,0.9,5.2,1.9,8.4,2.9c6.3,2.1,12.2,4.3,17.6,6.6c5.5,2.4,10.4,5.3,14.5,8.5
			c4.2,3.4,7.5,7.5,9.9,12.3c2.4,4.8,3.6,10.6,3.6,17.2c0,7-1.5,13.5-4.4,19.2c-2.9,5.7-6.9,10.6-11.9,14.6
			c-4.9,4-10.8,7.1-17.4,9.2C366.6,319.7,359.5,320.8,351.9,320.8z M306.3,292.4L306.3,292.4c1,1.1,2.3,2.4,3.9,4
			c1.5,1.5,3.3,3.1,5.5,4.7c5.4,3.9,11.2,7,17.5,9.3c6.1,2.3,12.4,3.4,18.8,3.4c6.8,0,13.2-1,19.1-2.9c5.8-1.9,10.9-4.6,15.2-8
			c4.2-3.4,7.6-7.5,10-12.3c2.4-4.8,3.6-10.2,3.6-16.1c0-5.6-1-10.3-2.9-14.1c-1.9-3.8-4.6-7.2-8-9.9c-3.6-2.9-7.9-5.4-12.8-7.6
			c-5.2-2.2-10.9-4.4-17-6.4c-3.3-1.1-6.2-2.1-8.7-3c-2.7-1-4.9-2.1-6.8-3.2c-2.1-1.3-3.6-2.7-4.7-4.4c-1.2-1.8-1.8-3.9-1.8-6.3
			c0-2.3,0.6-4.4,1.7-6.1c1.1-1.6,2.5-2.9,4.3-3.9c1.6-0.9,3.5-1.5,5.5-1.9c3.9-0.7,8.5-0.9,12.7,0.4c2,0.6,4,1.4,5.8,2.4
			c1.8,0.9,3.5,2,5.1,3.2c1.5,1.1,2.9,2.2,4.1,3.2l0.9,0.8c0.7,0.6,1.4,1.1,1.9,1.5c0.1,0.1,0.1,0.1,0.2,0.1c0.1,0,0.3-0.1,0.6-0.4
			l13.5-14.4c0.7-0.8,1.1-1.3,1.3-1.6c0-0.1,0.1-0.1,0.1-0.2c-0.1-0.1-0.2-0.4-0.5-0.8c-0.6-0.9-1.6-1.8-2.7-2.8
			c-1.3-1.1-2.8-2.3-4.4-3.4c-1.7-1.2-3.5-2.4-5.5-3.5c-4.4-2.4-9-4.3-13.6-5.4c-4.6-1.1-9.5-1.7-14.6-1.7c-6.8,0-12.9,0.8-18.4,2.5
			c-5.3,1.6-9.9,3.9-13.7,6.8c-3.7,2.8-6.5,6.3-8.5,10.3c-2,4-3,8.5-3,13.4c0,4.7,0.8,9,2.4,12.7c1.6,3.8,4,7.3,7.2,10.4
			c3.3,3.2,7.5,6.3,12.5,8.9c5.1,2.8,11.2,5.4,18.1,7.8c1.6,0.5,3.5,1.2,5.7,2c2.3,0.9,4.6,1.9,6.8,3.1c2.3,1.3,4.3,2.8,5.9,4.5
			c2,2.1,3.1,4.6,3.1,7.3c0,2-0.3,4-0.9,5.8c-0.7,2-1.8,3.8-3.4,5.3c-1.5,1.5-3.6,2.6-6.1,3.5c-2.4,0.8-5.3,1.2-8.7,1.2
			c-3.7,0-7.2-0.6-10.5-1.9c-3.2-1.2-6.4-2.9-9.6-5c-2.1-1.5-4.1-2.9-5.7-4.4c-1.5-1.3-2.8-2.4-3.8-3.2c-0.8-0.7-1.3-1-1.6-1.2
			c-0.2,0.1-0.4,0.2-0.8,0.5l-15.1,14.4c-0.4,0.4-0.6,0.6-0.8,0.8c0.1,0.2,0.4,0.5,0.8,1c0.2,0.1,0.3,0.3,0.5,0.5
			C305.9,292,306.1,292.2,306.3,292.4z"/>
	</g>
	<g>
		<path fill="#F4D345" d="M437.1,273.2c1,0.8,2.3,1.9,3.8,3.3c1.6,1.4,3.3,2.8,5.4,4.1c3,2,6,3.6,8.9,4.7c2.9,1.1,6,1.7,9.3,1.7
			c3,0,5.5-0.3,7.6-1c2-0.7,3.6-1.6,4.8-2.7c1.2-1.1,2-2.4,2.5-3.9c0.5-1.5,0.8-3,0.8-4.7c0-1.8-0.7-3.5-2.1-4.9
			c-1.4-1.4-3.1-2.7-5.1-3.8c-2-1.1-4.1-2.1-6.3-2.9c-2.2-0.8-4.1-1.5-5.7-2c-7.1-2.5-13.3-5.1-18.6-8c-5.3-2.9-9.7-6-13.3-9.5
			c-3.5-3.5-6.2-7.4-8-11.6c-1.8-4.2-2.7-8.9-2.7-14.1c0-5.5,1.1-10.5,3.3-14.9c2.2-4.5,5.4-8.3,9.5-11.5c4.1-3.2,9-5.6,14.8-7.4
			c5.8-1.7,12.2-2.6,19.4-2.6c5.4,0,10.5,0.6,15.4,1.8c4.9,1.2,9.8,3.1,14.5,5.8c2,1.2,3.9,2.4,5.7,3.7c1.8,1.3,3.4,2.5,4.7,3.7
			c1.4,1.2,2.4,2.3,3.2,3.4c0.8,1.1,1.2,2,1.2,2.7c0,0.8-0.2,1.5-0.6,2.1c-0.4,0.6-1,1.4-1.7,2.2l-13.5,14.4c-1,1-2,1.5-3,1.5
			c-0.8,0-1.6-0.2-2.3-0.7c-0.7-0.5-1.4-1.1-2.3-1.8l-0.8-0.7c-1.2-1-2.5-2-3.9-3.1c-1.4-1.1-3-2-4.6-2.9c-1.7-0.9-3.4-1.6-5.2-2.1
			c-1.8-0.6-3.7-0.8-5.6-0.8c-1.9,0-3.8,0.2-5.5,0.5c-1.7,0.3-3.2,0.8-4.5,1.5c-1.3,0.7-2.3,1.6-3.1,2.8c-0.8,1.2-1.1,2.6-1.1,4.2
			c0,1.7,0.4,3.1,1.2,4.3c0.8,1.2,2.1,2.3,3.7,3.4c1.6,1,3.7,2,6.1,2.9c2.4,0.9,5.3,1.9,8.5,3c6.2,2.1,12,4.2,17.3,6.5
			c5.3,2.3,9.8,5,13.7,8c3.8,3.1,6.8,6.8,9,11.1c2.2,4.3,3.2,9.5,3.2,15.7c0,6.5-1.3,12.4-4,17.6c-2.7,5.3-6.3,9.8-10.9,13.5
			c-4.6,3.7-10.1,6.6-16.3,8.6c-6.2,2-13,3.1-20.2,3.1c-6.8,0-13.4-1.2-20-3.6c-6.5-2.4-12.6-5.7-18.3-9.8c-2.4-1.7-4.3-3.4-6-5.1
			c-1.6-1.7-2.9-3-3.8-4l-0.3-0.3c-0.1-0.1-0.1-0.2-0.2-0.2c-0.1,0-0.1-0.1-0.2-0.1c-0.1-0.1-0.1-0.2-0.2-0.2
			c-0.1,0-0.1-0.1-0.2-0.1c-1.4-1.5-2-2.7-2-3.5c0-1,0.7-2.1,2-3.4l15.3-14.6c1.2-0.9,2.2-1.3,3-1.3c0.5,0,1.1,0.2,1.7,0.5
			C435.6,272,436.3,272.5,437.1,273.2z"/>
		<path fill="#D8B10E" d="M464.1,320.8c-7.2,0-14.3-1.3-21.2-3.9c-6.8-2.5-13.2-6-19.1-10.2c-2.5-1.8-4.7-3.7-6.4-5.4
			c-1.6-1.7-2.9-3-3.9-4l-0.8-0.8c-0.1-0.1-0.1-0.1-0.2-0.2l-0.1-0.1c-2-2.2-3-4.1-3-5.9c0-2.1,1-4,3.2-6l15.6-14.9
			c1.9-1.4,3.5-2,5-2c1.2,0,2.3,0.3,3.5,1c0.8,0.5,1.6,1.1,2.6,1.9c1,0.8,2.3,2,3.9,3.4c1.4,1.3,3.1,2.6,5,3.8
			c2.8,1.8,5.5,3.3,8.2,4.3c2.5,1,5.2,1.5,8,1.5c2.6,0,4.8-0.3,6.5-0.8c1.5-0.5,2.7-1.2,3.5-1.9c0.8-0.7,1.3-1.5,1.6-2.5
			c0.4-1.1,0.6-2.3,0.6-3.6c0-0.9-0.3-1.7-1.1-2.5c-1.1-1.2-2.6-2.3-4.3-3.2c-1.8-1-3.8-1.9-5.8-2.6c-2.1-0.8-4-1.4-5.6-2
			c-7.3-2.5-13.7-5.3-19.1-8.2c-5.6-3-10.3-6.4-14.1-10.1c-3.8-3.8-6.8-8.1-8.7-12.7c-1.9-4.6-2.9-9.8-2.9-15.4
			c0-6,1.2-11.5,3.7-16.5c2.4-4.9,6-9.2,10.5-12.7c4.4-3.4,9.8-6.1,15.9-8c6.1-1.8,12.9-2.8,20.4-2.8c5.6,0,11.1,0.6,16.3,1.9
			c5.2,1.3,10.4,3.3,15.4,6.1c2.2,1.3,4.2,2.6,6,3.9c1.9,1.3,3.6,2.6,5,3.9c1.6,1.4,2.8,2.6,3.7,3.9c1.3,1.7,1.9,3.3,1.9,4.8
			c0,1.4-0.4,2.7-1.1,3.9c-0.5,0.9-1.2,1.8-2.2,2.8l-13.6,14.5c-1.7,1.7-3.5,2.5-5.5,2.5c-1.6,0-3-0.4-4.3-1.3
			c-0.8-0.5-1.6-1.2-2.5-2l-0.8-0.7c-1.1-0.9-2.3-1.9-3.7-2.9c-1.3-0.9-2.7-1.8-4.2-2.6c-1.5-0.8-3-1.4-4.6-1.9
			c-3.2-1-6.6-0.8-9.4-0.3c-1.3,0.3-2.5,0.7-3.5,1.2c-0.8,0.4-1.4,1-1.9,1.7c-0.4,0.6-0.6,1.3-0.6,2.3c0,0.9,0.2,1.7,0.6,2.3
			c0.5,0.8,1.4,1.6,2.7,2.4c1.4,0.9,3.3,1.8,5.5,2.6c2.4,0.9,5.2,1.9,8.4,2.9c6.3,2.1,12.2,4.3,17.6,6.6c5.5,2.4,10.4,5.3,14.5,8.5
			c4.2,3.4,7.5,7.5,9.9,12.3c2.4,4.8,3.6,10.6,3.6,17.2c0,7-1.5,13.5-4.4,19.2c-2.9,5.7-6.9,10.6-11.9,14.6
			c-4.9,4-10.8,7.1-17.4,9.2C478.8,319.7,471.6,320.8,464.1,320.8z M418.5,292.4L418.5,292.4c1,1.1,2.3,2.4,3.9,4
			c1.5,1.5,3.3,3.1,5.5,4.7c5.4,3.9,11.2,7,17.5,9.3c6.1,2.3,12.4,3.4,18.8,3.4c6.8,0,13.2-1,19.1-2.9c5.8-1.9,10.9-4.6,15.2-8
			c4.2-3.4,7.6-7.5,10-12.3c2.4-4.8,3.6-10.2,3.6-16.1c0-5.6-1-10.3-2.9-14.1c-1.9-3.8-4.6-7.2-8-9.9c-3.6-2.9-7.9-5.4-12.8-7.6
			c-5.2-2.2-10.9-4.4-17-6.4c-3.3-1.1-6.2-2.1-8.7-3c-2.7-1-4.9-2.1-6.8-3.2c-2-1.3-3.6-2.7-4.7-4.4c-1.2-1.8-1.8-3.9-1.8-6.3
			c0-2.3,0.6-4.4,1.7-6.1c1.1-1.6,2.5-2.9,4.3-3.9c1.6-0.9,3.5-1.5,5.5-1.9c3.9-0.7,8.5-0.9,12.7,0.4c2,0.6,4,1.4,5.8,2.4
			c1.8,0.9,3.5,2,5.1,3.2c1.5,1.1,2.9,2.2,4.1,3.2l0.9,0.8c0.7,0.6,1.4,1.1,1.9,1.5c0.1,0.1,0.1,0.1,0.2,0.1c0.1,0,0.3-0.1,0.6-0.4
			l13.5-14.4c0.7-0.8,1.1-1.3,1.3-1.6c0-0.1,0.1-0.1,0.1-0.2c-0.1-0.1-0.2-0.4-0.5-0.8c-0.6-0.9-1.6-1.8-2.7-2.8
			c-1.3-1.1-2.8-2.3-4.5-3.4c-1.7-1.2-3.5-2.4-5.5-3.5c-4.4-2.4-9-4.3-13.6-5.4c-4.6-1.1-9.5-1.7-14.6-1.7c-6.8,0-12.9,0.8-18.4,2.5
			c-5.3,1.6-9.9,3.9-13.7,6.8c-3.7,2.8-6.5,6.3-8.5,10.3c-2,4-3,8.5-3,13.4c0,4.7,0.8,9,2.4,12.7c1.6,3.8,4,7.3,7.2,10.4
			c3.3,3.2,7.5,6.3,12.5,8.9c5.1,2.8,11.2,5.4,18.1,7.8c1.6,0.5,3.5,1.2,5.7,2c2.3,0.9,4.6,1.9,6.8,3.1c2.3,1.3,4.3,2.8,5.9,4.5
			c2,2.1,3.1,4.6,3.1,7.3c0,2-0.3,4-0.9,5.8c-0.7,2-1.8,3.8-3.4,5.3c-1.5,1.5-3.6,2.6-6.1,3.5c-2.4,0.8-5.3,1.2-8.7,1.2
			c-3.7,0-7.2-0.6-10.5-1.9c-3.2-1.2-6.4-2.9-9.6-5c-2.1-1.5-4.1-2.9-5.7-4.4c-1.5-1.3-2.8-2.4-3.8-3.2c-0.8-0.7-1.3-1-1.6-1.2
			c-0.2,0.1-0.4,0.2-0.8,0.5l-15.1,14.4c-0.4,0.4-0.6,0.6-0.8,0.8c0.1,0.2,0.4,0.5,0.8,1c0.2,0.1,0.3,0.3,0.5,0.5
			C418.1,292,418.3,292.2,418.5,292.4z M416.8,290.9c0.1,0.1,0.3,0.1,0.4,0.2C417,291.1,416.9,291,416.8,290.9z"/>
	</g>
	<g>
		<path fill="#F4D345" d="M525.3,250.1c0-6.2,0.8-12.2,2.4-18c1.6-5.7,3.9-11.1,6.8-16.2c2.9-5,6.5-9.6,10.6-13.7
			c4.1-4.1,8.7-7.6,13.7-10.6c5-2.9,10.4-5.2,16.1-6.8c5.8-1.6,11.8-2.4,18-2.4c6.2,0,12.2,0.8,18,2.4c5.8,1.6,11.2,3.9,16.2,6.8
			c5,2.9,9.6,6.4,13.7,10.6c4.1,4.1,7.7,8.7,10.6,13.7c2.9,5,5.2,10.4,6.8,16.2c1.6,5.7,2.4,11.7,2.4,18c0,6.2-0.8,12.2-2.4,18
			s-3.9,11.1-6.8,16.1c-2.9,5-6.4,9.5-10.6,13.6c-4.1,4.1-8.7,7.6-13.7,10.6c-5,2.9-10.4,5.2-16.2,6.8c-5.8,1.6-11.8,2.4-18,2.4
			c-6.3,0-12.3-0.8-18-2.4c-5.8-1.6-11.1-3.9-16.1-6.8c-5-2.9-9.6-6.5-13.7-10.6c-4.1-4.1-7.6-8.6-10.6-13.6
			c-2.9-5-5.2-10.3-6.8-16.1C526.1,262.4,525.3,256.4,525.3,250.1z"/>
		<path fill="#D8B10E" d="M592.9,321.1c-6.5,0-12.9-0.8-18.9-2.5c-6-1.7-11.7-4.1-17-7.2c-5.2-3.1-10.1-6.8-14.4-11.1
			c-4.3-4.3-8-9.1-11.1-14.3c-3.1-5.2-5.5-10.9-7.2-16.9c-1.7-6-2.5-12.4-2.5-18.9c0-6.5,0.8-12.9,2.5-18.9c1.7-6,4.1-11.7,7.2-17
			c3.1-5.3,6.8-10.1,11.1-14.4c4.3-4.3,9.1-8.1,14.4-11.1c5.2-3,10.9-5.5,17-7.2c6-1.7,12.4-2.6,19-2.6c6.5,0,12.8,0.9,18.9,2.6
			c6,1.7,11.8,4.1,17,7.2c5.2,3.1,10.1,6.8,14.4,11.1c4.3,4.3,8.1,9.2,11.1,14.5c3.1,5.3,5.5,11,7.2,17c1.7,6,2.6,12.4,2.6,18.9
			c0,6.5-0.9,12.9-2.6,18.9c-1.7,6-4.1,11.7-7.2,16.9c-3.1,5.2-6.8,10-11.1,14.3c-4.3,4.3-9.2,8-14.4,11.1c-5.3,3.1-11,5.5-17,7.2
			C605.7,320.3,599.4,321.1,592.9,321.1z M592.9,185.9c-5.9,0-11.6,0.8-17.1,2.3c-5.4,1.5-10.6,3.7-15.3,6.5
			c-4.7,2.7-9.1,6.1-12.9,10c-3.9,3.9-7.2,8.3-10,13c-2.8,4.8-5,9.9-6.5,15.3c-1.5,5.4-2.3,11.2-2.3,17.1c0,5.9,0.8,11.6,2.3,17.1
			c1.5,5.4,3.7,10.6,6.5,15.2c2.8,4.7,6.2,9.1,10,12.9c3.9,3.9,8.2,7.2,13,10c4.7,2.8,9.9,4.9,15.3,6.5c5.4,1.5,11.2,2.3,17.1,2.3
			c5.8,0,11.6-0.8,17-2.3c5.5-1.5,10.6-3.7,15.3-6.5c4.7-2.8,9.1-6.2,13-10c3.9-3.9,7.3-8.2,10-12.9c2.8-4.7,4.9-9.8,6.5-15.3
			c1.5-5.4,2.3-11.1,2.3-17c0-5.9-0.8-11.6-2.3-17c-1.5-5.4-3.7-10.6-6.5-15.4c-2.8-4.8-6.1-9.1-10-13c-3.9-3.9-8.3-7.3-13-10
			c-4.7-2.8-9.9-4.9-15.4-6.5C604.5,186.7,598.7,185.9,592.9,185.9z"/>
	</g>
	<g>
		<path fill="#F4D345" d="M673.5,188.2c0-1.1,0.3-2,1-2.7c0.6-0.8,1.6-1.1,2.9-1.1h28.9c0.8,0,1.7,0.2,2.6,0.6
			c0.9,0.4,1.7,1.1,2.3,2.1c7.5,12.1,14.9,24,22.3,35.7c7.4,11.7,14.8,23.6,22.4,35.7v-70.8c0.2-1.1,0.7-1.9,1.4-2.5
			c0.7-0.6,1.5-0.9,2.5-0.9h25.2c1.2,0,2.3,0.3,3.1,1c0.8,0.7,1.2,1.6,1.2,2.9v124c0,1.2-0.4,2-1.1,2.6c-0.7,0.6-1.7,0.8-2.9,0.8
			H757c-0.8,0-1.4-0.3-2-0.8c-0.6-0.5-1.2-1.2-1.9-2.1c-7.8-13-15.6-25.8-23.3-38.5c-7.7-12.7-15.4-25.5-23.3-38.5v76
			c0,1.3-0.3,2.3-0.9,2.9c-0.6,0.6-1.7,1-3.2,1h-25.1c-1.4,0-2.3-0.4-3-1.1c-0.6-0.7-0.9-1.6-0.9-2.7V188.2z"/>
		<path fill="#D8B10E" d="M785.2,319.2H757c-1.6,0-3.1-0.6-4.4-1.7c-0.8-0.7-1.5-1.6-2.3-2.7l-0.2-0.3l-23.3-38.5
			c-5.5-9-11.1-18.3-16.8-27.8v63.5c0,2.2-0.6,4-1.8,5.3c-1.3,1.4-3.2,2.1-5.8,2.1h-25.1c-3,0-4.7-1.3-5.6-2.4
			c-1.1-1.4-1.7-3.1-1.7-4.9V188.2c0-1.9,0.6-3.6,1.8-5c0.9-1.1,2.6-2.4,5.6-2.4h28.9c1.3,0,2.7,0.3,4,0.9c1.5,0.7,2.8,1.8,3.8,3.4
			c7.5,12.1,15,24.1,22.3,35.8c5.3,8.4,10.6,16.8,15.9,25.4v-59l0.1-0.4c0.4-1.8,1.3-3.3,2.6-4.4c1.3-1.1,3-1.7,4.7-1.7h25.2
			c2.1,0,3.8,0.6,5.3,1.8c1.2,0.9,2.5,2.7,2.5,5.6v124c0,2.9-1.3,4.5-2.4,5.4C789,318.6,787.3,319.2,785.2,319.2z M757.2,312.2h28
			c0.2,0,0.4,0,0.5,0V188.2c0-0.1,0-0.2,0-0.2c-0.1-0.1-0.3-0.2-0.8-0.2h-25.2c-0.1,0-0.2,0-0.2,0.1c-0.1,0.1-0.1,0.2-0.2,0.3v82.6
			l-6.5-10.4c-7.5-12.1-15-24-22.4-35.7c-7.3-11.6-14.8-23.7-22.3-35.7c-0.2-0.2-0.5-0.6-0.8-0.8c-0.4-0.2-0.8-0.3-1.1-0.3h-28.9
			c-0.2,0-0.3,0-0.3,0c0,0.1-0.1,0.2-0.1,0.4v123.6c0,0.1,0,0.2,0,0.3c0.1,0,0.2,0,0.4,0h25.1c0.2,0,0.4,0,0.6,0c0-0.1,0-0.2,0-0.4
			v-88.4l6.5,10.7c8,13.1,15.8,26,23.3,38.5l23.2,38.3C756.5,311.4,756.9,311.8,757.2,312.2z"/>
	</g>
</g>
<g>
	<rect x="189.9" y="22.7" fill="#D8B10E" width="7" height="135.2"/>
	<rect x="234.9" y="182.4" fill="#D8B10E" width="7" height="135.2"/>
	<rect x="43.9" y="182.4" fill="#D8B10E" width="7" height="130.2"/>
	<rect x="752.9" y="184.3" fill="#D8B10E" width="7" height="128.2"/>
	<rect x="472.9" y="22.7" fill="#D8B10E" width="7" height="135.2"/>
	<rect x="589.4" y="182.4" fill="#D8B10E" width="7" height="135.2"/>
	
		<rect x="75.1" y="277.3" transform="matrix(0.5288 0.8487 -0.8487 0.5288 291.1338 37.2123)" fill="#D8B10E" width="74" height="7"/>
	
		<rect x="656" y="211.2" transform="matrix(0.5288 0.8487 -0.8487 0.5288 508.7993 -487.0192)" fill="#D8B10E" width="74" height="7"/>
	<rect x="276.9" y="51.4" fill="#D8B10E" width="34.2" height="7"/>
	<rect x="307.6" y="75.2" fill="#D8B10E" width="7" height="47"/>
</g>
<polygon fill="#FFFFFF" points="36.7,52.1 34.2,42.1 28.7,57.4 29.9,45.2 14.5,59.1 28.7,41.1 19.7,41.8 31.4,36.3 34,21.7 
	35.1,33.3 52,19 37.9,35.9 47.3,34.4 36.8,40.9 "/>
<polygon fill="#FFFFFF" points="163.7,150.8 161.2,139.5 154.6,156.4 156.3,142.8 138.6,157.8 155.1,138.2 145.1,138.7 158.3,133 
	161.7,116.7 162.5,129.8 181.8,114.4 165.5,132.7 176,131.4 164.2,138.3 "/>
<polygon fill="#FFFFFF" points="287.6,49.5 285.9,39.2 279.2,54.1 281.4,41.9 264.8,54.5 280.5,37.7 271.5,37.7 283.6,33.2 
	287.4,18.7 287.6,30.5 305.7,17.6 290.1,33.3 299.6,32.6 288.6,38.2 "/>
<polygon fill="#FFFFFF" points="393.4,128.4 395.2,138.4 401.5,123.8 399.6,135.6 415.5,123 400.5,139.7 409.3,139.5 397.6,144.2 
	394.2,158.3 393.8,146.9 376.5,159.9 391.3,144.2 382,145.1 392.6,139.4 "/>
<polygon fill="#FFFFFF" points="456.4,50.5 453.4,39.5 447.7,56.5 448.7,43 432,58.7 447.3,38.5 437.4,39.5 450.2,33.1 452.7,16.8 
	454.2,29.7 472.5,13.4 457.3,32.5 467.7,30.6 456.3,38.1 "/>
<polygon fill="#FFFFFF" points="18.4,186.3 21.7,196.4 26.2,180.3 25.9,192.9 40.7,177.5 27.4,197 36.6,195.6 25,202.1 23.4,217.3 
	21.4,205.4 5.2,221.4 18.4,203 8.9,205.2 19.1,197.8 "/>
<polygon fill="#FFFFFF" points="157.7,285.6 160.8,295.4 165.4,279.9 164.9,292.1 179.5,277.5 166.3,296.2 175.2,294.9 163.9,301 
	162.2,315.8 160.4,304.2 144.4,319.4 157.5,301.9 148.3,303.9 158.3,296.8 "/>
<polygon fill="#FFFFFF" points="211.7,186.6 214.8,196.4 219.4,180.9 218.9,193.1 233.5,178.5 220.3,197.2 229.2,195.9 217.9,202 
	216.2,216.8 214.4,205.2 198.4,220.4 211.5,202.9 202.3,204.9 212.3,197.8 "/>
<polygon fill="#FFFFFF" points="323.2,184.2 325.2,194.3 331.4,179.4 329.6,191.5 345.7,178.5 330.6,195.6 339.6,195.4 327.7,200.2 
	324.3,214.7 323.8,203 306.3,216.4 321.2,200.3 311.8,201.3 322.5,195.4 "/>
<polygon fill="#FFFFFF" points="430.5,189.3 433,200.8 439.8,183.6 438,197.5 456.1,182.3 439.2,202.2 449.5,201.7 435.9,207.6 
	432.4,224.2 431.6,210.8 411.8,226.5 428.5,207.8 417.8,209.1 429.9,202.1 "/>
<polygon fill="#FFFFFF" points="566.5,286.3 567.5,296.3 575,282.3 572.1,294 589,282.7 572.7,298.1 581.5,298.6 569.4,302.3 
	564.8,316.1 565.4,304.7 547,316.2 563.1,301.8 553.8,301.9 564.8,297.1 "/>
<polygon fill="#FFFFFF" points="677.2,291.5 680.6,302.2 685.4,285.2 685,298.5 700.7,282.3 686.7,302.9 696.3,301.4 684.1,308.2 
	682.4,324.3 680.3,311.7 663.2,328.5 677.2,309.2 667.1,311.5 677.9,303.7 "/>
<polygon fill="#FFFFFF" points="760.9,183.9 764.6,195 769.5,177.3 769.2,191.2 785.5,174.3 770.9,195.7 781,194.2 768.2,201.3 
	766.5,218.1 764.3,205 746.4,222.6 760.9,202.4 750.5,204.8 761.7,196.6 "/>
<path fill="#FFFFFF" d="M181.4,146.2c-0.3,0-0.6,0-0.9-0.1c-0.4-0.2-44.1-16.4-44.1-55.8c0-39.3,43.6-55.9,44.1-56.1
	c1.3-0.5,2.7,0.2,3.2,1.5c0.5,1.3-0.2,2.7-1.5,3.2c-0.4,0.2-40.8,15.6-40.8,51.4c0,35.9,40.4,50.9,40.8,51.1c1.3,0.5,2,1.9,1.5,3.2
	C183.4,145.5,182.4,146.2,181.4,146.2z"/>
<path fill="#FFFFFF" d="M578.9,305.5c-0.3,0-0.6,0-0.9-0.2c-0.4-0.2-44.1-16.4-44.1-55.8c0-39.3,43.6-55.9,44.1-56.1
	c1.3-0.5,2.7,0.2,3.2,1.5c0.5,1.3-0.2,2.7-1.5,3.2c-0.4,0.2-40.8,15.6-40.8,51.4c0,35.9,40.4,50.9,40.8,51.1c1.3,0.5,2,1.9,1.5,3.2
	C580.9,304.9,579.9,305.5,578.9,305.5z"/>
<path fill="#FFFFFF" d="M33,71.8c-1.1,0-2.1-0.7-2.4-1.9c-3.1-11.5-1.4-20.9,4.8-27.8c9.7-10.8,27.5-12,34.6-10.9
	c1.4,0.2,2.3,1.5,2.1,2.9c-0.2,1.4-1.5,2.3-2.9,2.1c-6-0.9-21.9,0.1-30.1,9.3c-5.1,5.6-6.3,13.4-3.7,23.2c0.4,1.3-0.4,2.7-1.8,3.1
	C33.4,71.8,33.2,71.8,33,71.8z"/>
<path fill="#FFFFFF" d="M288.1,149.2c-1.4,0-2.5-1.1-2.5-2.5V66.3c0-1.4,1.1-2.5,2.5-2.5s2.5,1.1,2.5,2.5v80.3
	C290.6,148,289.4,149.2,288.1,149.2z"/>
<path fill="#FFFFFF" d="M288.1,46.5c-1.4,0-2.5-1.1-2.5-2.5v-9.4c0-1.4,1.1-2.5,2.5-2.5s2.5,1.1,2.5,2.5V44
	C290.6,45.4,289.4,46.5,288.1,46.5z"/>
<path fill="#FFFFFF" d="M398.6,148.2c-1.4,0-2.5-1.1-2.5-2.5V35.5c0-1.4,1.1-2.5,2.5-2.5s2.5,1.1,2.5,2.5v110.2
	C401.1,147,400,148.2,398.6,148.2z"/>
<path fill="#FFFFFF" d="M162.3,305.5c-1.4,0-2.5-1.1-2.5-2.5V195.8c0-1.4,1.1-2.5,2.5-2.5s2.5,1.1,2.5,2.5V303
	C164.8,304.4,163.7,305.5,162.3,305.5z"/>
<path fill="#FFFFFF" d="M27.3,305.5c-1.4,0-2.5-1.1-2.5-2.5V195.8c0-1.4,1.1-2.5,2.5-2.5s2.5,1.1,2.5,2.5V303
	C29.8,304.4,28.7,305.5,27.3,305.5z"/>
<path fill="#FFFFFF" d="M216.3,305.5c-1.4,0-2.5-1.1-2.5-2.5V195.8c0-1.4,1.1-2.5,2.5-2.5s2.5,1.1,2.5,2.5V303
	C218.8,304.4,217.7,305.5,216.3,305.5z"/>
<path fill="#FFFFFF" d="M453.8,149.2c-1.4,0-2.5-1.1-2.5-2.5v-111c0-1.4,1.1-2.5,2.5-2.5s2.5,1.1,2.5,2.5v111
	C456.3,148,455.2,149.2,453.8,149.2z"/>
<path fill="#FFFFFF" d="M110.7,256.2c-1.4,0-2.5-1.1-2.5-2.5v-57.4c0-1.4,1.1-2.5,2.5-2.5s2.5,1.1,2.5,2.5v57.4
	C113.2,255,112.1,256.2,110.7,256.2z"/>
<path fill="#FFFFFF" d="M768.5,307.1c-1.4,0-2.5-1.1-2.5-2.5V197.4c0-1.4,1.1-2.5,2.5-2.5s2.5,1.1,2.5,2.5v107.2
	C771,306,769.9,307.1,768.5,307.1z"/>
<path fill="#FFFFFF" d="M684.6,307.1c-1.4,0-2.5-1.1-2.5-2.5v-81.4c0-1.4,1.1-2.5,2.5-2.5s2.5,1.1,2.5,2.5v81.4
	C687.1,306,686,307.1,684.6,307.1z"/>
<path fill="#FFFFFF" d="M62.4,141.2c-0.5,0-1,0-1.5,0l-1.3,0c-1.4,0-2.5-1.1-2.5-2.5c0-1.4,1.1-2.5,2.5-2.5c0,0,0,0,0,0l1.3,0
	c13.2,0.1,24.2-1,25.9-14.4c0.2-1.4,1.4-2.3,2.8-2.2c1.4,0.2,2.3,1.4,2.2,2.8C89.5,140.4,73.1,141.2,62.4,141.2z"/>
<path fill="#FFFFFF" d="M321.8,230.9c-1.1,0-2.1-0.7-2.4-1.9c-3.1-11.5-1.4-20.9,4.8-27.8c9.7-10.8,27.5-12,34.6-10.9
	c1.4,0.2,2.3,1.5,2.1,2.9c-0.2,1.4-1.5,2.3-2.9,2.1c-6-0.9-21.9,0.1-30.1,9.3c-5.1,5.6-6.3,13.4-3.7,23.2c0.4,1.3-0.4,2.7-1.8,3.1
	C322.3,230.9,322,230.9,321.8,230.9z"/>
<path fill="#FFFFFF" d="M351.2,300.2c-0.5,0-1,0-1.4,0l-1.3,0c-1.4,0-2.5-1.1-2.5-2.5c0-1.4,1.1-2.5,2.5-2.5c0,0,0,0,0,0l1.3,0
	c13.2,0.1,24.2-1,25.9-14.4c0.2-1.4,1.4-2.3,2.8-2.2c1.4,0.2,2.3,1.4,2.2,2.8C378.3,299.5,361.9,300.2,351.2,300.2z"/>
<path fill="#FFFFFF" d="M433.8,229.9c-1.1,0-2.1-0.7-2.4-1.9c-3.1-11.5-1.4-20.9,4.8-27.8c9.7-10.8,27.5-12,34.6-10.9
	c1.4,0.2,2.3,1.5,2.1,2.9c-0.2,1.4-1.5,2.3-2.9,2.1c-6-0.9-21.9,0.1-30.1,9.3c-5.1,5.6-6.3,13.4-3.7,23.2c0.4,1.3-0.4,2.7-1.8,3.1
	C434.3,229.9,434,229.9,433.8,229.9z"/>
<path fill="#FFFFFF" d="M463.2,299.2c-0.5,0-1,0-1.4,0l-1.3,0c-1.4,0-2.5-1.1-2.5-2.5c0-1.4,1.1-2.5,2.5-2.5h0l1.3,0
	c13.2,0.1,24.2-1,25.9-14.4c0.2-1.4,1.4-2.3,2.8-2.2c1.4,0.2,2.3,1.4,2.2,2.8C490.3,298.5,473.9,299.2,463.2,299.2z"/>
<g>
	<path fill="#6911B7" d="M44,398.1c-0.6,0.6-1.2,1.2-1.9,1.9c-0.7,0.7-1.5,1.3-2.3,1.9S38,403,37,403.4c-1,0.4-2,0.6-3.2,0.6
		c-3,0-5.7-0.6-8.2-1.7c-2.5-1.1-4.6-2.6-6.4-4.5c-1.8-1.9-3.2-4.2-4.2-6.8c-1-2.6-1.5-5.4-1.5-8.4c0-3,0.5-5.8,1.5-8.4
		c1-2.6,2.4-4.9,4.2-6.8c1.8-1.9,3.9-3.4,6.4-4.5c2.5-1.1,5.2-1.6,8.2-1.6c1.2,0,2.3,0.2,3.3,0.5c1,0.3,1.9,0.8,2.7,1.3
		c0.8,0.5,1.6,1.2,2.2,1.8c0.7,0.7,1.3,1.4,1.9,2V352c0-0.7,0.2-1.3,0.6-1.8c0.4-0.5,1.1-0.7,1.9-0.7h7.3c0.3,0,0.6,0.1,0.9,0.2
		c0.3,0.1,0.6,0.3,0.9,0.5c0.3,0.2,0.5,0.5,0.6,0.8c0.2,0.3,0.2,0.6,0.2,1v48.7c0,1.7-0.9,2.5-2.6,2.5h-6.4c-0.4,0-0.8-0.1-1-0.2
		c-0.2-0.1-0.4-0.3-0.6-0.5c-0.2-0.2-0.3-0.5-0.4-0.8c-0.1-0.3-0.3-0.7-0.5-1.1L44,398.1z M25.3,382.5c0,1.4,0.2,2.8,0.7,4
		c0.4,1.2,1.1,2.3,1.9,3.2c0.8,0.9,1.8,1.6,3,2.2c1.2,0.5,2.4,0.8,3.9,0.8c1.4,0,2.7-0.2,3.9-0.7c1.2-0.5,2.3-1.2,3.2-2.1
		c0.9-0.9,1.6-1.9,2.2-3.1c0.6-1.2,0.9-2.5,0.9-3.8v-0.5c0-1.4-0.3-2.7-0.8-4c-0.5-1.3-1.2-2.4-2.2-3.3c-0.9-1-2-1.7-3.3-2.3
		c-1.2-0.6-2.6-0.8-4.1-0.8c-1.4,0-2.7,0.3-3.9,0.8c-1.2,0.6-2.2,1.3-3,2.3c-0.8,1-1.5,2.1-1.9,3.3
		C25.5,379.8,25.3,381.1,25.3,382.5z"/>
	<path fill="#6911B7" d="M97.8,398.2c-1.9,1.8-4.1,3.1-6.5,4.1c-2.4,1-4.9,1.5-7.6,1.5c-3,0-5.8-0.5-8.4-1.6c-2.7-1.1-5-2.6-7-4.5
		c-2-1.9-3.6-4.2-4.8-6.8c-1.2-2.6-1.8-5.4-1.8-8.5c0-1.9,0.2-3.8,0.7-5.6c0.5-1.8,1.1-3.5,2-5c0.9-1.6,1.9-3,3.1-4.3
		c1.2-1.3,2.6-2.4,4.1-3.4s3.2-1.7,5-2.2c1.8-0.5,3.7-0.8,5.6-0.8c1.8,0,3.6,0.2,5.2,0.7c1.7,0.5,3.3,1.2,4.8,2
		c1.5,0.9,2.9,1.9,4.1,3.1c1.2,1.2,2.3,2.5,3.2,4c0.9,1.4,1.6,3,2.1,4.6c0.5,1.6,0.7,3.3,0.7,5.1c0,1.1,0,2.1,0,2.8
		c0,0.7-0.2,1.3-0.5,1.7c-0.3,0.4-0.8,0.7-1.5,0.9c-0.7,0.2-1.7,0.2-3.1,0.2H73.8c0.2,1.4,0.7,2.6,1.3,3.5c0.7,0.9,1.4,1.7,2.3,2.2
		c0.9,0.6,1.8,1,2.8,1.2c1,0.2,1.9,0.4,2.8,0.4c0.8,0,1.6-0.1,2.4-0.2c0.8-0.2,1.6-0.4,2.4-0.7s1.5-0.6,2.1-0.9
		c0.6-0.4,1.2-0.7,1.5-1.1c0.3-0.3,0.6-0.5,0.9-0.6c0.2-0.1,0.5-0.2,0.8-0.2c0.3,0,0.6,0.1,0.9,0.3c0.3,0.2,0.6,0.5,1,0.8l3.5,3.9
		c0.2,0.3,0.4,0.5,0.5,0.8c0.1,0.2,0.1,0.5,0.1,0.7c0,0.4-0.1,0.8-0.4,1.1C98.4,397.7,98.1,398,97.8,398.2z M82.1,371.1
		c-0.8,0-1.7,0.2-2.5,0.5c-0.8,0.3-1.5,0.8-2.2,1.4c-0.7,0.6-1.3,1.2-1.9,1.9c-0.6,0.7-1,1.4-1.4,2.2h16.7c-0.5-0.8-1-1.6-1.5-2.3
		c-0.5-0.7-1.1-1.3-1.8-1.9c-0.7-0.5-1.5-1-2.3-1.3C84.3,371.2,83.3,371.1,82.1,371.1z"/>
	<path fill="#6911B7" d="M114.4,390.3c0.6,0.6,1.2,1.1,1.9,1.5c0.7,0.4,1.3,0.7,2,1c0.6,0.3,1.2,0.4,1.7,0.5c0.5,0.1,0.8,0.2,1,0.2
		c0.4,0,0.9,0,1.6,0c0.6,0,1.3-0.1,1.8-0.3c0.6-0.2,1.1-0.4,1.5-0.8c0.4-0.4,0.6-0.9,0.6-1.6c0-0.6-0.1-1.1-0.4-1.4
		c-0.2-0.4-0.6-0.7-1-0.9c-0.5-0.3-1-0.5-1.7-0.7c-0.7-0.2-1.4-0.4-2.2-0.7c-2.6-0.7-4.8-1.5-6.5-2.5c-1.7-1-3-2.1-4-3.3
		c-1-1.2-1.7-2.5-2.1-3.9c-0.4-1.4-0.6-2.9-0.6-4.4c0-1.8,0.4-3.4,1.1-4.9c0.7-1.5,1.7-2.7,3.1-3.8c1.3-1.1,2.9-1.9,4.8-2.4
		c1.8-0.6,3.9-0.9,6.2-0.9c1.4,0,2.7,0.1,3.8,0.3c1.2,0.2,2.3,0.6,3.4,1.1c1.1,0.5,2.1,1.1,3.2,1.9c1,0.8,2.1,1.7,3.1,2.8
		c0.4,0.4,0.6,0.8,0.6,1.2c0,0.4-0.2,0.8-0.7,1.2c-0.8,0.7-1.7,1.4-2.4,2.1c-0.8,0.7-1.6,1.4-2.4,2.2c-0.3,0.2-0.5,0.4-0.8,0.4
		c-0.3,0.1-0.5,0-0.7,0c-0.2-0.1-0.5-0.2-0.7-0.3c-0.2-0.2-0.4-0.3-0.6-0.6c-0.8-0.8-1.6-1.4-2.6-1.7c-1-0.3-1.9-0.4-2.7-0.4
		c-1.1,0-1.9,0.2-2.5,0.6c-0.6,0.4-0.9,0.9-0.9,1.7c0,0.6,0.3,1,0.6,1.3c0.4,0.3,0.8,0.6,1.4,0.8c0.6,0.2,1.1,0.4,1.8,0.5
		c0.6,0.1,1.2,0.3,1.7,0.4c2,0.6,3.7,1.3,5.4,2.1c1.6,0.7,3,1.6,4.2,2.7c1.2,1.1,2.1,2.4,2.8,3.9c0.7,1.5,1,3.3,1,5.5
		c0,2.2-0.4,4.1-1.3,5.8s-2,3.1-3.5,4.3c-1.5,1.2-3.3,2-5.3,2.6c-2.1,0.6-4.3,0.9-6.6,0.9c-1.3,0-2.7-0.1-4.1-0.4
		c-1.4-0.2-2.7-0.6-4-1.2c-1.3-0.5-2.5-1.2-3.7-2.1c-1.2-0.8-2.2-1.9-3.1-3c-0.2-0.3-0.4-0.6-0.5-1c-0.1-0.3-0.2-0.7-0.2-1
		c0-0.3,0.1-0.6,0.2-0.9c0.1-0.3,0.3-0.5,0.6-0.7l4.2-4.2c0.5-0.4,1-0.6,1.4-0.5C113.3,389.3,113.8,389.7,114.4,390.3z"/>
	<path fill="#6911B7" d="M144.9,347.8c0-0.9,0.2-1.6,0.6-1.9c0.4-0.4,1-0.6,1.8-0.6h7.6c0.8,0,1.4,0.2,1.8,0.6
		c0.5,0.4,0.7,1,0.7,1.9v6.4c0,0.3-0.1,0.5-0.2,0.8c-0.1,0.3-0.3,0.6-0.5,0.9c-0.2,0.3-0.5,0.5-0.8,0.7c-0.3,0.2-0.7,0.3-1.1,0.3
		h-7.6c-1.6,0-2.4-0.9-2.4-2.7V347.8z M144.9,364.3c0-0.7,0.2-1.3,0.6-1.8c0.4-0.5,1-0.7,1.8-0.7h7.5c0.3,0,0.5,0.1,0.8,0.2
		c0.3,0.1,0.6,0.3,0.8,0.5c0.3,0.2,0.5,0.5,0.7,0.8c0.2,0.3,0.3,0.7,0.3,1v36.3c0,0.8-0.2,1.4-0.7,1.9c-0.5,0.4-1.1,0.6-2,0.6h-7.5
		c-1.6,0-2.4-0.8-2.4-2.5V364.3z"/>
	<path fill="#6911B7" d="M194.2,401.7c0.2-0.7,0.4-1.6,0.3-2.5c0-0.9,0-1.9,0-2.9c-0.6,0.7-1.3,1.4-1.9,2.1
		c-0.7,0.7-1.4,1.4-2.2,2.1c-0.8,0.6-1.7,1.2-2.7,1.6c-1,0.4-2.2,0.6-3.5,0.6c-2.9,0-5.6-0.5-8.1-1.5c-2.5-1-4.7-2.4-6.5-4.2
		c-1.8-1.8-3.2-3.9-4.3-6.4c-1-2.5-1.5-5.2-1.5-8.2c0-3,0.5-5.8,1.5-8.4c1-2.6,2.4-4.9,4.3-6.8c1.8-1.9,4-3.4,6.5-4.5
		c2.5-1.1,5.2-1.6,8.1-1.6c1.3,0,2.6,0.2,3.6,0.6c1.1,0.4,2.1,0.9,2.9,1.6c0.9,0.7,1.7,1.4,2.4,2.2c0.7,0.8,1.4,1.6,2.1,2.4l1.2-3.9
		c0.1-0.4,0.2-0.7,0.4-1c0.1-0.3,0.2-0.6,0.4-0.8c0.2-0.2,0.4-0.4,0.7-0.5c0.3-0.1,0.6-0.2,1.1-0.2h4.9c0.2,0,0.5,0,0.8,0.1
		s0.6,0.2,0.8,0.5c0.3,0.2,0.5,0.5,0.7,0.8c0.2,0.3,0.2,0.6,0.2,1.1v33.2c0,3.4-0.6,6.4-1.7,9.1c-1.1,2.6-2.6,4.9-4.5,6.7
		c-1.9,1.8-4.2,3.2-6.8,4.2c-2.6,1-5.5,1.4-8.5,1.4c-1.2,0-2.4-0.1-3.8-0.3c-1.3-0.2-2.7-0.5-4-0.9c-1.3-0.4-2.6-0.9-3.9-1.6
		c-1.2-0.6-2.4-1.4-3.3-2.2c-0.3-0.2-0.5-0.4-0.7-0.7c-0.2-0.3-0.3-0.6-0.4-0.9c-0.1-0.3-0.1-0.7,0-1.1c0.1-0.4,0.3-0.8,0.5-1.2
		l3.1-4.3c0.6-0.6,1.1-0.9,1.6-1c0.5,0,1.1,0.2,1.9,0.8c0.5,0.5,1.2,0.9,1.9,1.3c0.7,0.3,1.4,0.6,2.2,0.7c0.7,0.2,1.5,0.3,2.2,0.4
		c0.7,0.1,1.4,0.1,2,0.1c1,0,2-0.1,3.1-0.4c1.1-0.3,2.1-0.6,3-1.2c0.9-0.5,1.7-1.1,2.4-1.9C193.5,403.5,193.9,402.7,194.2,401.7z
		 M175.6,382.4c0,1.5,0.2,2.8,0.7,4.1c0.4,1.2,1.1,2.3,1.9,3.2c0.8,0.9,1.8,1.6,3,2.2c1.2,0.5,2.4,0.8,3.9,0.8
		c1.4,0,2.7-0.2,3.9-0.7c1.2-0.5,2.3-1.2,3.2-2c0.9-0.9,1.6-1.9,2.2-3.1c0.6-1.2,0.9-2.4,0.9-3.8v-1.1c-0.1-1.3-0.4-2.6-0.9-3.8
		c-0.6-1.2-1.3-2.2-2.2-3.1c-0.9-0.9-2-1.6-3.2-2.2c-1.2-0.5-2.5-0.8-3.9-0.8c-1.4,0-2.7,0.3-3.9,0.8c-1.2,0.6-2.2,1.3-3,2.2
		c-0.8,0.9-1.5,2-1.9,3.3C175.8,379.7,175.6,381,175.6,382.4z"/>
	<path fill="#6911B7" d="M214.1,362.4c0.3-0.2,0.6-0.4,0.9-0.5c0.3-0.1,0.6-0.1,0.9-0.1h4.9c0.4,0,0.7,0.1,1,0.2
		c0.3,0.1,0.5,0.3,0.7,0.6c0.2,0.2,0.4,0.5,0.5,0.8c0.1,0.3,0.2,0.6,0.3,0.9l1,4.2c0.3-0.7,0.8-1.4,1.4-2.3c0.6-0.9,1.4-1.7,2.4-2.4
		c1-0.7,2.1-1.4,3.4-1.9c1.3-0.5,2.8-0.8,4.6-0.8c2.5,0,4.7,0.5,6.7,1.4c2,1,3.7,2.3,5.2,3.9c1.4,1.6,2.5,3.6,3.3,5.8
		c0.8,2.2,1.2,4.6,1.2,7v21.3c0,0.8-0.2,1.4-0.5,1.9s-0.9,0.6-1.7,0.6h-7.5c-0.9,0-1.6-0.2-1.9-0.5c-0.3-0.3-0.5-0.9-0.5-1.8v-21.2
		c0-0.9-0.2-1.8-0.6-2.7s-1-1.6-1.7-2.2c-0.7-0.6-1.5-1.1-2.4-1.5s-1.8-0.6-2.7-0.6c-0.8,0-1.6,0.2-2.4,0.5
		c-0.8,0.3-1.6,0.8-2.2,1.4c-0.7,0.6-1.3,1.3-1.7,2.2c-0.5,0.8-0.7,1.7-0.8,2.7v21.2c0,0.4-0.1,0.7-0.2,1.1
		c-0.1,0.4-0.4,0.7-0.6,0.8c-0.3,0.2-0.5,0.3-0.8,0.4c-0.2,0.1-0.5,0.1-0.9,0.1h-7.4c-0.9,0-1.6-0.2-2-0.7c-0.4-0.5-0.6-1.1-0.6-1.8
		v-36.4c0-0.4,0.1-0.8,0.3-1.1c0.2-0.3,0.4-0.6,0.8-0.8L214.1,362.4z"/>
	<path fill="#6911B7" d="M294.4,398.2c-1.9,1.8-4.1,3.1-6.5,4.1c-2.4,1-4.9,1.5-7.6,1.5c-3,0-5.8-0.5-8.4-1.6c-2.7-1.1-5-2.6-7-4.5
		c-2-1.9-3.6-4.2-4.8-6.8c-1.2-2.6-1.8-5.4-1.8-8.5c0-1.9,0.2-3.8,0.7-5.6c0.5-1.8,1.1-3.5,2-5c0.9-1.6,1.9-3,3.1-4.3
		c1.2-1.3,2.6-2.4,4.1-3.4s3.2-1.7,5-2.2c1.8-0.5,3.7-0.8,5.6-0.8c1.8,0,3.6,0.2,5.2,0.7c1.7,0.5,3.3,1.2,4.8,2
		c1.5,0.9,2.9,1.9,4.1,3.1c1.2,1.2,2.3,2.5,3.2,4c0.9,1.4,1.6,3,2.1,4.6c0.5,1.6,0.7,3.3,0.7,5.1c0,1.1,0,2.1,0,2.8
		c0,0.7-0.2,1.3-0.5,1.7c-0.3,0.4-0.8,0.7-1.5,0.9c-0.7,0.2-1.7,0.2-3.1,0.2h-23.5c0.2,1.4,0.7,2.6,1.3,3.5c0.7,0.9,1.4,1.7,2.3,2.2
		c0.9,0.6,1.8,1,2.8,1.2c1,0.2,1.9,0.4,2.8,0.4c0.8,0,1.6-0.1,2.4-0.2c0.8-0.2,1.6-0.4,2.4-0.7s1.5-0.6,2.1-0.9
		c0.6-0.4,1.2-0.7,1.5-1.1c0.3-0.3,0.6-0.5,0.9-0.6c0.2-0.1,0.5-0.2,0.8-0.2c0.3,0,0.6,0.1,0.9,0.3c0.3,0.2,0.6,0.5,1,0.8l3.5,3.9
		c0.2,0.3,0.4,0.5,0.5,0.8c0.1,0.2,0.1,0.5,0.1,0.7c0,0.4-0.1,0.8-0.4,1.1C295,397.7,294.7,398,294.4,398.2z M278.7,371.1
		c-0.8,0-1.7,0.2-2.5,0.5c-0.8,0.3-1.5,0.8-2.2,1.4c-0.7,0.6-1.3,1.2-1.9,1.9c-0.6,0.7-1,1.4-1.4,2.2h16.7c-0.5-0.8-1-1.6-1.5-2.3
		c-0.5-0.7-1.1-1.3-1.8-1.9c-0.7-0.5-1.5-1-2.3-1.3C280.9,371.2,279.9,371.1,278.7,371.1z"/>
	<path fill="#6911B7" d="M305.9,364.2c0-0.4,0.1-0.7,0.2-1.1c0.2-0.3,0.4-0.6,0.6-0.8c0.6-0.4,1.2-0.6,1.8-0.6h4.9
		c0.4,0,0.7,0.1,1,0.2c0.2,0.2,0.4,0.3,0.6,0.6c0.2,0.2,0.3,0.5,0.4,0.8c0.1,0.3,0.3,0.6,0.4,0.9c0,0.1,0.1,0.3,0.3,0.6
		s0.3,0.7,0.4,1.1c0.2,0.4,0.3,0.8,0.4,1.1c0.1,0.4,0.2,0.6,0.3,0.7c0.7-0.7,1.3-1.5,1.9-2.3c0.6-0.8,1.2-1.5,1.9-2.2
		c0.7-0.7,1.4-1.2,2.2-1.7c0.8-0.4,1.8-0.7,2.9-0.7c1.2,0,2.2,0.1,3.1,0.3c0.9,0.2,1.8,0.4,2.6,0.8c0.8,0.3,1.6,0.8,2.5,1.3
		c0.8,0.5,1.7,1.1,2.7,1.8c1.5,0.8,1.8,2,0.8,3.6l-3,5.1c-0.4,0.7-1,1.1-1.6,1.2c-0.6,0.2-1.3,0.1-2.1-0.3c-0.9-0.9-1.9-1.6-2.9-2
		c-1-0.4-2.1-0.7-3.3-0.7c-0.8,0-1.6,0.1-2.2,0.4c-0.6,0.2-1.2,0.6-1.7,1c-0.5,0.4-1,1-1.5,1.6c-0.5,0.6-0.9,1.3-1.4,2v23.6
		c0,0.8-0.2,1.4-0.6,1.9c-0.4,0.4-1.1,0.6-2,0.6h-7.3c-1.7,0-2.5-0.8-2.5-2.5V364.2z"/>
	<path fill="#6911B7" d="M398,375.4c0.1,0,0.2,0,0.5,0c0.7,0,1.4-0.2,2.1-0.6c0.6-0.4,1.1-1,1.4-1.7c0.2-0.2,0.4-0.4,0.4-0.6
		c0.1-0.2,0.1-0.5,0.1-0.7c0.1-0.5,0.3-0.8,0.6-1.1c0.2-0.3,0.5-0.4,0.9-0.4c0.2,0,0.3,0,0.3,0l8.6,1.7c0.4,0,0.7,0.2,1,0.6
		c0.3,0.4,0.4,0.8,0.4,1.2c0,0.2,0,0.3,0,0.4c-0.3,2-1,3.8-1.9,5.4c-0.9,1.6-2.1,3-3.4,4.2c-1.3,1.2-2.8,2.1-4.5,2.7
		c-1.7,0.6-3.4,1-5.2,1c-0.8,0-1.7-0.1-2.5-0.2l-2.5-0.5c-0.2,2.4-0.6,4.5-1.3,6.3c-0.7,1.8-1.6,3.3-2.6,4.5
		c-1.1,1.3-2.3,2.3-3.7,3.1c-1.4,0.8-2.8,1.4-4.4,1.8c-1.6,0.4-3.2,0.7-4.8,0.9c-1.7,0.2-3.3,0.2-5,0.2c-2.8,0-5.4-0.4-7.9-1.3
		c-2.5-0.9-4.7-2.2-6.6-3.8c-1.9-1.6-3.4-3.5-4.5-5.7c-1.1-2.2-1.7-4.6-1.7-7.3c0-1.9,0.2-3.6,0.6-5.1c0.4-1.5,0.9-2.8,1.6-4
		c0.7-1.2,1.5-2.2,2.5-3.1c1-0.9,2-1.8,3.2-2.6c-1.2-1.2-2.1-2.7-2.9-4.4c-0.8-1.7-1.1-3.5-1.1-5.5c0-2.2,0.5-4.3,1.4-6.1
		c0.9-1.9,2.1-3.5,3.6-4.9s3.3-2.5,5.2-3.3c2-0.8,4-1.2,6.2-1.2s4.2,0.3,6.2,0.8c2,0.6,3.7,1.5,5.2,2.7c1.5,1.3,2.7,2.9,3.6,4.9
		c0.9,2,1.3,4.5,1.3,7.4c0,0.6-0.2,1-0.5,1.3c-0.3,0.3-0.8,0.5-1.2,0.5c-1.3,0-2.6,0-4,0c-1.3,0-2.6,0-4,0c-1.1,0-1.7-0.5-1.7-1.5
		c0-0.6-0.1-1.2-0.2-1.7c-0.1-0.5-0.4-1-0.7-1.4c-0.3-0.4-0.8-0.7-1.3-0.9c-0.6-0.2-1.2-0.3-2.1-0.3c-0.9,0-1.7,0.2-2.2,0.5
		c-0.6,0.3-1,0.7-1.3,1.2c-0.3,0.5-0.5,1-0.7,1.5c-0.1,0.6-0.2,1.1-0.2,1.5c0,0.3,0.1,0.7,0.2,1.2c0.1,0.5,0.4,1.1,0.7,1.7
		c0.3,0.6,0.7,1.1,1.3,1.6c0.5,0.5,1.2,0.8,2,1c0.9,0.2,1.3,0.7,1.3,1.5c0,0.2,0,0.3,0,0.4l-1.5,7.2c-0.1,0.5-0.2,0.8-0.5,1
		c-0.3,0.2-0.6,0.3-0.9,0.3c-0.2,0-0.4,0-0.6,0c-0.2,0-0.4,0-0.5,0c-0.8,0-1.5,0.2-2,0.7c-0.5,0.4-0.9,0.9-1.2,1.5
		c-0.3,0.6-0.5,1.2-0.6,1.8s-0.2,1.1-0.2,1.6c0,0.8,0.1,1.6,0.3,2.5c0.2,0.9,0.6,1.8,1.2,2.5c0.6,0.8,1.3,1.4,2.3,2
		c1,0.5,2.2,0.8,3.7,0.8c1,0,2-0.1,2.9-0.4c0.9-0.3,1.7-0.7,2.5-1.3c0.7-0.6,1.3-1.3,1.7-2.1c0.4-0.8,0.7-1.8,0.7-3l-2.3-0.5
		c-0.4-0.1-0.6-0.3-0.9-0.6c-0.2-0.3-0.3-0.6-0.3-1c0-0.2,0-0.3,0-0.4c0.3-1.4,0.5-2.8,0.8-4.2c0.3-1.4,0.6-2.8,0.8-4.3
		c0.1-0.4,0.2-0.7,0.5-1c0.3-0.2,0.6-0.3,0.9-0.3c0.2,0,0.3,0,0.3,0L398,375.4z"/>
	<path fill="#6911B7" d="M431.4,347.8c0-0.9,0.2-1.6,0.6-1.9c0.4-0.4,1-0.6,1.8-0.6h7.6c0.8,0,1.4,0.2,1.8,0.6
		c0.5,0.4,0.7,1,0.7,1.9v6.4c0,0.3-0.1,0.5-0.2,0.8c-0.1,0.3-0.3,0.6-0.5,0.9c-0.2,0.3-0.5,0.5-0.8,0.7c-0.3,0.2-0.7,0.3-1.1,0.3
		h-7.6c-1.6,0-2.4-0.9-2.4-2.7V347.8z M431.4,364.3c0-0.7,0.2-1.3,0.6-1.8s1-0.7,1.8-0.7h7.5c0.3,0,0.5,0.1,0.8,0.2
		c0.3,0.1,0.6,0.3,0.8,0.5c0.3,0.2,0.5,0.5,0.7,0.8c0.2,0.3,0.3,0.7,0.3,1v36.3c0,0.8-0.2,1.4-0.7,1.9s-1.1,0.6-2,0.6h-7.5
		c-1.6,0-2.4-0.8-2.4-2.5V364.3z"/>
	<path fill="#6911B7" d="M450.7,352c0-0.7,0.2-1.3,0.5-1.8c0.3-0.5,0.9-0.7,1.8-0.7h8c0.2,0,0.4,0.1,0.7,0.2
		c0.2,0.1,0.5,0.3,0.7,0.5c0.2,0.2,0.4,0.5,0.5,0.8c0.1,0.3,0.2,0.6,0.2,1v48.7c0,0.8-0.2,1.4-0.7,1.9c-0.5,0.4-1.1,0.6-1.8,0.6H453
		c-0.8,0-1.4-0.2-1.8-0.6c-0.3-0.4-0.5-1-0.5-1.9V352z"/>
	<path fill="#6911B7" d="M469.8,352c0-0.7,0.2-1.3,0.5-1.8c0.3-0.5,0.9-0.7,1.8-0.7h8c0.2,0,0.4,0.1,0.7,0.2
		c0.2,0.1,0.5,0.3,0.7,0.5c0.2,0.2,0.4,0.5,0.5,0.8c0.1,0.3,0.2,0.6,0.2,1v48.7c0,0.8-0.2,1.4-0.7,1.9c-0.5,0.4-1.1,0.6-1.8,0.6
		h-7.6c-0.8,0-1.4-0.2-1.8-0.6c-0.3-0.4-0.5-1-0.5-1.9V352z"/>
	<path fill="#6911B7" d="M527.4,402.6c-0.3,0.2-0.6,0.4-0.9,0.5c-0.3,0.1-0.6,0.1-0.9,0.1h-4.9c-0.4,0-0.7-0.1-1-0.2
		c-0.3-0.1-0.5-0.3-0.7-0.6c-0.2-0.2-0.4-0.5-0.5-0.8c-0.1-0.3-0.2-0.6-0.3-0.9l-1-4.2c-0.3,0.7-0.8,1.4-1.4,2.3
		c-0.6,0.9-1.4,1.7-2.4,2.4c-1,0.7-2.1,1.4-3.4,1.9c-1.3,0.5-2.8,0.8-4.6,0.8c-2.5,0-4.7-0.5-6.7-1.4c-2-1-3.7-2.3-5.2-3.9
		c-1.4-1.7-2.5-3.6-3.3-5.8c-0.8-2.2-1.2-4.6-1.2-7.1v-21.3c0-0.8,0.2-1.5,0.5-1.9c0.4-0.4,0.9-0.6,1.7-0.6h7.5
		c0.9,0,1.6,0.2,1.9,0.5c0.3,0.3,0.5,0.9,0.5,1.8v21.2c0,0.9,0.2,1.8,0.6,2.7c0.4,0.8,1,1.6,1.7,2.2c0.7,0.6,1.5,1.1,2.4,1.5
		c0.9,0.4,1.8,0.6,2.7,0.6c0.8,0,1.6-0.2,2.4-0.6c0.8-0.4,1.6-0.9,2.3-1.5c0.7-0.6,1.3-1.3,1.7-2.2c0.5-0.8,0.7-1.7,0.7-2.7v-21.2
		c0-0.4,0.1-0.7,0.2-1.1c0.1-0.4,0.4-0.7,0.6-0.8c0.3-0.2,0.5-0.3,0.8-0.4c0.2-0.1,0.5-0.1,0.9-0.1h7.4c0.9,0,1.6,0.2,2,0.7
		c0.4,0.5,0.6,1.1,0.6,1.8v36.5c0,0.4-0.1,0.8-0.3,1.1c-0.2,0.3-0.4,0.6-0.8,0.8L527.4,402.6z"/>
	<path fill="#6911B7" d="M541.3,390.3c0.6,0.6,1.2,1.1,1.9,1.5c0.7,0.4,1.3,0.7,2,1c0.6,0.3,1.2,0.4,1.7,0.5c0.5,0.1,0.8,0.2,1,0.2
		c0.4,0,0.9,0,1.6,0c0.6,0,1.3-0.1,1.8-0.3c0.6-0.2,1.1-0.4,1.5-0.8c0.4-0.4,0.6-0.9,0.6-1.6c0-0.6-0.1-1.1-0.4-1.4
		c-0.2-0.4-0.6-0.7-1-0.9c-0.5-0.3-1-0.5-1.7-0.7c-0.7-0.2-1.4-0.4-2.2-0.7c-2.6-0.7-4.8-1.5-6.5-2.5c-1.7-1-3-2.1-4-3.3
		c-1-1.2-1.7-2.5-2.1-3.9c-0.4-1.4-0.6-2.9-0.6-4.4c0-1.8,0.4-3.4,1.1-4.9c0.7-1.5,1.7-2.7,3.1-3.8c1.3-1.1,2.9-1.9,4.8-2.4
		c1.8-0.6,3.9-0.9,6.2-0.9c1.4,0,2.6,0.1,3.8,0.3c1.2,0.2,2.3,0.6,3.4,1.1c1.1,0.5,2.1,1.1,3.2,1.9c1,0.8,2.1,1.7,3.1,2.8
		c0.4,0.4,0.6,0.8,0.6,1.2s-0.2,0.8-0.7,1.2c-0.8,0.7-1.7,1.4-2.4,2.1c-0.8,0.7-1.6,1.4-2.4,2.2c-0.3,0.2-0.5,0.4-0.8,0.4
		s-0.5,0-0.7,0c-0.2-0.1-0.5-0.2-0.7-0.3c-0.2-0.2-0.4-0.3-0.6-0.6c-0.8-0.8-1.6-1.4-2.6-1.7c-1-0.3-1.9-0.4-2.7-0.4
		c-1.1,0-1.9,0.2-2.5,0.6c-0.6,0.4-0.9,0.9-0.9,1.7c0,0.6,0.3,1,0.6,1.3c0.4,0.3,0.8,0.6,1.4,0.8c0.6,0.2,1.1,0.4,1.8,0.5
		c0.6,0.1,1.2,0.3,1.7,0.4c2,0.6,3.7,1.3,5.4,2.1c1.6,0.7,3,1.6,4.2,2.7c1.2,1.1,2.1,2.4,2.8,3.9c0.7,1.5,1,3.3,1,5.5
		c0,2.2-0.4,4.1-1.3,5.8c-0.9,1.7-2,3.1-3.5,4.3c-1.5,1.2-3.3,2-5.3,2.6c-2.1,0.6-4.3,0.9-6.6,0.9c-1.3,0-2.7-0.1-4.1-0.4
		c-1.4-0.2-2.7-0.6-4-1.2c-1.3-0.5-2.5-1.2-3.7-2.1c-1.2-0.8-2.2-1.9-3.1-3c-0.2-0.3-0.4-0.6-0.5-1c-0.1-0.3-0.2-0.7-0.2-1
		c0-0.3,0.1-0.6,0.2-0.9c0.1-0.3,0.3-0.5,0.6-0.7l4.2-4.2c0.5-0.4,1-0.6,1.4-0.5C540.1,389.3,540.6,389.7,541.3,390.3z"/>
	<path fill="#6911B7" d="M574.3,355.3c0-0.7,0.2-1.2,0.7-1.5c0.4-0.3,1.1-0.7,1.9-1l7.4-2.6c0.1,0,0.2,0,0.3,0s0.2,0,0.3,0
		c0.8,0,1.3,0.2,1.6,0.7c0.3,0.5,0.4,1.1,0.4,1.8l0,10.3h5.4c0.7,0,1.3,0.2,1.7,0.6c0.4,0.4,0.7,1,0.7,1.9v6.3c0,0.9-0.2,1.6-0.7,2
		c-0.4,0.4-1,0.6-1.7,0.6h-5.4l0,26.2c0,0.8-0.2,1.4-0.7,1.9c-0.5,0.4-1.1,0.6-2,0.6h-7.4c-1.7,0-2.5-0.8-2.5-2.5l0-26.2h-2.4
		c-1.7,0-2.5-0.9-2.5-2.6v-6.3c0-1.7,0.8-2.5,2.5-2.5h2.4L574.3,355.3z"/>
	<path fill="#6911B7" d="M600.8,364.2c0-0.4,0.1-0.7,0.2-1.1c0.2-0.3,0.4-0.6,0.6-0.8c0.6-0.4,1.2-0.6,1.8-0.6h4.9
		c0.4,0,0.7,0.1,1,0.2c0.2,0.2,0.4,0.3,0.6,0.6c0.2,0.2,0.3,0.5,0.4,0.8c0.1,0.3,0.3,0.6,0.4,0.9c0,0.1,0.1,0.3,0.3,0.6
		c0.1,0.3,0.3,0.7,0.4,1.1c0.2,0.4,0.3,0.8,0.4,1.1c0.1,0.4,0.2,0.6,0.3,0.7c0.7-0.7,1.3-1.5,1.9-2.3c0.6-0.8,1.2-1.5,1.9-2.2
		c0.7-0.7,1.4-1.2,2.2-1.7c0.8-0.4,1.8-0.7,2.9-0.7c1.2,0,2.2,0.1,3.1,0.3c0.9,0.2,1.8,0.4,2.6,0.8s1.6,0.8,2.5,1.3
		c0.8,0.5,1.7,1.1,2.7,1.8c1.5,0.8,1.8,2,0.8,3.6l-3,5.1c-0.4,0.7-1,1.1-1.6,1.2c-0.6,0.2-1.3,0.1-2.1-0.3c-0.9-0.9-1.9-1.6-2.9-2
		c-1-0.4-2.1-0.7-3.3-0.7c-0.8,0-1.6,0.1-2.2,0.4c-0.6,0.2-1.2,0.6-1.7,1c-0.5,0.4-1,1-1.5,1.6c-0.5,0.6-0.9,1.3-1.4,2v23.6
		c0,0.8-0.2,1.4-0.6,1.9c-0.4,0.4-1.1,0.6-2,0.6h-7.3c-1.7,0-2.5-0.8-2.5-2.5V364.2z"/>
	<path fill="#6911B7" d="M677.7,400.8c0,0.4-0.1,0.7-0.2,1.1c-0.1,0.3-0.3,0.6-0.7,0.8c-0.2,0.2-0.5,0.4-0.8,0.5
		c-0.3,0.1-0.6,0.1-0.8,0.1h-6.4c-0.5,0-0.8-0.1-1.1-0.2c-0.3-0.1-0.5-0.3-0.7-0.5c-0.2-0.2-0.3-0.5-0.4-0.8c-0.1-0.3-0.2-0.7-0.4-1
		l-0.9-2.4c-0.6,0.6-1.2,1.2-1.9,1.9c-0.7,0.7-1.5,1.3-2.3,1.8c-0.8,0.6-1.7,1-2.7,1.4c-1,0.4-2,0.6-3.1,0.6c-2,0-3.9-0.3-5.7-0.7
		c-1.8-0.5-3.5-1.2-5.1-2.1c-1.6-0.9-3-2-4.3-3.3c-1.3-1.3-2.4-2.7-3.3-4.3c-0.9-1.6-1.6-3.3-2.1-5.1c-0.5-1.8-0.7-3.8-0.7-5.8
		c0-3,0.6-5.8,1.7-8.4c1.1-2.6,2.6-4.9,4.5-6.8c1.9-1.9,4.2-3.4,6.7-4.5c2.6-1.1,5.4-1.6,8.3-1.6c1.3,0,2.6,0.2,3.7,0.6
		c1.1,0.4,2.2,0.9,3.1,1.6c0.9,0.7,1.8,1.4,2.5,2.2c0.7,0.8,1.4,1.7,2,2.5l1.3-3.9c0.2-0.5,0.4-1,0.5-1.3s0.3-0.6,0.5-0.7
		c0.2-0.2,0.4-0.3,0.6-0.3c0.2-0.1,0.6-0.1,1-0.1h4.9c0.2,0,0.5,0,0.8,0.1c0.3,0.1,0.6,0.2,0.8,0.5c0.3,0.2,0.5,0.5,0.7,0.8
		c0.1,0.3,0.2,0.7,0.2,1V400.8z M645.6,382.5c0,1.4,0.2,2.8,0.7,4c0.4,1.2,1.1,2.3,1.9,3.2c0.8,0.9,1.8,1.6,3,2.2
		c1.2,0.5,2.4,0.8,3.9,0.8c1.5,0,2.8-0.3,4.1-0.8c1.2-0.5,2.3-1.3,3.3-2.2c0.9-0.9,1.6-2,2.2-3.2c0.5-1.2,0.8-2.6,0.8-4
		c0-1.4-0.3-2.7-0.8-4c-0.5-1.3-1.2-2.4-2.2-3.3c-0.9-1-2-1.7-3.3-2.3c-1.2-0.6-2.6-0.8-4.1-0.8c-1.4,0-2.7,0.3-3.9,0.8
		c-1.2,0.6-2.2,1.3-3,2.3c-0.8,1-1.5,2.1-1.9,3.3C645.9,379.8,645.6,381.1,645.6,382.5z"/>
	<path fill="#6911B7" d="M688.1,355.3c0-0.7,0.2-1.2,0.7-1.5c0.4-0.3,1.1-0.7,1.9-1l7.4-2.6c0.1,0,0.2,0,0.3,0s0.2,0,0.3,0
		c0.8,0,1.3,0.2,1.6,0.7c0.3,0.5,0.4,1.1,0.4,1.8l0,10.3h5.4c0.7,0,1.3,0.2,1.7,0.6c0.4,0.4,0.7,1,0.7,1.9v6.3c0,0.9-0.2,1.6-0.7,2
		c-0.4,0.4-1,0.6-1.7,0.6h-5.4l0,26.2c0,0.8-0.2,1.4-0.7,1.9c-0.5,0.4-1.1,0.6-2,0.6h-7.4c-1.7,0-2.5-0.8-2.5-2.5l0-26.2h-2.4
		c-1.7,0-2.5-0.9-2.5-2.6v-6.3c0-1.7,0.8-2.5,2.5-2.5h2.4L688.1,355.3z"/>
	<path fill="#6911B7" d="M711.3,382.5c0-2,0.3-3.9,0.8-5.8c0.5-1.8,1.2-3.6,2.2-5.1c0.9-1.6,2-3,3.3-4.3c1.3-1.3,2.7-2.4,4.3-3.3
		c1.6-0.9,3.3-1.6,5.1-2.1c1.8-0.5,3.8-0.7,5.8-0.7c3,0,5.7,0.5,8.3,1.6c2.6,1.1,4.9,2.6,6.8,4.5c1.9,1.9,3.4,4.2,4.6,6.8
		c1.1,2.6,1.7,5.4,1.7,8.4c0,2-0.3,3.9-0.8,5.8c-0.5,1.8-1.2,3.5-2.2,5.1c-0.9,1.6-2,3-3.3,4.3c-1.3,1.3-2.7,2.4-4.3,3.3
		s-3.3,1.6-5.1,2.1c-1.8,0.5-3.7,0.7-5.7,0.7c-2,0-3.9-0.3-5.8-0.7c-1.8-0.5-3.5-1.2-5.1-2.1c-1.6-0.9-3-2-4.3-3.3
		c-1.3-1.3-2.4-2.7-3.3-4.3c-0.9-1.6-1.6-3.3-2.2-5.1C711.5,386.4,711.3,384.5,711.3,382.5z M723.2,382.5c0,1.4,0.2,2.8,0.7,4
		c0.4,1.2,1.1,2.3,1.9,3.2c0.8,0.9,1.8,1.6,3,2.2c1.2,0.5,2.5,0.8,3.9,0.8c1.4,0,2.7-0.3,3.8-0.8c1.1-0.5,2.1-1.3,2.9-2.2
		c0.8-0.9,1.4-2,1.8-3.2c0.4-1.2,0.6-2.6,0.6-4c0-1.4-0.2-2.7-0.6-4c-0.4-1.3-1-2.4-1.8-3.3c-0.8-1-1.8-1.7-2.9-2.3
		c-1.1-0.6-2.4-0.8-3.8-0.8c-1.5,0-2.8,0.3-3.9,0.8c-1.2,0.6-2.2,1.3-3,2.3c-0.8,1-1.4,2.1-1.9,3.3
		C723.4,379.8,723.2,381.1,723.2,382.5z"/>
	<path fill="#6911B7" d="M759.5,364.2c0-0.4,0.1-0.7,0.2-1.1c0.2-0.3,0.4-0.6,0.6-0.8c0.6-0.4,1.2-0.6,1.8-0.6h4.9
		c0.4,0,0.7,0.1,1,0.2c0.2,0.2,0.4,0.3,0.6,0.6c0.2,0.2,0.3,0.5,0.4,0.8c0.1,0.3,0.3,0.6,0.4,0.9c0,0.1,0.1,0.3,0.3,0.6
		c0.1,0.3,0.3,0.7,0.4,1.1c0.2,0.4,0.3,0.8,0.4,1.1c0.1,0.4,0.2,0.6,0.3,0.7c0.7-0.7,1.3-1.5,1.9-2.3c0.6-0.8,1.2-1.5,1.9-2.2
		c0.7-0.7,1.4-1.2,2.2-1.7c0.8-0.4,1.8-0.7,2.9-0.7c1.2,0,2.2,0.1,3.1,0.3c0.9,0.2,1.8,0.4,2.6,0.8c0.8,0.3,1.6,0.8,2.5,1.3
		c0.8,0.5,1.7,1.1,2.7,1.8c1.5,0.8,1.8,2,0.8,3.6l-3,5.1c-0.4,0.7-1,1.1-1.6,1.2c-0.6,0.2-1.3,0.1-2.1-0.3c-0.9-0.9-1.9-1.6-2.9-2
		c-1-0.4-2.1-0.7-3.3-0.7c-0.8,0-1.6,0.1-2.2,0.4c-0.6,0.2-1.2,0.6-1.7,1c-0.5,0.4-1,1-1.5,1.6c-0.5,0.6-0.9,1.3-1.4,2v23.6
		c0,0.8-0.2,1.4-0.6,1.9c-0.4,0.4-1.1,0.6-2,0.6H762c-1.7,0-2.5-0.8-2.5-2.5V364.2z"/>
</g>
</svg>
